<?xml version="1.0" encoding="utf-8"?>
<!-- Generator: Adobe Illustrator 23.0.6, SVG Export Plug-In . SVG Version: 6.00 Build 0)  -->
<svg version="1.1" id="Layer_1" xmlns="http://www.w3.org/2000/svg" xmlns:xlink="http://www.w3.org/1999/xlink" x="0px" y="0px"
	 viewBox="0 0 200 200" style="enable-background:new 0 0 200 200;" xml:space="preserve">
<style type="text/css">
	.st0{fill-rule:evenodd;clip-rule:evenodd;fill:#FFEF00;}
	.st1{fill:#FFEF00;}
	.st2{fill-rule:evenodd;clip-rule:evenodd;fill:#FFFFFF;}
</style>
<path class="st0" d="M100,158c-45.2,0-82-26-82-58c0-32,36.8-58,82-58c45.2,0,82,26,82,58C182,132,145.2,158,100,158z"/>
<path d="M21.6,111c7.3,25.7,39.6,45,78.4,45c38.8,0,71.1-19.3,78.4-45H21.6z"/>
<path class="st1" d="M52.9,124.5l-0.7,1.5c-0.1,0.2-0.2,0.4-0.2,0.6c0,0.4,0,0.4,0.2,0.8h-3.1c0.7-0.8,0.9-1.1,1.3-2l4-8.3l-0.5-0.6
	h5l3.9,9.4c0.2,0.6,0.6,1.1,1,1.5h-5.5c0.2-0.4,0.2-0.5,0.2-0.7c0-0.3-0.1-0.6-0.2-0.8l-0.6-1.4H52.9z M57,122.7l-1.6-3.7l-1.7,3.7
	H57z"/>
<path class="st1" d="M64.4,118.4c0-1-0.1-1.4-0.3-1.9h8.6c2.3,0,3.2,0.9,3.2,3.1v4.7c0,2.2-0.8,3.1-3.2,3.1h-8.6
	c0.2-0.4,0.3-0.8,0.3-1.9V118.4z M68.6,125.6h2.2c0.7,0,0.8-0.2,0.8-0.9v-5.5c0-0.7-0.1-0.9-0.8-0.9h-2.2V125.6z"/>
<path class="st1" d="M80.6,127.4l-3.6-9.8c-0.2-0.4-0.4-0.7-0.7-1h5.2c-0.1,0.2-0.1,0.4-0.1,0.6c0,0.5,0.1,0.9,0.3,1.4l2.4,6.5
	l2.6-6.5c0.2-0.5,0.3-0.9,0.3-1.4c0-0.2,0-0.4-0.1-0.6h2.8c-0.3,0.4-0.7,0.9-1.1,2l-3.5,8.9H80.6z"/>
<path class="st1" d="M92.5,124.5l-0.7,1.5c-0.1,0.2-0.2,0.4-0.2,0.6c0,0.4,0,0.4,0.2,0.8h-3.1c0.7-0.8,0.9-1.1,1.3-2l4-8.3l-0.5-0.6
	h5l3.9,9.4c0.2,0.6,0.6,1.1,1,1.5h-5.5c0.2-0.4,0.2-0.5,0.2-0.7c0-0.3-0.1-0.6-0.2-0.8l-0.6-1.4H92.5z M96.6,122.7l-1.6-3.7
	l-1.7,3.7H96.6z"/>
<path class="st1" d="M105.9,118.4L105.9,118.4l0,7c0,1.2,0.1,1.4,0.4,1.9h-2.7c0.4-0.5,0.4-0.7,0.4-1.9v-6.9c0-1.2-0.1-1.4-0.4-1.9
	h5.9l4.5,8.8h0.1v-6.9c0-1.2-0.1-1.4-0.4-1.9h2.7c-0.4,0.5-0.4,0.7-0.4,1.9v8.9h-5.4L105.9,118.4z"/>
<path class="st1" d="M127.3,118.6c-0.5-0.2-0.9-0.3-1.7-0.3h-3c-0.6,0-0.8,0.2-0.8,0.7v5.9c0,0.5,0.3,0.7,0.8,0.7h2.4
	c1.7,0,2-0.1,2.5-0.4l-0.4,2.2h-6.8c-1.8,0-2.8-0.8-2.8-3.2v-4.5c0-2.3,1-3.2,2.8-3.2h6.6L127.3,118.6z"/>
<path class="st1" d="M136.5,125.6c1,0,1.5-0.2,1.9-0.3l-0.4,2.1h-9.7c0.2-0.4,0.3-0.8,0.3-1.9v-7.1c0-1-0.1-1.4-0.3-1.9h9.5l0.3,2.1
	c-0.4-0.1-0.9-0.3-1.9-0.3h-3.4v2.5h3c1,0,1.4-0.2,1.9-0.3v2.4c-0.4-0.1-0.9-0.3-1.9-0.3h-3v2.9H136.5z"/>
<path class="st1" d="M139.5,118.4c0-1-0.1-1.4-0.3-1.9h8.6c2.3,0,3.2,0.9,3.2,3.1v4.7c0,2.2-0.8,3.1-3.2,3.1h-8.6
	c0.2-0.4,0.3-0.8,0.3-1.9V118.4z M143.7,125.6h2.2c0.7,0,0.8-0.2,0.8-0.9v-5.5c0-0.7-0.1-0.9-0.8-0.9h-2.2V125.6z"/>
<path class="st1" d="M60.4,138.7c1,0,1.5-0.2,1.9-0.3l-0.4,2.1h-9.7c0.2-0.4,0.3-0.8,0.3-1.9v-7.1c0-1-0.1-1.4-0.3-1.9h9.5l0.3,2.1
	c-0.5-0.1-0.9-0.3-1.9-0.3h-3.4v2.5h3c1,0,1.4-0.2,1.9-0.3v2.4c-0.4-0.1-0.9-0.3-1.9-0.3h-3v2.9H60.4z"/>
<path class="st1" d="M71.3,138.7c0.5,0,1.3-0.1,1.8-0.4l-0.4,2.2h-9.5c0.2-0.4,0.3-0.8,0.3-1.9v-7.1c0-1-0.1-1.4-0.3-1.9h4.9
	c-0.2,0.4-0.3,0.8-0.3,1.9v7.2H71.3z"/>
<path class="st1" d="M81.8,138.7c1,0,1.5-0.2,1.9-0.3l-0.4,2.1h-9.7c0.2-0.4,0.3-0.8,0.3-1.9v-7.1c0-1-0.1-1.4-0.3-1.9h9.6l0.3,2.1
	c-0.4-0.1-0.9-0.3-1.9-0.3h-3.4v2.5h3c1,0,1.4-0.2,1.9-0.3v2.4c-0.4-0.1-0.9-0.3-1.9-0.3h-3v2.9H81.8z"/>
<path class="st1" d="M94.5,129.6h5.6c-0.2,0.4-0.4,0.8-0.4,1.9v7.1c0,1,0.1,1.4,0.4,1.9h-4.9c0.2-0.4,0.3-0.8,0.3-1.9v-6.7h0
	l-3.1,8.5h-2.9l-3-8.5h0v6.6c0,1.2,0.1,1.4,0.4,1.9h-2.7c0.4-0.5,0.4-0.7,0.4-1.9v-6.9c0-1.2-0.1-1.4-0.4-1.9h5.8l2.1,6.2h0
	L94.5,129.6z"/>
<path class="st1" d="M109.5,138.7c1,0,1.5-0.2,1.9-0.3l-0.4,2.1h-9.7c0.2-0.4,0.3-0.8,0.3-1.9v-7.1c0-1-0.1-1.4-0.3-1.9h9.6l0.3,2.1
	c-0.4-0.1-0.9-0.3-1.9-0.3h-3.4v2.5h3c1,0,1.4-0.2,1.9-0.3v2.4c-0.4-0.1-0.9-0.3-1.9-0.3h-3v2.9H109.5z"/>
<path class="st1" d="M114.4,131.5L114.4,131.5l0,7c0,1.2,0.1,1.4,0.4,1.9h-2.7c0.4-0.5,0.4-0.7,0.4-1.9v-6.9c0-1.2-0.1-1.4-0.4-1.9
	h5.9l4.5,8.8h0.1v-6.9c0-1.2-0.1-1.4-0.4-1.9h2.7c-0.4,0.5-0.4,0.7-0.4,1.9v8.9h-5.4L114.4,131.5z"/>
<path class="st1" d="M136.1,129.6l0.3,2.2c-0.5-0.3-0.8-0.4-1.6-0.4H133v7.2c0,1,0.1,1.4,0.3,1.9h-4.9c0.2-0.4,0.3-0.8,0.3-1.9v-7.2
	h-1.9c-0.8,0-1.1,0.2-1.6,0.4l0.3-2.2H136.1z"/>
<path class="st1" d="M147.7,131.8c-0.5-0.2-0.9-0.4-1.7-0.4h-3.9c-0.7,0-0.8,0.1-0.8,0.5v0.6c0,0.4,0.2,0.5,0.8,0.5h3
	c1.8,0,2.8,0.6,2.8,2.2v2.6c0,1.7-0.6,2.7-2.6,2.7h-7.6l-0.4-2.2c0.4,0.2,0.8,0.4,1.7,0.4h4.1c0.7,0,0.8-0.1,0.8-0.5v-0.7
	c0-0.4-0.1-0.5-0.8-0.5h-3.4c-1.7,0-2.3-0.5-2.3-2.4v-2.4c0-1.7,0.8-2.6,2.3-2.6h7.8L147.7,131.8z"/>
<g>
	<path class="st1" d="M151.4,132.8c-0.1,0-0.3,0-0.4,0c-0.1,0-0.3-0.1-0.4-0.1c-0.1-0.1-0.2-0.1-0.3-0.2c-0.1-0.1-0.2-0.2-0.3-0.2
		c-0.1-0.1-0.2-0.2-0.2-0.3c-0.1-0.1-0.1-0.2-0.2-0.3c-0.1-0.1-0.1-0.2-0.1-0.4c0-0.1,0-0.3,0-0.4c0-0.1,0-0.3,0-0.4
		c0-0.1,0.1-0.3,0.1-0.4c0.1-0.1,0.1-0.2,0.2-0.3c0.1-0.1,0.2-0.2,0.2-0.3c0.1-0.1,0.2-0.2,0.3-0.2c0.1-0.1,0.2-0.1,0.3-0.2
		c0.1-0.1,0.2-0.1,0.4-0.1c0.1,0,0.3,0,0.4,0c0.1,0,0.3,0,0.4,0c0.1,0,0.3,0.1,0.4,0.1c0.1,0,0.2,0.1,0.3,0.2
		c0.1,0.1,0.2,0.2,0.3,0.2c0.1,0.1,0.2,0.2,0.2,0.3c0.1,0.1,0.1,0.2,0.2,0.3c0.1,0.1,0.1,0.2,0.1,0.4c0,0.1,0,0.3,0,0.4
		c0,0.1,0,0.3,0,0.4c0,0.1-0.1,0.3-0.1,0.4c-0.1,0.1-0.1,0.2-0.2,0.3c-0.1,0.1-0.2,0.2-0.2,0.3c-0.1,0.1-0.2,0.2-0.3,0.2
		c-0.1,0.1-0.2,0.1-0.3,0.2c-0.1,0-0.2,0.1-0.4,0.1C151.7,132.8,151.5,132.8,151.4,132.8z M151.4,132.2c0.1,0,0.2,0,0.3,0
		c0.1,0,0.2,0,0.3-0.1c0.1,0,0.2-0.1,0.2-0.1s0.1-0.1,0.2-0.2c0.1-0.1,0.1-0.1,0.2-0.2c0.1-0.1,0.1-0.2,0.1-0.2
		c0-0.1,0.1-0.2,0.1-0.3c0-0.1,0-0.2,0-0.3s0-0.2,0-0.3s0-0.2-0.1-0.3c0-0.1-0.1-0.2-0.1-0.2c-0.1-0.1-0.1-0.1-0.2-0.2
		c-0.1-0.1-0.1-0.1-0.2-0.2s-0.2-0.1-0.2-0.1c-0.1,0-0.2-0.1-0.3-0.1c-0.1,0-0.2,0-0.3,0c-0.1,0-0.2,0-0.3,0c-0.1,0-0.2,0-0.3,0.1
		c-0.1,0-0.2,0.1-0.2,0.1s-0.1,0.1-0.2,0.2c-0.1,0.1-0.1,0.1-0.2,0.2c-0.1,0.1-0.1,0.2-0.1,0.2c0,0.1-0.1,0.2-0.1,0.3s0,0.2,0,0.3
		s0,0.2,0,0.3c0,0.1,0,0.2,0.1,0.3c0,0.1,0.1,0.2,0.1,0.2c0.1,0.1,0.1,0.1,0.2,0.2c0.1,0.1,0.1,0.1,0.2,0.2s0.2,0.1,0.2,0.1
		c0.1,0,0.2,0.1,0.3,0.1C151.2,132.2,151.3,132.2,151.4,132.2z M150.5,129.8h1.3c0.1,0,0.1,0,0.2,0c0,0,0.1,0,0.1,0.1
		c0,0,0.1,0.1,0.1,0.1c0,0,0,0,0,0.1c0,0,0,0.1,0,0.1v0.4c0,0,0,0,0,0.1c0,0,0,0,0,0.1c0,0,0,0,0,0.1c0,0,0,0,0,0c0,0,0,0,0,0
		c0,0,0,0,0,0c0,0,0,0-0.1,0c0,0,0,0-0.1,0l0.3,0.9h-0.7l-0.3-0.9h-0.2v0.9h-0.6V129.8z M151.1,130.1v0.5h0.4c0,0,0,0,0.1,0
		c0,0,0,0,0,0c0,0,0,0,0,0v-0.3c0,0,0,0,0,0c0,0,0,0,0,0c0,0,0,0,0,0c0,0,0,0,0,0H151.1z"/>
</g>
<g>
	<path d="M100.5,93.8l5.4-4.9l-3.2-18.4l-2.2-1.7l1.7-1.2L100,54.8l-2.2,12.8l1.7,1.2l-2.2,1.7L94.1,89l5.4,4.9l-7.4,6.9l-1.6,9.3
		h19l-1.6-9.3L100.5,93.8z M98.9,67.2l1.1-6.4l1.1,6.4L100,68L98.9,67.2z"/>
	<path d="M171.5,75c-12.9-6.3-28.6-10-45.5-10c-6.2,0-12.1,0.5-17.9,1.4L100,46.2L90.1,71c-21.6,7.6-37.6,21.9-42.5,39h28L100,48.8
		l24.5,61.2h54.2c0.8-3.2,1.3-6.6,1.3-10C180,91,176.9,82.5,171.5,75z"/>
</g>
<path class="st2" d="M108.1,66.4c5.8-0.9,11.7-1.4,17.9-1.4c16.3,0,31.5,3.5,44.2,9.4C156.8,67.2,140.1,63,122,63
	c-5.1,0-10,0.4-14.9,1L108.1,66.4z"/>
<polygon class="st2" points="106.1,64.1 124.5,110 106.1,64.1 "/>
<g>
	<polygon class="st2" points="101.7,64.8 102.2,67.6 101.7,64.8 	"/>
	<path class="st2" d="M101.1,67.2l-0.4-2.2c-0.5,0.1-1,0.2-1.5,0.3l-0.3,1.9L100,68L101.1,67.2z"/>
</g>
<g>
	<path class="st2" d="M90.1,71l1.5-3.8C66.3,74.5,47.5,90.6,43,110h4.5C52.4,92.9,68.5,78.6,90.1,71z"/>
	<polygon class="st2" points="92.8,66.9 75.5,110 92.8,66.9 	"/>
</g>
</svg>
