<?xml version="1.0" encoding="utf-8"?>
<!-- Generator: Adobe Illustrator 23.0.6, SVG Export Plug-In . SVG Version: 6.00 Build 0)  -->
<svg version="1.1" id="Layer_1" xmlns="http://www.w3.org/2000/svg" xmlns:xlink="http://www.w3.org/1999/xlink" x="0px" y="0px"
	 viewBox="0 0 200 200" style="enable-background:new 0 0 200 200;" xml:space="preserve">
<style type="text/css">
	.st0{fill:#C40D3C;}
	.st1{fill:#231F20;}
	.st2{fill-rule:evenodd;clip-rule:evenodd;fill:#C40D3C;}
</style>
<path class="st0" d="M24.1,150L20,162.1h1.9l1.2-3.7h3.9l1.3,3.7h2L26.2,150H24.1z M25.6,153.7l1.1,3.2h-3.1l1.1-3.2
	c0.2-0.5,0.3-1,0.4-1.6C25.2,152.6,25.4,153.2,25.6,153.7z"/>
<path class="st0" d="M37.2,155.6c1.1-0.5,1.7-1.5,1.7-2.6c0-0.9-0.4-1.7-1.1-2.2c-0.7-0.6-1.8-0.9-3.3-0.9c-1,0-2.1,0.1-2.8,0.3
	l-0.1,0v11.8l0.1,0c0.4,0.1,1.2,0.1,2.4,0.1c2,0,3.3-0.4,4.2-1.1c0.7-0.7,1.1-1.5,1.1-2.5C39.4,157,38.3,156,37.2,155.6z M33.5,155
	v-3.5c0.3,0,0.7-0.1,1.2-0.1c1.6,0,2.4,0.6,2.4,1.7c0,1.1-0.9,1.8-2.4,1.8H33.5z M34.6,160.7c-0.5,0-0.8,0-1.1,0v-4.2h1.1
	c0.7,0,2.9,0.2,2.9,2.1C37.4,160.4,35.7,160.7,34.6,160.7z"/>
<path class="st0" d="M44.8,155.1c-1.7-0.7-2.2-1.2-2.2-2.1c0-0.8,0.6-1.6,2-1.6c1.2,0,1.9,0.4,2.1,0.5l0.2,0.1l0.5-1.6l-0.1-0.1
	c-0.3-0.2-1.2-0.6-2.7-0.6c-2.3,0-4,1.4-4,3.4c0,1.6,1.1,2.7,3.2,3.5c1.5,0.6,2.1,1.2,2.1,2.2c0,1.1-0.9,1.8-2.3,1.8
	c-0.9,0-1.9-0.3-2.6-0.7l-0.2-0.1l-0.5,1.6l0.1,0.1c0.7,0.5,2,0.8,3.1,0.8c3.2,0,4.3-1.9,4.3-3.6C47.9,157,47,156,44.8,155.1z"/>
<path class="st0" d="M54.6,149.8c-3.3,0-5.6,2.6-5.6,6.3c0,3.6,2.2,6.1,5.5,6.1h0c2.8,0,5.6-2,5.6-6.4
	C60.1,152.3,57.9,149.8,54.6,149.8z M54.5,151.4c2.5,0,3.6,2.4,3.6,4.6c0,2.3-1.1,4.7-3.6,4.7c-2.3,0-3.6-2.3-3.6-4.6
	C50.9,153.8,52,151.4,54.5,151.4z"/>
<polygon class="st0" points="63.6,150 61.7,150 61.7,162.1 68.6,162.1 68.6,160.5 63.6,160.5 "/>
<path class="st0" d="M76.4,157.2c0,2.3-0.9,3.6-2.7,3.6c-1.7,0-2.6-1.3-2.6-3.6V150h-1.9v7.1c0,3.4,1.6,5.2,4.4,5.2
	c1.7,0,4.6-0.7,4.6-5.2v-7h-1.9V157.2z"/>
<polygon class="st0" points="79.7,151.7 83.3,151.7 83.3,162.1 85.2,162.1 85.2,151.7 88.8,151.7 88.8,150 79.7,150 "/>
<polygon class="st0" points="91.9,160.5 91.9,156.6 96.5,156.6 96.5,155 91.9,155 91.9,151.6 96.8,151.6 96.8,150 90.1,150 
	90.1,162.1 97,162.1 97,160.5 "/>
<path d="M108.6,149.8c-3.3,0-5.6,2.6-5.6,6.3c0,3.6,2.2,6.1,5.5,6.1h0c2.8,0,5.6-2,5.6-6.4C114.1,152.3,111.9,149.8,108.6,149.8z
	 M108.6,151.4c2.5,0,3.6,2.4,3.6,4.6c0,2.3-1.1,4.7-3.6,4.7c-2.3,0-3.6-2.3-3.6-4.6C105,153.8,106.1,151.4,108.6,151.4z"/>
<path d="M122.9,150v7.1c0,2.3-0.9,3.6-2.7,3.6c-1.7,0-2.6-1.3-2.6-3.6V150h-1.9v7.1c0,3.4,1.6,5.2,4.4,5.2c1.7,0,4.6-0.7,4.6-5.2v-7
	H122.9z"/>
<polygon points="126.1,150 126.1,151.7 129.7,151.7 129.7,162.1 131.6,162.1 131.6,151.7 135.2,151.7 135.2,150 "/>
<path d="M145,151.4c-1.1-1-2.7-1.5-4.9-1.5c-1.1,0-2.2,0.1-3.3,0.2l-0.1,0v11.9l0.1,0c0.7,0.1,1.6,0.1,2.8,0.1
	c2.3,0,4.2-0.6,5.3-1.7c1.1-1.1,1.7-2.8,1.7-4.7C146.7,153.9,146.1,152.5,145,151.4z M144.7,155.8c0,3.1-1.7,4.8-4.8,4.8
	c-0.5,0-1,0-1.4,0v-9c0.3-0.1,0.9-0.1,1.6-0.1c1.5,0,2.7,0.4,3.5,1.2C144.4,153.4,144.7,154.5,144.7,155.8z"/>
<path d="M153.2,149.8c-3.3,0-5.6,2.6-5.6,6.3c0,3.6,2.2,6.1,5.5,6.1h0c2.8,0,5.6-2,5.6-6.4C158.7,152.3,156.5,149.8,153.2,149.8z
	 M153.1,151.4c2.5,0,3.6,2.4,3.6,4.6c0,2.3-1.1,4.7-3.6,4.7c-2.3,0-3.6-2.3-3.6-4.6C149.5,153.8,150.6,151.4,153.1,151.4z"/>
<path d="M165.2,149.8c-3.3,0-5.6,2.6-5.6,6.3c0,3.6,2.2,6.1,5.5,6.1h0c2.8,0,5.6-2,5.6-6.4C170.7,152.3,168.5,149.8,165.2,149.8z
	 M165.2,151.4c2.5,0,3.6,2.4,3.6,4.6c0,2.3-1.1,4.7-3.6,4.7c-2.3,0-3.6-2.3-3.6-4.6C161.5,153.8,162.7,151.4,165.2,151.4z"/>
<path d="M179.9,161.9c-0.2-0.5-0.5-1.7-0.9-3.2c-0.3-1.2-0.8-2-1.5-2.3c1.3-0.6,2-1.7,2-3c0-1-0.4-1.8-1-2.4c-0.8-0.7-1.9-1-3.5-1
	c-1,0-2.2,0.1-2.9,0.3l-0.1,0v11.9h1.9V157h1.3c1.3,0,1.9,0.6,2.2,2.1c0.4,1.7,0.6,2.5,0.8,2.9l0,0.1h1.9L179.9,161.9z M177.6,153.5
	c0,1.3-1,2.1-2.5,2.1h-1.4v-4c0.2,0,0.6-0.1,1.3-0.1C176.2,151.5,177.6,151.8,177.6,153.5z"/>
<path class="st1" d="M167.9,64.9c-0.5-1.3-1.4-0.9-1.9-0.8c-0.5,0.1-0.9-0.3-1-0.5c-0.1-0.2,0.1-1.1-0.6-2.4
	c-0.7-1.3-4.7-2.4-6.1-2.7c-1.5-0.3-2.2-0.5-3.1-0.5c-1,0-1,0.2-1.2,0.2c-0.2,0-0.8-0.1-0.8-0.4c0-0.3,0.3-0.6,1.7-0.4
	c1.3,0.2,1.8-0.2,1.8-0.4c0.1-0.2,0.3-0.7,0.1-1.7c-0.2-0.9-0.8-1.4-0.8-1.4s-0.4-0.5-2.4-1.2c-1.9-0.6-2.9-0.7-3.3-0.8
	c-0.5-0.1-5.7-1.7-9.3-1.2c-3.6,0.5-3.4,1-5.4,1.6c-2,0.7-4.7,0.9-4.7,0.9s-5.5,0.6-9.8,1.2c-4.2,0.7-6,1.4-6.9,1.5
	c-0.9,0.1-1.3,0.1-2.5,0.5c-1.2,0.4-3.1,1.9-3.1,1.9s-1.6,1.1-2,1.8c-0.4,0.6-0.2,0.9-0.2,1.3c-0.1,0.4-0.3,1.1-2.1,1.5
	c-1.3,0.4-8.9,6.1-10.6,7.1c-1.7,1-2.2,1.8-2.6,2.2c-0.4,0.4-0.5,1.3-2.3,1.8c-1.8,0.5-2.8,1.4-2.8,1.4s-1.9,1.9-4.2,3
	c-1.1,0.8-1.6,1.8-1.7,2.5c-0.1,0.8-2.3,4-3.2,4.7c-0.9,0.7-3.2,2.3-3.2,2.3s-1,0.5-1.7,1.7c-0.7,1.3-2.6,3.7-2.6,3.7
	S68,94.6,67,95.7c-1,1.1-1.8,3-1.8,3s-0.1,0.7-1.4,3.4c-1.3,2.7-3.8,6.5-3.8,6.5s-0.5,1-1.2,1.4c-0.7,0.4-1.2,0.2-2.1,0.7
	c-0.2,0.1-1.7,1.4-1.8,4.3c-0.2,2.9,0.1,4.5,0.1,4.5s0.3,1.6-0.2,3.5c-0.5,1.9-1,2.1-1.2,3.3c-0.2,1.1,1.2,4.6,2.9,5.6
	c0.6,0.2,1.3,0.2,1.8,0.5c0.6,0.3,1.8,1.4,4,2.9c2.2,1.5,5.3,2.6,8.4,2.9c3.1,0.3,8.4-0.1,10.2-0.6c1.8-0.5,1.9-1.2,3.5-1.6
	c0.3-0.1,2.7-0.3,6.3-1.1c3.6-0.7,9.6-3.1,11.2-4.3c0.6-0.5,1-1.4,2.8-2s6.1-2.1,8.5-3.1c2.4-1,2.9-1.4,5-2.6
	c2.1-1.2,7.5-5.8,9.3-6.8c1.8-1,8.2-3.3,9.3-4.3c1.1-1,2.4-2,3.2-3.2c0.9-1.2,8.7-8.4,10.4-10.3c1.7-1.9,2.9-3.4,2.9-3.8
	c0.1-0.5-0.4-0.2-0.8-0.4c-0.3-0.2,0.4-1.9,0.4-1.9s0.6-1.3,1.4-2.1c0.9-0.7,1.5-1.4,1.6-1.6c0.1-0.2,0.2-1.2,0.8-1.3
	c2-1,1.6-0.6,2.6-0.6c1-0.1,2.2-1.7,2.8-2.5c0.5-0.8,0.7-1.5,0.7-2.1s2.3-4.8,2.5-6.5c0.3-1.7,1-4.2,1.6-6.1
	C167.7,67.2,168.3,66,167.9,64.9z M150.3,78.2c0.2,2.2-1.7,3.2-2.3,4.9c-0.6,1.7-3.5,0.9-6,3.5c-2.5,2.7-2.3,4-4.5,8.4
	c-2.1,4.4-4.3,6.7-10.8,10.3c-6.5,3.6-6.8,3-7.9,3.1c-0.8,0.1,0,0.5-4.3,2.5c-4.3,2-2.6,1.9-8,4.1c-5.4,2.2-7.1,3-8.5,3.8
	c-1.5,0.8-4.9-0.2-7.2,1.2c-2.3,1.4-8.7,2.9-13.7,2.4c-5-0.5-2.5-0.7-4.4-2.9c-1.9-2.2-2.6-5.1-2.3-10c0.3-4.9,1-7.2,2.8-7.5
	c1-0.1,3.5-2.8,5.6-5.8c2.1-3,7.3-9.1,10.2-11.2c2.9-2.1,5.4-2,7.5-3c2.2-1,2.4-1.6,4.9-3.5c2.5-1.9,10.6-8.1,13.8-9.6
	c3.2-1.5,2.5-1.5,4.4-1.4c1.9,0.1,3.9-2.8,9.3-3.8c5.4-1,9.9,1.8,10.5,3.3c0.6,1.5,3.7,0.6,5.3,0.4c1.7-0.2,4.2-1,5.1,1.9
	C151,73.1,150.2,76.8,150.3,78.2z"/>
<path class="st2" d="M41.9,137.2c2.6,0,7.7-2.6,9.4-3.5c0.9-0.6,1.5-0.1,2.4-0.7c0.9-0.6,2.8-2.1,5.3-5c2.4-2.8,1.2-0.6,2.6-2.1
	c1.4-1.5,3.8-3.9,4.6-5.7c0.4-0.9,0.5-1.1,2.8-2.2c2.3-1.1,6-3.8,6.5-4.8c0.5-0.9,0.2-0.8-0.2-0.9c-0.4,0,0.1-1.3,1.4-2.1
	c1.2-0.8,12-11.4,13.1-13c1.1-1.5,3.1-1.9,5.1-4.4c1-1.2,5-6,7.9-7.5c2.9-1.5,13.3-12.7,14.8-14.1c1.5-1.4,7.1-7.6,11.5-10.6
	c4.4-2.9,2.5-4.1,7-6c4.5-1.9,3.8-3.2,3.7-3.9c-0.1-0.7,3.1-4.6,3.4-4.8c0.3-0.2,1.9-0.7,2.6-1.9c0.7-1.2,1.9-1.4,2.1-0.7
	c0.2,0.7,0.7,0.4,0.9-0.4c0.2-0.8,2.9-2.2,3.7-3.5c0.4-0.6,2-2.5,2.5-1.6c0.5,1-2.9,5.5-3.1,7.3c-0.1,2.4-1.7,4.2-1.9,5.2
	c-0.2,1-0.1,1.1-0.8,2.1c-0.7,1-1.3,1.3-1.6,2.1c-0.3,0.8-0.4,1.8,0.1,2.8c0.6,1,0.2,3.2-0.4,4c-0.6,0.7-2.1,4.6-1.5,9.3
	c0.5,4.7-1.4,12.4-1.4,12.4s-1,3.6-1.9,4c-0.8,0.4-1.6,0.8-0.6,1.2c1,0.4,6.7-0.3,7.3-0.4c0.6-0.1,0.3-0.8,1.1-0.9
	c0.8-0.1,3.8,0.3,7.4-1c3.6-1.3,3.5-3,3.5-3s0.1-1.2,1.1-1.3c1.1-0.2,2.6,1.8,2.7,2.6c0.1,0.8-0.1,3.1,0,4.1c0.1,1-0.7,1.5-0.3,2.8
	c0.4,1.3-0.6,2.4-1.2,2.6c-0.6,0.2-0.8,2.5-2.2,2.5c-1.4,0-2.8,1.2-4.6,1c-1.8-0.2-2.5,0-3.5-0.1c-0.9-0.1-0.3-0.5-1.6-0.7
	c-1.4-0.2-2.3,0.3-3.9,0.9c-1.6,0.6-2.5-0.5-4.9,1.2c-2.4,1.6-1.6,3.3-1.3,5c0.3,1.7,0.2,2.1-0.9,2.8c-1.1,0.7-1,5.4,0.1,7.7
	c1,2.4,2.3,6.2,1.9,7.4c-0.4,1.2-0.8,0-1.2,0.3c-0.7,0.8,2.4,7.8,2.9,9.4c0.5,1.6,0.6,4.4,3,4.5c2.4,0.1,2.4-0.9,3.6-2
	c1.2-1.1,2.7-0.8,2.1,1c-0.5,1.9-2.4,2.6-3.3,4.6c-0.9,2-5.1,4.4-6.7,4.5c-1.7,0.1-2.1,0.8-3.5,1c-2.4,0.1-3.2-0.7-4.9-0.5
	c-1.7,0.2-3.2-1.2-3-2.1c0.2-0.9,1-2,0.2-2.5c-1.3-0.8-0.3-2.8-1.4-3.5c-1.1-0.7-2-2.3-2.2-5.9c-0.3-3.6,0-5.8,1.1-5.2
	c1.1,0.6,1-0.9,1.3-1.6c0.2-0.7-0.7-7.5-0.6-8.8c0.1-1.3-0.5-2.4-1-1.7c-0.5,0.6-0.7,0.3-1-0.4c-0.5-1.7,0.7-10.7,1-11.6
	c0.3-0.9-0.2-1-1.4-0.9c-1.2,0.2-8.4,0.6-11.4,1.2c-3.1,0.6-1.7-0.7-2.9-0.8c-1.2-0.1-2.8,0.3-3.8,1c-1,0.7-4.5,1.6-6.1,0.9
	s0.9-3.7,1.4-3.9c0.5-0.3,3.6-2,2.6-2.4c-1-0.5-0.9-0.9-0.5-1.3c0.5-0.4,2.5-2.7,2.8-3.8c0.3-1,1.3-1.1,2.5-1
	c1.3,0.1,3.3-1.6,10.6-1c7.3,0.5,8-2.1,8-2.7c0-0.3,1.4-0.6,1.3-2.3c-0.1-1.8,0.6-1.9,0.7-3.5c0.1-1.7-0.4-0.9-0.9-1
	c-0.5,0,0.4-2,0.8-2.2c0.4-0.2,0.5-1.2,0.5-1.2s0.7-2.2,0.9-3.9c0.1-1.7,0-2.5-0.6-2.2c-0.6,0.3-1-1.1-0.8-1.8
	c0.2-0.7,0.1-1.5-0.8-1c-0.9,0.5-5.2,2-7.3,4.4c-2.1,2.3-2.4,2.6-3.4,3c-1,0.5-0.1,1-2.1,2.4c-2,1.4-1.3,1.5-2.1,1.1
	c-0.7-0.4-2,1.9-3.5,4.6c-1.5,2.6-5.4,5.3-5.7,6s-0.5,1.9-1.4,1.4c-0.9-0.5-2.1,1.6-1.6,1c0.4-0.6-1.3,2-2.3,2.7
	c-1,0.7,0.3,2.3-1.7,3.2c-2,0.9-2.4,1.6-2.9,2.5c-0.4,0.8,0.6,1.1,0.8,2.8c0.3,1.6-4.5,2.4-6.1,2.1c-2.3-0.3-5.2,4.2-6.5,5.1
	c-1.3,0.9,0.2,1.7-1.9,3c-2.8,1.7-2,3-4.2,4.5c-2.2,1.4-2.9,2.2-2.9,2.8c-0.1,0.7-4.9,3.5-5.7,5.2c-0.8,1.7-2.2,1.5-2.5,0.9
	c-0.3-0.6-0.5,0.5-2.4,2.1c-1.9,1.6-4.6,3.4-4.6,4.1c0.1,0.7,1.2,0.2,0.7,1.5c-0.4,1.3-4.4,2.8-6.3,4.8c-1.9,2.1-2.4,1.7-3.6,3
	c-1.2,1.3-3.4,1.1-4.8,2.5c-1.5,1.4-5.6,1.1-6.8,0.2c-1.2-0.9-0.7-1.7-1.6-1.9c-1.5-0.3-1.5,0.6-2.9-1c-2.2-3.1,1-5.7,1.6-4.9
	C38.9,137.3,39.4,137.2,41.9,137.2z"/>
</svg>
