<?xml version="1.0" encoding="utf-8"?>
<!-- Generator: Adobe Illustrator 25.1.0, SVG Export Plug-In . SVG Version: 6.00 Build 0)  -->
<svg version="1.1" id="Layer_1" xmlns="http://www.w3.org/2000/svg" xmlns:xlink="http://www.w3.org/1999/xlink" x="0px" y="0px"
	 viewBox="0 0 200 200" style="enable-background:new 0 0 200 200;" xml:space="preserve">
<style type="text/css">
	.st0{fill:#FFFFFF;}
	.st1{fill:#E43D30;}
	.st2{fill:#00C4B3;}
	.st3{fill:#001F60;}
</style>
<path class="st0" d="M100,23.4c42.3,0,76.6,34.4,76.6,76.6s-34.4,76.6-76.6,76.6S23.4,142.3,23.4,100S57.7,23.4,100,23.4"/>
<g>
	<polygon class="st1" points="89.3,134.3 100,135 110.7,134.4 110.7,133.9 89.3,133.8 	"/>
	<polygon class="st1" points="89.3,125.2 100,126.1 110.7,125.3 110.7,125 89.3,124.9 	"/>
	<polygon class="st1" points="88.1,80.2 100,79.8 111.9,80 111.9,79.8 100,78.4 88.1,79.7 	"/>
	<polygon class="st1" points="107.4,71.1 100,69.3 92.5,71 92.5,71.2 99.9,70.6 107.4,71.3 	"/>
</g>
<path class="st1" d="M100,23.4c42.3,0,76.6,34.4,76.6,76.6s-34.4,76.6-76.6,76.6S23.4,142.3,23.4,100S57.7,23.4,100,23.4 M100,20
	c-44.2,0-80,35.8-80,80s35.8,80,80,80c44.2,0,80-35.8,80-80S144.2,20,100,20L100,20z"/>
<g>
	<path class="st2" d="M96.1,45.8l0-3.1C84.5,60.2,81.7,75.4,81,87.3l1.4,0C84.1,60.2,95.8,46.3,96.1,45.8z"/>
	<path class="st2" d="M83.1,152.3l0.1,0.5l1.5,0.5l-0.1-1.7c-0.2-3.2-0.5-6.4-0.9-9.8c-0.5-5.4-1.4-22.1-1.6-37.7h-1.6
		C80.8,126.9,83.1,152.1,83.1,152.3z"/>
	<path class="st2" d="M82.1,98.8c0-2.1,0-4.2,0-6.2h-1.5c-0.1,2-0.1,4.1-0.1,6.2H82.1z"/>
	<path class="st2" d="M103.7,42.7l0,3.1c0.2,0.3,5.4,6.5,9.3,18.4c0.2,0.2,0.3,0.4,0.3,0.7v0.2c1.9,6,3.5,13.4,4,22.1h1.4
		C118.1,75.3,115.3,60.1,103.7,42.7z"/>
	<path class="st2" d="M116.1,141.8c-0.3,3.4-0.6,6.6-0.9,9.8l-0.1,1.7l1.5-0.5l0.1-0.5c0-0.2,1.8-19.6,2.4-39.8
		c-0.5,0.2-1,0.4-1.6,0.5C117.1,125.6,116.5,137.3,116.1,141.8z"/>
	<path class="st2" d="M87,117.7c0-1.6-0.1-3.1-0.1-4.5h-0.3c-0.3,0-0.6,0-0.8-0.1c0.4,17.9,1.9,34.5,1.9,34.7l0,0l0.5,0l0-0.8
		C87.9,145.6,87.2,131.5,87,117.7z"/>
	<path class="st2" d="M97,51.2l0-2.8c-0.9,1.7-3.9,8-4.9,10.2C94.1,54.8,97,51.2,97,51.2z"/>
	<path class="st2" d="M112.9,117.7c-0.4,13.8-1,27.9-1.1,29.3l0,0.8l0.5,0l0,0c0-0.2,1.5-16.7,1.9-34.6l-1.2,0
		C112.9,114.7,112.9,116.2,112.9,117.7z"/>
	<path class="st2" d="M102.8,48.4l0,2.8c0,0,2.9,3.7,4.8,7.4C106.7,56.3,103.7,50.1,102.8,48.4z"/>
	<rect x="99.2" y="144.6" class="st2" width="1.6" height="17.5"/>
	<rect x="99.2" y="37.8" class="st2" width="1.6" height="17.5"/>
	<polygon class="st2" points="89.3,153 95.3,153 95.3,151.4 89.3,151.4 	"/>
	<polygon class="st2" points="104.6,151.4 104.6,153 110.7,153 110.7,151.4 	"/>
</g>
<g>
	<path class="st3" d="M57.8,100l-1.3-0.4c0,0,1.6-1.3,2.4-3c1.5-3.3,0.2-8.1-6.1-8.1l-18.9,0c-0.8,0-1.5,0.7-1.5,1.5v20.2
		c0,0.9,0.7,1.5,1.5,1.5h21.3c1.8,0,3.4-0.7,4.7-2l0.2-0.2C62.6,107.1,62.2,101.7,57.8,100z M40.1,92.3c0-0.6,0.5-1,1-1h10.1
		c0.4,0,0.9,0.1,1.2,0.4c0.6,0.5,1,1.2,1,2.1v2.9c0,0.6-0.4,1.1-1,1.4l-0.1,0.1c-0.4,0.2-0.8,0.3-1.2,0.3h-10c-0.6,0-1-0.5-1-1V92.3
		z M53.5,106.4c0,0.8-0.4,1.6-1,2.1l0,0c-0.4,0.3-0.8,0.4-1.2,0.4H41.1c-0.6,0-1-0.5-1-1v-5.7c0-0.6,0.5-1,1-1h10
		c0.4,0,0.9,0.1,1.2,0.3l0.2,0.1c0.6,0.3,1,0.8,1,1.4V106.4z"/>
	<path class="st3" d="M167.5,94.8c0-3.5-2.8-6.3-6.2-6.3h-1.9H143c-2.2,0-4,1.8-4,4.1l0,12.9c0,3.5,2.8,6.3,6.2,6.3h18.4
		c2.2,0,4-1.8,4-4.1L167.5,94.8z M159.9,106.6c0,1-0.7,1.8-1.6,2.1h-9.6c-1.1,0-2.1-0.9-2.1-2.1V93.2c0-1.2,0.9-2.1,2.1-2.1h0.5
		c0,0,0,0,0.1,0l8.6,0c1.1,0,2,1,2,2.2V106.6z"/>
	<path class="st3" d="M89.5,88.6l-7.2,0l-1.4,0l-9.8,0c-3.6,0-6.6,3-6.6,6.7v14.4c0,1.2,0.9,2.2,2.1,2.2h3.4c1.2,0,2.1-1,2.1-2.2
		v-5.4c0-0.8,0.7-1.5,1.5-1.5h7h1.6H83c0.8,0,1.5,0.7,1.5,1.5v5.4c0,0.9,0.5,1.6,1.3,2c0.3,0.1,0.5,0.2,0.9,0.2h0.3H90
		c1.2,0,2.1-1,2.1-2.2l0-18.4C92,89.8,90.9,88.6,89.5,88.6z M84.4,98.6c0,0.8-0.7,1.5-1.5,1.5h-0.8h-1.6h-7c-0.8,0-1.5-0.7-1.5-1.5
		v-3.9c0-1.9,1.5-3.4,3.4-3.4h5.2h1.5h1.1c0.6,0,1.1,0.5,1.1,1.1V98.6z"/>
	<path class="st3" d="M120.4,88.5h-1.5h-1.4h-2.6c-0.6,0-1.1,0.5-1.1,1.1V91v15.3c0,0.7-0.4,1.4-0.9,1.8c-0.4,0.3-0.8,0.5-1.3,0.5
		h-6.8c-1.2,0-2.2-1-2.2-2.3v-6.6c0-0.5-0.4-0.8-0.8-0.8h-5.3c-0.8,0-1.5,0.7-1.5,1.6v9.2c0,1.2,1,2.2,2.2,2.2l15.9,0l1.2,0l2.3,0
		c0.4,0,0.7,0,1.1-0.1c0.6-0.1,1.1-0.4,1.6-0.7c1.4-0.9,2.4-2.6,2.4-4.4V89.6C121.5,89,121,88.5,120.4,88.5z"/>
	<g>
		<g>
			<path class="st3" d="M136.1,79.6v2.2c0,0.4-0.3,0.8-0.7,0.9l-9.9,2.2c-0.6,0.1-1.1-0.3-1.1-0.9c0-0.1,0-0.2,0-0.3
				c0-0.4,0.2-0.7,0.6-0.8l9.8-4.1C135.4,78.5,136.1,79,136.1,79.6"/>
			<path class="st3" d="M134.2,89.7v21c0,0.6-0.5,1.1-1.1,1.1h-5.4c-0.6,0-1.1-0.5-1.1-1.1v-21c0-0.6,0.5-1.1,1.1-1.1h5.4
				C133.7,88.6,134.2,89.1,134.2,89.7"/>
		</g>
	</g>
</g>
</svg>
