<?xml version="1.0" encoding="utf-8"?>
<!-- Generator: Adobe Illustrator 28.0.0, SVG Export Plug-In . SVG Version: 6.00 Build 0)  -->
<svg version="1.1" id="Layer_1" xmlns="http://www.w3.org/2000/svg" xmlns:xlink="http://www.w3.org/1999/xlink" x="0px" y="0px"
	 viewBox="0 0 200 200" style="enable-background:new 0 0 200 200;" xml:space="preserve">
<style type="text/css">
	.st0{clip-path:url(#SVGID_00000086674460523273664090000000465612175586573964_);}
	.st1{fill:#96694C;}
	.st2{fill:#E01F26;}
</style>
<g>
	<defs>
		<rect id="SVGID_1_" x="20" y="57.3" width="160" height="85.3"/>
	</defs>
	<clipPath id="SVGID_00000067950590210421420010000002204630769935271065_">
		<use xlink:href="#SVGID_1_"  style="overflow:visible;"/>
	</clipPath>
	<g id="Barnes-B-Logo" style="clip-path:url(#SVGID_00000067950590210421420010000002204630769935271065_);">
		<g id="Group_5" transform="translate(-4947.726 -3372.464)">
			<g id="Group_1" transform="translate(4930.726 3372.464)">
				<path id="Path_1" class="st1" d="M137.4,57.4l-11.5,23.3l-107-0.1V57.3L137.4,57.4z"/>
			</g>
			<g id="Group_2" transform="translate(4930.726 3400.656)">
				<path id="Path_2" class="st1" d="M18.9,59.2v22.5l92.9-0.1l10.5-22.4L18.9,59.2z"/>
			</g>
			<g id="Group_3" transform="translate(4930.726 3427.826)">
				<path id="Path_3" class="st1" d="M18.9,61v26.2l76.9,0.1l13.3-26.2L18.9,61z"/>
			</g>
			<g id="Group_4" transform="translate(5006.962 3372.636)">
				<path id="Path_4" class="st2" d="M54.1,80.5h32.3c2.8,0,4,2.9,4,2.9c-0.8,4.1-4.3,3.8-4.3,3.8H50.3L40,109.7l35.6-0.1
					c4.7,0.4,3.7,3.6,3.7,3.6c0,3.3-3.9,3.1-3.9,3.1l-38.1,0.1l-13.4,26.2h54.6c18.9-0.7,27.2-21.9,27.2-21.9c5-13.6-2-20.1-2-20.1
					c16.2-6.5,17.3-25,17.3-25c1.1-17.3-11-18-11-18H65.5L54.1,80.5z"/>
			</g>
		</g>
	</g>
</g>
</svg>
