<?xml version="1.0" encoding="utf-8"?>
<!-- Generator: Adobe Illustrator 26.0.3, SVG Export Plug-In . SVG Version: 6.00 Build 0)  -->
<svg version="1.1" id="Layer_1" xmlns="http://www.w3.org/2000/svg" xmlns:xlink="http://www.w3.org/1999/xlink" x="0px" y="0px"
	 viewBox="0 0 300 300" style="enable-background:new 0 0 300 300;" xml:space="preserve">
<g>
	<g>
		<path d="M163.5,123c-0.1,0-0.2-0.1-0.2-0.3c0,0,0-0.1,0-0.1c0.4-1.4,1.5-5,1.6-5.4c0.2-0.8-0.3-1.9-2.1-1.3
			c-24.2,8.2-50.8,19.5-64.8,63.7c-0.4,1.2,0.4,1.7,0.9,2c11.5,5.4,38.9,1.8,47.8-5.9c0.1-0.1,0.5-0.6,0.2-0.9
			c-0.1-0.1-0.4-0.1-0.6-0.1c-11.5,4.5-28.1,4.1-30.6,2.9c-0.3-0.1-0.5-0.4-0.5-0.7c0,0,0,0,0,0c0.3-5.4,10-45.7,76.6-54.8
			c0.2,0,0.3-0.2,0.3-0.3c0-0.2-0.1-0.3-0.3-0.3C185.2,120.9,172.6,121.2,163.5,123z"/>
		<path d="M135.4,163.2c0.2-0.6,0.3-1.2,0.3-1.8c0.1-2.2-1-4.1-3-4.5c-0.3,0-0.5-0.1-0.8-0.1c-2.2,0.1-4.3,2.1-5,4.7
			c-0.2,0.6-0.3,1.2-0.3,1.8c-0.1,2.2,1,4.1,3,4.5c0.3,0,0.5,0.1,0.8,0.1C132.6,167.8,134.7,165.8,135.4,163.2L135.4,163.2z"/>
	</g>
	<polygon points="76.5,142.3 78.3,136.9 69,136.9 67.2,142.3 	"/>
	<polygon points="68,168.6 75.5,145.3 66.2,145.3 58.7,168.6 	"/>
	<polygon points="246.8,142.3 248.7,136.9 239.4,136.9 237.6,142.3 	"/>
	<polygon points="238.4,168.6 245.9,145.3 236.6,145.3 229.1,168.6 	"/>
	<polygon points="81.9,168.6 92.1,136.9 82.9,136.9 72.6,168.6 	"/>
	<polygon points="95.8,168.6 106.1,136.9 96.8,136.9 86.6,168.6 	"/>
	<path d="M188.7,142.6c-9.8,0-11,1-12.9,6.6l-4.2,12.9c-0.5,1.6-0.7,2.8-0.8,3.4c-0.2,2.8,2.9,3.2,9.4,3.2c9.6,0,11.1-0.9,13-6.6
		l1.1-3.3H185l-1.1,3.4c-0.3,1-0.6,1.6-2,1.6c-1,0-1.2-0.3-1.2-0.9c0-0.2,0.1-0.4,0.4-1.3l1.9-5.7h12.3l2.2-6.7
		c0.5-1.5,0.8-2.6,0.8-3.3C198.4,143,195.2,142.6,188.7,142.6z M188.3,148.4c0,0-0.2,0.5-0.9,2.8c-0.7,2-3,3.7-4.5,4.4l2.3-7.2
		c0.1-0.4,0.5-1,1.7-1C188.1,147.4,188.5,147.8,188.3,148.4z"/>
	<path d="M51.7,136.9l-15,0c-0.2,0-0.3,0.1-0.3,0.3c0,0.1,0.1,0.2,0.1,0.2c0.9,0.9,2.7,2.6,1.9,5c-1.1,3.4-8.5,26.1-8.5,26.1h11.5
		c11,0,12.8-1,14.6-6.6l1.6-5.1c0.2-0.7,0.4-1.4,0.4-2c0.1-1.6-0.7-2.4-3.3-3.2c0,0,0,0,0,0c0,0,0,0,0,0c3.5-0.5,5.2-1.9,6.1-4.8
		l1-3.3c0.4-1.2,0.7-2.2,0.8-3C63,137.4,59.5,136.9,51.7,136.9z M48.1,155.3l-1.8,5.7c-0.4,1.2-0.8,1.6-2.9,1.6c-0.3,0-1.4,0-1.8,0
		l2.7-8.2h1.6C47.6,154.3,48.3,154.5,48.1,155.3z M52.1,143.2l-1.3,3.9c-0.4,1.2-0.6,1.6-2.9,1.6h-1.8l2.1-6.5h2.1
		C51.8,142.2,52.4,142.4,52.1,143.2z"/>
	<path d="M157.9,136.9c-0.2,0-0.3,0.1-0.3,0.3c0,0.1,0,0.2,0.1,0.2c1,0.9,2.7,2.7,1.9,5.1c-1.1,3.3-8.5,26.1-8.5,26.1h16.4l2.2-6.6
		h-6.5l8.1-25H157.9z"/>
	<polygon points="215.3,151.8 212.1,168.6 222.3,168.6 235.1,142.8 226.3,142.8 219.3,159.6 219.2,159.6 222.4,142.8 213.6,142.8 
		206.5,159.6 206.5,159.6 209.6,142.8 200.8,142.8 198.1,168.6 208.4,168.6 215.3,151.8 	"/>
	<path d="M257.8,151.8C257.7,151.8,257.7,151.8,257.8,151.8c-0.1-0.1-0.1-0.2,0-0.2c0.7-0.3,2-1.2,2.5-2.8c0.3-0.9,0.3-1.5-0.8-1.5
		l-0.6,0c-1.2,0-1.6,0.5-1.9,1.6c0,0-0.3,1-0.6,2.2c-0.4,1.3,1.6,1.8,3.9,2.6c2.3,0.8,3.4,1.2,3.4,1.2c1.8,0.7,2.7,1.6,2.5,2.9
		c-0.1,0.7-1.3,4.4-1.3,4.4c-1.9,5.7-3.5,6.6-13,6.6c-6.5,0-9.7-0.3-9.4-3.2c0.1-0.7,0.3-1.8,0.8-3.4l1.1-3.3h9.3
		c0,0-1.1,3.5-1.2,4.1c-0.2,0.6,0.2,0.9,1.2,0.9c1.4,0,1.7-0.5,2-1.6l0.5-1.7c0.2-0.5,0.2-0.7,0.2-0.7c0.1-0.9-0.5-1.2-2.7-2
		l-3.3-1.1c-2.9-1-4.4-2-3.9-3.7c0.1-0.5,1.5-4.8,1.5-4.8c1.6-4.9,4.1-5.6,12.6-5.6c6.5,0,9.7,0.4,9.5,3.3c-0.1,0.7-0.3,1.8-0.8,3.3
		l-0.9,2.6L257.8,151.8z"/>
	<g>
		<path d="M264.9,167.3l0.1-0.4h1.3l-0.1,0.4h-0.5l-0.4,1.3h-0.4l0.4-1.3H264.9z M267.1,166.9l0,1l0.6-1h0.6l-0.6,1.7h-0.4l0.4-1.2
			l-0.7,1.2h-0.3l0.1-1.2l-0.4,1.2h-0.4l0.6-1.7H267.1z"/>
	</g>
</g>
</svg>
