<?xml version="1.0" encoding="utf-8"?>
<!-- Generator: Adobe Illustrator 24.0.3, SVG Export Plug-In . SVG Version: 6.00 Build 0)  -->
<svg version="1.1" id="Layer_1" xmlns="http://www.w3.org/2000/svg" xmlns:xlink="http://www.w3.org/1999/xlink" x="0px" y="0px"
	 viewBox="0 0 200 200" style="enable-background:new 0 0 200 200;" xml:space="preserve">
<style type="text/css">
	.st0{fill-rule:evenodd;clip-rule:evenodd;fill:#0F0A27;stroke:#0F0A27;stroke-width:0.1511;stroke-miterlimit:22.9256;}
	.st1{fill-rule:evenodd;clip-rule:evenodd;fill:url(#SVGID_1_);}
	.st2{fill:#141027;}
</style>
<g>
	<g>
		<g>
			<path class="st0" d="M37.1,127c1.7,0,3.1,0.3,4.3,0.9c1.1,0.6,2.1,1.4,2.8,2.5c0.7,1,1.2,2.2,1.5,3.5c0.3,1.3,0.4,2.6,0.4,4
				s-0.1,2.7-0.4,4c-0.3,1.3-0.8,2.5-1.5,3.5c-0.7,1-1.6,1.8-2.8,2.4c-1.1,0.6-2.6,0.9-4.3,0.9h-8.3V127H37.1L37.1,127z M39,122.1
				H28.8v-12h-5.9v43.5H39c2.3,0,4.2-0.4,5.9-1.3c1.7-0.9,3.1-2,4.2-3.5c1.1-1.5,1.9-3.1,2.5-5c0.6-1.9,0.8-3.9,0.8-5.9
				c0-2.1-0.3-4.1-0.8-6c-0.6-1.9-1.4-3.6-2.5-5c-1.1-1.5-2.5-2.6-4.2-3.5C43.2,122.5,41.2,122.1,39,122.1L39,122.1z M78.3,153.6
				v1.7c0,1.1-0.4,1.9-1.2,2.4c-0.8,0.5-1.8,0.7-3.1,0.7h-3.5v4.8h5.3c1.9,0,3.3-0.3,4.5-0.8c1.1-0.6,1.9-1.3,2.5-2.1
				c0.6-0.9,0.9-1.8,1.1-2.8c0.2-1,0.3-1.9,0.3-2.8v-32.6h-5.9v26.7h-10c-0.5,0-1.1-0.1-1.7-0.3s-1.3-0.5-1.8-0.9
				c-0.6-0.4-1.1-0.9-1.5-1.6c-0.4-0.7-0.6-1.5-0.6-2.5v-21.4h-5.9v21.6c0,1.2,0.2,2.4,0.5,3.6c0.3,1.2,0.9,2.2,1.7,3.2
				c0.8,0.9,1.8,1.7,3.1,2.2c1.3,0.6,2.9,0.8,4.7,0.8H78.3L78.3,153.6z M90,122.1v31.5h5.9V127h4.3c2.1,0,3.5,0.5,4.2,1.5
				c0.7,1,1,2.2,1,3.7v3.7h5.9v-4.7c0-1.8-0.3-3.3-1-4.5c-0.6-1.2-1.4-2.1-2.4-2.8c-0.9-0.7-1.9-1.2-3-1.4c-1.1-0.3-2.1-0.4-3-0.4
				H90L90,122.1z M132.2,122.1h-16.5v31.5h5.9V127h9.1c1.4,0,2.5,0.2,3.4,0.6c0.9,0.4,1.5,1,2,1.6c0.5,0.7,0.8,1.4,1,2.2
				c0.2,0.8,0.3,1.7,0.3,2.5v19.6h5.9v-21c0-3.6-1-6.2-2.9-7.9C138.5,122.9,135.7,122.1,132.2,122.1L132.2,122.1z M148.2,122.1v4.9
				h17.9c3.3,0,5,2.2,5,6.6v0.9h-13.7c-3.3,0-5.9,0.8-7.7,2.4c-1.8,1.6-2.8,4-2.8,7.2c0,3.1,0.9,5.5,2.8,7.1
				c1.8,1.6,4.4,2.4,7.7,2.4h19.6v-22.2c0-1.9-0.3-3.5-0.9-4.7c-0.6-1.2-1.4-2.2-2.3-2.9c-0.9-0.7-1.8-1.2-2.9-1.4
				c-1-0.3-1.9-0.4-2.7-0.4H148.2L148.2,122.1z M171.1,139.3v9.4h-11.8c-2.1,0-3.5-0.4-4.4-1.1c-0.9-0.8-1.3-1.9-1.3-3.5
				c0-1.6,0.4-2.8,1.3-3.6c0.9-0.8,2.3-1.2,4.3-1.2H171.1z"/>
			<linearGradient id="SVGID_1_" gradientUnits="userSpaceOnUse" x1="100" y1="104.4691" x2="100" y2="43.9435">
				<stop  offset="0" style="stop-color:#F05623"/>
				<stop  offset="1" style="stop-color:#F37B20"/>
			</linearGradient>
			<path class="st1" d="M97.4,36.9c-19,1.3-34.1,17.2-34.1,36.6c0,3.6,0.5,7,1.5,10.3l5.1-2.9C69.3,78.4,69,76,69,73.5
				c0-16.2,12.5-29.6,28.4-30.9v3v2.7V54c0.9-0.1,1.7-0.2,2.6-0.2c1,0,2.1,0.1,3,0.2c7.7,1.2,13.9,6.8,15.9,14.2
				c0.5,1.7,0.7,3.4,0.7,5.2c0,0.6,0,1.2-0.1,1.7l5.3,3.1c0.3-1.5,0.4-3.1,0.4-4.8c0-0.5,0-1,0-1.5c-0.7-12.3-10.2-22.2-22.2-23.6
				v-1.3v-4.5v-5.7c-1-0.1-2-0.1-3-0.1C99.1,36.8,98.2,36.8,97.4,36.9L97.4,36.9z M133,89.5L133,89.5L133,89.5
				c-0.8,1.7-1.8,3.3-2.9,4.9l-4.9-2.8l-3.9-2.2l-1.1-0.6c-4.6,6.1-12,10.1-20.3,10.1c-4.1,0-7.9-1-11.3-2.7c-1.9-1-3.7-2.1-5.3-3.5
				l5.3-3.1c1.9,1.3,4,2.3,6.3,2.9c1.6,0.4,3.3,0.6,5,0.6c6.2,0,11.7-2.9,15.3-7.3c1.2-1.5,2.2-3.1,2.9-4.9l5,2.9l2.3,1.3l2.6,1.5
				l0,0c1.9-4,2.9-8.5,2.9-13.2c0-14.1-9.4-26-22.3-29.8v-5.9c16,3.9,28,18.4,28,35.6C136.7,79.2,135.4,84.6,133,89.5L133,89.5z
				 M100,104.5c8.3,0,15.8-3.3,21.4-8.6l5.1,2.9c-6.1,6.3-14.3,10.5-23.6,11.2h-5.8c-11.4-0.9-21.4-7-27.5-16
				c-1.1-1.6-2-3.2-2.8-4.9l4.9-2.8l3.9-2.2l1.1-0.6c-1.3-3.1-2-6.4-2-9.9c0-8.8,4.5-16.6,11.4-21.1c1.8-1.2,3.7-2.1,5.7-2.8v6.1V58
				v4.2c2.3-1.7,5.2-2.7,8.3-2.7c2.6,0,5.1,0.7,7.2,2c3.6,2.2,6.2,6,6.7,10.4c0.1,0.5,0.1,1,0.1,1.6c0,5.3-2.9,9.9-7.2,12.2
				c-2,1.1-4.3,1.7-6.8,1.7c-2,0-3.9-0.4-5.6-1.2c-4.9-2.2-8.4-7.1-8.4-12.8V59.6c-3.5,3.6-5.7,8.4-5.7,13.8c0,2.5,0.5,4.9,1.3,7.1
				c0.7,1.8,1.6,3.5,2.8,4.9l-5,2.9l-2.3,1.3l-2.6,1.5C80.2,99.2,89.5,104.5,100,104.5L100,104.5z M104.2,80.7c0,0-0.1,0.1-0.1,0.1
				c0,0,0,0,0,0c-1.2,0.7-2.6,1-4,1c-4.6,0-8.3-3.7-8.3-8.3V62.2v11.2c0-4.6,3.7-8.3,8.3-8.3c1.5,0,2.9,0.4,4.2,1.1l0.1,0.1
				c2.4,1.5,4,4.1,4,7.1C108.3,76.5,106.6,79.2,104.2,80.7L104.2,80.7z"/>
		</g>
	</g>
	<g>
		<g>
			<path class="st2" d="M179.5,118.5v0.5h-0.9v2.3h-0.6V119H177v-0.5H179.5z"/>
			<path class="st2" d="M179.7,121.3v-2.8h0.9l0.7,2.2l0.7-2.2h0.9v2.8h-0.6v-2.1h0l-0.7,2.1H181l-0.7-2.1h0v2.1H179.7z"/>
		</g>
	</g>
</g>
</svg>
