<?xml version="1.0" encoding="utf-8"?>
<!-- Generator: Adobe Illustrator 23.0.6, SVG Export Plug-In . SVG Version: 6.00 Build 0)  -->
<svg version="1.1" id="Layer_1" xmlns="http://www.w3.org/2000/svg" xmlns:xlink="http://www.w3.org/1999/xlink" x="0px" y="0px"
	 viewBox="0 0 200 200" style="enable-background:new 0 0 200 200;" xml:space="preserve">
<g>
	<path d="M39.3,94.2l4.1-5.8H20l4.1,5.8H39.3z M28.2,100L20,111.6h7.1l8.2-11.6H28.2z M48.6,89.1L45,94.2l4.1,5.8l-4.1,5.8h-8.2
		l-4.1,5.8h15.3l8.2-11.6L48.6,89.1z M60.8,88.4h-7.1l8.2,11.6l-8.2,11.6h7.1L69,100L60.8,88.4z"/>
	<path d="M90.7,97.5l-5.8,8.3h4.6l4.1,5.8h7.1L90.7,97.5z M87.8,93.4l-3.6-5.1L68,111.6h7.1L87.8,93.4z"/>
	<path d="M170.1,97.5l-5.8,8.3h4.6l4.1,5.8h7.1L170.1,97.5z M167.2,93.4l-3.6-5.1l-16.3,23.3h7.1L167.2,93.4z"/>
	<path d="M149.5,88.4l-12.8,18.2l3.6,5.1l16.3-23.3H149.5z M131.1,88.4l-12.8,18.2l3.6,5.1l9.2-13.1l2.8,4l3.5-5.1L131.1,88.4z
		 M112.7,88.4h-7.1l9.9,14.2l3.6-5.1L112.7,88.4z"/>
	<polygon points="98.5,88.4 91.4,88.4 107.7,111.6 114.8,111.6 	"/>
</g>
</svg>
