<?xml version="1.0" encoding="utf-8"?>
<!-- Generator: Adobe Illustrator 23.0.6, SVG Export Plug-In . SVG Version: 6.00 Build 0)  -->
<svg version="1.1" id="Layer_1" xmlns="http://www.w3.org/2000/svg" xmlns:xlink="http://www.w3.org/1999/xlink" x="0px" y="0px"
	 viewBox="0 0 16 16" style="enable-background:new 0 0 16 16;" xml:space="preserve">
<style type="text/css">
	.st0{fill:#152904;}
</style>
<path class="st0" d="M16,13.9h-4.9c0.3-0.1,0.5-0.3,0.6-0.5c0.1-0.2,0.2-0.5,0.2-0.7c0-0.1,0-0.1,0-0.1l-0.7-6.5l-2.5,8.1
	C8.2,14.1,8,14,7.7,13.9c-0.2-0.1-0.5-0.3-0.9-0.6c-0.2-0.2-0.4-0.4-0.6-0.6c-0.2-0.3-0.4-0.6-0.5-0.9L3.6,6l-0.6,6.9
	c0,0.2,0,0.3,0.2,0.5c0,0,0.1,0.1,0.3,0.3c0.1,0.1,0.3,0.2,0.5,0.3H0c0.2-0.1,0.4-0.3,0.5-0.5c0.1-0.2,0.2-0.4,0.3-0.5
	c0.1-0.2,0.1-0.4,0.1-0.6l1-8.8c0-0.1,0-0.1,0-0.3c0-0.2-0.1-0.5-0.2-0.7C1.7,2.2,1.5,2,1.2,1.8h4.3l2.7,7.1l2.2-7.1H15
	c-0.2,0.1-0.3,0.1-0.4,0.2c-0.1,0.1-0.2,0.2-0.3,0.3c-0.1,0.2-0.1,0.4-0.1,0.5c0,0.1,0,0.2,0,0.3l1.1,9.5c0,0.1,0,0.3,0,0.4
	c0,0.1,0,0.3,0.1,0.4c0.1,0.1,0.1,0.2,0.2,0.3C15.8,13.8,15.9,13.9,16,13.9z"/>
</svg>
