<?xml version="1.0" encoding="utf-8"?>
<!-- Generator: Adobe Illustrator 23.0.6, SVG Export Plug-In . SVG Version: 6.00 Build 0)  -->
<svg version="1.1" id="Layer_1" xmlns="http://www.w3.org/2000/svg" xmlns:xlink="http://www.w3.org/1999/xlink" x="0px" y="0px"
	 viewBox="0 0 200 200" style="enable-background:new 0 0 200 200;" xml:space="preserve">
<style type="text/css">
	.st0{fill-rule:evenodd;clip-rule:evenodd;fill:#F7971D;}
	.st1{fill:#F7971D;}
</style>
<g>
	<g>
		<path class="st0" d="M51,86.1v-5.2l-13.5,4.3v-4.1c1.5,0.3,2.9,0.8,4.2,1.5c0-0.5,0-2.3,0-2.9c-1.6-0.9-3.3-1.4-5-1.6v-6
			c0.3-0.4,0.6-0.8,0.6-1.4c0-2-1.8-2-2-2c-1.1,0-2,0.8-2,2c0,0.5,0.2,1,0.6,1.4v6c-1.7,0.2-3.5,0.7-5,1.6c0,0.5,0,2.4,0,2.9
			c1.3-0.8,2.8-1.3,4.2-1.5v5.5L20,90.8v5.2l13.1-4.2v2.8L20,98.9v19.4l15.4,13L51,118.4v-21L39.8,101l5.5,2v12.5l-10,8.6l-9.7-8.6
			v-12.7l7.4-2.5v14.9l2.3,3.4l2.1-3.4V99L51,94.6v-5.7l-13.5,4.3v-2.8L51,86.1z"/>
	</g>
	<g>
		<path class="st1" d="M76.1,102.9h-7.6l-2.8,4.3h5.9v1.4c0,0.1,0,0.2-0.1,0.3l-3,3c-0.1,0.1-0.1,0.1-0.3,0.1H63
			c-0.1,0-0.2,0-0.3-0.1l-1.3-1.3c-0.1-0.1-0.1-0.2-0.1-0.3V99.8c0-0.1,0-0.2,0.1-0.3l1.3-1.3c0.1-0.1,0.1-0.1,0.3-0.1h8.6l2.8-4.3
			l-12.3,0c-0.7,0-1.3,0.3-1.9,0.8l-2.7,2.7c-0.5,0.5-0.8,1.1-0.8,1.9v11.9c0,0.7,0.3,1.3,0.8,1.8l2.7,2.7c0.5,0.5,1.1,0.8,1.9,0.8
			h6.7c0.7,0,1.4-0.3,1.9-0.8l0.9-0.9l1.4-1.4l3.1,3v-5.5V102.9z"/>
		<path class="st1" d="M134.4,94.6c-0.5-0.5-1.1-0.7-1.8-0.7h-12.6v22.6h12.6c0.7,0,1.3-0.2,1.8-0.7l2.1-2.1
			c0.5-0.5,0.8-1.1,0.8-1.9v-3c0-0.7-0.3-1.3-0.8-1.8l-1.7-1.7l1.7-1.7c0.5-0.5,0.8-1.1,0.8-1.9v-3c0-0.7-0.3-1.3-0.8-1.9
			L134.4,94.6z M132.8,101.1c0,0.1,0,0.2-0.1,0.3l-1.5,1.5c-0.1,0.1-0.2,0.1-0.3,0.1h-6.3v-4.8h7.1c0.1,0,0.2,0,0.3,0.1l0.7,0.7
			c0.1,0.1,0.1,0.1,0.1,0.3V101.1z M131.7,112h-7.1v-4.8h6.3c0.1,0,0.2,0,0.3,0.1l1.6,1.6c0.1,0.1,0.1,0.1,0.1,0.2v1.8
			c0,0.1,0,0.2-0.1,0.3l-0.7,0.7C131.9,112,131.8,112,131.7,112z"/>
		<polygon class="st1" points="94.9,98.1 94.9,93.8 79.2,93.8 79.2,116.4 94.9,116.4 94.9,112 83.8,112 83.8,107.3 89.1,107.3 
			91.9,102.9 83.8,102.9 83.8,98.1 		"/>
		<polygon class="st1" points="156.3,98.1 156.3,93.8 140.7,93.8 140.7,116.4 156.3,116.4 156.3,112 145.2,112 145.2,107.3 
			150.6,107.3 153.4,102.9 145.2,102.9 145.2,98.1 		"/>
		<path class="st1" d="M171.8,107.2h0.2c0.7,0,1.3-0.4,1.8-0.7l2.2-1.7c0.5-0.5,0.8-1.1,0.8-1.9v-4.4c0-0.7-0.3-1.3-0.8-1.9
			l-2.2-2.2c-0.5-0.5-1.1-0.7-1.8-0.7h-12.6v22.6h4.5v-9.1h2.1c0.1,0,0.2,0.1,0.3,0.2l6.6,9h5.6L171.8,107.2z M164,98.1h7.1
			c0.1,0,0.2,0,0.3,0.1l0.7,0.7c0.1,0.1,0.1,0.1,0.1,0.3v2.6c0,0.1,0,0.2-0.1,0.3l-0.7,0.7c-0.1,0.1-0.2,0.1-0.3,0.1H164V98.1z"/>
		<path class="st1" d="M110.6,107.2c0.7,0,1.3-0.2,1.8-0.7l2.2-1.7c0.5-0.5,0.8-1.1,0.8-1.9v-4.4c0-0.7-0.3-1.3-0.8-1.9l-2.2-2.2
			c-0.5-0.5-1.1-0.7-1.8-0.7H98v22.6h4.5v-9.2h2.1c0.1,0,0.2,0.1,0.3,0.2l6.6,9h5.6l-6.8-9.1H110.6z M102.6,98.1h7.1
			c0.1,0,0.2,0,0.3,0.1l0.7,0.7c0.1,0.1,0.1,0.1,0.1,0.3v2.6c0,0.1,0,0.2-0.1,0.3l-0.7,0.7c-0.1,0.1-0.2,0.1-0.3,0.1h-7.1V98.1z"/>
		<g>
			<path class="st1" d="M178.5,93.8c0.8,0,1.5,0.7,1.5,1.5c0,0.8-0.7,1.5-1.5,1.5c-0.8,0-1.5-0.7-1.5-1.5
				C177.1,94.4,177.7,93.8,178.5,93.8z M178.5,96.4c0.6,0,1.1-0.5,1.1-1.1c0-0.6-0.5-1.1-1.1-1.1c-0.6,0-1.1,0.5-1.1,1.1
				C177.4,95.9,177.9,96.4,178.5,96.4z M178.5,95.4h-0.2v0.7H178v-1.6h0.6c0.4,0,0.6,0.1,0.6,0.5c0,0.3-0.2,0.4-0.4,0.4l0.4,0.7
				h-0.3L178.5,95.4z M178.6,95.2c0.2,0,0.3,0,0.3-0.2c0-0.2-0.2-0.2-0.3-0.2h-0.3v0.5H178.6z"/>
		</g>
	</g>
</g>
</svg>
