<?xml version="1.0" encoding="utf-8"?>
<!-- Generator: Adobe Illustrator 23.0.6, SVG Export Plug-In . SVG Version: 6.00 Build 0)  -->
<svg version="1.1" id="Layer_1" xmlns="http://www.w3.org/2000/svg" xmlns:xlink="http://www.w3.org/1999/xlink" x="0px" y="0px"
	 viewBox="0 0 200 200" style="enable-background:new 0 0 200 200;" xml:space="preserve">
<style type="text/css">
	.st0{fill:#4C4C4F;}
	.st1{fill:#CF121B;}
</style>
<polygon class="st0" points="20,78.8 30.5,78.8 30.5,98.5 39.4,98.5 39.4,107.8 20,107.8 "/>
<g>
	<path class="st0" d="M71.1,78.8h10.1l9.5,16.1H91c-0.4-2.4-0.9-4.9-0.9-7.4v-8.7h10.1v29H90.2l-9.3-15.2h-0.3
		c0.3,2,0.7,3.9,0.7,5.8v9.4H71.1V78.8z"/>
	<path class="st0" d="M104.8,97.4l0.5,0.4c1.9,1.5,4.2,2.7,6.6,2.7c1,0,2.7-0.4,2.7-1.7c0-1.3-1.4-1.4-2.3-1.6l-2.1-0.4
		c-4.1-0.7-7.6-3.1-7.6-7.7c0-6.9,6.3-10.7,12.6-10.7c3.3,0,6.3,0.8,9.2,2.5l-2.9,7.4c-1.8-1.2-3.8-2.2-6.1-2.2
		c-0.9,0-2.3,0.3-2.3,1.5c0,1.1,1.3,1.2,2.1,1.4l2.4,0.5c4.5,1,7.7,3.4,7.7,8.3c0,6.9-6.3,10.3-12.6,10.3c-3.7,0-7.9-1-11.1-2.7
		L104.8,97.4z"/>
	<path class="st0" d="M126.9,78.8h10.3L137,91.4h0.2c0.2-1.2,0.9-2.2,1.5-3.3l5.1-9.3h11.5l-9.1,14.1l10.1,14.9H144l-5-8.8
		c-0.6-1.1-1.5-2.2-1.8-3.4H137l0.2,12.2h-10.3V78.8z"/>
	<path class="st0" d="M161.6,78.8l3.2,7.6h0.3c0.3-0.9,0.6-1.8,1-2.7l2.1-4.9H180l-9.9,16.5v12.5h-10.3V95.3l-10.1-16.5H161.6z"/>
	<path class="st0" d="M40.1,107.9l10.8-28.6h8.6l10.8,28.6H59.7l-3.7-13c-0.4-1.4-0.7-2.8-0.7-4.2H55c0,1.4-0.3,2.9-0.7,4.2l-3.7,13
		H40.1z"/>
	<path class="st0" d="M67.8,114.7c-0.3-0.5-0.7-0.7-1.3-0.7c-0.6,0-1.3,0.4-1.3,1.1c0,0.6,0.6,0.9,1.1,1.1l0.6,0.2
		c1.1,0.4,1.9,1,1.9,2.3c0,1.4-1.1,2.4-2.5,2.4c-1.3,0-2.2-0.9-2.4-2.2l1-0.2c0,0.9,0.7,1.5,1.5,1.5c0.8,0,1.4-0.7,1.4-1.5
		s-0.7-1.2-1.4-1.5L66,117c-0.9-0.4-1.7-0.9-1.7-2c0-1.3,1.1-2,2.3-2c0.9,0,1.6,0.4,2,1.2L67.8,114.7z"/>
</g>
<polygon class="st0" points="76.6,116.3 76.6,113.2 77.6,113.2 77.6,121 76.6,121 76.6,117.2 72.9,117.2 72.9,121 71.9,121 
	71.9,113.2 72.9,113.2 72.9,116.3 "/>
<path class="st0" d="M84,115l-1.4,3.2h2.8L84,115z M82.2,119l-0.9,1.9h-1l3.7-8.1l3.7,8.1h-1l-0.9-1.9H82.2z"/>
<g>
	<path class="st0" d="M91.4,116.9h0.3c1,0,2.1-0.2,2.1-1.4c0-1.2-1.2-1.4-2.1-1.4h-0.3V116.9z M95.3,121h-1.2l-2.3-3.3h-0.4v3.3h-1
		v-7.8h1.2c0.7,0,1.4,0,2.1,0.4c0.7,0.4,1,1.1,1,1.9c0,1.1-0.7,2.1-1.9,2.2L95.3,121z"/>
	<path class="st0" d="M99.1,116.9h0.3c1,0,2.1-0.2,2.1-1.4c0-1.2-1.2-1.4-2.1-1.4h-0.3V116.9z M99.1,121h-1v-7.8h1.1
		c2.4,0,3.1,0.8,3.1,2.3c0,1.7-1.3,2.3-2.7,2.3h-0.6V121z"/>
</g>
<polygon class="st0" points="105.3,113.2 109.5,113.2 109.5,114.1 106.3,114.1 106.3,116.2 109.4,116.2 109.4,117.1 106.3,117.1 
	106.3,120.1 109.5,120.1 109.5,121 105.3,121 "/>
<polygon class="st0" points="112.7,112.8 118.6,119 118.6,113.2 119.5,113.2 119.5,121.3 113.7,115.2 113.7,121 112.7,121 "/>
<polygon class="st0" points="123,113.2 127.2,113.2 127.2,114.1 124,114.1 124,116.2 127.1,116.2 127.1,117.1 124,117.1 124,120.1 
	127.2,120.1 127.2,121 123,121 "/>
<g>
	<path class="st0" d="M131.4,116.9h0.3c1,0,2.1-0.2,2.1-1.4c0-1.2-1.2-1.4-2.1-1.4h-0.3V116.9z M135.3,121h-1.2l-2.3-3.3h-0.4v3.3
		h-1v-7.8h1.2c0.7,0,1.4,0,2.1,0.4c0.7,0.4,1,1.1,1,1.9c0,1.1-0.7,2.1-1.9,2.2L135.3,121z"/>
	<path class="st0" d="M141.7,114.7c-0.3-0.5-0.7-0.7-1.3-0.7c-0.6,0-1.3,0.4-1.3,1.1c0,0.6,0.6,0.9,1.1,1.1l0.6,0.2
		c1.1,0.4,1.9,1,1.9,2.3c0,1.4-1.1,2.4-2.5,2.4c-1.3,0-2.2-0.9-2.4-2.2l1-0.2c0,0.9,0.7,1.5,1.5,1.5c0.8,0,1.4-0.7,1.4-1.5
		s-0.7-1.2-1.3-1.5l-0.5-0.2c-0.9-0.4-1.7-0.9-1.7-2c0-1.3,1.1-2,2.3-2c0.9,0,1.6,0.4,2,1.2L141.7,114.7z"/>
	<path class="st0" d="M175,105.5c0.3,0,0.9,0.1,0.9-0.4c0-0.3-0.4-0.3-0.6-0.3h-0.7v0.7H175z M176.3,107.1h-0.5l-0.8-1.2h-0.5v1.2
		h-0.4v-2.7h1.1c0.5,0,0.9,0.1,0.9,0.7c0,0.5-0.4,0.7-0.9,0.7L176.3,107.1z M177.2,105.8c0-1.1-1-2.1-2.1-2.1
		c-1.1,0-2.1,0.9-2.1,2.1s1,2.1,2.1,2.1C176.2,107.9,177.2,107,177.2,105.8 M172.7,105.8c0-1.4,1.1-2.4,2.4-2.4
		c1.4,0,2.5,1.1,2.5,2.4s-1.1,2.4-2.5,2.4C173.7,108.2,172.7,107.1,172.7,105.8"/>
</g>
<polyline class="st1" points="49.6,121.7 60.5,121.7 55.1,99.9 "/>
</svg>
