<?xml version="1.0" encoding="utf-8"?>
<!-- Generator: Adobe Illustrator 26.3.1, SVG Export Plug-In . SVG Version: 6.00 Build 0)  -->
<svg version="1.1" id="Layer_1" xmlns="http://www.w3.org/2000/svg" xmlns:xlink="http://www.w3.org/1999/xlink" x="0px" y="0px"
	 viewBox="0 0 300 300" style="enable-background:new 0 0 300 300;" xml:space="preserve">
<style type="text/css">
	.st0{fill:#FFFFFF;}
	.st1{fill:#00205C;}
	.st2{fill-rule:evenodd;clip-rule:evenodd;fill:#929497;}
</style>
<rect y="0" class="st0" width="300" height="300"/>
<g>
	<path class="st1" d="M59,163.2c-0.4-0.1-0.8-0.1-1.4-0.1H30v-1c1.2,0,1.7-0.3,1.7-1v-26.3c0-0.7-0.6-1-1.7-1v-1h10v1
		c-1.1,0-1.6,0.3-1.6,1v23.1h19.3c0.6,0,1.1-0.1,1.4-0.4c0.4-0.3,0.6-0.6,0.6-1.1h1v7.9h-1C59.6,163.6,59.4,163.3,59,163.2z"/>
	<path class="st1" d="M66.1,162.1c0.6,0,1-0.1,1.3-0.2c0.2-0.1,0.3-0.4,0.3-0.7v-21.7c0-0.3-0.1-0.5-0.3-0.7
		c-0.2-0.1-0.7-0.2-1.3-0.2v-1h8.8v1c-1.1,0-1.6,0.3-1.6,0.9v21.7c0,0.6,0.5,0.9,1.6,0.9v1h-8.8V162.1z"/>
	<path class="st1" d="M85.1,138.8c-0.3-0.1-0.6-0.2-0.9-0.2v-1h18c1.5,0,2.7,0.2,3.8,0.5c1.1,0.3,2,0.8,2.7,1.4
		c0.7,0.6,1.2,1.3,1.6,2.1c0.3,0.8,0.5,1.6,0.5,2.4c0,0.7-0.1,1.3-0.3,1.9c-0.2,0.6-0.5,1.1-0.9,1.6c-0.4,0.5-0.8,0.9-1.2,1.3
		c-0.4,0.4-0.9,0.7-1.4,0.9v0.1c0.5,0.2,1.1,0.5,1.6,0.9c0.5,0.4,1,0.9,1.4,1.4c0.4,0.5,0.8,1.2,1,1.9c0.3,0.7,0.4,1.5,0.4,2.3
		c0,0.9-0.2,1.8-0.5,2.6c-0.3,0.8-0.9,1.5-1.7,2.1c-0.8,0.6-1.7,1.1-3,1.5c-1.2,0.4-2.7,0.6-4.4,0.6H84.2v-1c0.3,0,0.6-0.1,0.9-0.2
		c0.3-0.1,0.4-0.4,0.4-0.7v-21.7C85.6,139.2,85.4,139,85.1,138.8z M101.5,147.7c0.9,0,1.8-0.2,2.6-0.6c0.8-0.4,1.2-1.2,1.2-2.4
		c0-0.6-0.1-1.1-0.3-1.5c-0.2-0.4-0.5-0.7-0.9-0.9c-0.3-0.2-0.8-0.3-1.2-0.4c-0.5-0.1-0.9-0.1-1.4-0.1H91.1v5.8H101.5z M101.4,158.8
		c1.8,0,3-0.3,3.7-0.9c0.7-0.6,1-1.4,1-2.4c0-1.2-0.4-2.1-1.3-2.7c-0.9-0.6-2.3-0.9-4.3-0.9h-9.3v6.8H101.4z"/>
	<path class="st1" d="M141.9,143c0-0.7-0.6-1.1-1.8-1.1h-14.2v5.8h8.9c0.7,0,1.1,0,1.5-0.1c0.3-0.1,0.5-0.4,0.5-0.8h1v6.1h-1.2
		c0.1-0.4,0-0.7-0.5-0.8c-0.4-0.1-1-0.1-1.8-0.1h-8.5v6.8h14.9c0.5,0,0.9-0.1,1.2-0.3c0.3-0.2,0.5-0.5,0.5-0.8h1v6.1h-1
		c0-0.3-0.2-0.5-0.5-0.6c-0.3,0-0.7-0.1-1.2-0.1h-21.3v-1c0.2,0,0.4-0.1,0.6-0.2c0.2-0.1,0.3-0.4,0.3-0.7v-21.7
		c0-0.3-0.1-0.5-0.3-0.7c-0.2-0.1-0.4-0.2-0.6-0.2v-1h20.6c1.2,0,1.8-0.3,1.8-1h1v6.4H141.9z"/>
	<path class="st1" d="M174.7,139.3c1.9,1.1,2.9,3.1,2.9,5.8c0,1-0.2,2-0.6,2.8c-0.4,0.8-0.9,1.5-1.5,2.1c-0.6,0.6-1.3,1.1-2.1,1.4
		c-0.8,0.4-1.6,0.6-2.4,0.8l5.7,8.3c0.3,0.4,0.6,0.7,1,1c0.4,0.2,0.8,0.4,1.2,0.5v1H170v-1c0.5,0,0.8-0.2,0.8-0.5
		c0-0.4-0.3-1-0.9-1.8l-4.6-6.8h-8.1v8.3c0,0.3,0.1,0.5,0.4,0.7c0.3,0.1,0.5,0.2,0.7,0.2v1h-7.7v-1c0.7,0,1-0.3,1-0.9v-21.7
		c0-0.6-0.3-0.9-1-0.9v-1h16C170.1,137.6,172.8,138.2,174.7,139.3z M166.5,148.6c3.8,0,5.7-1.2,5.7-3.6c0-1-0.5-1.7-1.4-2.3
		c-0.9-0.6-2.3-0.8-4.3-0.8h-9.2v6.7H166.5z"/>
	<g>
		<path class="st1" d="M191.9,161.9c0.2-0.1,0.3-0.4,0.3-0.7v-19.3h-7.5c-0.3,0-0.6,0.1-0.9,0.2c-0.3,0.2-0.4,0.4-0.4,0.8h-1v-6.7h1
			c0,0.5,0.1,0.9,0.4,1.1c0.3,0.2,0.6,0.3,0.9,0.3h20.7c0.3,0,0.6-0.1,0.9-0.3c0.3-0.2,0.4-0.6,0.4-1.1h1v6.7h-1
			c0-0.3-0.1-0.6-0.4-0.8c-0.3-0.2-0.6-0.2-0.9-0.2h-7.5v19.3c0,0.6,0.3,0.9,1,0.9v1h-7.5v-1C191.6,162.1,191.8,162,191.9,161.9z"/>
		<path class="st1" d="M212.1,139.6c-0.3-0.3-0.6-0.6-1-0.8c-0.4-0.2-0.8-0.2-1.1-0.2v-1h9.6v1c-0.2,0-0.4,0.1-0.6,0.2
			c-0.2,0.1-0.3,0.3-0.3,0.6c0,0.2,0.1,0.4,0.2,0.6c0.2,0.2,0.3,0.4,0.5,0.7l5.9,7.7l5.2-7.2c0.3-0.5,0.6-0.9,0.8-1.1
			c0.2-0.3,0.3-0.5,0.3-0.7c0-0.3-0.1-0.5-0.3-0.6c-0.2-0.1-0.4-0.1-0.6-0.1v-1h8.9v1c-0.5,0-1,0.3-1.5,0.8
			c-0.6,0.5-1.1,1.1-1.5,1.6l-8.9,11.5v8.7c0,0.6,0.4,0.9,1.1,0.9v1h-7.7v-1c0.7,0,1-0.3,1-0.9v-8.9L212.1,139.6z"/>
	</g>
</g>
<g>
	<g>
		<path class="st1" d="M30.5,179.2c0.2,0,0.4-0.1,0.5-0.3c0.1-0.2,0.2-0.4,0.3-0.6l4.4-9.9c0.1-0.2,0.2-0.4,0.3-0.6
			c0.1-0.2,0.1-0.3,0.1-0.5c0-0.2-0.1-0.3-0.2-0.4c-0.1-0.1-0.2-0.1-0.4-0.2v-0.5h4v0.5c-0.1,0-0.2,0.1-0.3,0.1
			c-0.1,0.1-0.2,0.2-0.2,0.4c0,0.1,0,0.3,0.1,0.4c0.1,0.1,0.1,0.3,0.2,0.5l4.9,10.4c0.1,0.2,0.2,0.3,0.3,0.4
			c0.1,0.1,0.3,0.2,0.5,0.3v0.5h-4.1v-0.5c0.1,0,0.1,0,0.2-0.1c0.1,0,0.1-0.1,0.1-0.2c0-0.2-0.1-0.4-0.2-0.7l-0.9-1.9h-5.7l-0.8,1.8
			c-0.2,0.4-0.2,0.6-0.2,0.8c0,0.2,0.1,0.3,0.4,0.3v0.5h-3.3V179.2z M39.4,174.5l-2-4.7l-2.2,4.7H39.4z"/>
		<path class="st1" d="M48.1,179.2c0.1,0,0.2,0,0.3-0.1c0.1-0.1,0.1-0.2,0.1-0.3v-11.6c0-0.2,0-0.3-0.1-0.3
			c-0.1-0.1-0.2-0.1-0.3-0.1v-0.5h4.4v0.5c-0.1,0-0.2,0-0.2,0.1c-0.1,0.1-0.1,0.1-0.1,0.2c0,0.1,0,0.2,0.1,0.3
			c0.1,0.1,0.1,0.3,0.2,0.4l3.4,6.6l3.4-6.6c0.1-0.2,0.2-0.4,0.2-0.5c0.1-0.1,0.1-0.2,0.1-0.3c0-0.2-0.1-0.3-0.3-0.3v-0.5h4.4v0.5
			c-0.1,0-0.2,0-0.3,0.1c-0.1,0.1-0.1,0.2-0.1,0.3v11.6c0,0.2,0,0.3,0.1,0.3c0.1,0.1,0.2,0.1,0.3,0.1v0.5h-3.7v-0.5
			c0.4,0,0.6-0.2,0.6-0.5v-8.5h0l-4.7,9.4h-0.1l-4.6-9.4h0v8.5c0,0.3,0.2,0.5,0.7,0.5v0.5h-3.5V179.2z"/>
		<path class="st1" d="M67.4,179.2c0.1,0,0.2,0,0.3-0.1c0.1-0.1,0.1-0.2,0.1-0.3v-11.6c0-0.2,0-0.3-0.1-0.3
			c-0.1-0.1-0.2-0.1-0.3-0.1v-0.5h4.4v0.5c-0.1,0-0.2,0-0.2,0.1c-0.1,0.1-0.1,0.1-0.1,0.2c0,0.1,0,0.2,0.1,0.3
			c0.1,0.1,0.1,0.3,0.2,0.4l3.4,6.6l3.4-6.6c0.1-0.2,0.2-0.4,0.2-0.5c0.1-0.1,0.1-0.2,0.1-0.3c0-0.2-0.1-0.3-0.3-0.3v-0.5h4.4v0.5
			c-0.1,0-0.2,0-0.3,0.1c-0.1,0.1-0.1,0.2-0.1,0.3v11.6c0,0.2,0,0.3,0.1,0.3c0.1,0.1,0.2,0.1,0.3,0.1v0.5h-3.7v-0.5
			c0.4,0,0.6-0.2,0.6-0.5v-8.5h0l-4.7,9.4H75l-4.6-9.4h0v8.5c0,0.3,0.2,0.5,0.7,0.5v0.5h-3.5V179.2z"/>
		<path class="st1" d="M90.1,166.7c-0.3,0-0.5,0.2-0.5,0.5v7.7c0,1.1,0.3,1.8,1,2.2c0.6,0.4,1.6,0.6,2.8,0.6c1.2,0,2.2-0.2,2.8-0.6
			c0.6-0.4,1-1.1,1-2.2v-7.7c0-0.3-0.2-0.5-0.7-0.5v-0.5h3.8v0.5c-0.4,0-0.6,0.2-0.6,0.5v7.5c0,1-0.1,1.8-0.4,2.5
			c-0.3,0.7-0.7,1.2-1.2,1.6c-0.5,0.4-1.2,0.7-2,0.8c-0.8,0.1-1.7,0.2-2.7,0.2c-1,0-1.9-0.1-2.7-0.2c-0.8-0.1-1.5-0.4-2-0.8
			c-0.5-0.4-0.9-0.9-1.2-1.6c-0.3-0.7-0.4-1.5-0.4-2.5v-7.5c0-0.3-0.2-0.5-0.7-0.5v-0.5h3.9V166.7z"/>
		<path class="st1" d="M103.5,179.2c0.3,0,0.4-0.2,0.4-0.5v-11.6c0-0.3-0.1-0.5-0.4-0.5v-0.5h4v0.5c-0.1,0-0.2,0.1-0.2,0.3
			c0,0.1,0.2,0.4,0.5,0.7l6.8,7.6v-8.1c0-0.3-0.2-0.5-0.6-0.5v-0.5h3.6v0.5c-0.3,0-0.4,0.2-0.4,0.5v11.6c0,0.3,0.1,0.5,0.4,0.5v0.5
			h-3.8v-0.5c0.2,0,0.3-0.1,0.3-0.2c0-0.1-0.1-0.3-0.4-0.6l-7.2-8.1v8.5c0,0.3,0.2,0.5,0.5,0.5v0.5h-3.5V179.2z"/>
		<path class="st1" d="M120.4,179.2c0.4,0,0.6-0.2,0.6-0.5v-11.6c0-0.3-0.2-0.5-0.6-0.5v-0.5h3.9v0.5c-0.4,0-0.6,0.2-0.6,0.5v11.6
			c0,0.3,0.2,0.5,0.6,0.5v0.5h-3.9V179.2z"/>
		<path class="st1" d="M134.2,179.2v0.5h-3.6v-0.5c0.1,0,0.2,0,0.3-0.1c0.1-0.1,0.1-0.2,0.1-0.3v-10.2h-3.9c-0.1,0-0.3,0-0.4,0.1
			c-0.1,0.1-0.2,0.2-0.2,0.5H126v-3.6h0.4c0,0.2,0.1,0.4,0.2,0.5c0.1,0.1,0.3,0.1,0.4,0.1h10.4c0.1,0,0.3,0,0.4-0.1
			c0.1-0.1,0.2-0.2,0.2-0.5h0.4v3.6h-0.4c0-0.2-0.1-0.4-0.2-0.5c-0.1-0.1-0.3-0.1-0.4-0.1h-3.9v10.2
			C133.6,179.1,133.8,179.2,134.2,179.2z"/>
		<path class="st1" d="M140.8,179.2c0.4,0,0.6-0.2,0.6-0.5v-11.6c0-0.3-0.2-0.5-0.6-0.5v-0.5h3.9v0.5c-0.4,0-0.6,0.2-0.6,0.5v11.6
			c0,0.3,0.2,0.5,0.6,0.5v0.5h-3.9V179.2z"/>
		<path class="st1" d="M156.7,166.5c0.9,0.3,1.7,0.7,2.4,1.3c0.7,0.6,1.3,1.3,1.8,2.1c0.5,0.9,0.7,1.9,0.7,3.1
			c0,1.2-0.2,2.2-0.7,3.1c-0.5,0.9-1.1,1.6-1.8,2.1c-0.7,0.6-1.6,1-2.4,1.2c-0.9,0.3-1.8,0.4-2.6,0.4s-1.7-0.1-2.6-0.4
			c-0.9-0.3-1.7-0.7-2.4-1.2c-0.7-0.6-1.3-1.3-1.8-2.1c-0.5-0.9-0.7-1.9-0.7-3.1c0-1.2,0.2-2.2,0.7-3.1c0.5-0.9,1.1-1.6,1.8-2.1
			c0.7-0.6,1.6-1,2.4-1.3c0.9-0.3,1.8-0.4,2.6-0.4S155.8,166.3,156.7,166.5z M152.3,168.8c-0.6,0.2-1.1,0.5-1.6,0.9
			c-0.5,0.4-0.9,0.9-1.2,1.4c-0.3,0.6-0.4,1.2-0.4,1.9c0,0.7,0.1,1.4,0.4,1.9c0.3,0.6,0.7,1,1.2,1.4c0.5,0.4,1,0.7,1.6,0.9
			c0.6,0.2,1.2,0.3,1.8,0.3c0.6,0,1.2-0.1,1.8-0.3c0.6-0.2,1.1-0.5,1.6-0.9c0.5-0.4,0.9-0.9,1.2-1.4c0.3-0.6,0.4-1.2,0.4-1.9
			c0-0.7-0.1-1.4-0.4-1.9c-0.3-0.6-0.7-1-1.2-1.4c-0.5-0.4-1-0.7-1.6-0.9c-0.6-0.2-1.2-0.3-1.8-0.3
			C153.5,168.5,152.9,168.6,152.3,168.8z"/>
		<path class="st1" d="M164.7,179.2c0.3,0,0.4-0.2,0.4-0.5v-11.6c0-0.3-0.1-0.5-0.4-0.5v-0.5h4v0.5c-0.1,0-0.2,0.1-0.2,0.3
			c0,0.1,0.2,0.4,0.5,0.7l6.8,7.6v-8.1c0-0.3-0.2-0.5-0.6-0.5v-0.5h3.6v0.5c-0.3,0-0.4,0.2-0.4,0.5v11.6c0,0.3,0.1,0.5,0.4,0.5v0.5
			h-3.8v-0.5c0.2,0,0.3-0.1,0.3-0.2c0-0.1-0.1-0.3-0.4-0.6l-7.2-8.1v8.5c0,0.3,0.2,0.5,0.5,0.5v0.5h-3.5V179.2z"/>
	</g>
</g>
<g>
	<path class="st2" d="M188.3,161.5c0.1-0.2,0.2-0.7,0.3-1s0.1-0.9,1.8-1.9c0.3-0.2,0.6-0.3,0.9-0.4l0-3.6c-0.2,0.2-0.4,0.3-0.5,0.4
		c-0.3,0.3-1.6,1-1.8,1.1c-0.2,0.1-0.6,0.2-0.7,0.1c-0.1-0.1,0-0.7,0.4-1.4c0.5-0.7,1.9-2.3,2.5-2.8c0,0,0.1,0,0.1-0.1l0-1.3
		c-0.1,0.1-0.3,0.2-0.4,0.3c-0.8,0.6-2.8,2.7-3.2,3.4c-0.4,0.8-0.3,1.8-0.3,1.8s-0.5,0.3-0.7,0.7c-0.2,0.4-0.3,0.2-0.4,1.5
		c-0.1,1.3,0.6,2.1,0.8,2.3C187.4,161,188.2,161.7,188.3,161.5z"/>
	<path class="st2" d="M203.3,136.6c0-0.5,0-0.9,0-1.2c0-1.2-0.1-1.9-0.3-1.9c-0.1,0-0.8,1.2-1.2,1.7c-0.2,0.2-0.7,0.9-1.1,1.5H203.3
		z"/>
	<path class="st2" d="M199,136.6c0.1-0.8,0.2-2,0.2-2.6c0-0.8,0.1-2.6,0-3c-0.1-0.4-0.6,0.1-0.7,0.3s-1,1.9-1.1,2.2
		c-0.1,0.3-1.5,2-1.7,2.2c-0.2,0.2-0.2,0.2-0.3,0c0-0.2,0-4.8,0-5.2c0-0.5-0.3-3.7-0.3-4.1c0-0.4-0.4-0.3-0.6-0.1
		c-0.1,0.2-0.9,4.2-1.1,5c-0.2,0.8-1.3,4.2-1.5,4.3c-0.2,0.1,0-1.8,0-2.2c0-0.4,0.6-3.8,0.7-4.7c0.1-0.9-0.1-1.1-0.4-1.2
		c-0.3-0.1-1.6,2.6-1.8,3c-0.2,0.4-2,4.2-2.1,4.7c0,0.2,0.3,0.9,0.8,1.6H199z"/>
	<path class="st2" d="M269.8,135c-0.3-0.1-2.7-0.1-3.3-0.1s-5.9,0-6.5,0c-0.5,0-2.2,0.2-2.2,0c0-0.2,4.4-1.2,5.2-1.5
		c0.8-0.3,5-2.1,6.1-2.6s0.9-0.6,0.8-0.8c-0.1-0.2-4,0.4-5.1,0.4c-1.1,0.1-5.3,0.5-6.1,0.6c-0.8,0.1-4.1,0.5-4.1,0.4
		s2.6-0.9,5.6-2.5c3.1-1.5,7.1-4.8,7.8-5.4c0.7-0.6,0.9-1.1,0.8-1.2c-0.1-0.1-1,0.1-1.7,0.4c-0.6,0.3-5.1,2-6.3,2.5
		c-1.3,0.4-5.8,2.1-6.9,2.5c-1.1,0.3-2.1,0.8-2.1,0.7c0-0.1,4-2.1,6.3-4c2.3-1.9,4.5-5.2,5.5-7c1-1.8,0.7-2.5,0.7-2.5
		s-0.6,0.7-1.1,1.4c-0.5,0.6-3,2.6-3.6,3.2c-0.6,0.5-4.6,3.2-5.9,4.1c-1.3,0.9-4.9,2.9-5.1,2.9c-0.2-0.1,5.7-5.4,6.9-7.2
		c1.2-1.7,2.6-5.1,2.8-5.6c0.2-0.6,0.4-1.5,0.1-1.7c-0.3-0.1-1.7,2-2.5,2.8c-0.8,0.7-4.3,4.5-5,5.1c-0.7,0.6-4.6,3.9-5.8,4.8
		c-1.2,0.9-2.8,2.3-2.9,2.2c-0.1-0.1,3.2-4.3,3.6-4.8c0.3-0.5,1.6-3.2,1.8-4.1c0.2-0.9,0-1.7-0.6-1.8c-0.6-0.1-2.5,3.7-3.2,4.7
		c-0.7,1-3.2,3.8-4.3,5c-1.1,1.2-3.5,3.9-4.4,4.8s-5.6,5.5-6.3,6.2c-0.7,0.7-4.7,3.6-5,3.7c-0.3,0.1-0.7,0.1-1.5,0.1
		c-0.5,0.1-1.2,0.4-1.8,0.7l4.3,5.6l5.1-7.2h-0.7v-2.9h10.8v2.9h-1c-0.1,0-0.4,0-0.9,0.5c-0.5,0.5-1,1-1.4,1.5l-1.6,2
		c0.6-0.1,1.3-0.2,2-0.4c1.1-0.3,2.8-1.2,3.7-1.7c0.9-0.5,3-2,3.6-2.5c0.6-0.4,2.8-2.6,3-2.9c0.3-0.3,1.7-1.8,1.7-1.8
		s-1.2,1.6-1.5,2.1c-0.3,0.4-3.1,3.4-3.9,4c-0.7,0.5-3.3,2.5-4.4,2.9c-1.1,0.4-3.6,1.4-4.8,1.4c-0.1,0-0.2,0-0.2,0l-1.3,1.7
		c0.5,0.1,1.1,0.2,2,0.2c3,0.2,4-0.1,4.4-0.1c0.4,0,1.4-0.2,3-0.7c1.7-0.5,3.8-1.4,4.4-1.7c0.6-0.2,2.6-1.2,2.9-1.4
		c0.3-0.1,1.2-0.7,1.2-0.7s-2.3,1.7-2.8,1.9c-0.4,0.3-3,1.9-4,2.3c-1,0.4-4.1,1.2-4.8,1.4c-0.7,0.1-3.4,0.1-4,0.1
		c-0.5,0-2.1-0.4-3-0.6l-0.7,0.9c0.8,0.4,2,0.9,2.3,1c0.4,0.1,3.6,0.8,4.1,0.8c0.5,0.1,2.1,0.1,2.6,0.1c0.6,0,2.5-0.2,2.9-0.3
		c0.4,0,2.1-0.3,2.5-0.4c0.3-0.1,1.5-0.4,1.5-0.4s-2.3,0.8-2.6,0.8c-0.3,0.1-2.4,0.6-3.4,0.7c-1,0.1-3.5,0.2-4.4,0.1
		c-0.9-0.1-3.7-0.6-4.3-1c-0.2-0.1-0.9-0.6-1.6-1.1l-0.6,0.8c0.8,0.6,2.6,1.9,3.3,2.2c0.7,0.4,2.6,1,3.4,1.2
		c0.8,0.3,1.4,0.4,1.9,0.6c0.5,0.1,1.7,0.3,1.7,0.3s-1.5-0.1-1.9-0.1s-2.9-0.6-3.9-0.8c-1-0.3-3-1.3-3.4-1.5
		c-0.2-0.1-0.9-0.7-1.5-1.3l-0.4,0.6c0.4,0.5,0.7,0.9,0.8,1c0.3,0.3,2.5,2.3,3,2.6c0.5,0.4,2.9,1.6,3.7,1.9c0.8,0.3,1.2,0.3,1.7,0.4
		c0.4,0.1,1.7,0.3,1.7,0.3s-2,0-2.6-0.1c-0.6-0.1-3.4-1.1-3.9-1.4c-0.4-0.3-2.6-1.7-3.4-2.8c-0.4-0.4-0.8-1-1.3-1.6l-0.5,0.7
		c0.4,0.7,0.9,1.4,1.1,1.6c0.4,0.5,1.7,2,2.1,2.3c0.4,0.4,1.3,1.2,1.5,1.4c0.3,0.2,1.1,0.8,1.1,0.8s-1.8-0.9-2.1-1.2
		c-0.3-0.3-1.8-1.6-2.3-2.1c-0.4-0.4-1.4-1.6-1.8-2.2l-0.5,0.6v8.3c0,0,0.1,0,0.1,0h1v2.9H220v-2.9h1c0,0,0.1,0,0.1,0l0-8.5l-2.3-3
		c-0.3-0.3-0.7-0.7-0.8-0.8c-0.2-0.2-0.8-0.9-1-0.8c-0.2,0.1-0.1,0.7,0.1,1c0.2,0.3,0.6,1,0.6,1s-0.8-0.6-1-0.7
		c-0.1-0.1-0.5-0.1-0.4,0.1c0.1,0.3,0.2,0.7,0.1,1c-0.1,0.2-0.4,0.7-0.6,0.7c-0.1,0-1.3-1.2-1.8-1.5c-0.5-0.3-3-1-2.9-1.1
		c0.1-0.1,1.4-0.1,1.8-0.1c0.4,0,1.6,0.1,1.8,0.1c0.2,0,1-0.6,1.2-0.8c0.1-0.1,0.4-0.3,0.8-0.5l-1.5-1.9c-1.4,0.8-3.3,1.3-4.5,1.4
		c-1.3,0.1-3.1-1.2-3.4-1.4c-0.4-0.2-2.5-1.7-3-2.2c-0.1-0.1-0.1-0.1-0.2-0.2h-5.3v5.9c1.4,0,3,0,3.4,0.1c0.7,0.2,1.5,0.1,1.8,0.1
		c0.3,0.1,1.1,0.1,1.1,0.3c0,0.1-1.4,0.9-1.4,1.1c0,0.2,0.5,0.4,1,0.6c0.4,0.1,0.8,0.3,0.8,0.6c0,0.2-1.1,0.9-1.1,1.1
		c0,0.2,0.4,0.3,0.8,0.6c0.4,0.2,0.4,0.5,0,0.6c-0.4,0.1-0.9,0.2-0.8,0.4c0.1,0.2,0.6,0.5,0.8,0.6c0.3,0.1,0.3,0.3,0.1,0.4
		c-0.1,0.1-0.9,0.4-1.1,0.4c-0.2,0-0.6,0-0.6,0v1.1c0,0-0.2,0.6-1.1,0.3c-0.9-0.3-1.7-0.8-1.9-1c-0.3-0.2-0.7-0.8-1-0.8
		c-0.2-0.1-0.5,0-1-0.1v3.5c1,0.5,1.6,1.3,1.9,1.7c0.4,0.6,0.8,2.1,1,2.8c0.2,0.6,0.5,2.5,0.4,2.8s-0.5,0.5-0.7,0.6
		c-0.2,0-1.2,0.7-1.8,1.1s-2.8,2.4-3.4,3c-0.7,0.6-2.5,2.8-3.3,3.7c-0.8,0.9-1.6,1.3-2.2,1.2c-0.6-0.1-2-0.6-2.5-0.8
		c-0.4-0.2-1.7-0.7-2.2-1c-0.5-0.2-1.6-0.3-2.1-0.3s-0.7,0.8-0.7,0.8s-1,0-1.4,0.4c-0.4,0.4-0.7,1.3-0.7,1.8s0.1,1,0.3,1
		s0.6-0.7,0.8-1c0.2-0.3,0.8-0.4,0.8-0.4s0.1,0.5,0.1,0.8c0.1,0.3-0.1,1.9,0.3,2.1c0.3,0.2,0.9-0.5,1.1-1c0.2-0.4,0.2-1,0.7-1.2
		s1.2,0.2,1.7,0.6c0.5,0.3,1,1,1.1,1.4c0.1,0.4,0.1,1.4,0,2.3c-0.1,1,0.2,1.1,0.4,0.8s0.4-1,0.7-1c0.2,0,0.9-0.5,1.1-1.1
		c0.2-0.6,0.2-1.7,0.4-1.7c0.2,0,0.3,0.4,0.4,0.7c0.1,0.3,0.4,1.7,0.4,2.2c0,0.5-0.6,2.4-0.4,2.6c0.1,0.2,0.9-0.7,1.2-1.1
		s1.1-1.3,1.4-1.9c0.3-0.6,0.3,0.1,0.3,0.6c0,0.5-0.4,2.4-0.7,3.4c-0.2,1,0.2,0.8,0.4,0.6c0.2-0.2,0.7-1,1-1.4
		c0.2-0.4,1.2-1.7,1.7-2.8c0.5-1,0.7-1.1,0.8-0.8c0.1,0.3-0.2,1.5-0.4,2.1c-0.2,0.6-0.1,0.6,0.1,0.6c0.2,0,1.8-2.5,2.2-3
		c0.4-0.6,1.5-1.4,1.8-1.7c0.3-0.2,1.1-0.7,1.4-0.7c0.3,0,0.6,0.5,0.6,1.5c-0.1,1-1.1,1.9-1.8,2.6c-0.7,0.7-1.5,1.2-2.1,1.8
		c-0.6,0.6-0.7,1.7-0.8,2.5c-0.2,0.8,0.6,0.5,1-0.1c0.3-0.6,1.6-1.8,2.1-1.9c0.5-0.1,0.7,0.4,0.8,0c0.1-0.4,1.3-0.9,1.4-0.7
		c0.1,0.2-0.3,0.4-0.6,0.7c-0.2,0.3-0.5,1.1-0.6,1.9c-0.1,0.8,0.6,0.8,0.8,0.4c0.2-0.4,0.7-0.8,1.2-1.2c0.5-0.4,1-1.1,2.3-1.1
		c1.4,0,2,1,2.1,1.4c0.1,0.4,0.1,2,0,2.8c-0.1,0.7,0.3,0.5,0.6,0.3c0.2-0.2,0.7-1.5,1-3.9c0.3-2.4,0.4-2.6,0.8-2.6s1,1.3,1.4,2.1
		c0.3,0.7,0.4,0.8,1.2,0.1c0.9-0.7,1.4-2.7,1.7-3.6c0.3-0.9,0.7-3,0.7-3s1.3,2.1,1.8,2.6s3.2,3.7,4.3,5c1.1,1.3,0.9-0.1,0.4-0.7
		c-0.5-0.6-2.3-3.7-3-4.7s0.4-0.3,0.7-0.1c0.3,0.2,1.7,1.8,2.1,2.2c0.4,0.4,3,3.4,3.9,4.1c0.8,0.7,0.2-0.7,0-1.2
		c-0.2-0.5-1.1-2.5-1.8-4.4c-0.7-1.9,1.1,0.2,1.4,0.8c0.3,0.6,2.5,3.5,3.4,4.4c0.9,0.9,0.6-0.1,0.4-0.6c-0.2-0.4-1.7-3.4-1.9-4
		c-0.2-0.6-0.9-2.3-0.7-2.5c0.2-0.2,2.4,1.9,2.8,2.2s2.4,2.9,3,3.7c0.6,0.8,1.9,2.2,2.1,2.1c0.2-0.1-0.8-1.7-1.1-2.1
		c-0.3-0.4-1.4-2.4-1.7-2.6c-0.2-0.2-1-1.3-1-1.4c0.1-0.1,0.7,0.3,1,0.4c0.2,0.1,1.3,0.7,1.8,1c0.4,0.2,2.2,1.2,2.5,1.5
		c0.3,0.3,1.4,0.7,1.4,0.4c-0.1-0.3-0.8-0.8-1.4-1.2s-1.9-1.6-2.3-1.9c-0.4-0.3-0.7-0.8-0.6-1c0.1-0.2,0.7,0.1,1.1,0.1
		c0.4,0.1,1.9,0.7,2.5,1s3.1,1.4,3.6,1.7c0.5,0.2,1,0.7,1.1,0.1c0.1-0.5-1.1-1-1.7-1.4c-0.6-0.4-2.4-1.6-2.9-1.9
		c-0.5-0.3-2.1-1.1-2.1-1.2c0.1-0.1,6.9,0,9.1,0c2.2,0,0.4-0.5,0-0.6c-0.4-0.1-3.8-0.4-5.4-0.6c-1.5-0.2-4.6-0.9-6.2-1.4
		c-1.6-0.5-4.1-1.9-5.5-2.6c-1.4-0.7-3.8-2.8-4.1-3.2c-0.4-0.4-0.9-0.8-0.7-0.8c0.2-0.1,0-0.2,1.1,0.7c1.1,0.9,2.1,0.8,2.3,0.7
		c0.2-0.1,0.3-1.2,0.4-1.2c0.1,0,0.9,0.6,2.1,1.2c1.2,0.7,1.9,0.4,2.2,0.3s0.2-1,0.4-1.1c0.2-0.1,0.5-0.2,0.8-0.4
		c0.3-0.2,0.6-0.6,0.8-0.6c0.2,0.1,0.5,0.7,1,1.2c0.4,0.5,1.9,1.4,3.2,1.4c1.3,0,2.6-1,2.9-1.2c0.3-0.2,1.1-1.5,1.4-1.5
		c0.2-0.1,1,0.9,1.4,0.8c0.4,0,0.6-0.7,0.6-1.1c0-0.4,0.3-0.7,0.6-0.7s1-0.1,1.4-0.4c0.4-0.4,0.7-1.1,0.8-1.1c0.2,0,1,0.1,1.2-0.3
		c0.2-0.3,0.2-0.9,0.7-1c0.5,0,0.9-0.1,1.2-0.4s0.5-0.9,0.7-1s0.8-0.3,1.1-0.6c0.3-0.2,1.8-1.4,2.3-1.9c0.5-0.5,1.9-2.9,2.1-3
		c0.2-0.1,0.4,0.1,0.6-0.1c0.2-0.2,0.3-0.6,0.3-1.1c0-0.6,0.3-0.6,0.7-1c0.4-0.3,0.6-0.7,0.3-1c-0.3-0.3-0.4-0.2-0.3-0.4
		c0.2-0.2,0.7-0.4,1-0.7c0.3-0.3,0.4-1.2,0.4-1.2s2-0.2,2.5-0.6c0.5-0.3,0.5-1.5,0.6-1.7s0.6-0.4,0.8-0.7c0.2-0.2,0.7-0.8,0.7-1.5
		s-0.3-1.2-0.3-1.2c0.1-0.1,0.8-0.2,1.2-0.4c0.4-0.2,1-0.4,1.1-0.8c0.1-0.4,0.1-0.8-0.1-1.2c-0.3-0.4-1.2-0.8-1.5-1
		c-0.4-0.2-1.7-0.5-1.7-0.6c0-0.1,0.9-0.1,1.5-0.3s2.8-0.9,3.7-1.2s1.1-0.7,0.8-0.8c-0.3-0.1-3.2-0.8-3.7-1s-2.6-0.9-2.5-1
		c0.1-0.1,1.3-0.2,3-0.3c1.7-0.1,4-0.8,5.2-1.4C270.3,135.5,270,135.1,269.8,135z M222.2,170.5c0,0,1.9,1.9,2.3,2.2
		c0.5,0.3,2.8,1.7,4,2.2c1.2,0.5,4.1,1.2,4.1,1.2s-2.4-0.3-2.9-0.4s-2.4-0.9-2.8-1.1c-0.4-0.2-1.9-0.9-2.1-0.8
		c-0.2,0.1,0.1,0.5,0.3,0.7c0.2,0.2,1,1,1,1c0,0-1.5-0.6-1.7-0.7s-1.1-0.5-0.3,0.4c0.9,0.9,1.5,1.4,1.5,1.4s-1.1-0.4-1.4-0.6
		c-0.3-0.1-0.9-0.6-1-0.4s-0.1,0.3,0.1,0.7c0.2,0.4,0.7,1.4,0.7,1.4s-0.5-0.3-0.8-0.6c-0.4-0.2-1.6-1.2-1.9-1.5
		c-0.3-0.3-1.1-1.7-1.2-1.9c-0.1-0.2-0.3-0.5-0.3-0.6s0.3,0.1,0.6,0.1c0.2,0,1,0.3,1.2,0.3c0.2,0,0.6,0,0.6-0.3
		c0-0.3-0.5-1.1-0.6-1.2c-0.1-0.1-0.6-0.8-0.6-0.8s0.5,0.6,0.8,0.3C222.3,171.1,222.2,170.5,222.2,170.5z"/>
</g>
</svg>
