<?xml version="1.0" encoding="utf-8"?>
<!-- Generator: Adobe Illustrator 23.0.6, SVG Export Plug-In . SVG Version: 6.00 Build 0)  -->
<svg version="1.1" id="Layer_1" xmlns="http://www.w3.org/2000/svg" xmlns:xlink="http://www.w3.org/1999/xlink" x="0px" y="0px"
	 viewBox="0 0 300 60" style="enable-background:new 0 0 300 60;" xml:space="preserve">
<style type="text/css">
	.st0{fill:#CCCCCC;}
</style>
<g>
	<g>
		<path class="st0" d="M40.9,31.5H28.2c0.7-0.3,1.2-0.8,1.4-1.4c0.3-0.6,0.4-1.2,0.4-1.7c0-0.2,0-0.3,0-0.4l-1.7-16.6L22,32.1
			c-0.9-0.2-1.6-0.5-2.2-0.8s-1.3-0.8-2.2-1.4c-0.6-0.5-1.1-1-1.6-1.6c-0.6-0.7-1-1.4-1.3-2.2l-5.6-15L7.4,28.7
			c-0.1,0.5,0.1,0.9,0.4,1.3c0.1,0.1,0.3,0.4,0.7,0.7c0.4,0.3,0.8,0.6,1.3,0.8H0c0.5-0.4,0.9-0.8,1.3-1.3c0.3-0.5,0.6-0.9,0.7-1.3
			c0.2-0.4,0.3-0.9,0.3-1.5L4.9,4.9c0-0.2,0-0.4,0-0.7C5,3.6,4.8,3,4.5,2.3S3.8,0.9,3.1,0.4h11l7,18.3l5.6-18.3h11.5
			c-0.5,0.2-0.8,0.4-1,0.5s-0.4,0.4-0.6,0.9c-0.2,0.4-0.4,0.9-0.4,1.4c0,0.3,0,0.5,0,0.6L39.1,28c0,0.4,0.1,0.7,0.1,1.1
			s0.1,0.7,0.3,1c0.1,0.3,0.3,0.6,0.6,0.8C40.2,31.1,40.5,31.3,40.9,31.5z"/>
		<path class="st0" d="M76.7,31.5H62c0.4-0.1,0.8-0.3,1.2-0.5c0.4-0.3,0.7-0.6,0.9-1.1s0.3-0.9,0.3-1.3s-0.1-0.9-0.3-1.5l-1.7-5
			h-9.3L51.4,27c-0.2,0.6-0.3,1.2-0.3,1.6c0,0.5,0.1,0.9,0.3,1.3s0.5,0.8,0.9,1.1c0.3,0.2,0.7,0.4,1.2,0.5H43.1
			c0.2-0.2,0.4-0.4,0.6-0.6c0.2-0.2,0.4-0.4,0.5-0.6c0.4-0.5,0.7-0.8,0.8-1c0.3-0.4,0.5-0.8,0.6-1.2l8.2-23.6C53.9,4,54,3.7,54,3.4
			c0-0.7-0.2-1.3-0.6-1.8c-0.4-0.5-0.9-0.9-1.5-1.1h11.8l9.7,26.7c0.2,0.4,0.4,0.8,0.6,1.2c0.1,0.2,0.4,0.6,0.9,1.3
			C75.4,30.2,76,30.8,76.7,31.5z M61,17.5l-3.3-9l-3.2,9H61z"/>
		<path class="st0" d="M102.7,21.9c0,3.1-1.2,5.6-3.6,7.5s-5.5,2.8-9.2,2.8c-1.3,0-2.6-0.1-3.9-0.3s-2.7-0.6-4.1-1.1l-1.2-0.4
			l-1.4-6.5l3.4,1.9c0.9,0.5,1.9,0.9,3.2,1.2c1.3,0.3,2.5,0.4,3.6,0.4c1.3,0,2.4-0.3,3.2-0.8c0.8-0.6,1.2-1.4,1.2-2.5
			c0-0.9-0.3-1.7-1-2.4c-0.5-0.6-1.3-1.1-2.4-1.6l-3.3-1.6c-2.8-1.4-4.8-2.7-5.9-4.1c-1.2-1.5-1.8-3.4-1.8-5.7
			c0-2.6,1.1-4.6,3.3-6.2C85.2,0.8,87.8,0,91,0c1,0,1.9,0,2.7,0.1c0.8,0.1,1.7,0.2,2.6,0.5l3,0.7v5.5l-1.9-1c-0.5-0.3-1.2-0.5-2-0.8
			S93.8,4.6,93,4.6c-1,0-1.9,0.2-2.6,0.5s-1.3,0.8-1.6,1.6c-0.2,0.4-0.2,0.7-0.2,1c0,1,0.7,1.9,2.2,2.7c0.3,0.2,1.3,0.6,2.8,1.4
			l3.1,1.4c1.7,0.8,3.1,1.9,4.2,3.3C102,18.2,102.7,20,102.7,21.9z"/>
		<path class="st0" d="M134.4,24.5l-2.3,6.7l-4.8,0.8c-1.5,0.2-2.9,0.3-4.3,0.3c-5.1,0-9.3-1.5-12.6-4.4c-3.3-3-5-7-5-12
			c0-4.8,1.7-8.6,5.2-11.3c3.5-2.8,8.2-4.2,14.1-4.2l5.3,0.4l0.2,6.5c-0.6-0.6-1.6-1.1-2.9-1.6c-1.5-0.6-3-0.8-4.5-0.8
			c-3.4,0-5.8,1.3-7,3.9c-0.8,1.6-1.2,4.1-1.2,7.3s0.7,5.8,2.2,7.8c1.7,2.3,4.2,3.5,7.5,3.5c1.3,0,2.4-0.1,3.4-0.3
			c1-0.2,2.1-0.6,3.3-1.2L134.4,24.5z"/>
		<path class="st0" d="M168.2,0.4c-0.3,0.2-0.6,0.5-0.8,0.8c-0.3,0.4-0.5,0.8-0.7,1s-0.3,0.6-0.4,1c-0.1,0.5-0.2,0.8-0.2,1v22.3
			c0,0.2,0,0.4,0,0.6s0,0.4,0,0.6c0,0.4,0,0.8,0.1,1.2c0.1,0.4,0.2,0.7,0.5,1.1c0.4,0.6,0.9,1.1,1.5,1.5H155
			c0.2-0.1,0.3-0.2,0.5-0.3c0.2-0.1,0.3-0.2,0.5-0.4c0.5-0.5,0.8-0.9,0.9-1.5c0.2-0.5,0.3-1.1,0.3-1.8v-10h-8.4v9.1
			c0,0.4,0,0.7,0,0.9c0,0.6,0,1,0.1,1.4s0.2,0.7,0.5,1.2c0.2,0.3,0.4,0.6,0.6,0.8c0.1,0.1,0.4,0.3,0.9,0.6h-13.1
			c0.2-0.1,0.3-0.2,0.5-0.2c0.2-0.1,0.3-0.2,0.5-0.3c0.5-0.4,0.8-0.9,0.9-1.4c0.2-0.5,0.2-1.1,0.2-1.9V4c0-0.4-0.1-0.8-0.2-1.1
			c-0.1-0.4-0.2-0.7-0.4-0.9c-0.3-0.4-0.5-0.7-0.8-1c-0.2-0.2-0.5-0.4-0.8-0.6h13.1c-0.4,0.2-0.7,0.5-0.9,0.9
			c-0.3,0.3-0.4,0.6-0.5,0.7c-0.2,0.3-0.4,0.6-0.5,1s-0.2,0.8-0.2,1v8.8h8.4V4c0-0.5,0-0.8-0.1-1.1s-0.2-0.5-0.4-0.8
			s-0.4-0.6-0.7-0.9c-0.2-0.3-0.5-0.5-0.8-0.7h13.1L168.2,0.4L168.2,0.4z"/>
		<path class="st0" d="M212.4,31.5h-12.6c0.7-0.3,1.2-0.8,1.4-1.4c0.3-0.6,0.4-1.2,0.4-1.7c0-0.2,0-0.3,0-0.4l-1.7-16.6l-6.4,20.8
			c-0.9-0.2-1.6-0.5-2.2-0.8c-0.6-0.3-1.3-0.8-2.2-1.4c-0.6-0.5-1.1-1-1.6-1.6c-0.6-0.7-1-1.4-1.3-2.2l-5.6-15L179,28.8
			c-0.1,0.5,0.1,0.9,0.4,1.3c0.1,0.1,0.3,0.4,0.7,0.7c0.4,0.3,0.8,0.6,1.3,0.8h-9.8c0.5-0.4,0.9-0.8,1.3-1.3
			c0.3-0.5,0.6-0.9,0.7-1.3c0.2-0.4,0.3-0.9,0.3-1.5L176.5,5c0-0.2,0-0.4,0-0.7c0-0.6-0.2-1.2-0.5-1.9s-0.8-1.4-1.4-1.9h11l7,18.3
			l5.6-18.3h11.5c-0.5,0.2-0.8,0.4-1,0.5s-0.4,0.4-0.6,0.9c-0.2,0.4-0.4,0.9-0.4,1.4c0,0.3,0,0.5,0,0.6l2.8,24.2
			c0,0.4,0.1,0.7,0.1,1.1s0.1,0.7,0.3,1c0.1,0.3,0.3,0.6,0.6,0.8C211.7,31.1,212,31.3,212.4,31.5z"/>
		<path class="st0" d="M238.1,24.3l-2,7.2H215c0.5-0.3,0.7-0.4,0.8-0.4c0.1-0.1,0.2-0.2,0.4-0.4c0.4-0.5,0.7-0.9,0.9-1.4
			s0.2-1.1,0.2-1.8V3.9c0-0.2-0.1-0.5-0.2-0.9c-0.1-0.4-0.3-0.8-0.5-1.1c-0.3-0.4-0.5-0.7-0.7-0.8c-0.3-0.3-0.6-0.5-0.8-0.7h17.6
			c0.4,0,0.6,0,0.7,0l0.5-0.3v7.2c-0.2-0.4-0.3-0.6-0.4-0.8c-0.1-0.2-0.4-0.3-0.7-0.6c-0.3-0.2-0.7-0.4-1.1-0.6
			c-0.4-0.1-0.8-0.2-1-0.2H226v7.6h4.5c0.3,0,0.5,0,0.6,0c0.3,0,0.5,0,0.6,0l0.6-0.3v7c-0.2-0.6-0.6-1.1-1.2-1.5
			c-0.3-0.2-0.6-0.3-1.1-0.4c-0.4-0.1-0.8-0.1-1-0.1h-3v8.9c0.6,0.2,1.3,0.4,2.2,0.6s1.8,0.2,2.7,0.2c0.2,0,0.4,0,0.6,0
			c0.3-0.1,0.4-0.1,0.6-0.1c1.7-0.2,2.9-0.5,3.6-0.9C236.1,26,236.9,25.3,238.1,24.3z"/>
		<path class="st0" d="M272.7,16.4c0,4.6-1.4,8.2-4.2,10.8c-3,2.8-7.2,4.2-12.6,4.2h-14.3c0.3-0.1,0.5-0.2,0.6-0.2
			c0.2-0.1,0.4-0.2,0.6-0.4c0.5-0.5,0.8-0.9,0.9-1.4c0.2-0.5,0.2-1.1,0.2-1.8V4c0-0.4,0-0.7-0.1-0.9c-0.1-0.3-0.3-0.6-0.6-1.1
			s-0.6-0.8-0.8-1s-0.4-0.4-0.6-0.5h15.4c4.6,0,8.3,1.6,11.3,4.7C271.2,8.2,272.7,12,272.7,16.4z M263.5,16.4c0-3-0.6-5.4-1.7-7.3
			c-1.4-2.4-3.4-3.5-6.1-3.5c-0.3,0-0.6,0-1,0c-0.3,0-0.7,0.1-1,0.2L252.4,6v20.4l1.4,0.5c0.9,0.4,1.8,0.5,2.7,0.5
			c2.3,0,4.1-1.2,5.3-3.7C263,21.6,263.5,19.1,263.5,16.4z"/>
		<path class="st0" d="M300,0.4l-1.7,6.9c-0.1-0.3-0.3-0.5-0.5-0.7s-0.3-0.4-0.4-0.5c-0.6-0.6-1.4-0.9-2.3-0.9h-2.4L292,5.5V27
			c0,0.9,0,1.4,0.1,1.7c0.1,0.3,0.3,0.7,0.7,1.3c0.4,0.6,0.9,1.1,1.6,1.5h-13.1c0.3-0.2,0.6-0.5,0.9-0.8c0.7-0.9,1.1-2,1.1-3.2V5.4
			l-0.4-0.2h-3.3c-0.6,0-1.3,0.2-2.2,0.6c-0.7,0.3-1.3,0.7-2,1.2l1.8-6.7L300,0.4L300,0.4z"/>
	</g>
	<g>
		<path class="st0" d="M45.6,48.7c0.3,0,0.7,0,1,0.1s0.6,0.2,0.8,0.3s0.4,0.3,0.6,0.6c0.1,0.2,0.2,0.5,0.2,0.9
			c0,0.3-0.1,0.5-0.2,0.7c-0.1,0.2-0.3,0.4-0.5,0.6c-0.2,0.2-0.4,0.3-0.6,0.5c-0.2,0.1-0.4,0.3-0.7,0.4c0.1,0.1,0.2,0.2,0.3,0.2
			c0.1,0.1,0.2,0.2,0.3,0.2c0.2,0.2,0.4,0.4,0.6,0.6c0.2,0.2,0.4,0.4,0.6,0.7c0.2,0.2,0.4,0.5,0.6,0.7c0.2,0.2,0.4,0.4,0.6,0.6
			l0.1-0.1l0.1-0.1c0.1-0.1,0.2-0.3,0.4-0.4c0.1-0.2,0.2-0.3,0.4-0.5c0.1-0.2,0.2-0.3,0.3-0.5s0.1-0.3,0.1-0.5s0-0.3-0.1-0.4
			c-0.1-0.1-0.1-0.1-0.2-0.1c-0.1,0-0.1,0-0.2-0.1C50,53.1,50,53,50,52.9c0,0,0-0.1,0.1-0.1s0.2,0,0.2,0h1.1c0.2,0,0.5,0,0.7,0
			s0.5,0,0.7,0c0.1,0,0.1,0,0.2,0.1c0.1,0,0.1,0.1,0.1,0.2c0,0.1,0,0.1-0.1,0.2c-0.1,0-0.1,0.1-0.2,0.1c-0.1,0-0.2,0-0.2,0
			c-0.1,0-0.2,0-0.2,0c-0.2,0-0.3,0.1-0.5,0.2c-0.2,0.1-0.3,0.3-0.5,0.5s-0.3,0.4-0.4,0.6c-0.1,0.2-0.2,0.3-0.3,0.4
			c-0.2,0.2-0.4,0.5-0.6,0.8c-0.2,0.3-0.4,0.5-0.6,0.7c0.2,0.3,0.4,0.6,0.7,0.9c0.2,0.3,0.5,0.5,0.7,0.7s0.5,0.4,0.8,0.6
			c0.3,0.1,0.6,0.2,0.9,0.3c0.1,0,0.2,0.1,0.3,0.1s0.2,0.1,0.2,0.1c0.1,0,0.1,0.1,0.1,0.2c0,0.1,0,0.2-0.1,0.3c-0.1,0-0.2,0-0.3,0.1
			c-0.1,0-0.2,0-0.3,0s-0.2,0-0.3,0s-0.2,0-0.3,0c-0.5,0-1-0.1-1.3-0.2c-0.3-0.2-0.6-0.3-0.9-0.6c-0.2-0.2-0.4-0.4-0.6-0.7
			c-0.2-0.2-0.3-0.4-0.5-0.6l0,0l0,0c-0.1,0.2-0.3,0.4-0.5,0.6c-0.2,0.2-0.4,0.4-0.6,0.6c-0.2,0.2-0.4,0.4-0.7,0.5
			c-0.2,0.2-0.4,0.3-0.6,0.4c-0.4,0.2-0.9,0.3-1.4,0.3c-0.4,0-0.7,0-1-0.1s-0.6-0.2-0.9-0.4c-0.3-0.2-0.5-0.4-0.7-0.6
			c-0.2-0.2-0.3-0.5-0.4-0.8c-0.1-0.3-0.2-0.6-0.2-1V57c0-0.6,0.2-1.1,0.5-1.5s0.7-0.8,1.2-1.1c0.2-0.1,0.4-0.2,0.7-0.4
			c0.2-0.1,0.4-0.2,0.6-0.4c0,0-0.1-0.1-0.2-0.2c-0.3-0.2-0.5-0.5-0.7-0.9s-0.3-0.7-0.3-1.1c0-0.3,0.1-0.6,0.2-0.9
			c0.1-0.3,0.3-0.5,0.5-0.8c0.2-0.2,0.4-0.4,0.7-0.5C45,48.7,45.3,48.7,45.6,48.7z M45,53.5c-0.6,0.2-1,0.6-1.4,1
			c-0.4,0.5-0.5,1-0.5,1.6c0,0.4,0.1,0.7,0.2,1c0.1,0.3,0.3,0.6,0.5,0.8s0.5,0.4,0.8,0.5s0.6,0.2,1,0.2c0.5,0,1-0.1,1.4-0.3
			s0.7-0.5,1.1-0.9c0.1-0.1,0.1-0.2,0.2-0.3c0.1-0.1,0.1-0.2,0.2-0.3c-0.1-0.2-0.2-0.3-0.3-0.4c-0.1-0.1-0.2-0.3-0.4-0.4
			c-0.4-0.5-0.8-1-1.3-1.4C46,54.3,45.5,53.9,45,53.5z M47.1,50.6c0-0.4-0.1-0.8-0.3-1c-0.2-0.3-0.6-0.4-1-0.4s-0.7,0.1-0.9,0.4
			c-0.2,0.3-0.4,0.6-0.4,1c0,0.2,0,0.4,0.1,0.7c0,0.1,0.1,0.2,0.2,0.4c0.1,0.1,0.2,0.3,0.4,0.4c0.1,0.1,0.3,0.3,0.4,0.4
			c0.1,0.1,0.3,0.2,0.4,0.2c0.1,0,0.1,0,0.1-0.1l0.1-0.1c0.3-0.2,0.5-0.5,0.7-0.8C47,51.3,47.1,50.9,47.1,50.6z"/>
		<path class="st0" d="M67.9,59.2c0-0.1,0-0.2,0.1-0.3c0.1,0,0.2-0.1,0.3-0.1c0.1,0,0.3-0.1,0.4-0.1s0.3-0.1,0.4-0.3
			c0,0,0.1-0.1,0.1-0.3c0.1-0.1,0.1-0.3,0.2-0.5s0.1-0.3,0.2-0.5s0.1-0.3,0.1-0.4c0.2-0.6,0.5-1.2,0.7-1.8s0.5-1.2,0.7-1.8
			c0.4-1,0.8-2,1.2-3s0.8-2,1.2-3c0-0.1,0-0.1,0.1-0.2c0,0,0.1-0.1,0.2-0.1s0.1,0,0.2,0.1c0,0.1,0.1,0.1,0.1,0.2
			c0.3,0.6,0.5,1.3,0.8,1.9c0.3,0.6,0.5,1.3,0.8,1.9c0.5,1.2,0.9,2.4,1.4,3.6c0.5,1.2,1,2.3,1.6,3.5c0.1,0.2,0.2,0.3,0.4,0.4
			c0.2,0.1,0.4,0.1,0.5,0.1c0.2,0,0.3,0.1,0.5,0.1c0.1,0,0.2,0.1,0.2,0.3c0,0.1-0.1,0.2-0.2,0.2s-0.2,0.1-0.3,0.1h-0.2
			c-0.3,0-0.5,0-0.8,0s-0.5,0-0.8,0c-0.4,0-0.8,0-1.1,0c-0.4,0-0.8,0-1.1,0c-0.1,0-0.2,0-0.3-0.1c-0.1-0.1-0.1-0.1-0.1-0.2
			c0-0.1,0.1-0.2,0.2-0.2c0.2,0,0.3,0,0.5,0s0.4,0,0.5-0.1c0.2,0,0.2-0.2,0.2-0.3v-0.1v-0.1c0-0.1-0.1-0.3-0.2-0.5s-0.2-0.5-0.3-0.8
			s-0.3-0.6-0.4-1c-0.2-0.4-0.3-0.8-0.5-1.2c-0.1-0.1-0.1-0.2-0.1-0.3s-0.1-0.1-0.1-0.2C75.1,54,75,54,74.8,53.9c-0.2,0-0.4,0-0.5,0
			H74c-0.1,0-0.3,0-0.5,0s-0.4,0-0.7,0c-0.2,0-0.4,0-0.7,0c-0.2,0-0.4,0-0.5,0.1c-0.2,0.5-0.4,0.9-0.6,1.4s-0.3,0.9-0.4,1.2
			c-0.1,0.4-0.2,0.7-0.3,0.9c-0.1,0.3-0.1,0.4-0.1,0.5c0,0.2,0.1,0.4,0.3,0.4c0.2,0.1,0.4,0.1,0.6,0.1s0.4,0.1,0.6,0.1
			s0.3,0.1,0.3,0.3c0,0.1,0,0.2-0.1,0.2c-0.1,0.1-0.1,0.1-0.2,0.1c-0.4,0-0.7,0-1.1-0.1c-0.4,0-0.7-0.1-1.1-0.1c-0.3,0-0.5,0-0.7,0
			s-0.4,0-0.7,0c-0.1,0-0.1,0-0.2-0.1C67.9,59.4,67.9,59.3,67.9,59.2z M73.6,49.5c-0.2,0.4-0.3,0.7-0.4,0.9
			c-0.1,0.3-0.2,0.5-0.3,0.8c-0.1,0.3-0.2,0.6-0.4,0.9c-0.1,0.3-0.3,0.8-0.5,1.3h0.4c0.2,0,0.5,0,0.8,0c0.4,0,0.9,0,1.6,0
			c0,0,0,0,0.1,0H75c-0.1-0.4-0.3-0.8-0.4-1.2c-0.2-0.4-0.3-0.8-0.4-1.2s-0.2-0.7-0.3-1C73.7,49.7,73.7,49.6,73.6,49.5z"/>
		<path class="st0" d="M91,60c-0.1,0-0.1-0.1-0.1-0.2c0-0.1,0-0.3,0-0.5s0-0.4,0-0.6c0-0.2,0-0.4,0-0.5c0-0.3,0-0.5,0-0.8
			c0-0.2,0-0.5,0-0.8c0-0.1,0-0.2,0.1-0.2h0.1h0.1h0.1c0.1,0,0.1,0,0.2,0.1c0,0.1,0.1,0.2,0.1,0.3s0.1,0.3,0.1,0.4
			c0,0.2,0.1,0.3,0.1,0.4c0.2,0.4,0.5,0.8,0.9,1S93.6,59,94,59c0.3,0,0.6-0.1,0.9-0.2c0.3-0.1,0.5-0.3,0.7-0.5s0.4-0.4,0.5-0.7
			s0.2-0.6,0.2-0.9c0-0.5-0.1-1-0.4-1.3c-0.3-0.4-0.6-0.7-1-0.9c-0.4-0.3-0.9-0.5-1.4-0.8c-0.5-0.2-0.9-0.5-1.4-0.8
			c-0.4-0.3-0.8-0.7-1-1.1c-0.3-0.4-0.4-0.9-0.4-1.5c0-0.5,0.1-1,0.3-1.4c0.2-0.4,0.5-0.8,0.8-1c0.3-0.3,0.7-0.5,1.2-0.6
			c0.4-0.1,0.9-0.2,1.4-0.2c0.2,0,0.5,0.1,0.8,0.2c0.3,0.1,0.5,0.2,0.7,0.4c0.1,0.1,0.2,0.1,0.3,0c0.1-0.1,0.1-0.1,0.2-0.3
			c0.1-0.1,0.1-0.2,0.2-0.3S96.8,47,97,47c0.1,0,0.1,0.1,0.1,0.2c0,0.1,0,0.2,0,0.4s0,0.3,0,0.5s0,0.3,0,0.4c0,0.6,0,1.1,0,1.7
			c0,0.1,0,0.2-0.1,0.2h-0.1h-0.1h-0.1c-0.1,0-0.1,0-0.2-0.1c0-0.1-0.1-0.2-0.1-0.4c0-0.1-0.1-0.3-0.1-0.4c0-0.1-0.1-0.3-0.1-0.4
			c-0.2-0.4-0.4-0.7-0.8-1c-0.3-0.2-0.7-0.3-1-0.3s-0.6,0-0.8,0.1c-0.3,0.1-0.5,0.2-0.7,0.4s-0.3,0.4-0.5,0.6
			c-0.1,0.2-0.2,0.5-0.2,0.8c0,0.5,0.2,0.9,0.5,1.2s0.7,0.7,1.1,0.9c0.4,0.3,0.9,0.5,1.4,0.7s0.9,0.5,1.3,0.7
			c0.5,0.3,0.8,0.7,1.1,1.2c0.3,0.5,0.4,1,0.4,1.6s-0.1,1.1-0.3,1.6c-0.2,0.5-0.5,0.8-0.8,1.1s-0.8,0.5-1.2,0.7
			c-0.5,0.2-1,0.2-1.6,0.3c-0.2,0-0.4,0-0.6-0.1s-0.4-0.1-0.5-0.2c-0.2-0.1-0.3-0.1-0.4-0.2c-0.1-0.1-0.3-0.1-0.4-0.1
			s-0.2,0-0.3,0.1c-0.1,0.1-0.1,0.2-0.2,0.2c-0.1,0.1-0.1,0.2-0.2,0.2C91.2,60,91.1,60,91,60z"/>
		<path class="st0" d="M108.9,60c-0.1,0-0.1-0.1-0.1-0.2c0-0.1,0-0.3,0-0.5s0-0.4,0-0.6c0-0.2,0-0.4,0-0.5c0-0.3,0-0.5,0-0.8
			c0-0.2,0-0.5,0-0.8c0-0.1,0-0.2,0.1-0.2h0.1h0.1h0.1c0.1,0,0.1,0,0.2,0.1c0,0.1,0.1,0.2,0.1,0.3s0.1,0.3,0.1,0.4
			c0,0.2,0.1,0.3,0.1,0.4c0.2,0.4,0.5,0.8,0.9,1s0.9,0.4,1.3,0.4c0.3,0,0.6-0.1,0.9-0.2c0.3-0.1,0.5-0.3,0.7-0.5s0.4-0.4,0.5-0.7
			s0.2-0.6,0.2-0.9c0-0.5-0.1-1-0.4-1.3c-0.3-0.4-0.6-0.7-1-0.9c-0.4-0.3-0.9-0.5-1.4-0.8c-0.5-0.2-0.9-0.5-1.4-0.8
			c-0.4-0.3-0.8-0.7-1-1.1c-0.3-0.4-0.4-0.9-0.4-1.5c0-0.5,0.1-1,0.3-1.4c0.2-0.4,0.5-0.8,0.8-1c0.3-0.3,0.7-0.5,1.2-0.6
			c0.4-0.1,0.9-0.2,1.4-0.2c0.2,0,0.5,0.1,0.8,0.2c0.3,0.1,0.5,0.2,0.7,0.4c0.1,0.1,0.2,0.1,0.3,0c0.1-0.1,0.1-0.1,0.2-0.3
			c0.1-0.1,0.1-0.2,0.2-0.3s0.2-0.1,0.4-0.1c0.1,0,0.1,0.1,0.1,0.2c0,0.1,0,0.2,0,0.4s0,0.3,0,0.5s0,0.3,0,0.4c0,0.6,0,1.1,0,1.7
			c0,0.1,0,0.2-0.1,0.2h-0.1h-0.1h-0.1c-0.1,0-0.1,0-0.2-0.1c0-0.1-0.1-0.2-0.1-0.4c0-0.1-0.1-0.3-0.1-0.4c0-0.1-0.1-0.3-0.1-0.4
			c-0.2-0.4-0.4-0.7-0.8-1c-0.3-0.2-0.7-0.3-1-0.3s-0.6,0-0.8,0.1c-0.3,0.1-0.5,0.2-0.7,0.4s-0.3,0.4-0.5,0.6
			c-0.1,0.2-0.2,0.5-0.2,0.8c0,0.5,0.2,0.9,0.5,1.2s0.7,0.7,1.1,0.9c0.4,0.3,0.9,0.5,1.4,0.7s0.9,0.5,1.3,0.7
			c0.5,0.3,0.8,0.7,1.1,1.2c0.3,0.5,0.4,1,0.4,1.6s-0.1,1.1-0.3,1.6c-0.2,0.5-0.5,0.8-0.8,1.1s-0.8,0.5-1.2,0.7
			c-0.5,0.2-1,0.2-1.6,0.3c-0.2,0-0.4,0-0.6-0.1s-0.4-0.1-0.5-0.2c-0.2-0.1-0.3-0.1-0.4-0.2c-0.1-0.1-0.3-0.1-0.4-0.1
			s-0.2,0-0.3,0.1c-0.1,0.1-0.1,0.2-0.2,0.2c-0.1,0.1-0.1,0.2-0.2,0.2C109.2,60,109.1,60,108.9,60z"/>
		<path class="st0" d="M139.5,53.4c0,0.9-0.2,1.7-0.5,2.5s-0.8,1.5-1.4,2.1c-0.6,0.6-1.3,1.1-2.1,1.4c-0.8,0.3-1.6,0.5-2.5,0.5
			s-1.7-0.2-2.5-0.5s-1.4-0.7-1.9-1.3s-1-1.2-1.3-2s-0.5-1.6-0.5-2.5s0.2-1.8,0.5-2.5c0.3-0.8,0.7-1.5,1.3-2c0.6-0.6,1.2-1,2-1.3
			s1.6-0.5,2.5-0.5s1.7,0.2,2.5,0.5s1.5,0.7,2,1.3c0.6,0.5,1,1.2,1.4,2C139.3,51.6,139.5,52.5,139.5,53.4z M137.4,52.7
			c-0.1-0.7-0.3-1.4-0.6-2s-0.7-1.2-1.1-1.6c-0.5-0.5-1-0.8-1.6-1s-1.3-0.2-2.1-0.1c-0.8,0.2-1.5,0.4-1.9,0.9c-0.5,0.4-0.8,1-1,1.5
			c-0.2,0.6-0.3,1.2-0.3,1.9s0.1,1.3,0.2,2c0.1,0.6,0.3,1.3,0.6,1.9c0.3,0.6,0.6,1.2,1.1,1.7c0.4,0.5,1,0.9,1.6,1.1
			c0.6,0.3,1.4,0.3,2.2,0.1c0.8-0.1,1.5-0.4,1.9-0.9c0.5-0.5,0.8-1,1-1.6s0.3-1.3,0.3-2C137.6,53.9,137.6,53.3,137.4,52.7z"/>
		<path class="st0" d="M160.8,46.9c0.1,0,0.1,0.1,0.1,0.2c0,0.1,0,0.2,0,0.4s0,0.3,0,0.5s0,0.3,0,0.4c0,0.3,0,0.6,0,0.9
			c0,0.3,0,0.6,0,0.9c0,0.1-0.1,0.2-0.1,0.2h-0.1h-0.1h-0.1c-0.1,0-0.1,0-0.2-0.1c0-0.1-0.1-0.2-0.1-0.4c0-0.1-0.1-0.3-0.1-0.4
			c0-0.1-0.1-0.3-0.2-0.4c-0.4-0.4-0.8-0.7-1.3-0.9s-1-0.3-1.6-0.3c-0.8,0-1.4,0.1-1.9,0.4c-0.5,0.3-1,0.7-1.3,1.2s-0.6,1.1-0.7,1.7
			c-0.2,0.7-0.2,1.3-0.2,2c0,0.8,0.1,1.5,0.2,2.2c0.2,0.7,0.4,1.3,0.8,1.9c0.4,0.6,0.8,1,1.4,1.3c0.6,0.3,1.2,0.5,2,0.5
			c0.3,0,0.5,0,0.8-0.1s0.6-0.1,0.8-0.3c0.3-0.1,0.5-0.3,0.8-0.4c0.2-0.2,0.4-0.4,0.6-0.6c0.1-0.1,0.1-0.2,0.2-0.3
			c0.1-0.1,0.1-0.3,0.2-0.4c0.1-0.1,0.1-0.2,0.2-0.3c0.1-0.1,0.1-0.1,0.2-0.1c0.1,0,0.2,0,0.3,0.1c0,0,0.1,0.1,0.1,0.2
			c0,0.1,0,0.2,0,0.4s-0.1,0.4-0.1,0.6c0,0.2-0.1,0.4-0.1,0.6c-0.1,0.2-0.1,0.3-0.2,0.3c-0.2,0.2-0.4,0.3-0.7,0.4
			c-0.3,0.1-0.6,0.2-1,0.3s-0.7,0.1-1.1,0.2c-0.4,0-0.7,0-1,0c-1,0-1.8-0.2-2.6-0.5c-0.8-0.4-1.4-0.8-2-1.4c-0.5-0.6-1-1.3-1.3-2.1
			s-0.4-1.6-0.4-2.5c0-1,0.2-1.8,0.5-2.5s0.7-1.4,1.3-1.9c0.5-0.5,1.2-0.9,1.9-1.2s1.6-0.4,2.5-0.4c0.4,0,0.7,0,1.1,0.1
			c0.4,0,0.7,0.1,1.1,0.2c0.1,0,0.2,0.1,0.3,0.1s0.2,0.1,0.4,0.1c0.1,0.1,0.1,0.1,0.2,0c0.1-0.1,0.1-0.2,0.2-0.3
			c0.1-0.1,0.1-0.2,0.2-0.3C160.5,47,160.7,46.9,160.8,46.9z"/>
		<path class="st0" d="M176.9,47.8c0,0.2-0.1,0.2-0.2,0.3c-0.1,0-0.3,0-0.4,0c-0.3,0-0.5,0-0.7,0.1c-0.2,0-0.3,0.1-0.4,0.2
			c-0.1,0.1-0.1,0.2-0.1,0.4c0,0.1,0,0.3,0,0.5c0,0.7,0,1.4,0,2.1c0,0.7,0,1.4,0,2.1v4.2c0,0.2,0,0.4,0,0.6c0,0.2,0.1,0.4,0.2,0.5
			c0.1,0.1,0.2,0.1,0.4,0.2c0.2,0,0.3,0.1,0.5,0.1s0.3,0.1,0.4,0.1c0.1,0,0.2,0.1,0.2,0.2c0,0.2-0.1,0.3-0.2,0.3c-0.2,0-0.3,0-0.5,0
			c-0.3,0-0.6,0-0.9,0c-0.3,0-0.6,0-0.9,0c-0.3,0-0.6,0-0.9,0.1c-0.3,0-0.6,0.1-0.9,0.1h-0.2c-0.1,0-0.2,0-0.3-0.1
			c-0.1,0-0.2-0.1-0.2-0.3c0-0.1,0.1-0.2,0.2-0.2c0.1,0,0.2-0.1,0.4-0.1c0.1,0,0.3-0.1,0.5-0.1s0.3-0.1,0.4-0.2
			c0.1-0.1,0.2-0.2,0.2-0.5c0-0.2,0-0.4,0-0.7v-0.3v-5.8c0-0.3,0-0.6,0-0.8c0-0.3,0-0.5,0-0.8v-0.3c0-0.2,0-0.4,0-0.6
			c0-0.2-0.1-0.4-0.1-0.5c-0.1-0.1-0.3-0.2-0.4-0.2c-0.2,0-0.3,0-0.5-0.1c-0.2,0-0.3,0-0.4-0.1c-0.1,0-0.2-0.1-0.2-0.3
			c0-0.1,0.1-0.2,0.2-0.2c0.1,0,0.2,0,0.3,0h0.2c0.3,0,0.6,0,1,0c0.3,0,0.6,0.1,1,0.1c0.2,0,0.3,0,0.5,0s0.3,0,0.5,0h1.4
			c0,0,0,0.1,0.1,0.1C176.9,47.7,176.9,47.7,176.9,47.8z"/>
		<path class="st0" d="M187,59.2c0-0.1,0-0.2,0.1-0.3c0.1,0,0.2-0.1,0.3-0.1s0.3-0.1,0.4-0.1c0.1,0,0.3-0.1,0.4-0.3
			c0,0,0.1-0.1,0.1-0.3c0.1-0.1,0.1-0.3,0.2-0.5c0.1-0.2,0.1-0.3,0.2-0.5c0.1-0.2,0.1-0.3,0.1-0.4c0.2-0.6,0.5-1.2,0.7-1.8
			s0.5-1.2,0.7-1.8c0.4-1,0.8-2,1.2-3s0.8-2,1.2-3c0-0.1,0-0.1,0.1-0.2c0,0,0.1-0.1,0.2-0.1c0.1,0,0.1,0,0.2,0.1
			c0,0.1,0.1,0.1,0.1,0.2c0.3,0.6,0.5,1.3,0.8,1.9c0.3,0.6,0.5,1.3,0.8,1.9c0.5,1.2,0.9,2.4,1.4,3.6c0.5,1.2,1,2.3,1.6,3.5
			c0.1,0.2,0.2,0.3,0.4,0.4c0.2,0.1,0.4,0.1,0.5,0.1c0.2,0,0.3,0.1,0.5,0.1c0.1,0,0.2,0.1,0.2,0.3c0,0.1-0.1,0.2-0.2,0.2
			c-0.1,0-0.2,0.1-0.3,0.1h-0.2c-0.3,0-0.5,0-0.8,0s-0.5,0-0.8,0c-0.4,0-0.8,0-1.1,0c-0.4,0-0.8,0-1.1,0c-0.1,0-0.2,0-0.3-0.1
			s-0.1-0.1-0.1-0.2c0-0.1,0.1-0.2,0.2-0.2c0.2,0,0.3,0,0.5,0s0.4,0,0.5-0.1c0.2,0,0.2-0.2,0.2-0.3v-0.1v-0.1c0-0.1-0.1-0.3-0.2-0.5
			c-0.1-0.2-0.2-0.5-0.3-0.8s-0.3-0.6-0.4-1c-0.2-0.4-0.3-0.8-0.5-1.2c-0.1-0.1-0.1-0.2-0.1-0.3s-0.1-0.1-0.1-0.2
			c-0.1-0.1-0.2-0.1-0.4-0.2c-0.2,0-0.4,0-0.5,0h-0.3c-0.1,0-0.3,0-0.5,0s-0.4,0-0.7,0c-0.2,0-0.4,0-0.7,0c-0.2,0-0.4,0-0.5,0.1
			c-0.2,0.5-0.4,0.9-0.6,1.4c-0.2,0.5-0.3,0.9-0.4,1.2c-0.1,0.4-0.2,0.7-0.3,0.9c-0.1,0.3-0.1,0.4-0.1,0.5c0,0.2,0.1,0.4,0.3,0.4
			c0.2,0.1,0.4,0.1,0.6,0.1c0.2,0,0.4,0.1,0.6,0.1c0.2,0,0.3,0.1,0.3,0.3c0,0.1,0,0.2-0.1,0.2c-0.1,0.1-0.1,0.1-0.2,0.1
			c-0.4,0-0.7,0-1.1-0.1c-0.4,0-0.7-0.1-1.1-0.1c-0.3,0-0.5,0-0.7,0s-0.4,0-0.7,0c-0.1,0-0.1,0-0.2-0.1
			C187.1,59.4,187,59.3,187,59.2z M192.8,49.5c-0.2,0.4-0.3,0.7-0.4,0.9c-0.1,0.3-0.2,0.5-0.3,0.8s-0.2,0.6-0.4,0.9
			c-0.1,0.3-0.3,0.8-0.5,1.3h0.4c0.2,0,0.5,0,0.8,0c0.4,0,0.9,0,1.6,0c0,0,0,0,0.1,0h0.1c-0.1-0.4-0.3-0.8-0.4-1.2
			c-0.2-0.4-0.3-0.8-0.4-1.2c-0.1-0.4-0.2-0.7-0.3-1C192.9,49.7,192.8,49.6,192.8,49.5z"/>
		<path class="st0" d="M220.5,47.5c-0.1,0.2-0.1,0.5-0.2,0.8c0,0.3-0.1,0.7-0.1,1s-0.1,0.6-0.2,0.9c-0.1,0.2-0.2,0.4-0.4,0.4
			c-0.1,0-0.2-0.1-0.2-0.2c0-0.1,0-0.2,0-0.4s0-0.3,0-0.5s0-0.4-0.1-0.5s-0.2-0.2-0.3-0.3c-0.2-0.1-0.3-0.1-0.6-0.2
			c-0.2,0-0.5-0.1-0.7-0.1s-0.5,0-0.7,0s-0.3,0-0.4,0c-0.1,0-0.2,0-0.3,0s-0.1,0-0.2,0c-0.1,0-0.1,0-0.2,0.1c0,0-0.1,0.1-0.1,0.3
			c0,0.1,0,0.3,0,0.6v2c0,1,0,1.9,0,2.9s0,1.9,0,2.9c0,0.2,0,0.4,0,0.5c0,0.2,0,0.4,0.1,0.5c0.1,0.3,0.2,0.5,0.4,0.6
			s0.5,0.2,0.7,0.2s0.5,0.1,0.7,0.1s0.3,0.1,0.3,0.2c0,0.2,0,0.3-0.1,0.3s-0.2,0-0.3,0c-0.4,0-0.9,0-1.3,0c-0.4,0-0.9,0-1.3,0
			c-0.4,0-0.8,0-1.2,0s-0.8,0-1.2,0c-0.1,0-0.2,0-0.3,0s-0.1-0.1-0.1-0.2c0-0.1,0.1-0.2,0.1-0.3c0.1,0,0.2-0.1,0.3-0.1s0.2,0,0.2,0
			c0.3,0,0.6-0.1,0.8-0.2c0.2-0.1,0.3-0.2,0.4-0.3c0.1-0.1,0.2-0.3,0.2-0.5s0.1-0.5,0.1-0.8v-8c0-0.1,0-0.2,0-0.3s0-0.2,0-0.3
			s-0.1-0.2-0.4-0.2c-0.2,0-0.5-0.1-0.7-0.1h-1c-0.3,0-0.5,0-0.7,0.1s-0.5,0.2-0.7,0.4c-0.1,0.1-0.1,0.2-0.2,0.3
			c-0.1,0.2-0.2,0.4-0.3,0.6c-0.1,0.2-0.2,0.4-0.3,0.5c-0.1,0.2-0.2,0.2-0.2,0.2c-0.1,0-0.2,0-0.2-0.1c-0.1,0-0.1-0.1-0.1-0.2
			c0-0.2,0-0.4,0.1-0.7s0.2-0.8,0.2-1.3c0-0.1,0-0.2,0-0.4c0-0.1,0-0.3,0.1-0.4c0-0.1,0.1-0.2,0.2-0.3c0.1-0.1,0.2-0.1,0.3-0.1
			s0.1,0,0.1,0.1s0.1,0.1,0.1,0.2c0.1,0.1,0.1,0.1,0.2,0.2c0.1,0.1,0.2,0.1,0.4,0.1c0.7,0,1.3,0.1,2,0.1s1.4,0,2,0c0.5,0,1,0,1.5,0
			s1,0,1.5,0c0.2,0,0.3,0,0.5,0s0.3,0,0.5,0c0.1,0,0.2-0.1,0.3-0.1c0.1-0.1,0.2-0.2,0.2-0.2c0.1-0.1,0.1-0.2,0.2-0.2
			c0-0.1,0.1-0.1,0.1-0.1c0.2,0,0.3,0.1,0.4,0.2C220.5,47.2,220.5,47.4,220.5,47.5z"/>
		<path class="st0" d="M239.3,50.1c-0.1,0-0.2-0.1-0.3-0.2c-0.1-0.1-0.1-0.3-0.2-0.5c-0.1-0.2-0.1-0.4-0.2-0.6
			c-0.1-0.2-0.2-0.3-0.4-0.4c-0.1-0.1-0.2-0.1-0.4-0.1s-0.4-0.1-0.6-0.1c-0.2,0-0.5,0-0.7,0s-0.5,0-0.7,0h-0.7
			c-0.3,0-0.4,0.1-0.6,0.2c-0.1,0.1-0.2,0.2-0.3,0.4s-0.1,0.3-0.1,0.6c0,0.2,0,0.4,0,0.6c0,0.4,0,0.7,0,1.1c0,0.4,0,0.7,0,1.1v0.4
			c0,0.1,0,0.3,0,0.3c0,0.1,0.1,0.1,0.2,0.1c0.1,0,0.2,0,0.3,0s0.2,0,0.3,0s0.2,0,0.2,0c0.3,0,0.6,0,0.9,0c0.3,0,0.6,0,0.9-0.1
			c0.3-0.1,0.6-0.2,0.7-0.4c0.1-0.2,0.2-0.5,0.2-0.8c0-0.1,0.1-0.1,0.1-0.2c0-0.1,0.1-0.1,0.2-0.1c0.1,0,0.2,0.1,0.2,0.2
			c0,0.1,0,0.2,0,0.3c0,0.2,0,0.5,0,0.7s0,0.5,0,0.7s0,0.5,0,0.7s0,0.5,0,0.7c0,0.1,0,0.1,0,0.2c0,0.1,0,0.2,0,0.2
			c0,0.1,0,0.1-0.1,0.2c0,0.1-0.1,0.1-0.2,0.1c-0.1,0-0.1,0-0.2-0.1c0-0.1-0.1-0.2-0.1-0.3s-0.1-0.3-0.1-0.4c0-0.1,0-0.2-0.1-0.3
			c0-0.2-0.2-0.4-0.3-0.5c-0.2-0.1-0.4-0.2-0.6-0.2c-0.2,0-0.5-0.1-0.8,0c-0.3,0-0.5,0-0.7,0c-0.1,0-0.1,0-0.2,0c-0.1,0-0.2,0-0.3,0
			s-0.2,0-0.3,0s-0.2,0-0.2,0c-0.1,0-0.1,0.1-0.1,0.1c0,0.1,0,0.2,0,0.3s0,0.2,0,0.3s0,0.2,0,0.2v2.6c0,0.1,0,0.3,0,0.4
			c0,0.1,0,0.3,0,0.4c0,0.1,0.1,0.3,0.1,0.4c0.1,0.1,0.2,0.2,0.3,0.3c0.1,0,0.2,0.1,0.5,0.1c0.2,0,0.5,0,0.7,0.1c0.2,0,0.5,0,0.7,0
			s0.4,0,0.5,0h0.5c0.1,0,0.3,0,0.5,0s0.3,0,0.5,0s0.3,0,0.4-0.1c0.1,0,0.3-0.1,0.3-0.1c0.2-0.1,0.3-0.3,0.4-0.5
			c0.1-0.2,0.3-0.4,0.4-0.6c0.1-0.2,0.2-0.4,0.3-0.6c0.1-0.2,0.2-0.2,0.3-0.2s0.2,0,0.2,0.1s0,0.2,0,0.3c0,0,0,0.1,0,0.2
			c0,0.1,0,0.2,0,0.2s0,0.1-0.1,0.3c0,0.2-0.1,0.4-0.1,0.6c0,0.2-0.1,0.5-0.2,0.8c-0.1,0.1-0.2,0.2-0.4,0.2H232c-0.2,0-0.3,0-0.5,0
			s-0.3,0-0.5,0c-0.1,0-0.2,0-0.4,0c-0.1,0-0.2-0.1-0.2-0.3c0-0.1,0.1-0.2,0.2-0.2c0.1,0,0.3-0.1,0.5-0.1s0.4-0.1,0.6-0.2
			c0.2-0.1,0.3-0.2,0.4-0.3c0.1-0.1,0.1-0.3,0.2-0.6c0-0.3,0-0.6,0-1s0-0.7,0-1.1c0-0.4,0-0.7,0-1c0-0.9,0-1.8,0-2.7s0-1.8,0-2.7
			v-0.3c0-0.1,0-0.1,0-0.1v-0.1c0-0.3-0.1-0.5-0.3-0.6s-0.4-0.2-0.6-0.2c-0.2,0-0.4-0.1-0.6-0.1c-0.2,0-0.3-0.1-0.3-0.3
			c0-0.1,0-0.2,0.1-0.2s0.2-0.1,0.3-0.1s0.3,0,0.4,0c0.1,0,0.3,0,0.4,0c0.4,0,0.7,0,1.1,0c0.4,0,0.8,0,1.1,0c0.8,0,1.5,0,2.2,0
			s1.5,0,2.2,0h0.2c0.1,0,0.2,0,0.4,0c0.1,0,0.2,0.1,0.2,0.2c0,0.2,0.1,0.4,0.1,0.6c0,0.1,0,0.2,0,0.4c0,0.1,0,0.3,0,0.5
			s0,0.4,0,0.6C239.5,49.9,239.4,50,239.3,50.1z"/>
		<path class="st0" d="M251.5,60c-0.1,0-0.1-0.1-0.1-0.2c0-0.1,0-0.3,0-0.5s0-0.4,0-0.6c0-0.2,0-0.4,0-0.5c0-0.3,0-0.5,0-0.8
			c0-0.2,0-0.5,0-0.8c0-0.1,0-0.2,0.1-0.2h0.1h0.1h0.1c0.1,0,0.1,0,0.2,0.1c0,0.1,0.1,0.2,0.1,0.3s0.1,0.3,0.1,0.4
			c0,0.2,0.1,0.3,0.1,0.4c0.2,0.4,0.5,0.8,0.9,1s0.9,0.4,1.3,0.4c0.3,0,0.6-0.1,0.9-0.2c0.3-0.1,0.5-0.3,0.7-0.5s0.4-0.4,0.5-0.7
			s0.2-0.6,0.2-0.9c0-0.5-0.1-1-0.4-1.3c-0.3-0.4-0.6-0.7-1-0.9c-0.4-0.3-0.9-0.5-1.4-0.8c-0.5-0.2-0.9-0.5-1.4-0.8
			c-0.4-0.3-0.8-0.7-1-1.1c-0.3-0.4-0.4-0.9-0.4-1.5c0-0.5,0.1-1,0.3-1.4s0.5-0.8,0.8-1c0.3-0.3,0.7-0.5,1.2-0.6
			c0.4-0.1,0.9-0.2,1.4-0.2c0.2,0,0.5,0.1,0.8,0.2c0.3,0.1,0.5,0.2,0.7,0.4c0.1,0.1,0.2,0.1,0.3,0c0.1-0.1,0.1-0.1,0.2-0.3
			c0.1-0.1,0.1-0.2,0.2-0.3s0.2-0.1,0.4-0.1c0.1,0,0.1,0.1,0.1,0.2c0,0.1,0,0.2,0,0.4s0,0.3,0,0.5s0,0.3,0,0.4c0,0.6,0,1.1,0,1.7
			c0,0.1-0.1,0.2-0.1,0.2h-0.1h-0.1h-0.1c-0.1,0-0.1,0-0.2-0.1c0-0.1-0.1-0.2-0.1-0.4c0-0.1-0.1-0.3-0.1-0.4c0-0.1-0.1-0.3-0.1-0.4
			c-0.2-0.4-0.4-0.7-0.8-1c-0.3-0.2-0.7-0.3-1-0.3s-0.6,0-0.8,0.1c-0.3,0.1-0.5,0.2-0.7,0.4s-0.3,0.4-0.5,0.6
			c-0.1,0.2-0.2,0.5-0.2,0.8c0,0.5,0.2,0.9,0.5,1.2s0.7,0.7,1.1,0.9c0.4,0.3,0.9,0.5,1.4,0.7s0.9,0.5,1.3,0.7
			c0.5,0.3,0.8,0.7,1.1,1.2c0.3,0.5,0.4,1,0.4,1.6s-0.1,1.1-0.3,1.6c-0.2,0.5-0.5,0.8-0.8,1.1s-0.8,0.5-1.2,0.7
			c-0.5,0.2-1,0.2-1.6,0.3c-0.2,0-0.4,0-0.6-0.1c-0.2-0.1-0.4-0.1-0.5-0.2c-0.2-0.1-0.3-0.1-0.4-0.2c-0.1-0.1-0.3-0.1-0.4-0.1
			c-0.1,0-0.2,0-0.3,0.1s-0.1,0.2-0.2,0.2c-0.1,0.1-0.1,0.2-0.2,0.2C251.8,60,251.7,60,251.5,60z"/>
	</g>
	<rect x="0.9" y="52.7" class="st0" width="34.5" height="1.5"/>
	<rect x="264.7" y="52.7" class="st0" width="34.5" height="1.5"/>
</g>
</svg>
