<?xml version="1.0" encoding="utf-8"?>
<!-- Generator: Adobe Illustrator 23.0.6, SVG Export Plug-In . SVG Version: 6.00 Build 0)  -->
<svg version="1.1" id="Layer_1" xmlns="http://www.w3.org/2000/svg" xmlns:xlink="http://www.w3.org/1999/xlink" x="0px" y="0px"
	 viewBox="0 0 1300 90" style="enable-background:new 0 0 1300 90;" xml:space="preserve">
<style type="text/css">
	.st0{fill:#8BC53F;}
	.st1{fill:#FFFFFF;}
	.st2{fill:#6C9C31;}
	.st3{fill:#4B7520;}
	.st4{fill:#2B4E09;}
	.st5{fill:#0A3200;}
	.st6{fill:#0A2300;}
</style>
<polygon class="st0" points="178,90 0,90 18,45 0,0 178,0 196,45 "/>
<g>
	<g>
		<path class="st1" d="M38.9,46.1v5.3h-2.1V38.6h4.7c1.4,0,2.5,0.3,3.3,1s1.2,1.6,1.2,2.8c0,0.7-0.2,1.2-0.5,1.7
			c-0.3,0.5-0.8,0.9-1.5,1.1c0.7,0.2,1.2,0.6,1.6,1.1s0.5,1.2,0.5,1.9v1.1c0,0.4,0,0.7,0.1,1.1s0.3,0.6,0.5,0.8v0.2h-2.2
			c-0.2-0.2-0.4-0.5-0.5-0.9c-0.1-0.4-0.1-0.8-0.1-1.2v-1c0-0.7-0.2-1.2-0.6-1.6s-0.9-0.6-1.5-0.6H38.9z M38.9,44.4h2.5
			c0.9,0,1.5-0.2,1.9-0.5s0.6-0.8,0.6-1.5c0-0.6-0.2-1.1-0.6-1.5s-1-0.5-1.8-0.5h-2.6V44.4z"/>
		<path class="st1" d="M56.4,45.6h-5.6v4h6.5v1.7h-8.6V38.6h8.6v1.7h-6.4v3.6h5.6V45.6z"/>
		<path class="st1" d="M61.2,49.7h5.9v1.7h-8V38.6h2.1V49.7z"/>
		<path class="st1" d="M75.9,48.4h-5l-1,3h-2.2l4.7-12.8h2l4.6,12.8h-2.2L75.9,48.4z M71.5,46.6h3.8l-1.9-5.5h-0.1L71.5,46.6z"/>
		<path class="st1" d="M89.3,40.3h-3.9v11.1h-2.1V40.3h-3.9v-1.7h9.9V40.3z"/>
		<path class="st1" d="M93.3,51.4h-2.1V38.6h2.1V51.4z"/>
		<path class="st1" d="M106.2,46.2c0,1.6-0.5,2.9-1.5,3.9s-2.3,1.5-3.8,1.5c-1.5,0-2.8-0.5-3.7-1.5c-1-1-1.4-2.3-1.4-3.9v-2.3
			c0-1.6,0.5-2.9,1.4-3.9c1-1,2.2-1.5,3.7-1.5c1.6,0,2.8,0.5,3.8,1.5s1.5,2.3,1.5,3.9V46.2z M104,43.8c0-1.1-0.3-1.9-0.9-2.6
			c-0.6-0.7-1.3-1-2.3-1c-0.9,0-1.7,0.3-2.2,1s-0.8,1.6-0.8,2.6v2.3c0,1.1,0.3,2,0.8,2.7s1.3,1,2.2,1c1,0,1.8-0.3,2.3-1
			c0.6-0.7,0.8-1.6,0.8-2.7V43.8z"/>
		<path class="st1" d="M118.5,51.4h-2.1l-5.7-9.3l-0.1,0v9.3h-2.1V38.6h2.1l5.7,9.3l0.1,0v-9.3h2.1V51.4z"/>
		<path class="st1" d="M128.2,48.1c0-0.5-0.2-1-0.6-1.3c-0.4-0.3-1.1-0.6-2.1-0.9c-1.4-0.4-2.5-0.9-3.3-1.5s-1.2-1.4-1.2-2.4
			c0-1,0.4-1.9,1.3-2.5c0.9-0.7,2-1,3.3-1c1.4,0,2.5,0.4,3.4,1.1c0.9,0.8,1.3,1.7,1.2,2.7l0,0.1h-2c0-0.7-0.2-1.2-0.7-1.6
			s-1.1-0.6-1.9-0.6c-0.8,0-1.4,0.2-1.8,0.5c-0.4,0.3-0.6,0.8-0.6,1.3c0,0.5,0.2,0.9,0.7,1.2c0.5,0.3,1.2,0.6,2.3,0.9
			c1.4,0.4,2.4,0.9,3.1,1.5s1.1,1.5,1.1,2.5c0,1.1-0.4,1.9-1.3,2.5c-0.9,0.6-2,0.9-3.4,0.9c-1.3,0-2.5-0.4-3.5-1.1s-1.5-1.7-1.5-2.9
			l0-0.1h2.1c0,0.8,0.3,1.4,0.8,1.7s1.2,0.6,2.1,0.6c0.8,0,1.4-0.2,1.8-0.5S128.2,48.6,128.2,48.1z"/>
		<path class="st1" d="M142.6,51.4h-2.1v-5.5h-5.7v5.5h-2.1V38.6h2.1v5.6h5.7v-5.6h2.1V51.4z"/>
		<path class="st1" d="M147.7,51.4h-2.1V38.6h2.1V51.4z"/>
		<path class="st1" d="M152.7,46.5v4.9h-2.1V38.6h5c1.4,0,2.5,0.4,3.3,1.1c0.8,0.7,1.2,1.7,1.2,2.9c0,1.2-0.4,2.2-1.2,2.9
			c-0.8,0.7-1.9,1.1-3.3,1.1H152.7z M152.7,44.8h2.9c0.8,0,1.4-0.2,1.8-0.6s0.6-1,0.6-1.6s-0.2-1.2-0.6-1.6s-1-0.7-1.8-0.7h-2.9
			V44.8z"/>
		<path class="st1" d="M169.1,48.1c0-0.5-0.2-1-0.6-1.3c-0.4-0.3-1.1-0.6-2.1-0.9c-1.4-0.4-2.5-0.9-3.3-1.5S162,43,162,42
			c0-1,0.4-1.9,1.3-2.5c0.9-0.7,2-1,3.3-1c1.4,0,2.5,0.4,3.4,1.1c0.9,0.8,1.3,1.7,1.2,2.7l0,0.1h-2c0-0.7-0.2-1.2-0.7-1.6
			s-1.1-0.6-1.9-0.6c-0.8,0-1.4,0.2-1.8,0.5c-0.4,0.3-0.6,0.8-0.6,1.3c0,0.5,0.2,0.9,0.7,1.2c0.5,0.3,1.2,0.6,2.3,0.9
			c1.4,0.4,2.4,0.9,3.1,1.5s1.1,1.5,1.1,2.5c0,1.1-0.4,1.9-1.3,2.5c-0.9,0.6-2,0.9-3.4,0.9c-1.3,0-2.5-0.4-3.5-1.1s-1.5-1.7-1.5-2.9
			l0-0.1h2.1c0,0.8,0.3,1.4,0.8,1.7s1.2,0.6,2.1,0.6c0.8,0,1.4-0.2,1.8-0.5S169.1,48.6,169.1,48.1z"/>
	</g>
</g>
<polygon class="st2" points="362,90 184,90 202,45 184,0 362,0 380,45 "/>
<polygon class="st3" points="546,90 368,90 386,45 368,0 546,0 564,45 "/>
<g>
	<g>
		<path class="st1" d="M441.6,40.3h-3.9v11.1h-2.1V40.3h-3.9v-1.7h9.9V40.3z"/>
		<path class="st1" d="M445.4,46.1v5.3h-2.1V38.6h4.7c1.4,0,2.5,0.3,3.3,1s1.2,1.6,1.2,2.8c0,0.7-0.2,1.2-0.5,1.7
			c-0.3,0.5-0.8,0.9-1.5,1.1c0.7,0.2,1.2,0.6,1.6,1.1s0.5,1.2,0.5,1.9v1.1c0,0.4,0,0.7,0.1,1.1s0.3,0.6,0.5,0.8v0.2h-2.2
			c-0.2-0.2-0.4-0.5-0.5-0.9c-0.1-0.4-0.1-0.8-0.1-1.2v-1c0-0.7-0.2-1.2-0.6-1.6s-0.9-0.6-1.5-0.6H445.4z M445.4,44.4h2.5
			c0.9,0,1.5-0.2,1.9-0.5s0.6-0.8,0.6-1.5c0-0.6-0.2-1.1-0.6-1.5s-1-0.5-1.8-0.5h-2.6V44.4z"/>
		<path class="st1" d="M462.1,48.4h-5l-1,3h-2.2l4.7-12.8h2l4.6,12.8h-2.2L462.1,48.4z M457.7,46.6h3.8l-1.9-5.5h-0.1L457.7,46.6z"
			/>
		<path class="st1" d="M469,51.4h-2.1V38.6h2.1V51.4z"/>
		<path class="st1" d="M482,51.4h-2.1l-5.7-9.3l-0.1,0v9.3H472V38.6h2.1l5.7,9.3l0.1,0v-9.3h2.1V51.4z"/>
		<path class="st1" d="M487,51.4h-2.1V38.6h2.1V51.4z"/>
		<path class="st1" d="M499.9,51.4h-2.1l-5.7-9.3l-0.1,0v9.3h-2.1V38.6h2.1l5.7,9.3l0.1,0v-9.3h2.1V51.4z"/>
		<path class="st1" d="M512.3,49.7c-0.3,0.5-0.9,0.9-1.7,1.3c-0.8,0.4-1.8,0.6-3,0.6c-1.5,0-2.8-0.5-3.8-1.5s-1.5-2.2-1.5-3.8v-2.7
			c0-1.5,0.5-2.8,1.4-3.8c0.9-1,2.2-1.5,3.6-1.5c1.5,0,2.7,0.4,3.5,1.1c0.8,0.7,1.3,1.7,1.3,2.9l0,0.1h-2c0-0.7-0.3-1.3-0.8-1.7
			s-1.1-0.6-2-0.6c-0.9,0-1.6,0.3-2.1,1c-0.5,0.7-0.8,1.5-0.8,2.5v2.7c0,1,0.3,1.9,0.9,2.5c0.6,0.7,1.4,1,2.3,1
			c0.7,0,1.2-0.1,1.6-0.2c0.4-0.2,0.7-0.3,0.9-0.5v-2.6h-2.5v-1.6h4.7V49.7z"/>
	</g>
</g>
<polygon class="st4" points="730,90 552,90 570,45 552,0 730,0 748,45 "/>
<polygon class="st5" points="914,90 736,90 754,45 736,0 914,0 932,45 "/>
<polygon class="st6" points="1098,90 920,90 938,45 920,0 1098,0 1116,45 "/>
<polygon points="1282,90 1104,90 1122,45 1104,0 1282,0 1300,45 "/>
<g>
	<g>
		<path class="st1" d="M1162.7,40.6h-2.1V27.8h2.1V40.6z"/>
		<path class="st1" d="M1175.6,40.6h-2.1l-5.7-9.3l-0.1,0v9.3h-2.1V27.8h2.1l5.7,9.3l0.1,0v-9.3h2.1V40.6z"/>
		<path class="st1" d="M1187.7,36.4L1187.7,36.4c0,1.3-0.4,2.4-1.2,3.2c-0.9,0.8-2,1.2-3.5,1.2c-1.5,0-2.7-0.5-3.6-1.5
			c-0.9-1-1.4-2.3-1.4-3.9V33c0-1.6,0.5-2.8,1.4-3.9c0.9-1,2.1-1.5,3.6-1.5c1.5,0,2.7,0.4,3.6,1.2c0.9,0.8,1.3,1.9,1.3,3.2l0,0.1
			h-2.1c0-0.9-0.2-1.5-0.7-2c-0.5-0.5-1.2-0.7-2.1-0.7c-0.9,0-1.6,0.3-2.1,1c-0.5,0.7-0.8,1.6-0.8,2.6v2.5c0,1.1,0.3,1.9,0.8,2.6
			c0.5,0.7,1.2,1,2.1,1c0.9,0,1.6-0.2,2-0.7c0.5-0.5,0.7-1.1,0.7-2H1187.7z"/>
		<path class="st1" d="M1192,35.3v5.3h-2.1V27.8h4.7c1.4,0,2.5,0.3,3.3,1s1.2,1.6,1.2,2.8c0,0.7-0.2,1.2-0.5,1.7
			c-0.3,0.5-0.8,0.9-1.5,1.1c0.7,0.2,1.2,0.6,1.6,1.1s0.5,1.2,0.5,1.9v1.1c0,0.4,0,0.7,0.1,1.1s0.3,0.6,0.5,0.8v0.2h-2.2
			c-0.2-0.2-0.4-0.5-0.5-0.9c-0.1-0.4-0.1-0.8-0.1-1.2v-1c0-0.7-0.2-1.2-0.6-1.6s-0.9-0.6-1.5-0.6H1192z M1192,33.6h2.5
			c0.9,0,1.5-0.2,1.9-0.5s0.6-0.8,0.6-1.5c0-0.6-0.2-1.1-0.6-1.5s-1-0.5-1.8-0.5h-2.6V33.6z"/>
		<path class="st1" d="M1209.5,34.8h-5.6v4h6.5v1.7h-8.6V27.8h8.6v1.7h-6.4v3.6h5.6V34.8z"/>
		<path class="st1" d="M1219.1,37.6h-5l-1,3h-2.2l4.7-12.8h2l4.6,12.8h-2.2L1219.1,37.6z M1214.7,35.8h3.8l-1.9-5.5h-0.1
			L1214.7,35.8z"/>
		<path class="st1" d="M1230.7,37.3c0-0.5-0.2-1-0.6-1.3c-0.4-0.3-1.1-0.6-2.1-0.9c-1.4-0.4-2.5-0.9-3.3-1.5s-1.2-1.4-1.2-2.4
			c0-1,0.4-1.9,1.3-2.5c0.9-0.7,2-1,3.3-1c1.4,0,2.5,0.4,3.4,1.1c0.9,0.8,1.3,1.7,1.2,2.7l0,0.1h-2c0-0.7-0.2-1.2-0.7-1.6
			s-1.1-0.6-1.9-0.6c-0.8,0-1.4,0.2-1.8,0.5c-0.4,0.3-0.6,0.8-0.6,1.3c0,0.5,0.2,0.9,0.7,1.2c0.5,0.3,1.2,0.6,2.3,0.9
			c1.4,0.4,2.4,0.9,3.1,1.5s1.1,1.5,1.1,2.5c0,1.1-0.4,1.9-1.3,2.5c-0.9,0.6-2,0.9-3.4,0.9c-1.3,0-2.5-0.4-3.5-1.1s-1.5-1.7-1.5-2.9
			l0-0.1h2.1c0,0.8,0.3,1.4,0.8,1.7s1.2,0.6,2.1,0.6c0.8,0,1.4-0.2,1.8-0.5S1230.7,37.8,1230.7,37.3z"/>
		<path class="st1" d="M1242.8,34.8h-5.6v4h6.5v1.7h-8.6V27.8h8.6v1.7h-6.4v3.6h5.6V34.8z"/>
		<path class="st1" d="M1245.5,40.6V27.8h4.1c1.6,0,2.9,0.5,4,1.5c1,1,1.5,2.3,1.5,3.9v1.9c0,1.6-0.5,2.9-1.5,3.9
			c-1,1-2.3,1.5-4,1.5H1245.5z M1247.7,29.5v9.4h2c1.1,0,1.9-0.3,2.5-1c0.6-0.7,0.9-1.6,0.9-2.7v-2c0-1.1-0.3-2-0.9-2.7
			c-0.6-0.7-1.4-1-2.5-1H1247.7z"/>
		<path class="st1" d="M1144.4,49.4l3.7,9.8h0.1l3.7-9.8h2.8v12.8h-2.1v-4.4l0.2-5.5l-0.1,0l-3.8,9.9h-1.4l-3.8-9.9l-0.1,0l0.2,5.5
			v4.4h-2.1V49.4H1144.4z"/>
		<path class="st1" d="M1164.4,59.2h-5l-1,3h-2.2l4.7-12.8h2l4.6,12.8h-2.2L1164.4,59.2z M1160,57.4h3.8l-1.9-5.5h-0.1L1160,57.4z"
			/>
		<path class="st1" d="M1171.2,56.9v5.3h-2.1V49.4h4.7c1.4,0,2.5,0.3,3.3,1s1.2,1.6,1.2,2.8c0,0.7-0.2,1.2-0.5,1.7
			c-0.3,0.5-0.8,0.9-1.5,1.1c0.7,0.2,1.2,0.6,1.6,1.1s0.5,1.2,0.5,1.9v1.1c0,0.4,0,0.7,0.1,1.1s0.3,0.6,0.5,0.8v0.2h-2.2
			c-0.2-0.2-0.4-0.5-0.5-0.9c-0.1-0.4-0.1-0.8-0.1-1.2v-1c0-0.7-0.2-1.2-0.6-1.6s-0.9-0.6-1.5-0.6H1171.2z M1171.2,55.2h2.5
			c0.9,0,1.5-0.2,1.9-0.5s0.6-0.8,0.6-1.5c0-0.6-0.2-1.2-0.6-1.5s-1-0.5-1.8-0.5h-2.6V55.2z"/>
		<path class="st1" d="M1184.6,56.7h-1.5v5.5h-2.1V49.4h2.1v5.4h1.2l4-5.4h2.5l-4.7,6.1l5,6.7h-2.6L1184.6,56.7z"/>
		<path class="st1" d="M1200.3,56.4h-5.6v4h6.5v1.7h-8.6V49.4h8.6v1.7h-6.4v3.6h5.6V56.4z"/>
		<path class="st1" d="M1211.9,51.1h-3.9v11.1h-2.1V51.1h-3.9v-1.7h9.9V51.1z"/>
		<path class="st1" d="M1225,58.9c0-0.5-0.2-1-0.6-1.3c-0.4-0.3-1.1-0.6-2.1-0.9c-1.4-0.4-2.5-0.9-3.3-1.5s-1.2-1.4-1.2-2.4
			c0-1,0.4-1.9,1.3-2.5c0.9-0.7,2-1,3.3-1c1.4,0,2.5,0.4,3.4,1.1c0.9,0.8,1.3,1.7,1.2,2.7l0,0.1h-2c0-0.7-0.2-1.2-0.7-1.6
			s-1.1-0.6-1.9-0.6c-0.8,0-1.4,0.2-1.8,0.5c-0.4,0.3-0.6,0.8-0.6,1.3c0,0.5,0.2,0.9,0.7,1.2c0.5,0.3,1.2,0.6,2.3,0.9
			c1.4,0.4,2.4,0.9,3.1,1.5s1.1,1.5,1.1,2.5c0,1.1-0.4,1.9-1.3,2.5c-0.9,0.6-2,0.9-3.4,0.9c-1.3,0-2.5-0.4-3.5-1.1s-1.5-1.7-1.5-2.9
			l0-0.1h2.1c0,0.8,0.3,1.4,0.8,1.7s1.2,0.6,2.1,0.6c0.8,0,1.4-0.2,1.8-0.5C1224.8,59.9,1225,59.4,1225,58.9z"/>
		<path class="st1" d="M1239.4,62.2h-2.1v-5.5h-5.7v5.5h-2.1V49.4h2.1V55h5.7v-5.6h2.1V62.2z"/>
		<path class="st1" d="M1249.1,59.2h-5l-1,3h-2.2l4.7-12.8h2l4.6,12.8h-2.2L1249.1,59.2z M1244.7,57.4h3.8l-1.9-5.5h-0.1
			L1244.7,57.4z"/>
		<path class="st1" d="M1255.9,56.9v5.3h-2.1V49.4h4.7c1.4,0,2.5,0.3,3.3,1s1.2,1.6,1.2,2.8c0,0.7-0.2,1.2-0.5,1.7
			c-0.3,0.5-0.8,0.9-1.5,1.1c0.7,0.2,1.2,0.6,1.6,1.1s0.5,1.2,0.5,1.9v1.1c0,0.4,0,0.7,0.1,1.1s0.3,0.6,0.5,0.8v0.2h-2.2
			c-0.2-0.2-0.4-0.5-0.5-0.9c-0.1-0.4-0.1-0.8-0.1-1.2v-1c0-0.7-0.2-1.2-0.6-1.6s-0.9-0.6-1.5-0.6H1255.9z M1255.9,55.2h2.5
			c0.9,0,1.5-0.2,1.9-0.5s0.6-0.8,0.6-1.5c0-0.6-0.2-1.2-0.6-1.5s-1-0.5-1.8-0.5h-2.6V55.2z"/>
		<path class="st1" d="M1273.4,56.4h-5.6v4h6.5v1.7h-8.6V49.4h8.6v1.7h-6.4v3.6h5.6V56.4z"/>
	</g>
</g>
<g>
	<g>
		<path class="st1" d="M587.5,38.6l3.7,9.8h0.1l3.7-9.8h2.8v12.8h-2.1V47l0.2-5.5l-0.1,0l-3.8,9.9h-1.4l-3.8-9.9l-0.1,0l0.2,5.5v4.4
			h-2.1V38.6H587.5z"/>
		<path class="st1" d="M608.2,45.6h-5.6v4h6.5v1.7h-8.6V38.6h8.6v1.7h-6.4v3.6h5.6V45.6z"/>
		<path class="st1" d="M613,46.1v5.3h-2.1V38.6h4.7c1.4,0,2.5,0.3,3.3,1s1.2,1.6,1.2,2.8c0,0.7-0.2,1.2-0.5,1.7
			c-0.3,0.5-0.8,0.9-1.5,1.1c0.7,0.2,1.2,0.6,1.6,1.1s0.5,1.2,0.5,1.9v1.1c0,0.4,0,0.7,0.1,1.1s0.3,0.6,0.5,0.8v0.2h-2.2
			c-0.2-0.2-0.4-0.5-0.5-0.9c-0.1-0.4-0.1-0.8-0.1-1.2v-1c0-0.7-0.2-1.2-0.6-1.6s-0.9-0.6-1.5-0.6H613z M613,44.4h2.5
			c0.9,0,1.5-0.2,1.9-0.5s0.6-0.8,0.6-1.5c0-0.6-0.2-1.1-0.6-1.5s-1-0.5-1.8-0.5H613V44.4z"/>
		<path class="st1" d="M632.2,47.2L632.2,47.2c0,1.3-0.4,2.4-1.2,3.2c-0.9,0.8-2,1.2-3.5,1.2c-1.5,0-2.7-0.5-3.6-1.5
			c-0.9-1-1.4-2.3-1.4-3.9v-2.4c0-1.6,0.5-2.8,1.4-3.9c0.9-1,2.1-1.5,3.6-1.5c1.5,0,2.7,0.4,3.6,1.2c0.9,0.8,1.3,1.9,1.3,3.2l0,0.1
			h-2.1c0-0.9-0.2-1.5-0.7-2c-0.5-0.5-1.2-0.7-2.1-0.7c-0.9,0-1.6,0.3-2.1,1c-0.5,0.7-0.8,1.6-0.8,2.6v2.5c0,1.1,0.3,1.9,0.8,2.6
			c0.5,0.7,1.2,1,2.1,1c0.9,0,1.6-0.2,2-0.7c0.5-0.5,0.7-1.1,0.7-2H632.2z"/>
		<path class="st1" d="M644.3,51.4h-2.1v-5.5h-5.7v5.5h-2.1V38.6h2.1v5.6h5.7v-5.6h2.1V51.4z"/>
		<path class="st1" d="M654,48.4h-5l-1,3h-2.2l4.7-12.8h2l4.6,12.8H655L654,48.4z M649.6,46.6h3.8l-1.9-5.5h-0.1L649.6,46.6z"/>
		<path class="st1" d="M668.7,51.4h-2.1l-5.7-9.3l-0.1,0v9.3h-2.1V38.6h2.1l5.7,9.3l0.1,0v-9.3h2.1V51.4z"/>
		<path class="st1" d="M671.5,51.4V38.6h4.1c1.6,0,2.9,0.5,4,1.5c1,1,1.5,2.3,1.5,3.9V46c0,1.6-0.5,2.9-1.5,3.9c-1,1-2.3,1.5-4,1.5
			H671.5z M673.6,40.3v9.4h2c1.1,0,1.9-0.3,2.5-1c0.6-0.7,0.9-1.6,0.9-2.7v-2c0-1.1-0.3-2-0.9-2.7c-0.6-0.7-1.4-1-2.5-1H673.6z"/>
		<path class="st1" d="M685.5,51.4h-2.1V38.6h2.1V51.4z"/>
		<path class="st1" d="M695.4,48.1c0-0.5-0.2-1-0.6-1.3c-0.4-0.3-1.1-0.6-2.1-0.9c-1.4-0.4-2.5-0.9-3.3-1.5s-1.2-1.4-1.2-2.4
			c0-1,0.4-1.9,1.3-2.5c0.9-0.7,2-1,3.3-1c1.4,0,2.5,0.4,3.4,1.1c0.9,0.8,1.3,1.7,1.2,2.7l0,0.1h-2c0-0.7-0.2-1.2-0.7-1.6
			s-1.1-0.6-1.9-0.6c-0.8,0-1.4,0.2-1.8,0.5c-0.4,0.3-0.6,0.8-0.6,1.3c0,0.5,0.2,0.9,0.7,1.2c0.5,0.3,1.2,0.6,2.3,0.9
			c1.4,0.4,2.4,0.9,3.1,1.5s1.1,1.5,1.1,2.5c0,1.1-0.4,1.9-1.3,2.5c-0.9,0.6-2,0.9-3.4,0.9c-1.3,0-2.5-0.4-3.5-1.1s-1.5-1.7-1.5-2.9
			l0-0.1h2.1c0,0.8,0.3,1.4,0.8,1.7s1.2,0.6,2.1,0.6c0.8,0,1.4-0.2,1.8-0.5S695.4,48.6,695.4,48.1z"/>
		<path class="st1" d="M702,51.4h-2.1V38.6h2.1V51.4z"/>
		<path class="st1" d="M715,51.4h-2.1l-5.7-9.3l-0.1,0v9.3H705V38.6h2.1l5.7,9.3l0.1,0v-9.3h2.1V51.4z"/>
		<path class="st1" d="M727.3,49.7c-0.3,0.5-0.9,0.9-1.7,1.3c-0.8,0.4-1.8,0.6-3,0.6c-1.5,0-2.8-0.5-3.8-1.5s-1.5-2.2-1.5-3.8v-2.7
			c0-1.5,0.5-2.8,1.4-3.8c0.9-1,2.2-1.5,3.6-1.5c1.5,0,2.7,0.4,3.5,1.1c0.8,0.7,1.3,1.7,1.3,2.9l0,0.1h-2c0-0.7-0.3-1.3-0.8-1.7
			s-1.1-0.6-2-0.6c-0.9,0-1.6,0.3-2.1,1c-0.5,0.7-0.8,1.5-0.8,2.5v2.7c0,1,0.3,1.9,0.9,2.5c0.6,0.7,1.4,1,2.3,1
			c0.7,0,1.2-0.1,1.6-0.2c0.4-0.2,0.7-0.3,0.9-0.5v-2.6h-2.5v-1.6h4.7V49.7z"/>
	</g>
</g>
<g>
	<g>
		<path class="st1" d="M821.3,34.7h-5.6v4h6.5v1.7h-8.6V27.7h8.6v1.7h-6.4V33h5.6V34.7z"/>
		<path class="st1" d="M828.1,37.2l0.2,0.9h0.1l0.2-0.9l3.1-9.5h2.3l-4.6,12.8h-2l-4.6-12.8h2.3L828.1,37.2z"/>
		<path class="st1" d="M843.2,34.7h-5.6v4h6.5v1.7h-8.6V27.7h8.6v1.7h-6.4V33h5.6V34.7z"/>
		<path class="st1" d="M855.8,40.5h-2.1l-5.7-9.3l-0.1,0v9.3h-2.1V27.7h2.1l5.7,9.3l0.1,0v-9.3h2.1V40.5z"/>
		<path class="st1" d="M867.4,29.4h-3.9v11.1h-2.1V29.4h-3.9v-1.7h9.9V29.4z"/>
		<path class="st1" d="M793.1,49.3l3.7,9.8h0.1l3.7-9.8h2.8v12.8h-2.1v-4.4l0.2-5.5l-0.1,0l-3.8,9.9H796l-3.8-9.9l-0.1,0l0.2,5.5
			v4.4h-2.1V49.3H793.1z"/>
		<path class="st1" d="M813,59.1h-5l-1,3h-2.2l4.7-12.8h2l4.6,12.8H814L813,59.1z M808.6,57.3h3.8l-1.9-5.5h-0.1L808.6,57.3z"/>
		<path class="st1" d="M819.8,56.8v5.3h-2.1V49.3h4.7c1.4,0,2.5,0.3,3.3,1s1.2,1.6,1.2,2.8c0,0.7-0.2,1.2-0.5,1.7
			c-0.3,0.5-0.8,0.9-1.5,1.1c0.7,0.2,1.2,0.6,1.6,1.1s0.5,1.2,0.5,1.9V60c0,0.4,0,0.7,0.1,1.1s0.3,0.6,0.5,0.8v0.2h-2.2
			c-0.2-0.2-0.4-0.5-0.5-0.9c-0.1-0.4-0.1-0.8-0.1-1.2v-1c0-0.7-0.2-1.2-0.6-1.6s-0.9-0.6-1.5-0.6H819.8z M819.8,55.1h2.5
			c0.9,0,1.5-0.2,1.9-0.5s0.6-0.8,0.6-1.5c0-0.6-0.2-1.2-0.6-1.5s-1-0.5-1.8-0.5h-2.6V55.1z"/>
		<path class="st1" d="M833.2,56.6h-1.5v5.5h-2.1V49.3h2.1v5.4h1.2l4-5.4h2.5l-4.7,6.1l5,6.7h-2.6L833.2,56.6z"/>
		<path class="st1" d="M848.9,56.3h-5.6v4h6.5v1.7h-8.6V49.3h8.6V51h-6.4v3.6h5.6V56.3z"/>
		<path class="st1" d="M860.5,51h-3.9v11.1h-2.1V51h-3.9v-1.7h9.9V51z"/>
		<path class="st1" d="M864.5,62.1h-2.1V49.3h2.1V62.1z"/>
		<path class="st1" d="M877.4,62.1h-2.1l-5.7-9.3l-0.1,0v9.3h-2.1V49.3h2.1l5.7,9.3l0.1,0v-9.3h2.1V62.1z"/>
		<path class="st1" d="M889.7,60.4c-0.3,0.5-0.9,0.9-1.7,1.3c-0.8,0.4-1.8,0.6-3,0.6c-1.5,0-2.8-0.5-3.8-1.5s-1.5-2.2-1.5-3.8v-2.7
			c0-1.5,0.5-2.8,1.4-3.8c0.9-1,2.2-1.5,3.6-1.5c1.5,0,2.7,0.4,3.5,1.1c0.8,0.7,1.3,1.7,1.3,2.9l0,0.1h-2c0-0.7-0.3-1.3-0.8-1.7
			s-1.1-0.6-2-0.6c-0.9,0-1.6,0.3-2.1,1s-0.8,1.5-0.8,2.5V57c0,1,0.3,1.9,0.9,2.5c0.6,0.7,1.4,1,2.3,1c0.7,0,1.2-0.1,1.6-0.2
			s0.7-0.3,0.9-0.5v-2.6H885v-1.6h4.7V60.4z"/>
	</g>
</g>
<g>
	<g>
		<path class="st1" d="M990.6,37.6h-5l-1,3h-2.2l4.7-12.8h2l4.6,12.8h-2.2L990.6,37.6z M986.2,35.8h3.8l-1.9-5.5h-0.1L986.2,35.8z"
			/>
		<path class="st1" d="M1004.6,36.4L1004.6,36.4c0,1.3-0.4,2.4-1.2,3.2c-0.9,0.8-2,1.2-3.5,1.2c-1.5,0-2.7-0.5-3.6-1.5
			c-0.9-1-1.4-2.3-1.4-3.9V33c0-1.6,0.5-2.8,1.4-3.9c0.9-1,2.1-1.5,3.6-1.5c1.5,0,2.7,0.4,3.6,1.2c0.9,0.8,1.3,1.9,1.3,3.2l0,0.1
			h-2.1c0-0.9-0.2-1.5-0.7-2c-0.5-0.5-1.2-0.7-2.1-0.7c-0.9,0-1.6,0.3-2.1,1c-0.5,0.7-0.8,1.6-0.8,2.6v2.5c0,1.1,0.3,1.9,0.8,2.6
			c0.5,0.7,1.2,1,2.1,1c0.9,0,1.6-0.2,2-0.7c0.5-0.5,0.7-1.1,0.7-2H1004.6z"/>
		<path class="st1" d="M1016.1,36.4L1016.1,36.4c0,1.3-0.4,2.4-1.2,3.2c-0.9,0.8-2,1.2-3.5,1.2c-1.5,0-2.7-0.5-3.6-1.5
			c-0.9-1-1.4-2.3-1.4-3.9V33c0-1.6,0.5-2.8,1.4-3.9c0.9-1,2.1-1.5,3.6-1.5c1.5,0,2.7,0.4,3.6,1.2c0.9,0.8,1.3,1.9,1.3,3.2l0,0.1
			h-2.1c0-0.9-0.2-1.5-0.7-2c-0.5-0.5-1.2-0.7-2.1-0.7c-0.9,0-1.6,0.3-2.1,1c-0.5,0.7-0.8,1.6-0.8,2.6v2.5c0,1.1,0.3,1.9,0.8,2.6
			c0.5,0.7,1.2,1,2.1,1c0.9,0,1.6-0.2,2-0.7c0.5-0.5,0.7-1.1,0.7-2H1016.1z"/>
		<path class="st1" d="M1028.2,35.4c0,1.6-0.5,2.9-1.5,3.9s-2.3,1.5-3.8,1.5c-1.5,0-2.8-0.5-3.7-1.5c-1-1-1.4-2.3-1.4-3.9V33
			c0-1.6,0.5-2.9,1.4-3.9c1-1,2.2-1.5,3.7-1.5c1.6,0,2.8,0.5,3.8,1.5s1.5,2.3,1.5,3.9V35.4z M1026,33c0-1.1-0.3-1.9-0.9-2.6
			c-0.6-0.7-1.3-1-2.3-1c-0.9,0-1.7,0.3-2.2,1s-0.8,1.6-0.8,2.6v2.3c0,1.1,0.3,2,0.8,2.6s1.3,1,2.2,1c1,0,1.8-0.3,2.3-1
			c0.6-0.7,0.8-1.6,0.8-2.7V33z"/>
		<path class="st1" d="M1040.2,27.8v8.6c0,1.4-0.5,2.5-1.4,3.3s-2.1,1.1-3.6,1.1c-1.5,0-2.7-0.4-3.6-1.1s-1.4-1.8-1.4-3.3v-8.6h2.1
			v8.6c0,0.9,0.3,1.6,0.8,2c0.5,0.5,1.2,0.7,2,0.7c0.9,0,1.6-0.2,2.1-0.7c0.5-0.5,0.8-1.1,0.8-2v-8.6H1040.2z"/>
		<path class="st1" d="M1052.7,40.6h-2.1l-5.7-9.3l-0.1,0v9.3h-2.1V27.8h2.1l5.7,9.3l0.1,0v-9.3h2.1V40.6z"/>
		<path class="st1" d="M1064.3,29.5h-3.9v11.1h-2.1V29.5h-3.9v-1.7h9.9V29.5z"/>
		<path class="st1" d="M965.7,49.4l3.7,9.8h0.1l3.7-9.8h2.8v12.8h-2.1v-4.4l0.2-5.5l-0.1,0l-3.8,9.9h-1.4l-3.8-9.9l-0.1,0l0.2,5.5
			v4.4H963V49.4H965.7z"/>
		<path class="st1" d="M985.7,59.2h-5l-1,3h-2.2l4.7-12.8h2l4.6,12.8h-2.2L985.7,59.2z M981.3,57.4h3.8l-1.9-5.5h-0.1L981.3,57.4z"
			/>
		<path class="st1" d="M1000.3,62.2h-2.1l-5.7-9.3l-0.1,0v9.3h-2.1V49.4h2.1l5.7,9.3l0.1,0v-9.3h2.1V62.2z"/>
		<path class="st1" d="M1010.1,59.2h-5l-1,3h-2.2l4.7-12.8h2l4.6,12.8h-2.2L1010.1,59.2z M1005.7,57.4h3.8l-1.9-5.5h-0.1
			L1005.7,57.4z"/>
		<path class="st1" d="M1024.3,60.5c-0.3,0.5-0.9,0.9-1.7,1.3c-0.8,0.4-1.8,0.6-3,0.6c-1.5,0-2.8-0.5-3.8-1.5s-1.5-2.2-1.5-3.8v-2.7
			c0-1.5,0.5-2.8,1.4-3.8c0.9-1,2.2-1.5,3.6-1.5c1.5,0,2.7,0.4,3.5,1.1c0.8,0.7,1.3,1.7,1.3,2.9l0,0.1h-2c0-0.7-0.3-1.3-0.8-1.7
			s-1.1-0.6-2-0.6c-0.9,0-1.6,0.3-2.1,1c-0.5,0.7-0.8,1.5-0.8,2.5v2.7c0,1,0.3,1.9,0.9,2.5c0.6,0.7,1.4,1,2.3,1
			c0.7,0,1.2-0.1,1.6-0.2c0.4-0.2,0.7-0.3,0.9-0.5v-2.6h-2.5v-1.6h4.7V60.5z"/>
		<path class="st1" d="M1034.6,56.4h-5.6v4h6.5v1.7h-8.6V49.4h8.6v1.7h-6.4v3.6h5.6V56.4z"/>
		<path class="st1" d="M1040.1,49.4l3.7,9.8h0.1l3.7-9.8h2.8v12.8h-2.1v-4.4l0.2-5.5l-0.1,0l-3.8,9.9h-1.4l-3.8-9.9l-0.1,0l0.2,5.5
			v4.4h-2.1V49.4H1040.1z"/>
		<path class="st1" d="M1060.8,56.4h-5.6v4h6.5v1.7h-8.6V49.4h8.6v1.7h-6.4v3.6h5.6V56.4z"/>
		<path class="st1" d="M1073.5,62.2h-2.1l-5.7-9.3l-0.1,0v9.3h-2.1V49.4h2.1l5.7,9.3l0.1,0v-9.3h2.1V62.2z"/>
		<path class="st1" d="M1085,51.1h-3.9v11.1h-2.1V51.1h-3.9v-1.7h9.9V51.1z"/>
	</g>
</g>
<g>
	<g>
		<path class="st1" d="M250.2,35.7v4.9h-2.1V27.8h5c1.4,0,2.5,0.4,3.3,1.1c0.8,0.7,1.2,1.7,1.2,2.9c0,1.2-0.4,2.2-1.2,2.9
			c-0.8,0.7-1.9,1.1-3.3,1.1H250.2z M250.2,34h2.9c0.8,0,1.4-0.2,1.8-0.6s0.6-1,0.6-1.6s-0.2-1.2-0.6-1.6s-1-0.7-1.8-0.7h-2.9V34z"
			/>
		<path class="st1" d="M261.8,35.3v5.3h-2.1V27.8h4.7c1.4,0,2.5,0.3,3.3,1s1.2,1.6,1.2,2.8c0,0.7-0.2,1.2-0.5,1.7
			c-0.3,0.5-0.8,0.9-1.5,1.1c0.7,0.2,1.2,0.6,1.6,1.1s0.5,1.2,0.5,1.9v1.1c0,0.4,0,0.7,0.1,1.1s0.3,0.6,0.5,0.8v0.2h-2.2
			c-0.2-0.2-0.4-0.5-0.5-0.9c-0.1-0.4-0.1-0.8-0.1-1.2v-1c0-0.7-0.2-1.2-0.6-1.6s-0.9-0.6-1.5-0.6H261.8z M261.8,33.6h2.5
			c0.9,0,1.5-0.2,1.9-0.5s0.6-0.8,0.6-1.5c0-0.6-0.2-1.1-0.6-1.5s-1-0.5-1.8-0.5h-2.6V33.6z"/>
		<path class="st1" d="M281.6,35.4c0,1.6-0.5,2.9-1.5,3.9s-2.3,1.5-3.8,1.5c-1.5,0-2.8-0.5-3.7-1.5c-1-1-1.4-2.3-1.4-3.9V33
			c0-1.6,0.5-2.9,1.4-3.9c1-1,2.2-1.5,3.7-1.5c1.6,0,2.8,0.5,3.8,1.5s1.5,2.3,1.5,3.9V35.4z M279.5,33c0-1.1-0.3-1.9-0.9-2.6
			c-0.6-0.7-1.3-1-2.3-1c-0.9,0-1.7,0.3-2.2,1s-0.8,1.6-0.8,2.6v2.3c0,1.1,0.3,2,0.8,2.7s1.3,1,2.2,1c1,0,1.8-0.3,2.3-1
			c0.6-0.7,0.8-1.6,0.8-2.7V33z"/>
		<path class="st1" d="M283.9,40.6V27.8h4.1c1.6,0,2.9,0.5,4,1.5c1,1,1.5,2.3,1.5,3.9v1.9c0,1.6-0.5,2.9-1.5,3.9c-1,1-2.3,1.5-4,1.5
			H283.9z M286,29.5v9.4h2c1.1,0,1.9-0.3,2.5-1c0.6-0.7,0.9-1.6,0.9-2.7v-2c0-1.1-0.3-2-0.9-2.7c-0.6-0.7-1.4-1-2.5-1H286z"/>
		<path class="st1" d="M305.5,27.8v8.6c0,1.4-0.5,2.5-1.4,3.3s-2.1,1.1-3.6,1.1c-1.5,0-2.7-0.4-3.6-1.1s-1.4-1.8-1.4-3.3v-8.6h2.1
			v8.6c0,0.9,0.3,1.6,0.8,2c0.5,0.5,1.2,0.7,2,0.7c0.9,0,1.6-0.2,2.1-0.7c0.5-0.5,0.8-1.1,0.8-2v-8.6H305.5z"/>
		<path class="st1" d="M317.3,36.4L317.3,36.4c0,1.3-0.4,2.4-1.2,3.2c-0.9,0.8-2,1.2-3.5,1.2c-1.5,0-2.7-0.5-3.6-1.5
			c-0.9-1-1.4-2.3-1.4-3.9V33c0-1.6,0.5-2.8,1.4-3.9c0.9-1,2.1-1.5,3.6-1.5c1.5,0,2.7,0.4,3.6,1.2c0.9,0.8,1.3,1.9,1.3,3.2l0,0.1
			h-2.1c0-0.9-0.2-1.5-0.7-2c-0.5-0.5-1.2-0.7-2.1-0.7c-0.9,0-1.6,0.3-2.1,1c-0.5,0.7-0.8,1.6-0.8,2.6v2.5c0,1.1,0.3,1.9,0.8,2.6
			c0.5,0.7,1.2,1,2.1,1c0.9,0,1.6-0.2,2-0.7c0.5-0.5,0.7-1.1,0.7-2H317.3z"/>
		<path class="st1" d="M327.9,29.5h-3.9v11.1h-2.1V29.5h-3.9v-1.7h9.9V29.5z"/>
		<path class="st1" d="M238.8,57.3v4.9h-2.1V49.4h5c1.4,0,2.5,0.4,3.3,1.1c0.8,0.7,1.2,1.7,1.2,2.9c0,1.2-0.4,2.2-1.2,2.9
			c-0.8,0.7-1.9,1.1-3.3,1.1H238.8z M238.8,55.6h2.9c0.8,0,1.4-0.2,1.8-0.6s0.6-1,0.6-1.6s-0.2-1.2-0.6-1.6s-1-0.7-1.8-0.7h-2.9
			V55.6z"/>
		<path class="st1" d="M250.4,60.5h5.9v1.7h-8V49.4h2.1V60.5z"/>
		<path class="st1" d="M265.1,59.2h-5l-1,3h-2.2l4.7-12.8h2l4.6,12.8h-2.2L265.1,59.2z M260.7,57.4h3.8l-1.9-5.5h-0.1L260.7,57.4z"
			/>
		<path class="st1" d="M279.1,58L279.1,58c0,1.3-0.4,2.4-1.2,3.2c-0.9,0.8-2,1.2-3.5,1.2c-1.5,0-2.7-0.5-3.6-1.5
			c-0.9-1-1.4-2.3-1.4-3.9v-2.4c0-1.6,0.5-2.8,1.4-3.9c0.9-1,2.1-1.5,3.6-1.5c1.5,0,2.7,0.4,3.6,1.2c0.9,0.8,1.3,1.9,1.3,3.2l0,0.1
			H277c0-0.9-0.2-1.5-0.7-2c-0.5-0.5-1.2-0.7-2.1-0.7c-0.9,0-1.6,0.3-2.1,1c-0.5,0.7-0.8,1.6-0.8,2.6V57c0,1.1,0.3,1.9,0.8,2.6
			c0.5,0.7,1.2,1,2.1,1c0.9,0,1.6-0.2,2-0.7c0.5-0.5,0.7-1.1,0.7-2H279.1z"/>
		<path class="st1" d="M288.9,56.4h-5.6v4h6.5v1.7h-8.6V49.4h8.6v1.7h-6.4v3.6h5.6V56.4z"/>
		<path class="st1" d="M294.4,49.4l3.7,9.8h0.1l3.7-9.8h2.8v12.8h-2.1v-4.4l0.2-5.5l-0.1,0l-3.8,9.9h-1.4l-3.8-9.9l-0.1,0l0.2,5.5
			v4.4h-2.1V49.4H294.4z"/>
		<path class="st1" d="M315.1,56.4h-5.6v4h6.5v1.7h-8.6V49.4h8.6v1.7h-6.4v3.6h5.6V56.4z"/>
		<path class="st1" d="M327.8,62.2h-2.1l-5.7-9.3l-0.1,0v9.3h-2.1V49.4h2.1l5.7,9.3l0.1,0v-9.3h2.1V62.2z"/>
		<path class="st1" d="M339.4,51.1h-3.9v11.1h-2.1V51.1h-3.9v-1.7h9.9V51.1z"/>
	</g>
</g>
</svg>
