<?xml version="1.0" encoding="utf-8"?>
<!-- Generator: Adobe Illustrator 23.0.6, SVG Export Plug-In . SVG Version: 6.00 Build 0)  -->
<svg version="1.1" id="Layer_1" xmlns="http://www.w3.org/2000/svg" xmlns:xlink="http://www.w3.org/1999/xlink" x="0px" y="0px"
	 viewBox="0 0 200 200" style="enable-background:new 0 0 200 200;" xml:space="preserve">
<g>
	<g>
		<g>
			<path d="M49.4,107.9c-1.1,1.1-2.6,1.7-4.1,1.7H26c-1.6,0-3-0.5-4.2-1.6c-1.1-1.1-1.6-2.6-1.6-4.2v-7.8c0-1.5,0.5-3,1.6-4.1
				c1.1-1.1,2.6-1.7,4.2-1.7h19.3c1.5,0,3,0.5,4.1,1.7c1.1,1.1,1.7,2.5,1.7,4.1v7.8C51,105.4,50.5,106.7,49.4,107.9z M47.2,96.1
				c0-1-0.9-1.9-1.9-1.9H25.9c-1,0-1.8,0.9-1.8,1.9v7.8c0,1.3,0.6,1.9,1.9,1.9h19.3c1,0,1.9-0.9,1.9-1.9V96.1z"/>
		</g>
		<g>
			<path d="M80.3,107.9c-1.1,1.1-2.5,1.6-4.1,1.6H53V90.4h23.1c1.6,0,3,0.5,4.1,1.7c1.1,1.1,1.7,2.5,1.7,4.1c0,1.5-0.5,2.9-1.4,3.9
				c1,1,1.4,2.3,1.4,3.9C81.9,105.4,81.4,106.8,80.3,107.9z M76.2,94.1H56.9V98h19.3c1,0,1.9-0.9,1.9-1.9
				C78.2,95,77.3,94.1,76.2,94.1z M76.2,101.9H56.9v3.9h19.2c1.3,0,1.9-0.6,1.9-1.9C78.1,102.8,77.2,101.9,76.2,101.9z"/>
		</g>
		<g>
			<path d="M108.7,109.5v-5.8c0-1.3-0.6-1.9-1.9-1.9H87.6v7.8h-3.9V90.4h23.1c1.6,0,3,0.5,4.1,1.7c1.1,1.1,1.7,2.5,1.7,4.1
				c0,1.5-0.5,2.9-1.4,3.9c1,1,1.4,2.3,1.4,3.9v5.8h-3.9V109.5z M106.8,94.1H87.6V98h19.2c1.3,0,1.9-0.6,1.9-1.9
				C108.7,94.7,108.1,94.1,106.8,94.1z"/>
		</g>
		<g>
			<path d="M114.5,109.5V90.4h3.9v19.2C118.4,109.5,114.5,109.5,114.5,109.5z"/>
		</g>
		<g>
			<path d="M120.2,109.5V90.4h28.9v5.7h-3.9c0-1.3-0.6-1.9-1.8-1.9h-19.3V98h19.3v3.9h-19.3v3.9h19.3c1.3,0,1.9-0.6,1.8-1.9h3.9v5.8
				h-28.9V109.5z"/>
		</g>
		<g>
			<path d="M176,109.5V96.1c0-1-0.8-1.9-1.9-1.9h-19.3v15.4h-3.9V90.4h23.1c1.6,0,3,0.5,4.1,1.7c1.1,1.1,1.7,2.5,1.7,4.1v13.5H176
				V109.5z"/>
		</g>
	</g>
	<g>
		<g>
			<path d="M183.5,108.2c0,0.7-0.6,1.3-1.4,1.3c-0.8,0-1.4-0.6-1.4-1.3c0-0.7,0.6-1.3,1.4-1.3C182.9,106.9,183.5,107.4,183.5,108.2z
				 M181.1,108.2c0,0.6,0.4,1.1,1,1.1c0.6,0,1-0.5,1-1.1s-0.4-1.1-1-1.1C181.6,107.1,181.1,107.6,181.1,108.2z M181.9,108.9h-0.3
				v-1.3c0.1,0,0.3,0,0.5,0c0.3,0,0.4,0,0.5,0.1c0.1,0.1,0.1,0.2,0.1,0.3c0,0.2-0.1,0.3-0.3,0.3l0,0c0.1,0,0.2,0.1,0.2,0.3
				c0,0.2,0.1,0.3,0.1,0.3h-0.2c0,0-0.1-0.2-0.1-0.3c0-0.1-0.1-0.2-0.3-0.2H182v0.5H181.9z M181.9,108.1h0.1c0.2,0,0.3-0.1,0.3-0.2
				c0-0.1-0.1-0.2-0.3-0.2c-0.1,0-0.1,0-0.2,0v0.4H181.9z"/>
		</g>
	</g>
</g>
</svg>
