<?xml version="1.0" encoding="utf-8"?>
<!-- Generator: Adobe Illustrator 23.0.6, SVG Export Plug-In . SVG Version: 6.00 Build 0)  -->
<svg version="1.1" id="Layer_1" xmlns="http://www.w3.org/2000/svg" xmlns:xlink="http://www.w3.org/1999/xlink" x="0px" y="0px"
	 viewBox="0 0 300 250" style="enable-background:new 0 0 300 250;" xml:space="preserve">
<style type="text/css">
	.st0{fill:#BBBBBB;}
	.st1{fill:#FFFFFF;}
</style>
<rect class="st0" width="300" height="250"/>
<g>
	<path class="st1" d="M116.9,115.5v5c0,6-2.9,9.3-8.9,9.3h-2.8V144h-6v-37.8h8.8C113.9,106.2,116.9,109.5,116.9,115.5z M105.2,111.6
		v12.8h2.8c2,0,2.9-0.9,2.9-3.6V115c0-2.7-1-3.6-2.9-3.6h-2.8V111.6z"/>
	<path class="st1" d="M125.6,144h-6v-37.8h6v16.2h6.8v-16.2h6V144h-6v-16.2h-6.8V144z"/>
	<path class="st1" d="M142.3,115.2c0-6,3.1-9.5,9-9.5c5.8,0,9,3.5,9,9.5v19.6c0,6-3.2,9.5-9,9.5c-5.9,0-9-3.5-9-9.5V115.2z
		 M148.1,135.3c0,2.7,1.2,3.8,3.1,3.8s3.1-1.1,3.1-3.8v-20.4c0-2.7-1.2-3.8-3.1-3.8s-3.1,1-3.1,3.8V135.3z"/>
	<path class="st1" d="M162.4,106.2h18.3v5.4h-6.1V144h-6v-32.4h-6.1V106.2z"/>
	<path class="st1" d="M182.8,115.2c0-6,3.1-9.5,9-9.5s9,3.5,9,9.5v19.6c0,6-3.2,9.5-9,9.5s-9-3.5-9-9.5V115.2z M188.8,135.3
		c0,2.7,1.2,3.8,3.1,3.8s3.1-1.1,3.1-3.8v-20.4c0-2.7-1.2-3.8-3.1-3.8s-3.1,1-3.1,3.8V135.3z"/>
</g>
</svg>
