<?xml version="1.0" encoding="UTF-8"?>
<svg id="Layer_1" xmlns="http://www.w3.org/2000/svg" version="1.1" viewBox="0 0 360 300">
  <!-- Generator: Adobe Illustrator 29.1.0, SVG Export Plug-In . SVG Version: 2.1.0 Build 142)  -->
  <defs>
    <style>
      .st0 {
        fill: #6d6e71;
      }

      .st1 {
        fill: #a7a9ac;
      }
    </style>
  </defs>
  <rect class="st0" width="360" height="300"/>
  <path class="st1" d="M324.6,300c-4.7-21.1-11.2-48.4-14.3-52-6.3-7.1-15.9-10.2-25-13-22-6.7-44-13.5-65.9-20.2-2.1-5.4-4.1-13.8-4.8-26.4,4.9-5.5,9-11.6,11.1-16.9,3.4-8.5,4.1-16.6,4.2-21.7.9,1.6,2.9,2.4,4.7,2.1,2-.4,3.7-1.9,4.6-3.7s1.4-3.9,1.7-5.9c1.1-7.1,1.6-14.2,1.5-21.4,0-3.1-.7-6.8-3.6-7.8-1.3-.5-2.8-.1-4.1.6.6-14.3.6-22.9,0-37.3-.4-7.3-1-14.9-4.6-21.3-3.3-5.9-8.9-10.4-15.1-13.1-2.7-1.2-5.6-2.2-8.4-3.1-16.5-5.1-34.2-5.1-50.9-.5-3.5,1-7,2.1-10.3,3.6-6.2,2.7-11.8,7.2-15.1,13.1-3.6,6.4-4.2,14-4.6,21.3-.7,14.3-.7,22.9,0,37.3-1.2-.7-2.7-1-4.1-.6-2.9,1-3.5,4.7-3.6,7.8-.2,7.2.3,14.3,1.5,21.4.3,2,.7,4.1,1.7,5.9,1,1.8,2.6,3.4,4.6,3.7,1.8.3,3.9-.5,4.7-2.1,0,5.1.8,13.2,4.2,21.7,2.1,5.3,6.2,11.4,11.1,16.9-.7,12.5-2.7,20.9-4.8,26.4-22,6.7-44,13.5-65.9,20.2-9.1,2.8-18.7,5.9-25,13-3.1,3.6-9.6,30.9-14.3,52h289.1Z"/>
</svg>