<?xml version="1.0" encoding="UTF-8"?>
<svg id="Layer_1" xmlns="http://www.w3.org/2000/svg" version="1.1" viewBox="0 0 360 300">
  <!-- Generator: Adobe Illustrator 29.1.0, SVG Export Plug-In . SVG Version: 2.1.0 Build 142)  -->
  <defs>
    <style>
      .st0 {
        fill: #6d6e71;
      }

      .st1 {
        fill: #a7a9ac;
      }
    </style>
  </defs>
  <rect class="st0" width="360" height="300"/>
  <path class="st1" d="M320,300c0-.5-280.1-.5-280,0,1.8-6.7,13.9-66,18.5-71.2,5.9-6.7,14.8-9.6,23.3-12.2,20.5-6.3,41-12.6,61.5-18.9,1.9-5.1,3.8-12.9,4.4-24.6-4.6-5.2-8.4-10.8-10.3-15.8-3.2-7.9-3.9-15.5-3.9-20.3-.8,1.5-2.7,2.2-4.4,1.9-1.9-.4-3.4-1.8-4.3-3.5-.9-1.7-1.3-3.6-1.6-5.5-1.1-6.6-1.5-13.3-1.4-20,0-2.8.7-6.3,3.4-7.2,1.3-.4,2.7-.1,3.8.5-.6-13.4-.6-21.4,0-34.8.3-6.8.9-13.9,4.3-19.9,3.1-5.5,8.3-9.7,14.1-12.2,3.1-1.4,6.4-2.5,9.6-3.4,15.6-4.3,32.1-4.2,47.5.5,2.6.8,5.2,1.7,7.8,2.9,5.8,2.5,11,6.7,14.1,12.2,3.4,6,3.9,13.1,4.3,19.9.7,13.4.7,21.4,0,34.8,1.2-.7,2.6-1,3.8-.5,2.7.9,3.3,4.4,3.4,7.2.1,6.7-.3,13.4-1.4,20-.3,1.9-.7,3.8-1.6,5.5-.9,1.7-2.4,3.1-4.3,3.5-1.7.3-3.6-.5-4.4-1.9,0,4.8-.7,12.3-3.9,20.3-2,4.9-5.8,10.6-10.3,15.8.6,11.7,2.5,19.5,4.4,24.6,20.5,6.3,41,12.6,61.5,18.9,8.5,2.6,17.5,5.5,23.3,12.2,4.6,5.2,16.7,64.4,18.5,71.2Z"/>
</svg>