<?xml version="1.0" encoding="utf-8"?>
<!-- Generator: Adobe Illustrator 23.0.6, SVG Export Plug-In . SVG Version: 6.00 Build 0)  -->
<svg version="1.1" id="Layer_1" xmlns="http://www.w3.org/2000/svg" xmlns:xlink="http://www.w3.org/1999/xlink" x="0px" y="0px"
	 viewBox="0 0 200 200" style="enable-background:new 0 0 200 200;" xml:space="preserve">
<style type="text/css">
	.st0{fill:#7E6956;}
	.st1{fill:#04B3E2;}
	.st2{fill:none;}
</style>
<path class="st0" d="M40.5,80.3c0.1,0.2,0.2,0.4,0.3,0.6c0.1,0.2,0.1,0.5,0.2,0.7c0,0.4,0.1,0.6,0.1,1.1c0.2,2.7,0.4,4,0.6,6.7
	c0,0.3,0,0.4,0.1,0.7c0,0.2,0,0.4,0,0.7c0,0.3-0.1,0.5-0.1,0.7c-1.3,1.5-1.9,2.2-3.1,3.7c-0.2,0.1-0.4,0.2-0.6,0.3
	c-0.3,0.1-0.5,0.1-0.7,0.2c-0.4,0-0.7,0.1-1.1,0.1c-1.1,0.1-1.6,0.2-2.7,0.3c-1.5,0.2-2.3,0.2-3.8,0.4c-0.2,0-0.4,0.1-0.5,0.2
	c-0.1,0.1-0.2,0.3-0.2,0.5c0.3,2.4,0.4,3.6,0.7,6c0.1,0.5-0.2,0.7-0.6,0.8c-2,0.2-3.1,0.4-5.1,0.6c-0.5,0.1-0.7-0.1-0.8-0.6
	c-0.2-1.4-0.3-2.1-0.4-3.5c-0.6-5.1-1.2-10.1-1.9-15.2c-0.3-2.2-0.4-3.3-0.7-5.6c0-0.2,0-0.4,0.2-0.5c0.1-0.2,0.3-0.2,0.5-0.3
	c3.9-0.5,7.8-0.9,11.7-1.3c0.8-0.1,1.2-0.1,2-0.2c0.4,0,0.6-0.1,0.9-0.1c0.2,0,0.4,0,0.7,0c0.3,0,0.5,0.1,0.7,0.1
	C38.2,78.5,39,79.1,40.5,80.3 M35.2,89.6c-0.3-2.6-0.4-3.9-0.7-6.5c-3,0.3-4.5,0.5-7.5,0.8c0.3,2.6,0.4,3.9,0.7,6.5
	C30.8,90.1,32.2,89.9,35.2,89.6"/>
<path class="st0" d="M69.3,100c0.1,0.2,0.1,0.3,0.1,0.4c-0.1,0.1-0.2,0.2-0.4,0.2c-2.4,0.1-3.5,0.2-5.9,0.3c-0.2,0-0.4,0-0.6-0.1
	c-0.2-0.1-0.4-0.2-0.5-0.4c-1.8-2.7-2.7-4.1-4.6-6.8c-0.1-0.1-0.1-0.1-0.3-0.1c-1.7,0.1-2.5,0.2-4.2,0.3c-0.1,0-0.2,0.1-0.2,0.2
	c0.2,2.7,0.3,4.1,0.5,6.9c0,0.5-0.2,0.7-0.7,0.8c-2,0.2-3.1,0.2-5.1,0.4c-0.5,0-0.7-0.2-0.8-0.6c-0.3-4-0.7-8-1-12
	c-0.2-2.5-0.3-3.8-0.5-6.3c-0.2-2.4-0.3-3.7-0.5-6.1c0-0.2,0-0.4,0.2-0.5c0.1-0.1,0.3-0.2,0.5-0.2c5.6-0.5,11.1-0.8,16.7-1.2
	c0.2,0,0.4,0,0.7,0.1c0.3,0,0.5,0.1,0.7,0.2c1.5,1.3,2.2,1.9,3.7,3.2c0.1,0.2,0.2,0.4,0.2,0.6c0.1,0.2,0.1,0.5,0.1,0.7
	c0.1,2,0.1,3,0.2,5c0.1,1.1,0.1,1.6,0.1,2.7c0,0.1,0,0.2,0,0.4c0,0.1,0,0.3-0.1,0.5c-0.1,0.2-0.1,0.4-0.2,0.6
	c-1.3,1.5-2,2.2-3.3,3.6C66.3,95.5,67.3,97,69.3,100 M60.8,81.2c-3.7,0.2-5.5,0.3-9.2,0.6c0.2,2.5,0.3,3.8,0.5,6.3
	c1.7-0.1,2.6-0.2,4.3-0.3c1.6-0.1,2.4-0.2,4-0.3c0,0,0.1,0,0.1,0c0.3,0,0.4,0,0.7,0c0-0.2,0-0.3,0-0.5c-0.1-1.7-0.1-2.5-0.2-4.2
	C60.8,82.1,60.8,81.8,60.8,81.2"/>
<path class="st0" d="M96.3,77.7c0.1,0.2,0.1,0.4,0.2,0.6c0.1,0.3,0.1,0.5,0.1,0.7c0,0.2,0,0.2,0,0.4c0,0.1,0,0.2,0,0.3
	c0,6.5,0,13,0.1,19.5c0,0.2-0.1,0.4-0.2,0.5c-0.1,0.1-0.3,0.2-0.5,0.2c-2.1,0-3.1,0-5.2,0c-0.2,0-0.4-0.1-0.5-0.2
	c-0.1-0.1-0.2-0.3-0.2-0.5c0-2.7-0.1-4-0.1-6.7c0-0.2-0.1-0.4-0.2-0.5c-0.1-0.1-0.3-0.2-0.5-0.2c-3,0-4.5,0.1-7.4,0.2
	c-0.2,0-0.4,0.1-0.5,0.2c-0.1,0.1-0.2,0.3-0.2,0.5c0.1,2.7,0.1,4,0.2,6.7c0,0.2-0.1,0.4-0.2,0.5c-0.1,0.1-0.3,0.2-0.5,0.2
	c-2.1,0.1-3.1,0.1-5.1,0.2c-0.2,0-0.4,0-0.5-0.2c-0.1-0.1-0.2-0.3-0.2-0.5c-0.2-6.5-0.5-13.1-0.7-19.6c0-0.2,0-0.4,0-0.6
	c0,0,0-0.1,0-0.1c0-0.2,0-0.4,0.1-0.6c0-0.2,0.1-0.4,0.2-0.6c1.4-1.4,2-2.1,3.4-3.5c0.2-0.1,0.4-0.2,0.6-0.2
	c0.3-0.1,0.5-0.1,0.7-0.1c0.2,0,0.3,0,0.6,0c0.9,0,1.3,0,2.2-0.1c3.2-0.1,4.7-0.1,7.9-0.2c0.5,0,0.7,0,1.2,0c0.2,0,0.3,0,0.4,0
	c0.2,0,0.4,0,0.7,0.1c0.3,0.1,0.5,0.1,0.7,0.2C94.2,75.7,94.9,76.3,96.3,77.7 M89.9,79.8c-3.6,0-5.4,0.1-9,0.2
	c0.1,2.6,0.1,3.9,0.2,6.5c3.6-0.1,5.4-0.1,8.9-0.2C90,83.8,89.9,82.5,89.9,79.8"/>
<path class="st0" d="M125,78.3c0.1,0.2,0.1,0.4,0.2,0.6c0.1,0.2,0.1,0.5,0.1,0.7c0,0.5,0,0.8-0.1,1.3c-0.2,4.5-0.4,9.1-0.6,13.6
	c0,0.4,0,0.6,0,1c0,0.2,0,0.4-0.1,0.7c-0.1,0.2-0.2,0.5-0.2,0.6c-1.4,1.3-2.1,2-3.6,3.3c-0.2,0.1-0.4,0.2-0.7,0.2
	c-0.3,0-0.5,0.1-0.7,0c-0.6,0-0.9,0-1.5,0c-4-0.1-8-0.2-12-0.3c-1,0-1.6,0-2.6,0c-0.5,0-0.7-0.2-0.7-0.7c0-1.3,0-1.9,0-3.1
	c0-6.1,0.1-12.2,0.1-18.3c0-1.2,0-1.8,0-3.1c0-0.2,0.1-0.4,0.2-0.5c0.1-0.1,0.3-0.2,0.5-0.2c1,0,1.4,0,2.4,0c3.7,0,7.3,0.1,11,0.2
	c1.3,0,2,0.1,3.3,0.1c0.2,0,0.4,0,0.7,0.1c0.3,0.1,0.5,0.1,0.7,0.2C122.9,76.2,123.6,76.9,125,78.3 M112.7,80.5c-1.3,0-2,0-3.3-0.1
	c0,1.5,0,2.3-0.1,3.8c0,2.6-0.1,4-0.1,6.6c0,1.2,0,1.8-0.1,3c1.3,0,2,0,3.4,0.1c0.7,0,1.1,0,1.8,0c1.4,0,2.2,0.1,3.6,0.1
	c0-1.1,0.1-1.6,0.1-2.7c0.1-2.6,0.1-4,0.2-6.6c0-1.6,0.1-2.4,0.1-4c-1.5,0-2.2-0.1-3.6-0.1C113.9,80.5,113.5,80.5,112.7,80.5"/>
<path class="st0" d="M138,81.7c-0.1,0.1-0.2,0.3-0.2,0.5c-0.2,4-0.5,8-0.7,12c0,0.2,0,0.4,0.2,0.5c0.1,0.1,0.3,0.2,0.5,0.2
	c4,0.3,8,0.5,12,0.9c0.2,0,0.4,0.1,0.5,0.2c0.1,0.1,0.2,0.3,0.2,0.5c-0.2,1.9-0.2,2.9-0.4,4.9c0,0.2-0.1,0.4-0.2,0.5
	c-0.1,0.1-0.3,0.2-0.5,0.2c-3.8-0.3-7.6-0.6-11.4-0.8c-0.9-0.1-1.4-0.1-2.3-0.1c-0.2,0-0.3,0-0.5,0c-0.2,0-0.4-0.1-0.7-0.1
	c-0.2-0.1-0.4-0.1-0.6-0.3c-1.3-1.4-1.9-2.2-3.2-3.6c-0.1-0.2-0.2-0.4-0.2-0.6c0-0.3-0.1-0.5,0-0.7c0-0.1,0-0.1,0-0.2
	c0.1-1.6,0.1-2.3,0.2-3.9c0.2-3.5,0.3-5.3,0.5-8.8c0-0.8,0.1-1.2,0.1-2c0-0.4,0-0.6,0.1-1c0-0.2,0-0.4,0.1-0.7
	c0.1-0.2,0.2-0.4,0.3-0.6c1.5-1.3,2.2-1.9,3.7-3.2c0.2-0.1,0.4-0.1,0.6-0.2c0.2,0,0.3-0.1,0.4-0.1c0.1,0,0.2,0,0.3,0
	c0.2,0,0.3,0,0.5,0c0.1,0,0.1,0,0.2,0c0,0,0,0,0.1,0c0.4,0,0.5,0,0.9,0.1c4.4,0.3,8.7,0.6,13.1,0.9c0.2,0,0.4,0.1,0.5,0.2
	c0.1,0.1,0.2,0.3,0.2,0.5c-0.2,1.9-0.2,2.9-0.4,4.9c0,0.2-0.1,0.4-0.3,0.5c-0.2,0.1-0.3,0.2-0.5,0.2c-4.1-0.3-8.2-0.6-12.2-0.9
	C138.3,81.6,138.1,81.6,138,81.7"/>
<path class="st0" d="M179.8,83c0.1,0.2,0.1,0.4,0.1,0.7c0,0.3,0,0.5,0,0.7c0,0.3-0.1,0.4-0.1,0.7c-0.6,4.4-1.1,8.8-1.7,13.2
	c-0.1,0.8-0.1,1.1-0.2,1.9c0,0.2-0.1,0.4-0.2,0.6c-0.1,0.2-0.2,0.4-0.3,0.6c-1.5,1.2-2.3,1.8-3.8,2.9c-0.2,0.1-0.4,0.1-0.7,0.1
	c-0.3,0-0.5,0-0.7,0c-0.3,0-0.5-0.1-0.8-0.1c-3.6-0.4-5.4-0.6-8.9-1c-0.8-0.1-1.2-0.1-2-0.2c-0.2,0-0.4-0.1-0.7-0.1
	c-0.2-0.1-0.4-0.2-0.6-0.3c-1.2-1.5-1.8-2.2-3.1-3.7c-0.1-0.2-0.1-0.4-0.2-0.6c0-0.2,0-0.5,0-0.7c0-0.3,0-0.5,0.1-0.8
	c0.4-4.4,0.8-8.8,1.2-13.1c0.1-0.8,0.1-1.1,0.2-1.9c0-0.2,0.1-0.4,0.1-0.7c0.1-0.2,0.2-0.4,0.3-0.6c1.5-1.2,2.3-1.8,3.9-3
	c0.2-0.1,0.4-0.1,0.7-0.1c0.3,0,0.5,0,0.7,0c0.7,0.1,1,0.1,1.7,0.2c3.2,0.3,4.8,0.5,8.1,0.9c1,0.1,1.5,0.2,2.5,0.3
	c0.2,0,0.4,0.1,0.7,0.2c0.3,0.1,0.5,0.2,0.6,0.3C178,80.7,178.6,81.4,179.8,83 M173.1,84.7c-3.6-0.4-5.4-0.6-8.9-1
	c-0.5,4.4-0.9,8.9-1.4,13.3c3.5,0.4,5.3,0.6,8.8,1C172,93.6,172.6,89.2,173.1,84.7"/>
<path class="st0" d="M40.6,115l-0.9,0.9v4.4l0.9,0.9h3.2l0.9-0.9v-4.4l-0.9-0.9H40.6z M43.2,119.9l-0.4,0.4h-1.5l-0.4-0.4v-3.5
	l0.4-0.4h1.5l0.4,0.4V119.9z"/>
<polygon class="st0" points="50.1,119.8 49.7,120.2 48.3,120.2 48,119.8 48,115 46.6,115 46.6,120.4 47.5,121.3 50.5,121.3 
	51.5,120.4 51.5,115 50.1,115 "/>
<polygon class="st0" points="53.2,116.1 54.9,116.1 54.9,121.3 56.3,121.3 56.3,116.1 58,116.1 58,115 53.2,115 "/>
<path class="st0" d="M64.7,120.4v-4.4l-0.9-0.9h-4v6.3h4L64.7,120.4z M63.3,119.9l-0.4,0.4h-1.8v-4.2H63l0.4,0.4V119.9z"/>
<path class="st0" d="M66.6,115.9v4.4l0.9,0.9h3.2l0.9-0.9v-4.4l-0.9-0.9h-3.2L66.6,115.9z M68,116.4l0.4-0.4h1.5l0.4,0.4v3.5
	l-0.4,0.4h-1.5l-0.4-0.4V116.4z"/>
<path class="st0" d="M74.5,115l-0.9,0.9v4.4l0.9,0.9h3.2l0.9-0.9v-4.4l-0.9-0.9H74.5z M77.2,119.9l-0.4,0.4h-1.5l-0.4-0.4v-3.5
	l0.4-0.4h1.5l0.4,0.4V119.9z"/>
<path class="st0" d="M84.2,121.3h1.4l-0.9-2.7l0.8-0.8v-2l-0.9-0.9h-4.1v6.3h1.4v-2.5h1.4L84.2,121.3z M81.9,116h1.8l0.3,0.3v1.2
	l-0.3,0.3h-1.8V116z"/>
<path class="st0" d="M118.8,117.4v-1.5L118,115h-4.1v6.3h4.1l0.8-0.8v-1.7l-0.7-0.7L118.8,117.4z M115.3,116h1.8l0.3,0.3v1l-0.3,0.3
	h-1.8V116z M117.5,120l-0.3,0.3h-1.8v-1.7h1.8l0.3,0.3V120z"/>
<path class="st0" d="M127,115.9l-0.9-0.9H122v6.3h1.4v-2.5h1.4l0.8,2.5h1.4l-0.9-2.7l0.8-0.8V115.9z M125.6,117.5l-0.3,0.3h-1.8V116
	h1.8l0.3,0.3V117.5z"/>
<path class="st0" d="M133.7,119.9l0.4,1.4h1.4l-1.7-6.3h-2.1l-1.7,6.3h1.3l0.4-1.4H133.7z M132.7,115.8l0.8,3h-1.5L132.7,115.8z"/>
<polygon class="st0" points="142.2,119.2 140,115 138.5,115 138.5,121.3 139.8,121.3 139.8,117.1 141.9,121.3 143.4,121.3 
	143.4,115 142.2,115 "/>
<path class="st0" d="M146.7,115v6.3h4l0.9-0.9v-4.4l-0.9-0.9H146.7z M150.2,119.9l-0.4,0.4h-1.8v-4.2h1.8l0.4,0.4V119.9z"/>
<polygon class="st0" points="156.4,117.6 156.2,117.4 156.2,116.3 156.5,116 158,116 158.3,116.3 158.3,116.9 159.7,116.9 
	159.7,115.9 158.8,115 155.7,115 154.8,115.9 154.8,117.9 155.6,118.7 158.1,118.7 158.3,118.9 158.3,120 158,120.3 156.4,120.3 
	156.2,120 156.2,119.4 154.8,119.4 154.8,120.4 155.6,121.3 158.8,121.3 159.7,120.4 159.7,118.3 158.9,117.6 "/>
<polygon class="st1" points="92.6,136.6 92.6,136.1 93.2,136.1 93.2,136.4 93.4,136.5 94.1,136.5 94.2,136.4 94.2,135.9 94.1,135.8 
	93,135.8 92.6,135.4 92.6,134.5 93,134.1 94.5,134.1 94.9,134.5 94.9,134.9 94.2,134.9 94.2,134.7 94.1,134.6 93.4,134.6 
	93.3,134.7 93.3,135.2 93.4,135.3 94.5,135.3 94.9,135.6 94.9,136.6 94.5,137 93,137 "/>
<polygon class="st1" points="95.7,136.5 96.2,136.5 96.2,134.5 95.7,134.5 95.7,134.1 97.3,134.1 97.3,134.5 96.9,134.5 96.9,136.5 
	97.3,136.5 97.3,137 95.7,137 "/>
<polygon class="st1" points="98.3,134.1 99,134.1 100,136 100,134.1 100.5,134.1 100.5,137 99.9,137 98.8,135 98.8,137 98.3,137 "/>
<polygon class="st1" points="101.6,136.5 101.6,134.5 102,134.1 103.4,134.1 103.8,134.5 103.8,135.1 103.2,135.1 103.2,134.7 
	103,134.6 102.4,134.6 102.2,134.7 102.2,136.3 102.4,136.5 103,136.5 103.2,136.3 103.2,136 103.8,136 103.8,136.6 103.4,137 
	102,137 "/>
<polygon class="st1" points="104.8,134.1 106.7,134.1 106.7,134.6 105.4,134.6 105.4,135.3 106.6,135.3 106.6,135.8 105.4,135.8 
	105.4,136.5 106.7,136.5 106.7,137 104.8,137 "/>
<polygon class="st0" points="108.7,118.2 105.5,113.3 103.7,116.1 99.7,109.9 95.6,116.1 93.8,113.3 90.6,118.2 "/>
<polygon class="st1" points="90.6,118.2 93.8,123 95.6,120.3 99.6,126.5 103.7,120.3 105.5,123 108.7,118.2 "/>
<polygon class="st1" points="87.6,144.9 88.8,144.9 88.8,140.7 87.6,140.7 87.6,139.7 90.2,139.7 90.2,144.9 91.4,144.9 91.4,146 
	87.6,146 "/>
<path class="st1" d="M93,145.1v-1.7l0.7-0.7L93,142v-1.5l0.8-0.8h3.4l0.8,0.8v1.5l-0.7,0.7l0.7,0.7v1.7l-0.9,0.8h-3.4L93,145.1z
	 M96.4,145l0.3-0.3v-1.1l-0.3-0.3h-1.7l-0.3,0.3v1.1l0.3,0.3H96.4z M96.4,142.2l0.3-0.3v-1l-0.3-0.3h-1.7l-0.3,0.3v1l0.3,0.3H96.4z"
	/>
<path class="st1" d="M99.9,145.1v-1h1.4v0.5l0.3,0.3h1.6l0.3-0.3v-1.5l-0.5,0.5h-2.4l-0.8-0.8v-2.1l0.9-0.9h3.3l0.9,0.9v4.5
	l-0.9,0.9h-3.3L99.9,145.1z M103.3,142.5l0.3-0.3V141l-0.3-0.3h-1.6l-0.3,0.3v1.2l0.3,0.3H103.3z"/>
<polygon class="st1" points="109.8,144.3 106.4,144.3 106.4,143.5 107.6,139.7 108.9,139.7 107.9,143.2 109.8,143.2 109.8,139.7 
	111.2,139.7 111.2,143.2 111.8,143.2 111.8,144.3 111.2,144.3 111.2,145.9 109.8,145.9 "/>
<rect x="20" y="74" class="st2" width="160" height="72"/>
</svg>
