<?xml version="1.0" encoding="utf-8"?>
<!-- Generator: Adobe Illustrator 23.0.6, SVG Export Plug-In . SVG Version: 6.00 Build 0)  -->
<svg version="1.1" id="Layer_1" xmlns="http://www.w3.org/2000/svg" xmlns:xlink="http://www.w3.org/1999/xlink" x="0px" y="0px"
	 viewBox="0 0 200 200" style="enable-background:new 0 0 200 200;" xml:space="preserve">
<style type="text/css">
	.st0{fill:#FFFFFF;}
	.st1{fill:#643E18;}
	.st2{fill:#623B15;}
	.st3{fill:#3EB34A;}
	.st4{fill:#43B34B;}
	.st5{fill:#FCFBFA;}
	.st6{fill:#FDFCFB;}
	.st7{fill:#3DB349;}
	.st8{fill:#FBF9F8;}
	.st9{fill:#7D5634;}
	.st10{fill:#7E5735;}
	.st11{fill:#7E5734;}
	.st12{fill:#FDFDFC;}
	.st13{fill:#F9F7F5;}
	.st14{fill:#F8F6F4;}
	.st15{fill:#F8F6F3;}
	.st16{fill:#F6F4F2;}
	.st17{fill:#F5F2EF;}
	.st18{fill:#F2EFEB;}
	.st19{fill:#F1EDE9;}
	.st20{fill:#F0EBE7;}
	.st21{fill:#ECE6E0;}
	.st22{fill:#7D874A;}
	.st23{fill:#6B5C29;}
	.st24{fill:#E4DBD4;}
	.st25{fill:#FEFDFD;}
	.st26{fill:#614017;}
	.st27{fill:#647731;}
	.st28{fill:#633C16;}
</style>
<path class="st0" d="M132.8,128.1c-0.1-0.1-0.1-0.1-0.2-0.2l0,0c-0.1-0.1-0.1-0.2-0.2-0.2c0.1-0.2,0.2-0.3,0.3-0.5
	c2.4-2.9,4.6-6,6.6-9.2c2.1-3.4,3.9-6.8,5.1-10.7c0.4-1.1,0.6-2.2,0.9-3.3c0.1,0,0.1,0,0.1,0c0,1.4,0,2.8,0,4.2c4.8,0,9.6,0,14.4,0
	c0-1.9,0-3.6,0-5.5c-3.6,0.6-7.1,1.2-10.6,1.8c0-2.8,0-5.6,0-8.4c3,0.1,6,0.1,8.9,0.2c0-1.3,0-2.6,0-3.9c-3,0-6,0-8.9,0
	c0-1.3,0-2.5,0-3.8c3,0,5.9,0,8.9,0c0-1.4,0-2.6,0-3.8c-4.2,0-8.4,0-12.7,0c0,2.8,0,5.5,0,8.2c-0.5-1.9-0.8-3.8-1.3-5.7
	c-0.3-1.2-0.2-2.1,0.4-3.1c0.6-1,1.1-2.1,1.6-3.2c-1.2,0-2.3,0-3.4,0c-0.1-0.3-0.2-0.5-0.2-0.7c-1.1-4.2-2.8-8-5.8-11.2
	c-1.9-2-3.8-3.9-5.8-5.8c-1.9-1.8-3.8-3.4-5.7-5.2c-1.1-1-2.2-2.1-3.4-2.9c-3-2.2-6.7-3.3-10.1-4.7c-0.1-0.1-0.3-0.1-0.4-0.1
	c-2.3-0.5-4.6-1.1-6.9-1.6c-1.1-0.3-2.2-0.6-3.2-0.6c-2.2-0.1-4.3,0.1-6.5,0.2c-1.6,0.1-3.1,0.1-4.6,0c-5.1-0.3-10,0.4-14.8,1.5
	c-3,0.7-5.7,2.1-8.3,3.6c-1.6,0.9-3.2,1.8-4.6,2.9c-2.2,1.8-3.6,4.3-4.9,6.9c-1.4,2.7-2.5,5.6-4.2,8.1c-2,2.8-3,6-3.5,9.3
	c-0.7,4.6-1.7,9.1-3.2,13.5c-0.6,1.6-1.1,3.2-1.3,4.9c-0.2,2.5-0.2,5,0.3,7.5c0.6,3.2,1.3,6.4,3.2,9.2c3.3,4.9,6.8,9.7,10.1,14.5
	c2.2,3.1,5.1,5.3,8.4,6.9c3.4,1.7,6.8,3.3,10.2,4.8c4.9,2.2,9.9,4.1,15.3,4.6c3.8,0.4,7.7,0.3,11.5-0.4c5.6-1,10.6-3.1,15.3-6.2
	c0.1,0.1,0.2,0.1,0.3,0.2c2.6,2,5.5,3.5,8.6,4.4c1.9,0.6,3.6,1.4,5.2,2.6c1.1,0.8,2.3,1.6,3.4,2.4c0.7,0.6,1.4,1.1,2.2,1.7
	c0-0.2-0.1-0.3-0.2-0.4c-0.3-0.6-0.7-1.2-0.9-1.9c-0.5-1.5-0.3-3.1,0.1-4.6c0.5-2.2,0.9-4.5,0.7-6.8c-0.3-4.3-2.4-7.5-5.9-9.8l0,0
	C133,128.2,132.9,128.1,132.8,128.1L132.8,128.1z"/>
<path class="st0" d="M34.1,107.6c6.7-1.1,10.7-6.7,10.3-12.9c-0.4-6.1-5.6-11.1-11.6-11.3c-6.2-0.3-11.7,4.2-12.6,10.5
	c-0.5,2.9,0.2,5.8,1.8,8.3c2,3.1,4.9,4.7,8.5,5.4c0,1.5,0,2.9,0,4.3c2,0,3.8,0,5.8,0C35.5,110.4,34.8,109,34.1,107.6z"/>
<path class="st0" d="M162.7,108.6c2.6,0,5,0,7.5,0c1.3,0,2.7,0,4-0.2c2.3-0.3,4.2-1.3,5.1-3.5c0.4-0.9,0.6-1.9,0.6-2.9
	c0.1-1.7-0.2-3.4-1.2-4.8c-1.3-1.7-3.1-2.4-5.1-2.6c-1.6-0.2-3.2-0.1-4.8-0.2c-1.6-0.1-2.5-1-2.7-2.5c-0.2-1.8,0.5-2.7,2.1-3
	c0.3-0.1,0.7-0.1,1-0.1c2.2-0.1,4.5-0.1,6.7-0.2c0.7,0,1.4-0.1,2.1-0.1c0-1.2,0-2.3,0-3.5c-0.1,0-0.2,0-0.3,0c-2.8,0-5.6,0-8.4,0
	c-0.8,0-1.5,0.1-2.2,0.3c-2.2,0.5-3.8,1.8-4.3,4c-0.2,0.9-0.2,1.8-0.2,2.6c0.1,3.5,2.2,5.7,5.6,6c1.6,0.1,3.1,0.1,4.7,0.2
	c2.9,0.2,3.8,2,3.3,4.4c-0.4,1.8-1.9,2.4-3.9,2.2c-2.4-0.3-4.8-0.7-7.2-1c-0.8-0.1-1.5-0.2-2.3-0.3
	C162.7,105.2,162.7,106.8,162.7,108.6z"/>
<path class="st1" d="M119.7,140.4c-4.6,3.1-9.7,5.2-15.3,6.2c-3.8,0.7-7.6,0.7-11.5,0.4c-5.4-0.5-10.4-2.4-15.3-4.6
	c-3.4-1.6-6.8-3.1-10.2-4.8c-3.3-1.7-6.3-3.8-8.4-6.9c-3.4-4.8-6.8-9.6-10.1-14.5c-1.9-2.7-2.6-6-3.2-9.2c-0.4-2.5-0.5-4.9-0.3-7.5
	c0.2-1.7,0.7-3.3,1.3-4.9c1.6-4.4,2.6-8.9,3.2-13.5c0.5-3.4,1.6-6.5,3.5-9.3c1.7-2.5,2.8-5.4,4.2-8.1c1.3-2.5,2.6-5.1,4.9-6.9
	c1.4-1.1,3-2,4.6-2.9c2.6-1.5,5.4-2.9,8.3-3.6c4.9-1.2,9.8-1.8,14.8-1.5c1.6,0.1,3.1,0.1,4.6,0c2.2-0.1,4.3-0.2,6.5-0.2
	c1.1,0,2.2,0.4,3.2,0.6c2.3,0.5,4.6,1.1,6.9,1.6c0.1,0.1,0.3,0.1,0.4,0.1c3.4,1.5,7,2.5,10.1,4.7c1.2,0.9,2.3,2,3.4,2.9
	c1.9,1.7,3.8,3.4,5.7,5.2c2,1.9,3.9,3.8,5.8,5.8c3,3.2,4.7,7,5.8,11.2c0.1,0.2,0.1,0.4,0.2,0.7c1.1,0,2.2,0,3.4,0
	c-0.6,1.1-1,2.2-1.6,3.2c-0.6,1-0.7,1.9-0.4,3.1c0.5,1.9,0.8,3.8,1.3,5.7c0-2.7,0-5.5,0-8.2c4.2,0,8.5,0,12.7,0c0,1.2,0,2.4,0,3.8
	c-3,0-6,0-8.9,0c0,1.4,0,2.6,0,3.8c3,0,6,0,8.9,0c0,1.3,0,2.6,0,3.9c-3-0.1-5.9-0.1-8.9-0.2c0,2.8,0,5.6,0,8.4
	c3.5-0.6,7.1-1.2,10.6-1.8c0,1.8,0,3.6,0,5.5c-4.8,0-9.5,0-14.4,0c0-1.4,0-2.8,0-4.2c-0.1,0-0.1,0-0.1,0c-0.3,1.1-0.6,2.2-0.9,3.3
	c-1.2,3.8-3,7.3-5.1,10.7c-2,3.2-4.1,6.3-6.6,9.2c-0.1,0.2-0.2,0.3-0.3,0.5c0.1,0.1,0.1,0.2,0.2,0.2l0,0c0.1,0.1,0.1,0.1,0.2,0.2
	l0,0c0.1,0.1,0.2,0.1,0.3,0.2l0,0c0.2,0.2,0.3,0.5,0.5,0.7c1.5,1.5,2.6,3.1,3.1,5.2c1,3.6,1,7.2,0.6,10.9c-0.2,1.3-0.1,2.6-0.1,3.8
	c0,0.5,0,0.9,0.1,1.3c-0.4-0.6-0.8-1.2-1.2-1.7c-0.4-0.4-0.6-0.8-0.6-1.3c-0.1-0.5-0.2-1-0.1-1.5c0.1-1.5,0.3-3,0.4-4.6
	c0.1-1.2,0-2.4,0-3.5c-1.4,0-2.6,0.1-3.8,0c-1.5-0.2-2.8-0.9-4-1.8c-0.1-0.1-0.1-0.1-0.2-0.1c-0.1-0.1-0.1-0.1-0.2-0.1l-0.1-0.1v0.1
	c0,0,0.1,0,0.1,0.1c0.1,0.1,0.1,0.1,0.1,0.2c0.1,0.1,0.1,0.1,0.1,0.2c0.1,0.2,0.2,0.3,0.3,0.5c1.6,2,3.2,3.9,4.8,5.9
	c0.2,0.2,0.3,0.4,0.4,0.5c-0.1,0.1-0.1,0.1-0.2,0.1c-2.9-2.6-5.4-5.6-7.6-8.6c-0.1,1-0.1,2-0.3,3c-0.2,1-0.6,1.9-1.2,2.7
	c0.3-1.5,0.6-3,0.8-4.5c0.1-0.8,0.3-1.7-0.3-2.5c-2.4-3.4-4.4-7.1-6.2-10.9c-0.9-1.9-1.7-3.9-2.6-5.9c0.1-0.1,0.2-0.1,0.2-0.1
	c0.1,0.1,0.1,0.2,0.2,0.3c0.4,1.4,1.1,2.6,1.9,3.7c0.1,0.2,0.2,0.3,0.3,0.5c-0.5,0.1-0.1,0.4,0,0.4c1.7,2.9,3.4,5.9,5.2,8.7
	c0.1,0.2,0.3,0.3,0.4,0.4c1.9,0.9,4,1.6,6.1,1.7c1.2,0.1,2.4-0.1,3.6-0.1c0-0.1,0,0,0,0.1c-0.1,0.1-0.2,0.1-0.3,0.2
	c-1.5,0.9-3.1,1.1-4.8,0.7c-1.5-0.3-2.9-1.1-4.2-1.8c-0.1,0-0.1-0.1-0.2-0.1c0-0.1,0-0.1-0.1-0.1v0.1c0,0,0.1,0,0.1,0.1
	c0.1,0.1,0.1,0.1,0.1,0.2c0.5,0.7,0.9,1.3,1.3,2c0.8,1.6,2.2,2.4,3.8,3c0.4,0.2,0.9,0.4,1.3,0.5c1.6,0.5,3.2,0.8,5,0.9
	c-0.1-0.5-0.1-0.9-0.2-1.4c-0.4-3.2-1.6-5.9-3.9-8.1c-2-1.8-4.2-3.2-6.6-4.3c0.1-0.1,0.1-0.1,0.2-0.1c0.4,0.2,0.7,0.3,1.1,0.4
	c0.2,0.1,0.4,0.2,0.7,0.3c1,0.5,2,1,3,1.5c0.1-0.2,0.3-0.3,0.4-0.5c3-3.8,5.3-8.1,7.6-12.4c2-3.7,3.4-7.7,3.7-12
	c0.2-3.1-0.2-6.1-0.5-9.4c-1,2-1.9,3.8-2.8,5.6c-0.2,0.4-0.3,0.9-0.5,1.3c-0.3,0.4-0.6,0.8-0.8,1.2c-1.8,3.5-3.6,7.1-5.4,10.8
	c-0.3-0.5-0.6-1-0.8-1.4c-1.2,2.5-2.4,5.1-3.6,7.5c-1.2,2.4-2.6,4.4-5,5.8v0.1c0,0.1,0,0.1,0,0.2c-0.3-0.1-0.5-0.2-0.7-0.3
	c0-0.1,0-0.2,0-0.2c2-0.9,3.5-2.4,4.5-4.3c1.5-3,2.9-6,4.3-9c0.2-0.4,0.2-0.7-0.1-1c-0.8-1.5-1.6-3.1-2.3-4.6
	c-0.2-0.3-0.3-0.5-0.4-0.7c-0.9-1.8-1.8-3.6-2.7-5.5c-0.1,0-0.2,0-0.3,0c-0.3,1.5-0.8,3-1,4.6c-0.2,1.6-0.5,3.2-1.2,4.6
	c-1.6,3.3-4,6.1-6.8,8.3c-2.6,2.1-5.3,3.9-8,5.9c-0.6,0.4-1.3,0.7-2,0.9c-2.3,0.6-4.4,1.5-6.6,2.5c-1.2,0.6-2.4,1-3.6,0.9
	c-1.8-0.2-3.6-0.5-5.4-0.9c-4.7-1.2-9-3.6-13.3-5.9c-1.2-0.6-1.9-1.7-2.2-3c-0.8-3.6-2.8-6.7-4.4-10c-0.3,0.5-0.6,1-0.9,1.5
	c-0.7,0.9-1.7,1.4-2.6,1.9c-0.2,0.1-0.4,0.1-0.6,0.2c-1.3,0.2-2.6,0.4-3.9,0.6c0.5,1.5,1,3.1,1.5,4.6c0.6,1.8,1.7,3.3,3.3,4.3
	c1.9,1.2,3,2.9,3.7,5.1c0.6,1.8,1.3,3.4,2.7,4.6c1.3,1.3,2.8,2.3,4.4,3c2.8,1.2,5.8,1.9,8.7,2.2c3.5,0.4,7,0.4,10.5,0.6
	c1.3,0.1,2.5-0.4,3.6-1.1c1-0.6,1.9-1.3,2.9-1.8c4-1.8,8-3.6,12-5.4h0.1h0.1c0,0.3,0,0.6,0,0.8c-0.2-0.1-0.4-0.2-0.5-0.1
	c-1,0.4-1.9,0.8-2.8,1.2c-3.9,1.8-8,3.3-11.7,5.8c-1.1,0.7-2.3,1-3.5,1c-1.5-0.1-3-0.2-4.5-0.2c-1.7-0.1-3.4-0.1-5.1-0.2
	c-3.1-0.3-6.1-1.1-9.1-1.9c-1.8-0.5-3.6-1.2-4.8-2.6c-1.5-1.7-2.6-3.5-3.3-5.7c-0.7-2.2-1.8-3.8-3.7-5.1c-1.6-1-2.7-2.5-3.3-4.2
	c-0.6-1.7-1.1-3.4-1.6-5.1c-0.1,0-0.1-0.1-0.1-0.1c-0.3,0-0.6,0-0.9,0c-2.1,0-4.1,0-6.2,0.1c-0.2,0-0.4,0-0.6,0
	c-0.3,0-0.4-0.2-0.4-0.5c0-1.6,0-3.2,0-4.7c0.2,0,0.4,0,0.5,0c0.7,0.1,1.3,0.3,1.9,0.3c1.5,0.2,3,0.4,4.4,0.6
	c-0.3-2.1-0.6-4.2-0.8-6.3c-2.1-0.1-4-0.9-5.3-2.6c-0.2-0.4-0.3-0.7-0.5-1c-0.5-1.3-0.6-2.6-0.5-4c0.1-1.6,0.8-2.8,1.8-4
	c0.3-0.2,0.6-0.3,0.8-0.5c1.3-0.8,2.8-0.9,4.4-1.1c0.6-2.5,1.3-5.1,1.8-7.6c0.4-2,1.1-3.8,2.4-5.5c1.2-1.4,2.2-2.9,3.2-4.4
	c0.9-1.4,2-2.4,3.5-3.1c3.3-1.4,6.7-2.3,10.3-2.4c6.1-0.1,12.2-0.1,18.2-0.1c2.4,0,4.8,0.3,7.2,1c3.7,1.1,7,3.2,10.2,5.4
	c1.9,1.3,3.8,2.5,5.8,3.6c1.1,0.7,2.3,1.1,3.3,1.8c2.6,1.9,4.4,4.5,5.4,7.5c1,2.9,1.6,6,2.3,9c0.5,2.1,0.8,4.1,0.5,6.2
	c0,0.1,0,0.2,0,0.3c1.2-2.3,2.4-4.5,3.5-6.8c0.1-0.2,0.1-0.3,0.1-0.5c0.2-0.2,0.3-0.5,0.5-0.7c0.6-1.2,1.3-2.4,1.9-3.6
	c0.1-0.1,0.1-0.3,0-0.4c-0.5-1.7-0.9-3.4-1.5-5.1c-1-2.9-2.6-5.5-4.2-8c-1-1.4-2-2.8-3.2-3.8c-3.7-3.1-7.5-6.1-11.6-8.7
	c-2.5-1.6-5.3-2.7-8-3.7c-3.2-1.2-6.3-2.8-9.7-3.5c-3-0.7-6.1-1-9.2-0.7c-3.5,0.4-6.9,0.7-10.4,0.9c-2.6,0.2-5.2,0.3-7.6,1.4
	c-2.6,1.1-5.1,2.4-7,4.6c-2.3,2.7-4.5,5.4-6.8,8.1c-2,2.5-3.8,5-5.3,7.8c-2.6,5.3-4.2,10.9-5.4,16.6c-0.3,1.4-0.5,2.7-0.7,4
	c0,0.2,0.2,0.4,0.3,0.5c1,0.6,1.4,1.5,1.4,2.6c0,0.5-0.1,1-0.1,1.3c-0.9-0.4-1.7-0.8-2.6-1.2c-0.1,0.4-0.3,0.7-0.4,1.1
	c-0.9,3-0.8,5.9,0.7,8.6c1.2,2.2,2.4,4.4,3.6,6.6c1.1,2,2,4,3.4,5.8c1.7,2,3.4,4.1,5,6.2c1.9,2.4,3.9,4.7,6.6,6.3
	c4.3,2.5,8.7,4.9,13.3,7c3.6,1.6,7.3,2.1,11.1,1c2.4-0.7,4.6-0.4,6.8,1c0.3,0.2,0.6,0.4,0.9,0.5c1.9,1.1,4,1.4,6.1,0.6
	c1.9-0.7,3.7-1.6,5.5-2.5c1.9-1,3.7-2,5.5-3c0.2,0.3,0.4,0.6,0.6,0.8c0.1,0.9,0.3,1.7,0.4,2.7c0.5-0.3,1-0.6,1.4-0.9
	C119.2,140,119.4,140.2,119.7,140.4z M104.5,50C104.5,50,104.5,50,104.5,50C104.5,50,104.5,50,104.5,50C104.5,50,104.5,50,104.5,50
	c0.1,0.5,0.1,0.9,0.1,1.3c-0.1,0.5,0.2,0.7,0.6,0.7c0.1-0.6,0.2-1.2,0.2-1.8C105.2,50.1,104.9,50.1,104.5,50z M114,139.8
	c-0.4,0.2-0.8,0.4-1.2,0.6c0.3,0.8,0.6,1.6,0.9,2.3c0.6-0.1,0.7-0.4,0.6-0.9c-0.1-0.6-0.1-1.3-0.2-1.9c0-0.1,0-0.1,0-0.2
	C114.1,139.7,114,139.8,114,139.8z M66,103.8c1.1-1.1,1.2-3.5,0.2-4.6c-0.2-0.2-0.5-0.4-0.7-0.5c-0.2-0.1-0.4-0.2-0.6-0.3
	c-1.6-0.7-3.3-0.2-5.2-0.4c0.3,2,0.6,3.9,0.9,5.8c0.1,0.5,0.3,0.8,0.8,0.7c0.4,0,0.8,0.2,1.2,0.2c1,0.1,2,0.1,2.8-0.6
	C65.7,104,65.9,103.9,66,103.8z M65.3,94.5c0.9,0.3,1.7,0.6,2.6,1c0.2-1.2,0.7-2.3,0.6-3.4c-0.1-1.2-0.6-2.3-0.9-3.4
	c-0.9,0-1.7,0-2.5,0c-0.2,0-0.4,0-0.6,0c-1.6,0-3.2,0-4.8,0c0,2,0,3.9,0,5.9c1.6,0,3,0,4.5,0c0.1,0,0.1,0,0.1,0c0.2,0,0.3,0,0.4,0
	C64.9,94.4,65,94.5,65.3,94.5z M65.6,84.9c0.8,0,1.7,0,2.4,0c0.4-0.8,0.6-1.5,1-2.2c0.9-1.6,1.9-3,2.8-4.6c0.7-1.2,1.7-2.1,2.8-2.8
	c0.9-0.6,1.8-1.1,2.6-1.8c3.6-3,7.9-3.8,12.5-3.5c0.7,0.1,1.4,0.1,2.1,0c1.8-0.3,3.6-0.7,5.4-1c1.7-0.3,3.3-0.1,4.8,1.1
	c1,0.8,2,1.5,3.1,2.2c1.1,0.7,2.1,1.3,3.3,1.8c1.4,0.6,2.8,1.3,4,2.3c1.8,1.4,3.6,2.8,5.5,4c1.6,1,3.1,2.1,4.4,3.5
	c0.7,0.8,1.4,1.2,2.5,1c0.4-0.1,0.5,0.1,0.6,0.4c0.4,1.2,0.8,2.4,1.2,3.5c0.9,2.5,1.8,5.1,2.6,7.6c0.2,0.4,0.3,0.7,0.5,1.1
	c0.6,1.7,1.1,3.4,1.7,5.3c0.5-1,0.9-1.8,1.3-2.6c1.1-2.4,1.5-4.9,1-7.4c-0.6-3-1.3-6-2-8.9c-0.5-2-1.3-3.9-2.4-5.7
	c-1.5-2.3-3.3-4.1-5.9-5.3c-2.1-1-3.9-2.3-5.9-3.4c-2.1-1.3-4.1-2.7-6.2-3.9c-2.4-1.4-4.9-2.4-7.7-2.6c-2.4-0.3-4.8-0.5-7.2-0.5
	c-5.7,0-11.4-0.2-17.1,0.4c-2.7,0.3-5.4,0.9-7.9,1.9c-1.5,0.7-2.7,1.6-3.6,3c-1,1.6-2.2,3.2-3.4,4.7c-0.8,1.1-1.5,2.2-1.8,3.6
	c-0.5,2.2-1,4.5-1.6,6.7c-0.2,0.7-0.4,1.4-0.7,2.2c1.5,0,2.9,0,4.4,0C65.2,84.9,65.4,84.9,65.6,84.9z M122.4,84.8
	c0.1-0.1,0.1-0.2,0.1-0.2c-1.3-1.1-2.6-2.1-3.9-3.1c-2.1-1.5-4.2-2.9-6.3-4.4c-1.3-1-2.6-1.9-4.1-2.4c-1.3-0.5-2.4-1.2-3.5-1.9
	c-1.1-0.8-2.1-1.6-3.3-2.2c-2.2-1.1-4.4-1-6.7-0.5c-1.6,0.4-3.2,0.8-4.9,0.6c-1.8-0.3-3.5-0.1-5.2,0.3c-2.3,0.4-4.4,1.2-6.2,2.6
	c-1.2,0.9-2.4,1.8-3.7,2.6c-0.8,0.6-1.5,1.2-2,2c-1,1.7-2,3.3-3,4.9c-0.6,1-1,1.9-0.9,3.1c0.1,0.7,0,1.3,0,1.9c0,0.1,0,0.4-0.1,0.4
	c-0.7,0.2-0.3,0.6-0.2,0.9c0.1,0.5,0.3,0.9,0.4,1.4c0.4,1.2,0.5,2.4-0.1,3.6c-0.2,0.4-0.3,0.8-0.3,1.2c0,0.3,0.2,0.6,0.3,0.8
	c0.4,0.6,0.9,1.1,1.2,1.6c0.8,1.4,1,2.9,0.7,4.4c-0.3,1.4,0.3,2.5,0.9,3.7c0.2,0.4,0.4,0.7,0.6,1.1c1.5,2.3,2.5,4.8,3.1,7.5
	c0.3,1.3,1.1,2.3,2.3,2.9c1.4,0.7,2.7,1.4,4.1,2.1c3.6,1.8,7.3,3.4,11.4,4.1c2.3,0.4,4.4,0.3,6.5-0.8c1.9-0.9,3.9-1.5,5.9-2.2
	c0.9-0.4,1.7-0.7,2.5-1.2c1.6-1.1,3.2-2.2,4.8-3.4c3.2-2.2,6-4.8,8.1-8c1.1-1.6,2-3.4,2.3-5.4c0.3-2.2,0.6-4.3,1.4-6.4
	c0.1-0.2-0.1-0.5-0.2-0.7c-1.7-3.4-3.4-6.8-5.1-10.2c-0.1-0.2-0.2-0.4-0.3-0.7C120,84.8,121.2,84.8,122.4,84.8z M93,146
	c1.5,0.1,2.8,0.2,4.3,0.3c-0.2-1.4-0.4-2.7-0.5-3.9c-0.1-0.6-0.4-1-1.1-1.1c-0.7-0.1-1.4-0.1-2.1-0.2C93.8,142.9,94,144.5,93,146z
	 M113.6,52.5c-1.4-0.9-3-1.2-4.6-1.6c-0.6-0.1-1,0.1-1.2,0.5c-0.2,0.4-0.3,0.9-0.2,1.4c0,0.2,0.5,0.3,0.7,0.5c0.7,0.3,1.3,0.6,2,0.8
	c0.7,0.3,1.3,0.5,1.9,0.8C112.8,54,113.2,53.3,113.6,52.5z M90.9,141.9c-1.6,0.1-3.2,0.2-4.7,0.3c-0.1,0.8-0.2,1.6-0.3,2.5
	c1.1,0.3,2.3,0.6,3.4,0.9c0.1,0.1,0.4-0.1,0.4-0.2C90.5,144.3,90.9,143.1,90.9,141.9z M64.7,55.9c-0.9,0.8-1.7,1.5-2.5,2.2
	c-0.1,0.1-0.2,0.4-0.2,0.6c0.2,1.1,0.7,2.1,1.6,2.8c0.9-1,1.7-2,2.6-3c-0.3-0.4-0.6-0.7-0.9-1.1C65,57,64.9,56.5,64.7,55.9z
	 M61.3,59c-0.8,1.3-1.7,2.6-2.5,3.9c0.7,0.7,1.4,1.2,2.1,1.8c0.8-1,1.6-1.9,2.2-2.7C62.5,61,61.9,60.1,61.3,59z M61.4,128.4
	c-0.9-1.2-1.8-2.4-2.6-3.5c-0.7,0.3-1.4,0.6-2.2,0.9c1.1,1.5,2.2,3,3.4,4.7C60.5,129.7,61,129.1,61.4,128.4z M97.8,146.2
	c1.1-0.1,2.2-0.1,3.3-0.2c-0.1-0.4-0.1-0.6-0.1-0.8c-0.1-1.1-0.4-2-1.6-2.3c-0.5-0.1-0.8-0.4-1.2-0.7c-0.3-0.2-0.6-0.3-0.9-0.5
	C97.5,143.4,97.7,144.8,97.8,146.2z M74.4,139.9c0.1-0.8,0.2-1.5,0.3-2.3c-1.2-0.7-2.5-1.3-3.7-2c-0.4,0.7-0.8,1.4-1.1,2.1
	C71.4,138.5,72.9,139.2,74.4,139.9z M59.1,94.2c0-1.8,0-3.7,0-5.5c-2,0.3-2.5,1.5-2.4,2.8C56.8,93.2,57.7,94.2,59.1,94.2z M64.6,132
	c-1-1.1-1.9-2.1-2.9-3.1c-0.5,0.7-0.9,1.3-1.4,2.1c0.8,0.9,1.7,1.8,2.7,2.8C63.6,133.1,64.2,132.5,64.6,132z M75.7,140.5
	c1.6,0.7,3.1,1.4,4.6,2.1c0.2-0.7,0.3-1.3,0.5-1.9c-1.5-0.7-2.9-1.4-4.4-2.1C76.1,139.2,75.9,139.8,75.7,140.5z M117.1,56.8
	c0.3-0.6,0.6-1.2,0.8-1.8c0.2-0.5,0.2-1-0.6-1.2c-0.3-0.1-0.6-0.3-1-0.4c-1.2-0.5-1.7-0.3-2.2,0.9c-0.1,0.3-0.2,0.5-0.3,0.8
	c0,0.2,0.1,0.4,0.3,0.5C115.1,56,116.1,56.4,117.1,56.8z M48.9,114.1c-0.1,0.1-0.1,0.1-0.2,0.2c0.8,1.2,1.6,2.5,2.3,3.7
	c0.1,0.1,0.2,0.2,0.3,0.2c0.5,0,0.9,0.1,1.3,0c0.4-0.1,0.5-0.3,0.3-0.7c-0.6-1-1.1-2-1.6-3c-0.1-0.1-0.2-0.3-0.4-0.3
	C50.4,114.2,49.7,114.2,48.9,114.1z M93,141.2c-0.2,0.1-0.3,0.1-0.5,0.1c-1.1,0.3-1,0.3-1.3,1.3c-0.3,1-0.6,2-1,3
	c0.5,0.1,1,0.2,1.6,0.2c0.2,0,0.5-0.1,0.6-0.3C93.5,144.3,93.3,142.8,93,141.2z M66.5,58c0.9-0.9,1.8-1.7,2.6-2.5
	c-0.4-0.5-0.7-0.9-1.1-1.4c-0.8,0.5-1.6,0.9-2.3,1.3c-0.2,0.1-0.3,0.4-0.3,0.6C65.4,56.8,66,57.5,66.5,58z M66.2,135.8
	c0.4-0.8,0.8-1.4,1.2-2.1c-0.8-0.6-1.5-1.1-2.2-1.6c-0.6,0.6-1.1,1.2-1.7,1.9C64.4,134.6,65.3,135.2,66.2,135.8z M122.8,57.3
	c0,0-0.1-0.1-0.2-0.2c-0.3-0.3-0.6-0.5-1-0.7c-0.6-0.4-0.8-0.4-1.3,0.2c-0.4,0.5-0.6,1.8-0.2,2.1c0.7,0.5,1.3,0.9,1.9,1.3
	C122.3,59.1,122.6,58.3,122.8,57.3z M139.1,116.9c0.4-0.6,0.7-1.2,1-1.7c0.3-0.4,0.3-0.8,0.2-1.3c-0.1-0.5-0.4-0.6-0.8-0.6
	s-0.9,0.1-1.1,0.3c-0.4,0.5-0.6,1.1-0.9,1.6C138.1,115.8,138.5,116.3,139.1,116.9z M58.5,63.5c-0.4,0.8-0.8,1.6-1.1,2.4
	c0.5,0.4,1,0.7,1.5,1c0.2,0.1,0.5,0,0.6-0.1c0.4-0.5,0.8-1,1.1-1.5c-0.4-0.3-0.7-0.6-1-0.9C59.2,64.1,58.9,63.8,58.5,63.5z
	 M81.8,141c-0.5,1,0.2,2.7,2.5,2.9c0.1-0.7,0.1-1.3,0.1-1.9c0-0.1-0.2-0.3-0.3-0.4C83.4,141.5,82.6,141.2,81.8,141z M125.2,59.9
	c-0.7-0.7-1.2-1.4-1.9-2.2c-0.2,0.5-0.4,0.8-0.4,1.1c-0.1,0.6-0.2,1.2,0.1,1.6c0.3,0.5,1,0.8,1.5,1.1
	C124.8,60.9,125,60.3,125.2,59.9z M93,50.2c2.2,0.1,4.3,0.2,6.5,0.3c0-0.3,0.1-0.6,0.1-1c-2.3,0-4.5,0-6.9,0
	C92.9,49.8,93,50.1,93,50.2z M141.9,90.6c0.1,0.5,0.1,0.9,0.2,1.3c0.2,1.2,0.2,1.2,1.3,1.4c0.1,0,0.1,0,0.1,0c0.7,0.1,1-0.3,0.8-1
	c-0.1-0.6-0.2-1.1-0.3-1.6C143.2,90.7,142.6,90.7,141.9,90.6z M127.9,64.2c0.2-0.6,0.3-1.1,0.4-1.5c0-0.1,0-0.3-0.1-0.4
	c-0.7-0.6-1.4-1.2-2.1-1.8c-0.2,0.6-0.4,1.1-0.6,1.5c-0.1,0.2,0,0.4,0.1,0.5C126.3,63,127.1,63.5,127.9,64.2z M135.4,119.1
	c-0.5,0.9-1,1.7-1.4,2.4c0.4,0.5,0.8,1,1.2,1.5c0.5-0.8,1.1-1.5,1.6-2.3C136.3,120.1,135.8,119.6,135.4,119.1z M119.5,58.2
	c-0.1-1.1,0.2-1.9,1-2.5c-0.7-0.4-1.3-0.8-1.9-1.1c-0.4,0.9-0.7,1.7-1.1,2.6C118.2,57.5,118.8,57.8,119.5,58.2z M143.1,109
	c-0.7-0.4-1.4-0.7-2.1-1c-0.3,0.6-0.5,1.1-0.6,1.6c-0.1,0.1,0.1,0.3,0.2,0.4c0.5,0.5,1.1,1,1.6,1.5c0-0.1,0.1-0.2,0.2-0.4
	C142.5,110.4,142.7,109.8,143.1,109z M137,120.2c0.4-0.7,0.8-1.2,1.1-1.8c0.3-0.5-0.2-0.7-0.4-0.9c-0.3-0.3-0.8-0.4-1.2-0.6
	c0,0-0.1,0.1-0.2,0.2c-1,1.3-1,1.3,0.1,2.6C136.7,119.8,136.9,120,137,120.2z M72.4,53.6c1.2-0.5,2.2-0.9,3.3-1.4
	c-0.3-0.2-0.5-0.4-0.7-0.6c-0.3-0.2-0.6-0.4-0.8-0.4c-0.9,0.3-1.7,0.6-2.6,0.9C72,52.8,72.2,53.2,72.4,53.6z M140.9,77.9
	c-0.4-0.9-0.7-1.7-1-2.4c-0.7,0.2-1.3,0.4-1.9,0.5c0.3,0.6,0.6,1.2,0.9,1.7c0.1,0.1,0.3,0.3,0.4,0.3
	C139.7,77.9,140.2,77.9,140.9,77.9z M142.3,101.6c-0.1,0.7-0.2,1.4-0.3,2c0,0.2,0.1,0.4,0.2,0.4c0.7,0.3,1.4,0.6,2,0.9
	C144.5,103.8,143.4,102.1,142.3,101.6z M104.1,145.7c-0.3-0.5-0.4-1-0.7-1.4c-0.1-0.2-0.3-0.3-0.5-0.4c-0.6-0.1-1.1-0.1-1.7-0.2
	c0.2,0.8,0.3,1.5,0.4,2.2C102.5,145.9,103.2,145.8,104.1,145.7z M145,99c-0.9,0.1-1.7,0.2-2.5,0.3c0,0.4,0,0.8,0,1.4
	c0.8,0.2,1.6,0.3,2.4,0.5c0.1-0.4,0.1-0.6,0.1-0.9C145,99.8,145,99.3,145,99z M69.4,134.8c-0.6-0.3-1.1-0.6-1.6-0.9
	c-0.4,0.7-0.8,1.4-1.2,2.1c0.3,0.2,0.6,0.3,0.9,0.5c0.3,0.2,0.5,0.2,0.8-0.2C68.7,135.9,69,135.4,69.4,134.8z M144.9,96.9
	c-0.8-1.3-1.6-2.1-2.7-2.9c0.1,1,0.1,1.8,0.2,2.6C143.2,96.7,144,96.8,144.9,96.9z M84.6,51.3c-0.1-0.6-0.2-1-0.4-1.4
	c-0.1-0.2-0.3-0.3-0.4-0.3c-0.6,0.1-1.2,0.1-1.8,0.2c0,0.5,0,0.9,0,1.3c0,0.1,0.2,0.4,0.3,0.4C83.1,51.3,83.8,51.3,84.6,51.3z
	 M84.7,49.4c0.2,0.7,0.3,1.2,0.4,1.8c0.7-0.1,1.4-0.1,2-0.2c0-0.6,0-1.1,0-1.6C86.4,49.4,85.6,49.4,84.7,49.4z M70,55
	c0.7-0.4,1.3-0.8,2-1.2c-0.3-0.5-0.5-0.9-0.7-1.4c-0.8,0.4-1.5,0.8-2.3,1.2C69.3,54.2,69.6,54.6,70,55z M53,77.9
	c0.2-0.3,0.3-0.7,0.4-1s0.3-0.7,0.4-1.1c-0.5-0.3-0.9-0.5-1.4-0.8c-0.2,0.4-0.3,0.7-0.5,1c-0.6,1.4-0.5,1.4,0.9,1.8
	C52.9,77.9,52.9,77.9,53,77.9z M110.2,144.1c0.5-0.2,1-0.4,1.5-0.6c0.2-0.1,0.4-0.2,0.6-0.3c-0.6-1.3-1.7-1.9-2.4-1.3
	C109.9,142.7,110.1,143.4,110.2,144.1z M128.7,62.7c-0.1,0.6-0.3,1.1-0.3,1.5c0,0.2,0,0.4,0.1,0.4c0.5,0.4,1.1,0.8,1.6,1.2
	c0.2-0.5,0.3-0.8,0.4-1.2c0.1-0.2,0-0.4-0.1-0.5C129.9,63.7,129.3,63.3,128.7,62.7z M100.2,49.4c-0.1,0.5-0.1,0.9-0.2,1.3
	c0.8,0.2,1.6,0.3,2.3,0.5c0-0.6,0-1.2,0-1.8C101.7,49.4,101,49.4,100.2,49.4z M133.2,125.3c0.3-0.3,0.5-0.6,0.7-0.9
	c0.5-0.5,0.3-0.9-0.1-1.3c-0.2-0.2-0.5-0.4-0.7-0.6c-0.4,0.6-0.8,1.1-1.2,1.7C132.4,124.6,132.8,124.9,133.2,125.3z M108.1,142.7
	c-0.7,0.3-1.2,0.5-1.8,0.7c0.2,0.6,0.4,1.1,0.5,1.7c0.5-0.1,0.8-0.2,1.2-0.3c0.1-0.1,0.3-0.2,0.3-0.3
	C108.3,143.9,108.2,143.4,108.1,142.7z M46.6,97.3c-0.1,1.3-0.3,2.4-0.3,3.6c0,0.2,0.2,0.3,0.4,0.6c0.4-1.4,0.7-2.6,1-3.8
	C47.3,97.6,47,97.5,46.6,97.3z M89.6,50.8c0.5-0.1,1-0.1,1.4-0.2c0.5-0.1,0.9-0.1,1.4-0.2c-0.1-0.8-0.4-1.1-1.1-1
	c-0.3,0.1-0.7,0.1-1,0c-0.6-0.1-0.7,0.2-0.8,0.7C89.6,50.4,89.6,50.6,89.6,50.8z M130.6,126.2c0.4,0.3,0.8,0.6,1.2,0.9
	c0.4-0.5,0.7-0.9,1.1-1.4c-0.4-0.4-0.8-0.7-1.2-1C131.3,125.3,131,125.7,130.6,126.2z M115.5,139c-1.2,0.5-1.5,1.6-0.8,3.3
	c0.3-0.3,0.6-0.5,0.7-0.8C115.5,140.7,115.5,139.9,115.5,139z M134.3,70c0.2-0.2,0.4-0.3,0.5-0.4c0.4-0.3,0.5-0.6,0.1-1
	c-0.4-0.4-0.7-0.8-1.1-1.2c-0.3,0.4-0.6,0.7-0.8,1C133.5,69,133.9,69.5,134.3,70z M53.5,73c-0.3,0.6-0.6,1.1-0.9,1.6
	c0.5,0.3,0.9,0.5,1.4,0.8c0.3-0.6,0.5-1.1,0.8-1.6C54.3,73.5,54,73.3,53.5,73z M76.3,50.8c0.2,0.4,0.3,0.7,0.4,0.9
	c0.1,0.1,0.2,0.2,0.3,0.2c0.7-0.1,1.3-0.3,2-0.4c-0.1-0.2-0.1-0.3-0.1-0.4c-0.2-0.6-0.5-0.9-1.2-0.7C77.3,50.6,76.8,50.7,76.3,50.8z
	 M135,70.9c0.3,0.5,0.6,1,0.9,1.4c0.2,0.3,0.3,0.3,0.5,0.1c0.5-0.7,0.4-2-0.3-2.4C135.7,70.3,135.4,70.6,135,70.9z M81.6,49.8
	c-0.7,0.1-1.4,0.2-2,0.4c0.2,0.5,0.4,0.9,0.5,1.3c0.6,0,1,0,1.5,0C81.6,50.9,81.6,50.4,81.6,49.8z M115.9,141.6
	c0.4-0.2,0.6-0.3,0.8-0.5c0.2-0.1,0.4-0.3,0.3-0.4c-0.1-0.8-0.3-1.6-0.4-2.4c-0.5,0.1-0.7,0.3-0.7,0.7
	C116,139.8,116,140.6,115.9,141.6z M47.3,109.9c0.4,1.5,0.8,1.6,2.2,0.6c-0.2-0.4-0.5-0.8-0.7-1.1C48.2,109.6,47.8,109.8,47.3,109.9
	z M52.4,119.8c0.4,0.6,0.8,1.1,1.2,1.6c0.5-0.4,0.9-0.7,1.4-1c-0.3-0.4-0.5-0.7-0.7-0.9c-0.3,0.1-0.6,0.2-0.9,0.3
	C53.1,119.8,52.8,119.8,52.4,119.8z M55.9,124.7c0.5,0.9,1.6,0.9,2.6-0.2c-0.3-0.3-0.5-0.6-0.7-0.8
	C57.2,124.1,56.6,124.4,55.9,124.7z M55.8,69.3c-1,1.4-0.9,1.6,0.1,2.4c0.3-0.5,0.6-0.9,1-1.5C56.5,70,56.2,69.7,55.8,69.3z
	 M139.4,79c0.5,1.4,0.5,1.4,2.2,1.2c-0.2-0.5-0.3-0.9-0.4-1.4C140.5,78.9,140,78.9,139.4,79z M139.4,74.5c-0.3-0.5-0.6-0.9-0.8-1.3
	c-0.6,0.4-1.1,0.7-1.6,1c0.2,0.7,0.6,0.8,1.2,0.6C138.6,74.7,138.9,74.6,139.4,74.5z M143.2,108.4c0.4-1,0.4-1-0.6-1.3
	c-0.3-0.1-0.6-0.2-0.8-0.2c-0.5-0.1-0.7,0.1-0.7,0.6C141.8,107.8,142.5,108.1,143.2,108.4z M55.7,121.2c-0.2-0.2-0.3-0.3-0.5-0.4
	c-0.5,0.4-1,0.7-1.4,1.1c0.3,0.4,0.5,0.7,0.9,1.2c0.1-0.2,0.2-0.2,0.2-0.3C55.1,122.3,55.4,121.9,55.7,121.2z M141.2,113
	c0.7-0.8,0.2-2-1.3-2.6c0,0.2-0.1,0.5,0,0.6C140.4,111.6,140.8,112.3,141.2,113z M89.5,49.5c-0.5,0-0.9,0-1.3,0
	c0.1,0.5,0.1,1,0.1,1.6c0.4-0.1,0.7-0.1,1.1-0.2C89.4,50.4,89.4,50,89.5,49.5z M50.4,85.2c0.1-0.1,0.2-0.1,0.2-0.1
	c0.3-0.9,0.5-1.7,0.7-2.5c-0.3-0.1-0.5-0.2-0.7-0.3c-0.2,0.9-0.4,1.6-0.5,2.4C50.1,84.9,50.3,85.1,50.4,85.2z M140.7,83.1
	c0.4-0.1,1-0.7,1-1.1c-0.1-0.4-0.9-0.8-1.5-0.7C140.4,81.9,140.6,82.5,140.7,83.1z M144,105.9c-0.8-0.3-1.5-0.6-2.2-0.8
	c-0.1,0.3-0.2,0.6-0.3,0.9c0.8,0.2,1.5,0.4,2.3,0.5C143.9,106.3,143.9,106.1,144,105.9z M85,141.9c-0.1,0.7-0.1,1.3-0.2,1.9
	c-0.1,0.5,0.1,0.6,0.7,0.6c0.1-0.7,0.1-1.3,0.2-1.9C85.6,142.1,85.4,141.8,85,141.9z M51.1,114c-0.3-0.9-1.3-1.1-2.6-0.5
	c0.1,0.1,0.1,0.4,0.2,0.4C49.4,113.9,50.3,113.9,51.1,114z M57.5,69.4c0.2-0.3,0.4-0.5,0.5-0.8c-0.5-0.4-0.9-0.7-1.4-1.1
	c-0.2,0.3-0.3,0.6-0.4,0.8C56.7,68.7,57,69.1,57.5,69.4z M110.8,141.4c0.6,0.6,1.2,1.2,1.9,1.8c-0.3-0.9-0.6-1.6-0.9-2.3
	C111.4,141.1,111.1,141.2,110.8,141.4z M58.8,67.5c-0.6-0.4-1.1-0.7-1.7-1.1c-0.1,0.2-0.2,0.4-0.3,0.6c0.5,0.4,0.9,0.8,1.4,1.2
	C58.5,68,58.6,67.8,58.8,67.5z M143.7,89.5c-0.2-0.8-0.3-1.5-0.5-2.3c-0.3,0.6-0.6,1.2-0.9,1.7C142.8,89.1,143.2,89.3,143.7,89.5z
	 M70.1,135.2c0-0.1-0.1-0.2-0.1-0.2c-0.2,0-0.4,0-0.5,0.1c-0.5,0.6-0.9,1.2-1.3,1.8c0.3,0.1,0.4,0.2,0.7,0.3
	C69.3,136.6,69.7,135.9,70.1,135.2z M48.9,93.2c0.4-1.7,0.4-1.9-0.3-2c-0.2,0.6-0.4,1.2-0.5,1.8C48.4,93.1,48.7,93.1,48.9,93.2z
	 M138.5,117.7c0.3-0.4-0.2-1.2-1.3-1.9c-0.2,0.3-0.3,0.5-0.4,0.7C137.4,116.9,138,117.3,138.5,117.7z M57.5,123.4
	c-0.8-0.2-1.5,0.4-2.3,0.5C55.8,124.6,56.5,124.5,57.5,123.4z M48.2,112.9c0.8-0.1,1.4-0.2,2-0.2c-0.6-0.8-1.4-0.6-2.3-0.4
	C48.1,112.5,48.1,112.7,48.2,112.9z M105.4,143.7c-0.3,0.1-0.6,0.2-0.8,0.2c0.2,0.6,0.4,1.1,0.6,1.6c0.3-0.1,0.5-0.1,0.7-0.2
	C105.7,144.8,105.6,144.3,105.4,143.7z M46.7,104.8c0-0.8,0-1.4,0-2c0-0.4-0.2-0.5-0.6-0.4c0.1,0.7,0.1,1.4,0.1,2
	C46.3,104.5,46.6,104.6,46.7,104.8z M51.3,78.4c-0.1,0.4-0.1,0.6-0.2,0.8c0.4,0.2,0.8,0.4,1.2,0.6c0.1-0.3,0.2-0.6,0.3-0.8
	C52.1,78.8,51.7,78.6,51.3,78.4z M51.8,118.8c0.3,0.6,1.4,0.7,2.1,0.2c-0.2-0.2-0.3-0.5-0.3-0.5C52.9,118.6,52.4,118.7,51.8,118.8z
	 M132.3,66.1c-0.6,1-0.6,1.2,0.1,1.6c0.3-0.3,0.5-0.6,0.7-0.8C132.8,66.6,132.6,66.4,132.3,66.1z M55.2,72.8
	c0.5-0.4,0.4-0.5-0.6-1.5c-0.2,0.3-0.4,0.6-0.6,0.9C54.5,72.4,54.8,72.6,55.2,72.8z M114.5,52.8c-0.2,0.1-0.4,0.1-0.4,0.2
	c-0.4,0.6-0.8,1.2-1.1,1.8c-0.2,0.4,0.1,0.4,0.2,0.4C113.6,54.4,114.1,53.6,114.5,52.8z M106.3,52.4c0.2,0.1,0.4,0.2,0.6,0.3
	c0.2-0.7,0.5-1.4,0.7-2C107.1,50.6,106.8,51,106.3,52.4z M49.7,88.3c0.1,0,0.1-0.1,0.2-0.1c0.2-0.6,0.3-1.2,0.4-1.7
	c0-0.1-0.1-0.3-0.2-0.4c-0.1,0.1-0.3,0.2-0.3,0.3c-0.1,0.5-0.3,0.9-0.3,1.4C49.5,88,49.6,88.2,49.7,88.3z M103.6,49.7
	c-0.1,0-0.2,0.1-0.2,0.1c0,0.4,0,0.8,0,1.2c0,0.6,0.1,0.6,0.7,0.6C104,50.9,104.2,50.2,103.6,49.7z M75.1,140.2c0.1,0,0.1,0,0.2,0
	c0.2-0.7,0.5-1.3,0.7-2c-0.2-0.1-0.4-0.2-0.7-0.3C75.2,138.7,75.1,139.5,75.1,140.2z M138.3,72.7c-0.6,0.4-1.2,0.6-1.7,0.9
	c0.2,0.2,0.5,0.2,0.7,0.2C137.8,73.6,138.2,73.3,138.3,72.7z M47.1,105.9c-0.2,0-0.4,0-0.7,0c0.1,0.4,0.1,0.7,0.2,1.1
	c0.3-0.1,0.5-0.2,0.8-0.2C47.2,106.4,47.2,106.1,47.1,105.9z M103.6,144c0.3,0.6,0.5,1.2,0.8,1.8C104.6,144.9,104.1,144,103.6,144z
	 M142.3,97.7c0.1,0.3,0.2,0.5,0.2,0.5c0.6,0,1.1,0,1.6,0c0-0.1,0-0.1,0-0.2C143.6,97.9,143,97.8,142.3,97.7z M133.4,122.3
	c0.5,0.5,0.8,0.9,1.2,1.3c0.1-0.1,0.1-0.1,0.2-0.1c-0.4-0.5-0.7-1-1.1-1.6C133.5,122.2,133.4,122.3,133.4,122.3z M46.8,108.2
	c0.4-0.2,0.7-0.3,0.9-0.5c-0.3-0.7-0.7-0.2-1-0.2C46.7,107.7,46.8,107.9,46.8,108.2z M48.8,94.2c-0.4-0.1-0.7-0.1-1.1-0.2
	c-0.1,0.1-0.1,0.2-0.1,0.2c0.3,0.2,0.6,0.5,1,0.7C48.7,94.6,48.7,94.4,48.8,94.2z M108.9,144.4c0.2-1.2,0.1-1.8-0.4-1.9
	C108.7,143.2,108.8,143.8,108.9,144.4z M47.4,95.3c-0.1,0-0.1,0-0.1-0.1c-0.2,0.4-0.3,0.8-0.4,1.2c0.3,0.1,0.4,0.1,0.6,0.2
	C47.5,96,47.5,95.7,47.4,95.3z M130.4,65.8c0.2-0.4,0.9-0.6,0.4-1.2C130.6,65,130.5,65.4,130.4,65.8z M46.3,105
	c0.1,0.3,0.1,0.4,0.1,0.6c0.2,0,0.4,0,0.6,0C47,105.2,47,104.8,46.3,105z M46.9,108.7c0.1,0.1,0.1,0.1,0.2,0.2
	c0.4-0.1,0.8-0.3,1.3-0.4c-0.2-0.2-0.4-0.3-0.5-0.3C47.5,108.4,47.2,108.6,46.9,108.7z"/>
<path class="st2" d="M34.1,107.6c0.7,1.5,1.4,2.9,2.1,4.3c-2,0-3.8,0-5.8,0c0-1.5,0-2.9,0-4.3c-3.6-0.6-6.5-2.3-8.5-5.4
	c-1.6-2.5-2.2-5.3-1.8-8.3c1-6.3,6.5-10.8,12.6-10.5c6.1,0.3,11.2,5.3,11.6,11.3C44.8,100.9,40.9,106.4,34.1,107.6z M40.7,95.7
	c0.1-4.6-3.8-8.5-8.4-8.5c-4.5-0.1-8.5,3.8-8.6,8.3c-0.1,4.6,3.8,8.6,8.5,8.6S40.7,100.4,40.7,95.7z"/>
<path class="st3" d="M115.5,125.7c0-0.3,0-0.6,0-0.8c-0.1-1.8-0.1-3.6-0.1-5.5c0-0.3,0-0.5,0-0.7c0.1-0.9,0.2-1.8,0.3-2.7
	c0.1,0.1,0.2,0.1,0.2,0.2c0.9,2,1.7,3.9,2.6,5.9c1.8,3.8,3.9,7.4,6.2,10.9c0.6,0.8,0.4,1.7,0.3,2.5c-0.2,1.5-0.5,3-0.8,4.5
	c0.6-0.8,1-1.7,1.2-2.7c0.2-1,0.2-2,0.3-3c2.3,3.1,4.7,6.1,7.6,8.6c0.1-0.1,0.1-0.1,0.2-0.1c-0.2-0.2-0.3-0.4-0.4-0.5
	c-1.6-2-3.2-3.9-4.8-5.9c-0.1-0.2-0.2-0.3-0.3-0.5c0.1-0.1,0.1-0.1,0.1-0.1c1.2,0.9,2.5,1.6,4,1.8c1.2,0.1,2.4,0,3.8,0
	c0,1.1,0.1,2.3,0,3.5c-0.1,1.5-0.3,3-0.4,4.6c-0.1,0.5,0.1,1,0.1,1.5c0.1,0.5,0.3,0.9,0.6,1.3c0.5,0.5,0.8,1.1,1.2,1.7
	c-0.1,0-0.1,0-0.2,0c-1.1-0.8-2.3-1.6-3.4-2.4c-1.6-1.2-3.3-2-5.2-2.6c-3.1-1-6-2.4-8.6-4.4c-0.1-0.1-0.2-0.1-0.3-0.2
	c-0.3-0.2-0.5-0.4-0.7-0.6c-0.6-0.6-1.2-1.2-1.8-1.8c-0.2-0.3-0.4-0.6-0.6-0.8c-0.8-1.5-1.4-3.1-1.6-4.7c0-0.2,0-0.4,0-0.6
	C115.2,129.8,115.7,127.8,115.5,125.7z M133.9,143.3L133.9,143.3C133.9,143.4,133.9,143.4,133.9,143.3c-0.1-0.1-0.1-0.1-0.1-0.1
	c-0.1-0.1-0.1-0.1-0.1-0.2c-0.1-0.1-0.1-0.1-0.1-0.1c-0.1-0.1-0.2-0.1-0.3-0.1c0.1,0.1,0.1,0.2,0.2,0.2c0.1,0.1,0.1,0.1,0.1,0.1
	c0.1,0.1,0.1,0.1,0.2,0.1C133.8,143.3,133.8,143.3,133.9,143.3z M116.5,132.5c0.4,1.3,0.7,2.6,1.1,3.9c0.1,0.2,0.1,0.5,0.2,0.7
	c0.6,1.5,1.6,2.7,2.9,3.7c2.4,1.9,5.2,3,8.1,3.8c2,0.6,3.9,1.4,5.7,2.5c0.2,0.1,0.3,0.1,0.5,0.2c0,0.1,0.1,0.1,0.1,0.1l-0.1-0.1
	c-0.3-0.3-0.5-0.6-0.8-0.9c-1.8-1.6-3.9-2.5-6.2-3.3c-1.8-0.7-3.6-1.3-5.4-2.1c-2.1-1.1-3.9-2.5-4.9-4.8
	C117.2,135,116.9,133.7,116.5,132.5c-0.1-0.4-0.1-0.8-0.2-1.2c-0.1,0-0.1,0-0.2,0.1C116.3,131.7,116.4,132.1,116.5,132.5z
	 M120.9,128c0-0.1,0-0.2-0.1-0.3h-0.1C120.9,127.8,120.9,127.9,120.9,128c-0.1,2.1-0.4,4.2-1,6.3c-0.3,0.9-0.6,1.8-0.8,2.7
	c0,0,0,0-0.1,0.1c0,0,0,0,0-0.1c0.2-0.2,0.3-0.3,0.4-0.4c1.1-1.5,1.7-3.1,1.7-4.8C121.3,130.4,121.1,129.2,120.9,128z M115.9,129.7
	c0.1,0,0.1,0,0.1,0c-0.1-0.5-0.2-1-0.2-1.5c-0.1,0-0.1,0-0.2,0C115.7,128.7,115.8,129.2,115.9,129.7z M116.1,130c-0.1,0-0.1,0-0.1,0
	c0.1,0.4,0.1,0.7,0.2,1c0.1,0,0.1,0,0.2,0C116.2,130.6,116.1,130.3,116.1,130z"/>
<path class="st2" d="M162.7,108.6c0-1.7,0-3.4,0-5.2c0.8,0.1,1.5,0.2,2.3,0.3c2.4,0.4,4.8,0.8,7.2,1c2,0.2,3.5-0.5,3.9-2.2
	c0.5-2.4-0.4-4.2-3.3-4.4c-1.6-0.1-3.1,0-4.7-0.2c-3.4-0.3-5.6-2.5-5.6-6c0-0.9,0-1.8,0.2-2.6c0.5-2.3,2.1-3.6,4.3-4
	c0.7-0.2,1.5-0.3,2.2-0.3c2.8-0.1,5.6,0,8.4,0c0.1,0,0.2,0,0.3,0c0,1.2,0,2.3,0,3.5c-0.7,0.1-1.4,0.1-2.1,0.1
	c-2.2,0.1-4.5,0.1-6.7,0.2c-0.3,0-0.7,0-1,0.1c-1.6,0.3-2.2,1.3-2.1,3c0.1,1.5,1.1,2.5,2.7,2.5c1.6,0.1,3.2,0,4.8,0.2
	c2,0.2,3.8,0.8,5.1,2.6c1.1,1.5,1.3,3.1,1.2,4.8c-0.1,1-0.3,2-0.6,2.9c-0.9,2.3-2.8,3.2-5.1,3.5c-1.3,0.2-2.7,0.2-4,0.2
	C167.7,108.6,165.3,108.6,162.7,108.6z"/>
<path class="st4" d="M137,150c0.1,0,0.1,0,0.2,0c0-0.5-0.1-0.9-0.1-1.3c0-1.3-0.1-2.6,0.1-3.8c0.4-3.6,0.4-7.3-0.6-10.9
	c-0.6-2-1.7-3.7-3.1-5.2c-0.2-0.2-0.3-0.4-0.5-0.7c3.5,2.3,5.7,5.5,5.9,9.8c0.2,2.3-0.3,4.5-0.7,6.8c-0.3,1.5-0.5,3.1-0.1,4.6
	c0.2,0.7,0.6,1.3,0.9,1.9c0.1,0.2,0.2,0.3,0.2,0.4C138.5,151.1,137.7,150.6,137,150z"/>
<path class="st4" d="M132.7,128c-0.1-0.1-0.1-0.2-0.2-0.2C132.6,127.8,132.7,127.9,132.7,128z"/>
<path class="st4" d="M133.1,128.2c-0.1-0.1-0.2-0.1-0.3-0.2C132.9,128.1,133,128.2,133.1,128.2z"/>
<path class="st4" d="M132.8,128.1c-0.1-0.1-0.1-0.1-0.2-0.2C132.7,128,132.8,128,132.8,128.1z"/>
<path class="st5" d="M115,132.4c0.2,1.7,0.8,3.3,1.6,4.7c-1.8,1-3.6,2.1-5.5,3c-1.8,0.9-3.6,1.8-5.5,2.5c-2.1,0.8-4.1,0.5-6.1-0.6
	c-0.3-0.2-0.6-0.3-0.9-0.5c-2.1-1.3-4.4-1.7-6.8-1c-3.8,1.1-7.5,0.6-11.1-1c-4.6-2-9-4.4-13.3-7c-2.7-1.6-4.7-3.9-6.6-6.3
	c-1.7-2.1-3.3-4.1-5-6.2c-1.5-1.7-2.4-3.8-3.4-5.8c-1.2-2.2-2.4-4.4-3.6-6.6c-1.5-2.8-1.6-5.7-0.7-8.6c0.1-0.4,0.3-0.7,0.4-1.1
	c0.9,0.4,1.8,0.8,2.6,1.2c0.1-0.4,0.1-0.9,0.1-1.3c0.1-1.1-0.4-2-1.4-2.6c-0.2-0.1-0.3-0.4-0.3-0.5c0.2-1.4,0.4-2.7,0.7-4
	c1.2-5.8,2.7-11.4,5.4-16.6c1.4-2.8,3.3-5.4,5.3-7.8c2.2-2.7,4.4-5.4,6.8-8.1c1.9-2.2,4.4-3.5,7-4.6c2.4-1.1,5-1.3,7.6-1.4
	c3.5-0.2,7-0.5,10.4-0.9c3.1-0.4,6.2,0,9.2,0.7c3.4,0.8,6.5,2.3,9.7,3.5c2.8,1.1,5.5,2.2,8,3.7c4.1,2.6,7.9,5.6,11.6,8.7
	c1.3,1.1,2.3,2.4,3.2,3.8c1.7,2.5,3.2,5.1,4.2,8c0.6,1.6,1,3.3,1.5,5.1c0.1,0.1,0.1,0.3,0,0.4c-0.6,1.2-1.2,2.4-1.9,3.6
	c-0.4-2-1.2-3.7-2.1-5.4c-0.7-1.2-1.3-2.5-1.8-3.9c-0.4-1.1-0.6-2.2-0.8-3.3c0-0.2-0.1-0.3-0.1-0.5c0-0.1-0.1-0.2-0.1-0.3
	c0-0.1,0-0.2-0.1-0.3c-0.1-0.1-0.1-0.2-0.1-0.3c-0.1-0.1-0.1-0.3-0.2-0.4c-0.3-0.5-0.6-1-0.8-1.5l0,0c-0.2-0.2-0.3-0.3-0.4-0.5
	c-0.7-0.5-1.3-1.1-1.9-1.6c-0.1-0.1-0.3-0.2-0.4-0.3l0,0c-0.2-0.2-0.4-0.3-0.6-0.4c-2.8-1.8-5.5-3.7-8.3-5.5c-1.6-1-3.1-2-4.7-3
	c-0.1-0.1-0.1-0.1-0.2-0.1c-0.1-0.1-0.2-0.1-0.3-0.2c-0.9-0.6-1.7-1.2-2.6-1.7c-2.6-1.5-5.4-2.3-8.3-2.7c-1-0.2-2-0.4-3-0.6
	c-3.6-0.7-7.1-1.4-10.8-1.5c-3.9-0.2-7.7,0.1-11.6,0.6c-5.2,0.6-9.4,2.9-12.9,6.8c-6.2,6.8-9.7,15-11.6,23.8c-1,1.1-1.7,2.4-1.8,4
	c-0.1,1.4,0.1,2.7,0.5,4c-0.1,3-0.2,6-0.3,9c0,1.6,0,3.2,0,4.7c0,0.3,0.1,0.5,0.4,0.5c0.1,0.2,0.1,0.3,0.1,0.4
	c0.4,3.3,1.5,6.4,3.7,8.9c1.8,2.1,3.7,4,5.7,5.9c3.4,3.2,7.1,6.2,10.6,9.3c2.5,2.3,5.5,3.5,8.8,4c3.4,0.5,6.8,0.6,10.2,0.4
	c3.4-0.2,6.7-0.6,10-1.3C107,135.3,111,134,115,132.4z"/>
<path class="st6" d="M122.4,84.8c-1.2,0-2.4,0-3.7,0c0.1,0.3,0.2,0.5,0.3,0.7c1.7,3.4,3.4,6.8,5.1,10.2c0.1,0.2,0.2,0.5,0.2,0.7
	c-0.8,2.1-1.2,4.2-1.4,6.4c-0.2,2-1.2,3.7-2.3,5.4c-2.2,3.2-5,5.8-8.1,8c-1.6,1.1-3.2,2.3-4.8,3.4c-0.8,0.5-1.6,0.9-2.5,1.2
	c-2,0.8-4,1.3-5.9,2.2c-2.1,1-4.2,1.1-6.5,0.8c-4.1-0.7-7.8-2.3-11.4-4.1c-1.4-0.7-2.7-1.4-4.1-2.1c-1.2-0.6-1.9-1.6-2.3-2.9
	c-0.7-2.7-1.7-5.2-3.1-7.5c-0.2-0.4-0.4-0.7-0.6-1.1c-0.6-1.2-1.1-2.3-0.9-3.7c0.3-1.5,0.1-3-0.7-4.4c-0.3-0.6-0.8-1.1-1.2-1.6
	c-0.2-0.2-0.3-0.5-0.3-0.8c0-0.4,0.1-0.8,0.3-1.2c0.6-1.2,0.5-2.4,0.1-3.6c-0.2-0.5-0.3-0.9-0.4-1.4c-0.1-0.3-0.5-0.7,0.2-0.9
	c0.1,0,0.1-0.2,0.1-0.4c0-0.7,0.1-1.3,0-1.9c-0.1-1.2,0.3-2.1,0.9-3.1c1-1.7,2.1-3.3,3-4.9c0.5-0.9,1.2-1.5,2-2
	c1.3-0.9,2.5-1.7,3.7-2.6c1.9-1.4,4-2.2,6.2-2.6c1.7-0.3,3.4-0.5,5.2-0.3c1.7,0.2,3.3-0.2,4.9-0.6c2.3-0.6,4.6-0.6,6.7,0.5
	c1.2,0.6,2.3,1.4,3.3,2.2c1.1,0.8,2.2,1.5,3.5,1.9c1.6,0.6,2.9,1.4,4.1,2.4c2,1.5,4.2,2.9,6.3,4.4C119.9,82.7,121.1,83.7,122.4,84.8
	C122.4,84.7,122.4,84.7,122.4,84.8z M73.1,84.8c-0.5,0.1-1,0.1-1.4,0.1c0,1.3,0,2.4,0,3.7c0.3,0,0.6,0,0.8,0
	c-0.1,0.7-0.1,1.4-0.1,2.1c-0.4,5.3,0.1,10.6,1.7,15.7c1.3,4,3.7,6.8,7.6,8.3c3.7,1.5,7.5,2.3,11.5,2.4c3,0.1,6,0.3,9-0.4
	c3.6-0.8,6.5-2.6,8-6.2c0.3-0.7,0.6-1.4,0.9-2.1c0.1-0.1,0.2-0.1,0.3-0.1c5-1.8,8.1-5.3,8.6-10.6c0.5-4.9-1.6-8.7-5.7-11.5
	c-0.2-0.1-0.3-0.3-0.4-0.4c-1.5-4.5-4.3-7.9-8.5-10c-3.4-1.7-7.2-2.1-11-2.4c-4.2-0.3-8.3,0.3-12.4,1.3c-1.7,0.4-3.4,1-4.7,2.2
	C74.9,79.1,73.8,81.8,73.1,84.8z"/>
<path class="st6" d="M137.8,89.5c0,0.2,0,0.4-0.1,0.5c-1.1,2.3-2.3,4.5-3.5,6.8c0-0.1,0-0.2,0-0.3c0.3-2.1,0.1-4.2-0.5-6.2
	c-0.8-3-1.4-6.1-2.3-9c-1-3-2.8-5.6-5.4-7.5c-1-0.8-2.2-1.2-3.3-1.8c-1.9-1.2-3.9-2.4-5.8-3.6c-3.2-2.2-6.5-4.3-10.2-5.4
	c-2.4-0.7-4.8-1-7.2-1c-6.1-0.1-12.2-0.1-18.2,0.1c-3.6,0.1-7,0.9-10.3,2.4c-1.5,0.7-2.6,1.7-3.5,3.1c-1,1.5-2,3-3.2,4.4
	c-1.3,1.6-2,3.4-2.4,5.5c-0.6,2.6-1.2,5.1-1.8,7.6C58.5,85,57,85.2,55.7,86c0-0.2-0.1-0.4-0.1-0.5c0.2-0.9,0.5-1.7,0.7-2.5
	c1.9-7.2,5.2-13.8,10.2-19.4c2.7-3.1,5.9-5.5,10-6.5c2.6-0.7,5.2-0.9,7.8-1.1c4.6-0.4,9.3-0.1,13.8,0.7c2.1,0.4,4.2,0.8,6.3,1.1
	c0.2,0.1,0.4,0.1,0.6,0.1c0.1,0,0.1,0,0.1,0c0.6,0.2,1.1,0.4,1.7,0.6c3.5,1.3,6.8,3,10.1,4.7c1.4,0.9,2.8,1.8,4.2,2.7
	c2.7,1.8,5.4,3.5,8.1,5.3c1.3,0.9,2.3,2.1,3.1,3.4c0.4,0.6,0.5,1.3,0.8,1.9c0,0.2,0,0.3,0.1,0.4c0.4,2.4,1.3,4.6,2.5,6.7
	C136.7,85.5,137.5,87.4,137.8,89.5z"/>
<path class="st6" d="M65,84.9c-1.4,0-2.9,0-4.4,0c0.2-0.8,0.5-1.5,0.7-2.2c0.6-2.2,1.1-4.4,1.6-6.7c0.3-1.4,1-2.5,1.8-3.6
	c1.2-1.6,2.4-3.1,3.4-4.7c0.9-1.4,2.1-2.4,3.6-3c2.5-1.1,5.2-1.7,7.9-1.9c5.7-0.6,11.4-0.4,17.1-0.4c2.4,0,4.8,0.2,7.2,0.5
	c2.8,0.3,5.4,1.2,7.7,2.6c2.1,1.3,4.1,2.6,6.2,3.9c1.9,1.2,3.8,2.5,5.9,3.4c2.5,1.2,4.4,3,5.9,5.3c1.1,1.7,1.9,3.6,2.4,5.7
	c0.7,3,1.5,6,2,8.9c0.5,2.5,0.1,5.1-1,7.4c-0.4,0.8-0.8,1.6-1.3,2.6c-0.6-1.8-1.2-3.5-1.7-5.3c0.2-1.2,0.5-2.4,0.6-3.6
	c0.2-6.2-2.1-11.3-6.9-15.2c-3.9-3.1-7.7-6.3-11.2-9.9c-0.4-0.4-0.9-0.8-1.4-1c-1.7-1-3.5-1.3-5.5-1.1c-4.6,0.4-9-0.3-13.4-1.7
	c-3-1-5.9-0.8-8.7,0.3c-3.6,1.4-7,3.1-10.3,5.2c-2.9,1.8-4.9,4.3-6.2,7.5C65.8,80.2,65.4,82.6,65,84.9z"/>
<path class="st6" d="M115.5,125.7c0.3,2.1-0.3,4-0.5,6.1c-4.3,1.7-8.7,3.2-13.2,4.1c-6.6,1.3-13.1,1.6-19.7,0.7
	c-3-0.5-5.6-1.6-7.8-3.7c-1.3-1.3-2.7-2.4-4-3.6c-3.6-3.2-7.3-6.3-10.7-9.7c-3-3.1-4.9-6.6-5.3-10.9c2.1,0,4.1,0,6.2-0.1
	c0.3,0,0.6,0,0.9,0c0.1,0,0.1,0.1,0.1,0.1c0.6,1.7,1,3.4,1.6,5.1c0.6,1.8,1.7,3.2,3.3,4.2c1.9,1.2,3.1,2.9,3.7,5.1
	c0.7,2.1,1.8,4,3.3,5.7c1.3,1.5,3,2.1,4.8,2.6c3,0.8,6,1.6,9.1,1.9c1.7,0.2,3.4,0.2,5.1,0.2c1.5,0.1,3,0.2,4.5,0.2
	c1.3,0.1,2.5-0.3,3.5-1c3.6-2.5,7.7-4,11.7-5.8c1-0.4,1.9-0.8,2.8-1.2C115.1,125.6,115.3,125.7,115.5,125.7z"/>
<path class="st6" d="M129.2,96.4c-0.9-2.5-1.8-5.1-2.6-7.6c-0.4-1.2-0.9-2.4-1.2-3.5c-0.1-0.4-0.3-0.5-0.6-0.4c-1,0.2-1.7-0.3-2.5-1
	c-1.3-1.4-2.8-2.5-4.4-3.5c-1.9-1.2-3.7-2.6-5.5-4c-1.3-1-2.6-1.7-4-2.3c-1.1-0.5-2.2-1.1-3.3-1.8c-1.1-0.7-2.1-1.4-3.1-2.2
	c-1.5-1.1-3.1-1.3-4.8-1.1c-1.8,0.3-3.6,0.7-5.4,1c-0.7,0.1-1.4,0.1-2.1,0c-4.6-0.3-8.8,0.5-12.5,3.5c-0.8,0.7-1.7,1.2-2.6,1.8
	c-1.2,0.7-2.2,1.6-2.8,2.8c-0.9,1.6-1.9,3-2.8,4.6c-0.4,0.7-0.7,1.4-1,2.2c-0.8,0-1.6,0-2.4,0c0.3-1.3,0.5-2.5,0.7-3.8
	c1.1-4.7,3.5-8.4,7.8-10.7c2.7-1.5,5.4-2.8,8.1-4.1c3.2-1.5,6.6-1.7,10.1-0.6c4.4,1.5,9,1.9,13.6,1.6c2.4-0.2,4.6,0.6,6.3,2.4
	c2.9,3,6.1,5.7,9.3,8.3c2.1,1.7,4.1,3.4,5.6,5.8c2.2,3.8,3.1,7.9,2.4,12.3C129.4,96.2,129.2,96.3,129.2,96.4z"/>
<path class="st5" d="M66.5,108c1-0.5,2-1,2.6-1.9c0.4-0.5,0.6-1,0.9-1.5c1.6,3.3,3.7,6.4,4.4,10c0.3,1.3,1,2.4,2.2,3
	c4.3,2.3,8.5,4.7,13.3,5.9c1.8,0.5,3.6,0.7,5.4,0.9c1.3,0.2,2.5-0.3,3.6-0.9c2.1-1,4.3-1.9,6.6-2.5c0.7-0.2,1.4-0.5,2-0.9
	c2.7-1.9,5.5-3.8,8-5.9c2.8-2.3,5.2-5,6.8-8.3c0.7-1.5,1-3,1.2-4.6c0.2-1.6,0.6-3.1,1-4.6c0.1,0,0.2,0,0.3,0
	c0.9,1.8,1.8,3.6,2.7,5.5c-0.6,1.3-1.3,2.6-1.9,3.9c-2.1,4.3-4.7,8.1-8.5,11.1c-0.3-0.3-0.6-0.6-0.9-0.9c-0.1-0.1-0.1-0.2-0.2-0.3
	c-0.1-0.5-0.2-1-0.3-1.4c-0.1,0-0.1,0-0.2,0c-0.1,1.4-0.2,2.7-0.3,4.1c-1.7,1.2-3.3,2.4-5.1,3.4c-5.1,3.2-10.7,5.1-16.7,5.3
	c-2.6,0.1-5.3-0.2-7.8-0.4c-3.9-0.2-7.3-1.8-9.9-4.8c-1.9-2.2-3.8-4.4-5.7-6.7C68.2,113.4,67,110.8,66.5,108z"/>
<path class="st6" d="M115.4,124.9c-4,1.8-8,3.5-12,5.4c-1,0.5-1.9,1.2-2.9,1.8c-1.1,0.7-2.3,1.1-3.6,1.1c-3.5-0.2-7-0.2-10.5-0.6
	c-3-0.3-6-0.9-8.7-2.2c-1.7-0.7-3.1-1.8-4.4-3c-1.4-1.3-2.1-2.9-2.7-4.6c-0.7-2.1-1.8-3.8-3.7-5.1c-1.6-1-2.7-2.5-3.3-4.3
	c-0.5-1.6-1-3.1-1.5-4.6c1.4-0.2,2.7-0.4,3.9-0.6c0.1,0.1,0.1,0.2,0.1,0.3c0.5,2.5,1.4,4.8,3,6.8c2.3,2.8,4.5,5.5,7,8.1
	c1.8,1.9,3.9,3.3,6.5,3.8c3.8,0.8,7.7,1.1,11.7,0.9c5.3-0.4,10.3-1.8,14.8-4.4c2.1-1.3,4.1-2.7,6.2-4
	C115.3,121.3,115.3,123.1,115.4,124.9z"/>
<path class="st5" d="M137.8,98.4c0.2-0.5,0.3-0.9,0.5-1.3c0.9-1.8,1.8-3.6,2.8-5.6c0.3,3.2,0.7,6.3,0.5,9.4c-0.3,4.3-1.7,8.3-3.7,12
	c-2.3,4.3-4.6,8.5-7.6,12.4c-0.1,0.2-0.3,0.3-0.4,0.5c-1-0.5-2-1-3-1.5c0.1-0.2,0.3-0.4,0.4-0.6c1-1.3,2-2.5,3-3.9
	c3.3-4.8,5.4-10.2,6.7-15.9C137.2,102.1,137.4,100.2,137.8,98.4z"/>
<path class="st7" d="M121.4,122.1c0.3,0.1,0.5,0.2,0.7,0.3c0.9,0.4,1.9,0.8,2.8,1.1c2.4,1.1,4.6,2.5,6.6,4.3
	c2.4,2.2,3.6,4.9,3.9,8.1c0.1,0.5,0.1,0.9,0.2,1.4c-1.8-0.1-3.4-0.4-5-0.9c-0.5-0.2-0.9-0.3-1.3-0.5c-1.6-0.6-2.9-1.5-3.8-3
	c-0.4-0.7-0.9-1.3-1.3-2c0.1-0.1,0.1-0.1,0.1-0.1c1.3,0.8,2.7,1.5,4.2,1.8c1.7,0.4,3.3,0.2,4.8-0.7c0.1-0.1,0.2-0.1,0.3-0.2
	c0.1,0,0.1-0.1,0-0.1c-1.2,0.1-2.4,0.2-3.6,0.1c-2.2-0.1-4.2-0.8-6.1-1.7c-0.2-0.1-0.4-0.3-0.4-0.4c-1.7-2.9-3.4-5.8-5.2-8.7
	c-0.1-0.1-0.5-0.3,0-0.4l0,0c0.1,0.1,0.1,0.1,0.1,0.2C119.4,121.1,120.5,121.6,121.4,122.1z"/>
<path class="st5" d="M127.8,103c0.8,1.6,1.5,3.1,2.3,4.6c0.2,0.4,0.2,0.7,0.1,1c-1.5,3-2.8,6-4.3,9c-1,2-2.5,3.4-4.5,4.3
	c-0.5-0.3-1-0.5-1.4-0.7c-0.9-1.2-1.8-2.3-2.6-3.5c1.8-1.6,3.5-3.3,5-5.2c2-2.7,3.5-5.8,5-8.8C127.5,103.5,127.7,103.2,127.8,103z"
	/>
<path class="st8" d="M122.2,122.3L122.2,122.3c2.4-1.3,3.8-3.4,5-5.8c1.2-2.5,2.4-5,3.6-7.5c0.2,0.4,0.5,0.9,0.8,1.4
	c1.8-3.6,3.6-7.2,5.4-10.8c0.1,0.2,0.1,0.4,0.1,0.5c-0.3,1.5-0.6,3-1,4.5c-1.5,5.6-3.6,11-7,15.7c-0.9,1.2-1.9,2.4-2.9,3.5
	c-0.4-0.2-0.7-0.3-1.1-0.4C124.1,123.1,123.1,122.7,122.2,122.3z"/>
<path class="st9" d="M129.2,96.4c0.1-0.1,0.2-0.2,0.3-0.4c0.8-4.4-0.2-8.5-2.4-12.3c-1.4-2.4-3.4-4.1-5.6-5.8
	c-3.2-2.6-6.4-5.3-9.3-8.3c-1.7-1.8-3.9-2.6-6.3-2.4c-4.6,0.4-9.2-0.1-13.6-1.6c-3.5-1.2-6.8-0.9-10.1,0.6c-2.8,1.3-5.5,2.7-8.1,4.1
	c-4.2,2.3-6.7,6-7.8,10.7c-0.3,1.3-0.5,2.5-0.7,3.8c-0.2,0-0.4,0-0.5,0c0.3-2.4,0.8-4.7,1.7-6.9c1.3-3.2,3.3-5.7,6.2-7.5
	c3.3-2,6.7-3.8,10.3-5.2c2.8-1.1,5.8-1.3,8.7-0.3c4.3,1.4,8.8,2.1,13.4,1.7c1.9-0.2,3.8,0.2,5.5,1.1c0.5,0.3,1,0.6,1.4,1
	c3.5,3.6,7.3,6.8,11.2,9.9c4.8,3.9,7,9,6.9,15.2c-0.1,1.2-0.4,2.4-0.6,3.6C129.5,97.2,129.3,96.8,129.2,96.4z"/>
<path class="st10" d="M54.2,108.6c0.4,4.3,2.3,7.8,5.3,10.9c3.3,3.5,7.1,6.5,10.7,9.7c1.3,1.2,2.7,2.4,4,3.6
	c2.2,2.1,4.8,3.3,7.8,3.7c6.6,1,13.2,0.7,19.7-0.7c4.5-0.9,8.9-2.4,13.2-4.1c0,0.2,0,0.4,0,0.6c-4,1.6-8,2.9-12.3,3.8
	c-3.3,0.7-6.6,1.2-10,1.3c-3.4,0.2-6.8,0.1-10.2-0.4c-3.3-0.5-6.3-1.7-8.8-4c-3.4-3.2-7.1-6.2-10.6-9.3c-2-1.9-3.9-3.8-5.7-5.9
	c-2.3-2.5-3.3-5.6-3.7-8.9c0-0.2-0.1-0.3-0.1-0.4C53.9,108.6,54.1,108.6,54.2,108.6z"/>
<path class="st5" d="M54,95.4c1.3,1.8,3.2,2.5,5.3,2.6c0.3,2.1,0.6,4.2,0.8,6.3c-1.5-0.2-3-0.4-4.4-0.6c-0.7-0.1-1.3-0.2-1.9-0.3
	C53.9,100.7,53.9,98,54,95.4z"/>
<path class="st9" d="M104.4,57.8c-2.1-0.4-4.2-0.8-6.3-1.1c-4.6-0.9-9.2-1.1-13.8-0.7c-2.6,0.2-5.3,0.4-7.8,1.1
	c-4,1.1-7.2,3.4-10,6.5c-4.9,5.7-8.2,12.2-10.2,19.4c-0.2,0.9-0.5,1.7-0.7,2.5c-0.1,0.2,0.1,0.4,0.1,0.5c-0.3,0.2-0.6,0.3-0.8,0.5
	c1.9-8.9,5.5-17,11.6-23.8c3.5-3.8,7.8-6.1,12.9-6.8c3.8-0.5,7.7-0.7,11.6-0.6c3.6,0.2,7.2,0.8,10.8,1.5c1,0.2,2,0.4,3,0.6
	c-0.2,0.1-0.4,0.1-0.6,0.1C104.3,57.5,104.4,57.6,104.4,57.8z"/>
<path class="st11" d="M115.2,119.5c-2.1,1.4-4.1,2.8-6.2,4c-4.6,2.7-9.5,4.1-14.8,4.4c-3.9,0.3-7.8-0.1-11.7-0.9
	c-2.6-0.5-4.7-1.9-6.5-3.8c-2.4-2.6-4.7-5.4-7-8.1c-1.6-2-2.5-4.3-3-6.8c0-0.1-0.1-0.2-0.1-0.3c0.2-0.1,0.4-0.1,0.6-0.2
	c0.5,2.9,1.7,5.5,3.6,7.7c1.9,2.2,3.8,4.4,5.7,6.7c2.6,3,5.9,4.6,9.9,4.8c2.6,0.2,5.3,0.4,7.8,0.4c6.1-0.2,11.6-2,16.7-5.3
	c1.7-1.1,3.4-2.3,5.1-3.4c0.1,0,0.1,0,0.1,0c0,0.3,0,0.5,0,0.7C115.3,119.5,115.3,119.5,115.2,119.5z"/>
<path class="st6" d="M65.5,104.1c-0.9,0.7-1.8,0.6-2.8,0.6c-0.4-0.1-0.8-0.2-1.2-0.2c-0.6,0-0.7-0.3-0.8-0.7
	c-0.3-1.9-0.6-3.8-0.9-5.8c1.8,0.2,3.5-0.3,5.2,0.4c0,0.3,0.1,0.5,0.1,0.8C65.2,100.8,65.4,102.5,65.5,104.1z"/>
<path class="st12" d="M64.2,94.4c-1.5,0-2.9,0-4.5,0c0-2,0-3.8,0-5.9c1.6,0,3.2,0,4.8,0c0.1,2,0.1,3.9,0.2,5.9c-0.2,0-0.3,0-0.4,0
	C64.3,94.4,64.2,94.4,64.2,94.4z"/>
<path class="st8" d="M65.1,88.6c0.8,0,1.6,0,2.5,0c0.3,1.1,0.8,2.3,0.9,3.4s-0.4,2.3-0.6,3.4c-0.9-0.3-1.8-0.7-2.6-1
	C65.2,92.6,65.2,90.5,65.1,88.6z"/>
<path class="st8" d="M93,146c1.1-1.6,0.9-3.2,0.7-4.9c0.7,0.1,1.4,0.1,2.1,0.2c0.7,0.1,1,0.5,1.1,1.1c0.2,1.3,0.4,2.5,0.5,3.9
	C95.8,146.2,94.4,146.1,93,146z"/>
<path class="st9" d="M126.2,123.9c1-1.2,2-2.3,2.9-3.5c3.4-4.7,5.6-10.1,7-15.7c0.4-1.5,0.7-3,1-4.5c0.1-0.2-0.1-0.4-0.1-0.5
	c0.3-0.4,0.6-0.8,0.8-1.2c-0.3,1.8-0.6,3.7-1,5.5c-1.4,5.7-3.4,11-6.7,15.9c-0.9,1.4-2,2.6-3,3.9c-0.2,0.2-0.3,0.4-0.4,0.6
	C126.6,124.1,126.4,124,126.2,123.9z"/>
<path class="st8" d="M113.6,52.5c-0.5,0.8-0.9,1.5-1.4,2.3c-0.6-0.3-1.3-0.5-1.9-0.8s-1.4-0.6-2-0.8c-0.3-0.1-0.7-0.3-0.7-0.5
	c-0.1-0.5,0-1,0.2-1.4c0.2-0.5,0.6-0.7,1.2-0.5C110.7,51.3,112.2,51.6,113.6,52.5z"/>
<path class="st8" d="M90.9,141.9c0,1.2-0.5,2.3-1.1,3.4c-0.1,0.1-0.3,0.2-0.4,0.2c-1.2-0.3-2.3-0.6-3.4-0.9c0.1-0.9,0.2-1.8,0.3-2.5
	C87.7,142.1,89.3,142,90.9,141.9z"/>
<path class="st13" d="M64.7,55.9c0.3,0.6,0.4,1.1,0.6,1.5c0.2,0.4,0.6,0.8,0.9,1.1c-0.9,1-1.7,2-2.6,3c-0.9-0.8-1.4-1.7-1.6-2.8
	c0-0.2,0-0.5,0.2-0.6C63,57.4,63.8,56.6,64.7,55.9z"/>
<path class="st13" d="M61.3,59c0.6,1.1,1.2,2,1.8,3.1c-0.7,0.8-1.4,1.7-2.2,2.7c-0.7-0.6-1.4-1.2-2.1-1.8
	C59.6,61.6,60.5,60.3,61.3,59z"/>
<path class="st13" d="M61.4,128.4c-0.4,0.6-0.9,1.3-1.4,2.1c-1.2-1.7-2.3-3.2-3.4-4.7c0.8-0.3,1.4-0.6,2.2-0.9
	C59.6,126,60.5,127.2,61.4,128.4z"/>
<path class="st13" d="M97.8,146.2c-0.2-1.5-0.4-2.9-0.5-4.4c0.3,0.2,0.6,0.3,0.9,0.5c0.4,0.2,0.8,0.6,1.2,0.7
	c1.3,0.3,1.5,1.3,1.6,2.3c0,0.2,0.1,0.5,0.1,0.8C100.1,146.1,98.9,146.2,97.8,146.2z"/>
<path class="st14" d="M74.4,139.9c-1.5-0.7-3-1.4-4.6-2.1c0.4-0.7,0.8-1.4,1.1-2.1c1.3,0.7,2.5,1.4,3.7,2
	C74.6,138.4,74.5,139.1,74.4,139.9z"/>
<path class="st9" d="M127.8,103c-0.2,0.3-0.3,0.5-0.5,0.8c-1.5,3-2.9,6.1-5,8.8c-1.5,2-3.2,3.6-5,5.2c-0.1-0.2-0.3-0.3-0.4-0.5
	c3.7-3,6.5-6.8,8.5-11.1c0.6-1.3,1.3-2.6,1.9-3.9C127.6,102.5,127.7,102.8,127.8,103z"/>
<path class="st15" d="M59.1,94.2c-1.4,0-2.3-1-2.4-2.7c-0.1-1.3,0.4-2.5,2.4-2.8C59.1,90.5,59.1,92.4,59.1,94.2z"/>
<path class="st13" d="M64.6,132c-0.5,0.5-1,1.1-1.6,1.8c-1-1-1.8-1.9-2.7-2.8c0.5-0.8,1-1.4,1.4-2.1C62.7,129.9,63.6,130.9,64.6,132
	z"/>
<path class="st15" d="M75.7,140.5c0.3-0.7,0.5-1.3,0.7-1.9c1.5,0.7,3,1.4,4.4,2.1c-0.2,0.6-0.3,1.3-0.5,1.9
	C78.8,141.9,77.3,141.2,75.7,140.5z"/>
<path class="st8" d="M117.1,56.8c-1-0.4-2-0.8-2.9-1.2c-0.1-0.1-0.3-0.3-0.3-0.5c0-0.3,0.1-0.5,0.3-0.8c0.6-1.2,1-1.4,2.2-0.9
	c0.3,0.1,0.6,0.3,1,0.4c0.7,0.2,0.7,0.7,0.6,1.2C117.6,55.6,117.3,56.2,117.1,56.8z"/>
<path class="st14" d="M48.9,114.1c0.7,0.1,1.4,0.1,2.2,0.1c0.1,0,0.3,0.2,0.4,0.3c0.6,1,1.1,2,1.6,3c0.2,0.4,0,0.6-0.3,0.7
	c-0.5,0.1-0.9,0-1.3,0c-0.1,0-0.2-0.1-0.3-0.2c-0.8-1.2-1.6-2.5-2.3-3.7C48.9,114.3,48.9,114.2,48.9,114.1z"/>
<path class="st14" d="M93,141.2c0.3,1.6,0.5,3-0.5,4.3c-0.1,0.2-0.4,0.3-0.6,0.3c-0.6-0.1-1.1-0.2-1.6-0.2c0.3-1,0.7-2,1-3
	c0.3-1,0.2-1,1.3-1.3C92.7,141.3,92.8,141.3,93,141.2z"/>
<path class="st10" d="M137.8,89.5c-0.3-2.1-1.1-4-2.2-5.8c-1.3-2.1-2.1-4.3-2.5-6.7c0-0.2,0-0.3-0.1-0.4c0.1,0.1,0.2,0.1,0.3,0.2
	c0.1-0.2,0.1-0.3,0.2-0.4c0.3,1.1,0.4,2.2,0.8,3.3c0.5,1.3,1.1,2.6,1.8,3.9c1,1.7,1.8,3.4,2.1,5.4C138.1,89.1,137.9,89.3,137.8,89.5
	z"/>
<path class="st14" d="M66.5,58c-0.6-0.6-1.1-1.2-1.1-2c0-0.2,0.2-0.5,0.3-0.6c0.8-0.5,1.5-0.9,2.3-1.3c0.4,0.5,0.8,0.9,1.1,1.4
	C68.2,56.3,67.4,57.1,66.5,58z"/>
<path class="st14" d="M66.2,135.8c-1-0.7-1.8-1.2-2.7-1.8c0.6-0.7,1.2-1.3,1.7-1.9c0.7,0.5,1.4,1,2.2,1.6
	C67,134.4,66.6,135.1,66.2,135.8z"/>
<path class="st13" d="M122.8,57.3c-0.3,1-0.5,1.8-0.7,2.6c-0.6-0.4-1.3-0.8-1.9-1.3c-0.4-0.3-0.3-1.6,0.2-2.1
	c0.5-0.6,0.7-0.6,1.3-0.2c0.4,0.3,0.7,0.5,1,0.7C122.7,57.2,122.8,57.3,122.8,57.3z"/>
<path class="st16" d="M139.1,116.9c-0.5-0.6-1-1.1-1.5-1.7c0.3-0.5,0.5-1.1,0.9-1.6c0.2-0.3,0.7-0.3,1.1-0.3c0.3,0,0.7,0.1,0.8,0.6
	c0.1,0.5,0.2,0.9-0.2,1.3C139.8,115.7,139.5,116.3,139.1,116.9z"/>
<path class="st16" d="M58.5,63.5c0.4,0.4,0.7,0.6,1,0.9c0.3,0.3,0.7,0.6,1,0.9c-0.4,0.5-0.7,1-1.1,1.5c-0.1,0.1-0.4,0.2-0.6,0.1
	c-0.5-0.3-1-0.6-1.5-1C57.8,65,58.2,64.3,58.5,63.5z"/>
<path class="st15" d="M81.8,141c0.8,0.2,1.5,0.5,2.3,0.7c0.2,0.1,0.3,0.3,0.3,0.4c0,0.6-0.1,1.3-0.1,1.9
	C82.1,143.8,81.4,142,81.8,141z"/>
<path class="st16" d="M125.2,59.9c-0.2,0.4-0.5,1-0.7,1.6c-0.5-0.4-1.2-0.7-1.5-1.1c-0.3-0.4-0.2-1.1-0.1-1.6
	c0.1-0.3,0.3-0.6,0.4-1.1C124,58.5,124.6,59.2,125.2,59.9z"/>
<path class="st8" d="M93,50.2c-0.1-0.2-0.2-0.4-0.3-0.7c2.3,0,4.5,0,6.9,0c-0.1,0.4-0.1,0.7-0.1,1C97.4,50.4,95.3,50.3,93,50.2z"/>
<path class="st13" d="M141.9,90.6c0.8,0.1,1.4,0.1,2.1,0.1c0.1,0.5,0.2,1.1,0.3,1.6c0.2,0.7-0.2,1-0.8,1c-0.1,0-0.1,0-0.1,0
	c-1.2-0.2-1.2-0.2-1.3-1.4C142,91.5,141.9,91.1,141.9,90.6z"/>
<path class="st16" d="M127.9,64.2c-0.8-0.6-1.6-1.2-2.3-1.8c-0.1-0.1-0.2-0.3-0.1-0.5c0.2-0.5,0.3-1,0.6-1.5
	c0.8,0.7,1.4,1.2,2.1,1.8c0.1,0.1,0.1,0.3,0.1,0.4C128.1,63.1,128,63.6,127.9,64.2z"/>
<path class="st16" d="M135.4,119.1c0.5,0.6,0.9,1.1,1.3,1.6c-0.5,0.8-1.1,1.5-1.6,2.3c-0.4-0.5-0.8-1-1.2-1.5
	C134.4,120.7,134.9,119.9,135.4,119.1z"/>
<path class="st16" d="M119.5,58.2c-0.7-0.4-1.3-0.7-1.9-1.1c0.4-0.9,0.7-1.7,1.1-2.6c0.6,0.4,1.2,0.7,1.9,1.1
	C119.7,56.3,119.4,57.1,119.5,58.2z"/>
<path class="st15" d="M143.1,109c-0.4,0.8-0.6,1.4-0.9,2.1c-0.1,0.2-0.2,0.3-0.2,0.4c-0.5-0.5-1.1-1-1.6-1.5
	c-0.1-0.1-0.2-0.3-0.2-0.4c0.2-0.5,0.4-1,0.6-1.6C141.7,108.3,142.3,108.6,143.1,109z"/>
<path class="st15" d="M137,120.2c-0.2-0.2-0.3-0.4-0.5-0.5c-1.1-1.3-1.1-1.3-0.1-2.6c0.1-0.1,0.1-0.2,0.2-0.2
	c0.4,0.2,0.8,0.3,1.2,0.6c0.3,0.2,0.7,0.4,0.4,0.9C137.8,119,137.4,119.6,137,120.2z"/>
<path class="st16" d="M72.4,53.6c-0.2-0.5-0.4-0.9-0.7-1.4c0.9-0.3,1.7-0.7,2.6-0.9c0.2-0.1,0.5,0.2,0.8,0.4
	c0.2,0.2,0.4,0.3,0.7,0.6C74.6,52.7,73.6,53.1,72.4,53.6z"/>
<path class="st16" d="M140.9,77.9c-0.7,0.1-1.2,0.1-1.7,0.1c-0.2,0-0.4-0.2-0.4-0.3c-0.3-0.6-0.6-1.1-0.9-1.7
	c0.6-0.2,1.2-0.3,1.9-0.5C140.2,76.2,140.5,76.9,140.9,77.9z"/>
<path class="st9" d="M54,95.4c-0.1,2.7-0.2,5.3-0.2,8c-0.2,0-0.4,0-0.5,0c0.1-3,0.2-6,0.3-9C53.7,94.7,53.9,95,54,95.4z"/>
<path class="st15" d="M142.3,101.6c1.1,0.5,2.2,2.2,1.9,3.2c-0.7-0.3-1.4-0.6-2-0.9c-0.1-0.1-0.2-0.3-0.2-0.4
	C142.1,103,142.2,102.4,142.3,101.6z"/>
<path class="st15" d="M104.1,145.7c-0.9,0.1-1.7,0.2-2.4,0.3c-0.2-0.8-0.3-1.5-0.4-2.2c0.6,0.1,1.2,0.1,1.7,0.2
	c0.2,0.1,0.4,0.2,0.5,0.4C103.7,144.7,103.9,145.2,104.1,145.7z"/>
<path class="st15" d="M145,99c0,0.4,0,0.8,0,1.3c0,0.3-0.1,0.5-0.1,0.9c-0.9-0.2-1.6-0.4-2.4-0.5c0-0.5,0-0.9,0-1.4
	C143.3,99.2,144.1,99.1,145,99z"/>
<path class="st16" d="M65.6,98.6c0.2,0.2,0.5,0.3,0.7,0.5c1,1.2,0.9,3.5-0.2,4.6C65.9,102.1,65.7,100.3,65.6,98.6z"/>
<path class="st16" d="M69.4,134.8c-0.4,0.6-0.8,1.1-1.2,1.6c-0.2,0.3-0.5,0.4-0.8,0.2c-0.3-0.2-0.6-0.4-0.9-0.5
	c0.4-0.7,0.8-1.4,1.2-2.1C68.4,134.2,68.9,134.5,69.4,134.8z"/>
<path class="st17" d="M144.9,96.9c-0.9-0.1-1.7-0.2-2.5-0.3c-0.1-0.9-0.1-1.7-0.2-2.6C143.3,94.8,144.2,95.6,144.9,96.9z"/>
<path class="st13" d="M84.6,51.3c-0.8,0.1-1.5,0.1-2.2,0.1c-0.1,0-0.3-0.2-0.3-0.4c-0.1-0.4,0-0.9,0-1.3c0.6-0.1,1.2-0.2,1.8-0.2
	c0.2,0,0.4,0.2,0.4,0.3C84.4,50.3,84.5,50.7,84.6,51.3z"/>
<path class="st16" d="M84.7,49.4c0.9,0,1.6,0,2.4,0c0,0.6,0,1.1,0,1.6c-0.7,0.1-1.3,0.1-2,0.2C85.1,50.6,84.9,50.1,84.7,49.4z"/>
<path class="st17" d="M70,55c-0.4-0.5-0.7-0.9-1.1-1.3c0.8-0.4,1.6-0.8,2.3-1.2c0.3,0.5,0.5,0.9,0.7,1.4C71.4,54.2,70.7,54.6,70,55z
	"/>
<path class="st17" d="M53,77.9c-0.1,0.1-0.1,0.1-0.2,0.1c-1.4-0.4-1.4-0.5-0.9-1.8c0.2-0.4,0.3-0.7,0.5-1c0.5,0.3,0.9,0.5,1.4,0.8
	c-0.2,0.4-0.3,0.7-0.4,1.1C53.2,77.2,53.1,77.6,53,77.9z"/>
<path class="st16" d="M110.2,144.1c-0.2-0.8-0.3-1.5-0.4-2.1c0.8-0.5,1.9,0.1,2.4,1.3c-0.2,0.1-0.4,0.2-0.6,0.3
	C111.2,143.8,110.7,143.9,110.2,144.1z"/>
<path class="st16" d="M128.7,62.7c0.6,0.6,1.1,1,1.6,1.5c0.1,0.1,0.1,0.3,0.1,0.5c-0.1,0.4-0.2,0.8-0.4,1.2
	c-0.6-0.4-1.1-0.8-1.6-1.2c-0.1-0.1-0.1-0.3-0.1-0.4C128.5,63.8,128.6,63.3,128.7,62.7z"/>
<path class="st13" d="M100.2,49.4c0.8,0,1.5,0,2.2,0c0,0.6,0,1.2,0,1.8c-0.8-0.2-1.5-0.3-2.3-0.5C100.1,50.3,100.2,49.9,100.2,49.4z
	"/>
<path class="st4" d="M117,117.3c0.1,0.2,0.3,0.3,0.4,0.5c0.9,1.2,1.8,2.3,2.6,3.5c-0.5-0.2-0.9-0.5-1.4-0.7c-0.1,0-0.2,0-0.3,0l0,0
	c-0.1-0.2-0.2-0.4-0.3-0.5c-0.9-1.1-1.6-2.3-1.9-3.7C116.5,116.7,116.8,117,117,117.3z"/>
<path class="st16" d="M133.2,125.3c-0.4-0.4-0.8-0.7-1.2-1.1c0.4-0.6,0.8-1.1,1.2-1.7c0.3,0.2,0.6,0.4,0.7,0.6
	c0.4,0.4,0.5,0.8,0.1,1.3C133.7,124.7,133.5,125,133.2,125.3z"/>
<path class="st10" d="M65.6,98.6c0.2,1.7,0.3,3.4,0.5,5.1c-0.2,0.1-0.4,0.2-0.5,0.3c-0.2-1.7-0.3-3.3-0.5-4.9c0-0.3-0.1-0.5-0.1-0.8
	C65.2,98.5,65.4,98.6,65.6,98.6z"/>
<path class="st10" d="M65.1,88.6c0.1,2,0.1,3.9,0.2,5.9c-0.2-0.1-0.4-0.1-0.6-0.1c-0.1-2-0.1-3.9-0.2-5.9
	C64.7,88.6,64.9,88.6,65.1,88.6z"/>
<path class="st16" d="M108.1,142.7c0.1,0.6,0.2,1.2,0.2,1.7c0,0.1-0.2,0.3-0.3,0.3c-0.4,0.2-0.7,0.2-1.2,0.3
	c-0.2-0.6-0.4-1.1-0.5-1.7C107,143.2,107.5,143,108.1,142.7z"/>
<path class="st17" d="M46.6,97.3c0.5,0.2,0.8,0.2,1.1,0.3c-0.3,1.3-0.6,2.5-1,3.8c-0.2-0.2-0.4-0.4-0.4-0.6
	C46.3,99.8,46.5,98.6,46.6,97.3z"/>
<path class="st15" d="M89.6,50.8c0-0.3,0-0.5,0-0.7c0.1-0.5,0.2-0.8,0.8-0.7c0.3,0.1,0.7,0.1,1,0c0.7-0.1,1,0.2,1.1,1
	c-0.5,0.1-0.9,0.2-1.4,0.2C90.6,50.7,90.2,50.8,89.6,50.8z"/>
<path class="st17" d="M130.6,126.2c0.4-0.5,0.8-1,1.2-1.5c0.4,0.4,0.8,0.7,1.2,1c-0.4,0.5-0.8,1-1.1,1.4
	C131.4,126.9,131,126.5,130.6,126.2z"/>
<path class="st17" d="M115.5,139c-0.1,0.9-0.1,1.8-0.2,2.6c-0.1,0.3-0.4,0.5-0.7,0.8C114,140.6,114.2,139.5,115.5,139z"/>
<path class="st18" d="M134.3,70c-0.5-0.5-0.9-1-1.3-1.5c0.3-0.3,0.5-0.6,0.8-1c0.4,0.4,0.7,0.8,1.1,1.2c0.4,0.4,0.3,0.7-0.1,1
	C134.7,69.8,134.5,69.9,134.3,70z"/>
<path class="st17" d="M53.5,73c0.5,0.3,0.9,0.5,1.3,0.8c-0.3,0.6-0.5,1.1-0.8,1.6c-0.5-0.3-0.9-0.5-1.4-0.8
	C52.9,74.1,53.2,73.6,53.5,73z"/>
<path class="st17" d="M76.3,50.8c0.5-0.1,1-0.2,1.4-0.3c0.7-0.3,1,0.1,1.2,0.7c0.1,0.1,0.1,0.2,0.1,0.4c-0.7,0.2-1.3,0.3-2,0.4
	c-0.1,0-0.3-0.1-0.3-0.2C76.6,51.4,76.5,51.1,76.3,50.8z"/>
<path class="st17" d="M135,70.9c0.4-0.3,0.7-0.6,1.1-0.9c0.7,0.5,0.9,1.7,0.3,2.4c-0.2,0.3-0.4,0.2-0.5-0.1
	C135.6,71.9,135.3,71.4,135,70.9z"/>
<path class="st17" d="M81.6,49.8c0,0.6,0,1.1,0,1.6c-0.5,0-1,0-1.5,0c-0.2-0.4-0.3-0.8-0.5-1.3C80.3,50,80.9,49.9,81.6,49.8z"/>
<path class="st17" d="M115.9,141.6c0.1-0.9,0.1-1.7,0.1-2.5c0-0.4,0.2-0.6,0.7-0.7c0.1,0.8,0.3,1.6,0.4,2.4c0,0.1-0.2,0.3-0.3,0.4
	C116.5,141.3,116.3,141.4,115.9,141.6z"/>
<path class="st17" d="M114.1,139.9c0.1,0.6,0.1,1.3,0.2,1.9c0.1,0.5-0.1,0.9-0.6,0.9c-0.3-0.8-0.6-1.5-0.9-2.3
	c0.4-0.2,0.8-0.4,1.2-0.6C114,139.8,114,139.9,114.1,139.9z"/>
<path class="st16" d="M47.3,109.9c0.5-0.2,1-0.4,1.5-0.5c0.2,0.4,0.4,0.7,0.7,1.1C48,111.5,47.7,111.4,47.3,109.9z"/>
<path class="st15" d="M52.4,119.8c0.4,0,0.7,0,1-0.1c0.3-0.1,0.6-0.2,0.9-0.3c0.2,0.3,0.4,0.6,0.7,0.9c-0.5,0.3-0.9,0.7-1.4,1
	C53.1,120.9,52.8,120.4,52.4,119.8z"/>
<path class="st18" d="M55.9,124.7c0.7-0.4,1.3-0.7,1.9-1c0.2,0.2,0.4,0.5,0.7,0.8C57.5,125.6,56.4,125.6,55.9,124.7z"/>
<path class="st17" d="M55.8,69.3c0.4,0.4,0.7,0.7,1.1,1c-0.4,0.5-0.7,1-1,1.5C54.9,70.9,54.8,70.7,55.8,69.3z"/>
<path class="st15" d="M139.4,79c0.6-0.1,1.2-0.1,1.8-0.2c0.2,0.5,0.3,0.9,0.4,1.4C139.9,80.4,139.9,80.4,139.4,79z"/>
<path class="st17" d="M139.4,74.5c-0.5,0.1-0.8,0.2-1.2,0.3c-0.6,0.2-1.1,0.2-1.2-0.6c0.5-0.3,1-0.7,1.6-1
	C138.8,73.6,139.1,74,139.4,74.5z"/>
<path class="st17" d="M117.2,138c0.6,0.6,1.2,1.2,1.8,1.8c-0.5,0.3-0.9,0.6-1.4,0.9C117.4,139.7,117.3,138.9,117.2,138z"/>
<path class="st17" d="M143.2,108.4c-0.7-0.4-1.4-0.7-2.1-1c-0.1-0.5,0.2-0.7,0.7-0.6c0.3,0.1,0.6,0.1,0.8,0.2
	C143.6,107.4,143.6,107.5,143.2,108.4z"/>
<path class="st18" d="M55.7,121.2c-0.3,0.6-0.6,1.1-0.8,1.6c-0.1,0.1-0.1,0.2-0.2,0.3c-0.4-0.5-0.6-0.9-0.9-1.2
	c0.5-0.4,0.9-0.7,1.4-1.1C55.4,121,55.6,121.1,55.7,121.2z"/>
<path class="st18" d="M141.2,113c-0.4-0.7-0.9-1.3-1.3-2c-0.1-0.2,0-0.4,0-0.6C141.4,110.9,141.9,112.2,141.2,113z"/>
<path class="st19" d="M89.5,49.5c-0.1,0.5-0.1,0.9-0.2,1.4C89,50.9,88.7,51,88.3,51c-0.1-0.5-0.1-1-0.1-1.6
	C88.6,49.5,89,49.5,89.5,49.5z"/>
<path class="st17" d="M50.4,85.2c-0.1-0.2-0.3-0.4-0.3-0.5c0.1-0.8,0.3-1.6,0.5-2.4c0.3,0.1,0.5,0.2,0.7,0.3
	c-0.3,0.9-0.5,1.7-0.7,2.5C50.6,85.2,50.5,85.2,50.4,85.2z"/>
<path class="st17" d="M140.7,83.1c-0.2-0.6-0.4-1.2-0.5-1.8c0.6-0.1,1.4,0.3,1.5,0.7C141.7,82.4,141.1,83.1,140.7,83.1z"/>
<path class="st17" d="M144,105.9c-0.1,0.2-0.1,0.4-0.2,0.6c-0.8-0.2-1.5-0.4-2.3-0.5c0.1-0.3,0.2-0.6,0.3-0.9
	C142.5,105.3,143.2,105.6,144,105.9z"/>
<path class="st20" d="M85,141.9c0.4-0.1,0.6,0.1,0.6,0.5c0,0.7-0.1,1.3-0.2,1.9c-0.6,0-0.8-0.1-0.7-0.6C85,143.2,85,142.6,85,141.9z
	"/>
<path class="st17" d="M51.1,114c-0.9-0.1-1.7-0.1-2.5-0.2c-0.1,0-0.2-0.3-0.2-0.4C49.8,112.9,50.8,113.1,51.1,114z"/>
<path class="st20" d="M57.5,69.4c-0.5-0.4-0.8-0.7-1.2-1c0.1-0.3,0.3-0.5,0.4-0.8c0.5,0.4,0.9,0.7,1.4,1.1
	C57.8,68.9,57.6,69.1,57.5,69.4z"/>
<path class="st20" d="M110.8,141.4c0.3-0.2,0.6-0.3,1.1-0.5c0.3,0.8,0.6,1.5,0.9,2.3C112,142.6,111.4,142,110.8,141.4z"/>
<path class="st18" d="M58.8,67.5c-0.2,0.2-0.3,0.5-0.5,0.7c-0.5-0.4-1-0.8-1.4-1.2c0.1-0.3,0.2-0.5,0.3-0.6
	C57.7,66.8,58.2,67.1,58.8,67.5z"/>
<path class="st20" d="M143.7,89.5c-0.5-0.2-0.9-0.4-1.4-0.6c0.3-0.6,0.6-1.1,0.9-1.7C143.4,88,143.5,88.7,143.7,89.5z"/>
<path class="st19" d="M70.1,135.2c-0.4,0.7-0.7,1.3-1.1,2c-0.3-0.1-0.5-0.2-0.7-0.3c0.5-0.6,0.9-1.2,1.3-1.8
	c0.1-0.1,0.3-0.1,0.5-0.1C70,135.1,70.1,135.2,70.1,135.2z"/>
<path class="st18" d="M48.9,93.2c-0.3-0.1-0.5-0.2-0.8-0.2c0.2-0.6,0.4-1.2,0.5-1.8C49.3,91.3,49.3,91.5,48.9,93.2z"/>
<path class="st18" d="M104.5,50c0.3,0.1,0.6,0.1,0.9,0.2c-0.1,0.6-0.2,1.2-0.2,1.8c-0.5,0-0.6-0.2-0.6-0.7
	C104.7,50.9,104.6,50.4,104.5,50L104.5,50z"/>
<path class="st20" d="M138.5,117.7c-0.5-0.4-1.1-0.8-1.7-1.3c0.1-0.2,0.3-0.4,0.4-0.7C138.3,116.5,138.8,117.4,138.5,117.7z"/>
<path class="st18" d="M57.5,123.4c-1,1.1-1.8,1.2-2.3,0.5C56,123.7,56.7,123.2,57.5,123.4z"/>
<path class="st20" d="M48.2,112.9c-0.1-0.2-0.2-0.4-0.3-0.6c0.9-0.3,1.7-0.4,2.3,0.4C49.6,112.7,48.9,112.8,48.2,112.9z"/>
<path class="st18" d="M105.4,143.7c0.2,0.6,0.4,1.1,0.5,1.7c-0.3,0.1-0.5,0.1-0.7,0.2c-0.2-0.6-0.4-1.1-0.6-1.6
	C104.9,143.8,105.1,143.8,105.4,143.7z"/>
<path class="st20" d="M46.7,104.8c-0.2-0.1-0.4-0.3-0.5-0.4c-0.1-0.7-0.1-1.4-0.1-2c0.4-0.1,0.6,0,0.6,0.4
	C46.7,103.4,46.7,104,46.7,104.8z"/>
<path class="st19" d="M51.3,78.4c0.5,0.2,0.9,0.4,1.3,0.6c-0.1,0.3-0.2,0.5-0.3,0.8c-0.4-0.2-0.8-0.4-1.2-0.6
	C51.2,79,51.2,78.7,51.3,78.4z"/>
<path class="st18" d="M51.8,118.8c0.6-0.1,1.2-0.2,1.8-0.4c0.1,0.1,0.2,0.3,0.3,0.5C53.1,119.5,52.1,119.3,51.8,118.8z"/>
<path class="st20" d="M132.3,66.1c0.3,0.3,0.5,0.5,0.8,0.8c-0.3,0.3-0.5,0.6-0.7,0.8C131.7,67.2,131.7,67,132.3,66.1z"/>
<path class="st20" d="M55.2,72.8c-0.4-0.2-0.7-0.4-1.1-0.7c0.2-0.3,0.4-0.6,0.6-0.9C55.6,72.3,55.7,72.4,55.2,72.8z"/>
<path class="st21" d="M114.5,52.8c-0.5,0.8-0.9,1.6-1.3,2.4c-0.2,0-0.4-0.1-0.2-0.4c0.4-0.6,0.7-1.2,1.1-1.8
	C114.1,52.9,114.3,52.9,114.5,52.8z"/>
<path class="st19" d="M106.3,52.4c0.5-1.4,0.8-1.8,1.2-1.7c-0.2,0.7-0.4,1.3-0.7,2C106.8,52.6,106.6,52.5,106.3,52.4z"/>
<path class="st21" d="M49.7,88.3c-0.1-0.2-0.2-0.4-0.2-0.5c0.1-0.5,0.2-1,0.3-1.4c0.1-0.1,0.2-0.2,0.3-0.3c0.1,0.2,0.2,0.3,0.2,0.4
	c-0.1,0.6-0.3,1.2-0.4,1.7C49.8,88.3,49.7,88.3,49.7,88.3z"/>
<path class="st16" d="M103.6,49.7c0.6,0.5,0.4,1.2,0.5,1.8c-0.7,0.1-0.7,0-0.7-0.6c0-0.4,0-0.8,0-1.2
	C103.5,49.7,103.6,49.7,103.6,49.7z"/>
<path class="st22" d="M115.4,118.8c-0.1,0-0.1,0-0.1,0c0.1-1.4,0.2-2.7,0.3-4.1c0.1,0,0.1,0,0.2,0c0.1,0.5,0.2,1,0.3,1.4
	c-0.1,0.1-0.2,0.1-0.2,0.1c-0.1-0.1-0.1-0.1-0.2-0.2C115.5,117,115.5,117.9,115.4,118.8z"/>
<path class="st18" d="M75.1,140.2c0.1-0.7,0.1-1.4,0.2-2.2c0.3,0.1,0.4,0.2,0.7,0.3c-0.3,0.7-0.5,1.3-0.7,2
	C75.2,140.2,75.1,140.2,75.1,140.2z"/>
<path class="st23" d="M118.6,120.6c0.5,0.2,0.9,0.5,1.4,0.7c0.5,0.3,1,0.5,1.4,0.7c0,0.1,0,0.2,0,0.2c-1-0.5-2-1-2.9-1.4
	C118.5,120.6,118.6,120.6,118.6,120.6z"/>
<path class="st21" d="M138.3,72.7c-0.2,0.6-0.6,0.9-1.1,1.1c-0.2,0.1-0.5,0-0.7-0.2C137.2,73.4,137.7,73.1,138.3,72.7z"/>
<path class="st23" d="M122.2,122.3c1,0.4,2,0.8,2.9,1.2c-0.1,0.1-0.1,0.1-0.2,0.1c-0.9-0.4-1.9-0.8-2.8-1.1
	C122.1,122.4,122.1,122.3,122.2,122.3z"/>
<path class="st19" d="M47.1,105.9c0.1,0.3,0.2,0.5,0.3,0.8c-0.2,0.1-0.5,0.2-0.8,0.2c-0.1-0.4-0.1-0.7-0.2-1.1
	C46.7,105.9,46.9,105.9,47.1,105.9z"/>
<path class="st22" d="M115.2,119.5c0.1,0,0.1,0,0.1-0.1c0.1,1.8,0.1,3.6,0.1,5.5h-0.1h-0.1C115.3,123.1,115.3,121.3,115.2,119.5z"/>
<path class="st21" d="M103.6,144c0.5,0.1,1,0.9,0.8,1.8C104.1,145.1,103.9,144.6,103.6,144z"/>
<path class="st20" d="M142.3,97.7c0.7,0.1,1.3,0.2,1.9,0.3c0,0.1,0,0.1,0,0.2c-0.6,0-1.1,0.1-1.6,0
	C142.5,98.1,142.4,97.9,142.3,97.7z"/>
<path class="st21" d="M133.4,122.3c0-0.1,0.1-0.2,0.3-0.4c0.4,0.6,0.8,1.1,1.1,1.6c-0.1,0.1-0.1,0.1-0.2,0.1
	C134.2,123.2,133.8,122.8,133.4,122.3z"/>
<path class="st20" d="M46.8,108.2c-0.1-0.3-0.1-0.5-0.1-0.7c0.4,0,0.8-0.5,1,0.2C47.5,107.9,47.2,108,46.8,108.2z"/>
<path class="st20" d="M48.8,94.2c-0.1,0.3-0.1,0.4-0.2,0.7c-0.4-0.3-0.7-0.5-1-0.7c0.1-0.1,0.1-0.2,0.1-0.2
	C48.1,94,48.4,94.1,48.8,94.2z"/>
<path class="st24" d="M108.9,144.4c-0.1-0.6-0.3-1.3-0.4-1.9C109,142.6,109.1,143.2,108.9,144.4z"/>
<path class="st24" d="M47.4,95.3c0.1,0.4,0.1,0.8,0.2,1.3c-0.2-0.1-0.4-0.1-0.6-0.2C47.1,96,47.2,95.6,47.4,95.3
	C47.4,95.2,47.4,95.3,47.4,95.3z"/>
<path class="st24" d="M130.4,65.8c0.1-0.4,0.2-0.8,0.4-1.2C131.3,65.2,130.5,65.5,130.4,65.8z"/>
<path class="st24" d="M46.3,105c0.6-0.2,0.7,0.2,0.7,0.6c-0.2,0-0.4,0-0.6,0C46.4,105.4,46.4,105.2,46.3,105z"/>
<path class="st21" d="M46.9,108.7c0.3-0.2,0.6-0.4,1-0.5c0.1-0.1,0.2,0.1,0.5,0.3c-0.5,0.2-0.9,0.3-1.3,0.4
	C47,108.9,47,108.8,46.9,108.7z"/>
<path class="st3" d="M127.7,135.7c-0.1-0.1-0.1-0.1-0.1-0.2l0,0C127.6,135.6,127.7,135.6,127.7,135.7
	C127.7,135.7,127.7,135.7,127.7,135.7z"/>
<path class="st3" d="M127.6,135.6L127.6,135.6C127.5,135.5,127.5,135.5,127.6,135.6C127.6,135.5,127.6,135.6,127.6,135.6
	L127.6,135.6z"/>
<path class="st7" d="M124.3,130.9c-0.1-0.1-0.1-0.1-0.1-0.2l0,0c0.1,0,0.1,0.1,0.2,0.1C124.3,130.8,124.3,130.8,124.3,130.9z"/>
<path class="st10" d="M61.4,108.6c-0.1,0-0.1-0.1-0.1-0.1S61.4,108.6,61.4,108.6z"/>
<path class="st7" d="M124.2,130.7L124.2,130.7C124.1,130.7,124.1,130.7,124.2,130.7C124.2,130.7,124.2,130.7,124.2,130.7
	L124.2,130.7z"/>
<path class="st10" d="M64.2,94.4c0.1,0,0.1,0,0.1,0S64.2,94.4,64.2,94.4z"/>
<path class="st18" d="M104.6,50L104.6,50C104.5,50,104.5,50,104.6,50C104.5,50,104.5,50,104.6,50C104.5,50,104.6,50,104.6,50z"/>
<path class="st3" d="M127.8,135.8c-0.1-0.1-0.1-0.1-0.1-0.2l0.1-0.1c0.1,0.1,0.1,0.1,0.2,0.1C127.9,135.8,127.8,135.8,127.8,135.8z"
	/>
<path class="st17" d="M114,139.8c0.1,0,0.1-0.1,0.1-0.1c0,0.1,0,0.1,0,0.2C114,139.9,114,139.8,114,139.8z"/>
<path class="st25" d="M40.7,95.7c-0.1,4.7-3.9,8.5-8.5,8.4c-4.6-0.1-8.6-4-8.5-8.6c0.1-4.5,4.1-8.4,8.6-8.3
	C37,87.3,40.8,91.1,40.7,95.7z"/>
<path class="st26" d="M134.9,147.2c-0.2-0.1-0.4-0.1-0.5-0.2c-1.8-1.2-3.7-2-5.7-2.5c-2.9-0.8-5.7-1.9-8.1-3.8
	c-1.3-1-2.3-2.2-2.9-3.7c-0.1-0.2-0.1-0.4-0.2-0.7c0.1-0.1,0.1-0.1,0.1-0.2c1,2.3,2.8,3.7,4.9,4.8c1.7,0.9,3.6,1.5,5.4,2.1
	c2.2,0.8,4.4,1.7,6.2,3.3C134.4,146.6,134.6,147,134.9,147.2L134.9,147.2z"/>
<path class="st26" d="M119.1,136.9c0.3-0.9,0.6-1.8,0.8-2.7c0.6-2.1,0.9-4.1,1-6.3l0,0c0.1,1.2,0.4,2.5,0.4,3.7
	c-0.1,1.8-0.7,3.4-1.7,4.8C119.4,136.6,119.2,136.8,119.1,136.9L119.1,136.9z"/>
<path class="st23" d="M117.6,136.2c-0.1,0.1-0.1,0.1-0.1,0.2c-0.4-1.3-0.7-2.6-1.1-3.9c0.1,0,0.1,0,0.1,0
	C116.9,133.7,117.3,134.9,117.6,136.2z"/>
<path class="st27" d="M115.9,129.7c-0.1-0.5-0.2-1-0.2-1.5c0.1,0,0.1,0,0.2,0c0.1,0.5,0.2,1,0.2,1.5
	C116,129.7,115.9,129.7,115.9,129.7z"/>
<path class="st27" d="M116.6,132.5c-0.1,0-0.1,0-0.1,0c-0.1-0.4-0.2-0.8-0.3-1.1c0.1,0,0.1,0,0.2-0.1
	C116.4,131.7,116.5,132.1,116.6,132.5z"/>
<path class="st27" d="M116.1,130c0.1,0.4,0.1,0.7,0.2,1c-0.1,0-0.1,0-0.2,0c-0.1-0.4-0.1-0.7-0.2-1C116,130,116,130,116.1,130z"/>
<path class="st26" d="M120.9,128c-0.1-0.1-0.1-0.2-0.1-0.2h0.1C120.9,127.8,120.9,127.9,120.9,128L120.9,128z"/>
<path class="st1" d="M133.5,143.1c-0.1-0.1-0.1-0.2-0.2-0.2c0.1,0.1,0.2,0.1,0.3,0.1C133.5,143,133.5,143,133.5,143.1z"/>
<path class="st26" d="M119.1,136.9C119.1,137,119.1,137,119.1,136.9C119.1,137,119.1,137,119.1,136.9
	C119.1,136.9,119.1,136.9,119.1,136.9z"/>
<path class="st1" d="M133.6,143.2c-0.1-0.1-0.1-0.1-0.1-0.1c0.1-0.1,0.1-0.1,0.1-0.1c0.1,0.1,0.1,0.1,0.1,0.1
	C133.6,143.1,133.6,143.2,133.6,143.2z"/>
<path class="st1" d="M133.7,143.3c-0.1-0.1-0.1-0.1-0.2-0.1c0-0.1,0.1-0.1,0.1-0.1C133.7,143.1,133.7,143.2,133.7,143.3
	C133.8,143.2,133.7,143.3,133.7,143.3z"/>
<path class="st1" d="M133.9,143.3c-0.1-0.1-0.1-0.1-0.2-0.1l0.1-0.1C133.8,143.3,133.8,143.3,133.9,143.3L133.9,143.3z"/>
<path class="st1" d="M133.9,143.4c0.1,0,0.1,0.1,0.1,0.1C133.9,143.4,133.9,143.4,133.9,143.4C133.9,143.3,133.9,143.4,133.9,143.4z
	"/>
<path class="st26" d="M134.9,147.2L134.9,147.2C134.9,147.3,134.9,147.3,134.9,147.2C134.9,147.2,134.9,147.2,134.9,147.2z"/>
<path class="st1" d="M104.4,57.8c-0.1-0.1-0.1-0.3-0.2-0.4c0.2-0.1,0.4-0.1,0.6-0.1c2.9,0.5,5.7,1.2,8.3,2.7
	c0.9,0.6,1.8,1.1,2.6,1.7c0.1,0.1,0.2,0.1,0.3,0.2c0.1,0.1,0.1,0.1,0.2,0.1c0.1,0.2,0.2,0.3,0.3,0.4c0.2,0.3,0.4,0.5,0.6,0.8
	c-3.3-1.8-6.6-3.4-10.1-4.7c-0.6-0.2-1.1-0.4-1.7-0.6c-0.1,0-0.1,0-0.1,0C104.9,57.8,104.6,57.8,104.4,57.8z"/>
<path class="st9" d="M116.9,63.2c-0.2-0.3-0.4-0.5-0.6-0.8c-0.1-0.2-0.2-0.3-0.3-0.4c1.6,1,3.1,2,4.7,3c2.8,1.8,5.5,3.7,8.3,5.5
	c0.2,0.2,0.4,0.3,0.6,0.4c-0.2,0-0.4-0.1-0.6-0.1c0,0.2,0.1,0.2,0.1,0.3c-2.7-1.8-5.4-3.5-8.1-5.3C119.7,65,118.3,64.1,116.9,63.2z"
	/>
<path class="st1" d="M129.2,71.2c0-0.1-0.1-0.2-0.1-0.3c0.2,0,0.4,0.1,0.6,0.1l0,0c0.1,0.1,0.3,0.2,0.4,0.3c0.7,0.5,1.3,1.1,1.9,1.6
	c0.2,0.2,0.3,0.3,0.4,0.5l0,0c0.3,0.5,0.6,1,0.8,1.5c0.1,0.1,0.1,0.3,0.2,0.4c0.1,0.1,0.1,0.2,0.1,0.3c0,0.1,0,0.2,0.1,0.3
	c0,0.1,0.1,0.2,0.1,0.3c0,0.2,0.1,0.3,0.1,0.5c-0.1,0.1-0.1,0.3-0.2,0.4c-0.1-0.1-0.2-0.1-0.3-0.2c-0.3-0.7-0.4-1.4-0.8-1.9
	C131.5,73.3,130.5,72.1,129.2,71.2z"/>
<path class="st10" d="M133.1,74.7c-0.3-0.5-0.6-1-0.8-1.5C132.6,73.8,132.9,74.3,133.1,74.7z"/>
<path class="st10" d="M132.3,73.3c-0.2-0.2-0.3-0.3-0.4-0.5C132.1,73,132.2,73.1,132.3,73.3z"/>
<path class="st9" d="M130,71.2c-0.1-0.1-0.3-0.2-0.4-0.3C129.8,71,129.9,71.1,130,71.2z"/>
<path class="st10" d="M133.4,75.3c-0.1-0.1-0.1-0.2-0.1-0.3C133.3,75.2,133.3,75.3,133.4,75.3z"/>
<path class="st10" d="M133.5,75.8c0-0.1-0.1-0.2-0.1-0.3C133.4,75.7,133.4,75.7,133.5,75.8z"/>
<path class="st9" d="M116,61.9c-0.1-0.1-0.2-0.1-0.3-0.2C115.8,61.8,115.9,61.8,116,61.9z"/>
<path class="st28" d="M113.8,85.9c0.2,0.2,0.3,0.3,0.4,0.4c4.1,2.7,6.2,6.6,5.7,11.5c-0.6,5.3-3.6,8.7-8.6,10.6
	c-0.1,0.1-0.2,0.1-0.3,0.1c-0.3,0.1-0.5,0.1-0.7,0.2c-3.5,0.7-6.8-0.1-9.7-2.2c-2.4,2.9-5.5,3.8-9,3.5c-1.4-0.1-2.8-0.1-4.2,0.4
	c-0.5,0.2-1,0.3-1.5,0.3c-1.6,0.2-2.7-0.5-3.4-2c-0.2-0.5-0.6-0.9-0.8-1.3c-0.1,0-0.1,0.1-0.1,0.1c0,0.3,0,0.6,0,1
	c-1.3,0-2.5,0-3.7,0c0-0.3,0-0.5,0-0.7c0-2.3,0-4.6,0-6.9c0-0.5-0.2-1-0.4-1.5c-0.3-1-0.7-1.9-0.9-2.9c-0.3-2.2,0.3-4.2,1-6.3
	c0.2-0.5,0.2-1,0.4-1.6c-1.8,0-3.3,0-4.9,0c-0.2,0-0.4,0-0.6,0c-0.3,0-0.5,0-0.8,0c0-1.3,0-2.5,0-3.7c0.5-0.1,1-0.1,1.4-0.1
	c0.2,0,0.4,0,0.5,0c1.4,0,2.8,0,4.3,0c0-1.2,0-2.3,0-3.5c1,0,2-0.1,2.9,0c0.6,0.1,1.1-0.1,1.3-0.7c0.2-0.5,0.6-0.9,1-1.3
	c1-1.1,2.2-1.8,3.8-1.7c1.3,0.1,2.5,0.1,3.8-0.1c1.9-0.3,3.9-0.5,5.9-0.4c2.4,0.2,4.5,0.8,6.5,2.1c1.9,1.3,3.3,3,4.7,4.8
	c0.2,0.2,0.4,0.4,0.6,0.4c1.7,0.1,3.2,0.5,4.7,1.2C113.4,85.7,113.6,85.8,113.8,85.9z M114.8,91.8c-0.2-0.2-0.4-0.4-0.5-0.5
	c-0.1-0.2-0.1-0.3-0.2-0.4c-1.1-1.2-2.5-2.1-4.1-2.5c0.3,1.6,0.4,3.1,0.1,4.6c-0.5,2.5-1.5,4.6-3.7,6.1c-1.6,1.1-2.7,2.5-3.4,4.3
	c2,1.4,4.1,2,6.6,1.5c1.1-0.2,2.1-0.5,2.9-1.3c0.3-0.2,0.5-0.3,0.8-0.4c2.1-1.7,3.2-3.8,3.3-6.5C116.4,95,115.9,93.3,114.8,91.8z
	 M81.7,88.6c0,0.2-0.1,0.3-0.1,0.4c0,5.7,0,11.3,0,17c0,0.4,0.3,0.9,0.5,1.2c0.2,0.3,0.5,0.5,0.7,0.8c1,1.8,2.5,2.3,4.4,1.9
	c1.1-0.2,2.1-0.3,3.2-0.3c1.3-0.1,2.6,0.1,3.8,0c2.5-0.3,4.5-1.3,6.1-3.3c-2.9-2.4-4.5-5.5-4.6-9.3c-0.3,0.4-0.5,0.7-0.7,1
	c-0.5,0.5-1,1.1-1.6,1.4c-1.7,0.9-4.2,0.7-4.5-1.9c-0.3-1.8-1.1-3.1-2.8-3.8c-1-0.4-1.4-1.2-1.5-2.3c-0.1-0.8,0-1.5,0-2.3
	C83.7,88.8,82.7,88.7,81.7,88.6z M107.5,84.4c-0.1-0.2-0.1-0.2-0.1-0.2c-0.5-0.6-1.1-1.2-1.6-1.9c-3.2-3.9-7.4-5.2-12.2-4.7
	c-2.2,0.2-4.4,0.7-6.6,0.5c-0.6-0.1-1.3-0.1-1.9,0.2c-2,0.9-4.1,3.5-3.4,6.5c0.7,0,1.3,0,2,0c0.5,0,1.1,0.2,1.5-0.1
	c0.4-0.3,0.5-0.9,0.7-1.4c0.9-2.2,2.7-3.2,4.9-2.6c1.5,0.4,3,1.1,4.4,1.8c1.7,0.8,2.6,2.2,2.8,4c0.1,0.9,0,1.8,0,2.8
	C100.5,86.3,103.6,84.7,107.5,84.4z M85.9,84.8c3.4,0,6.8,0,10.1,0c0,1.8,0,3.5,0,5.3c-3.6-0.4-7.2-0.8-10.8-1.2
	c-0.1,0.5-0.1,1-0.2,1.4c-0.1,1.4,0.3,2.2,1.6,2.8c1.4,0.7,2.2,1.7,2.5,3.1c0.1,0.4,0.2,0.7,0.3,1.1c0.2,1.1,0.9,1.6,1.9,1.7
	c2.1,0.1,4.1-1.8,4.5-4.1c0.2-1,0.4-2,0.8-2.8c0.6-1.3,0.9-2.6,1-3.9c0.1-2.1-0.6-3.9-2.5-4.9c-1.4-0.7-2.8-1.3-4.3-1.8
	c-1.8-0.6-3.4,0.2-4.2,1.8C86.3,83.7,86.2,84.2,85.9,84.8z M102.5,103.2c0.2-0.4,0.4-0.7,0.6-1c0.6-1.3,1.5-2.3,2.6-3.1
	c0.4-0.3,0.9-0.6,1.2-0.9c2.6-2.7,3.3-6,2.6-9.5c-0.1-0.2-0.3-0.4-0.4-0.4c-1,0-2.1-0.1-3,0.1c-4.3,1-7.1,5-6.6,9.4
	C99.8,100,100.8,101.7,102.5,103.2z M77.9,91c-1.1,2.7-1.3,6.1,0,7.8C77.9,96.2,77.9,93.6,77.9,91z"/>
<path class="st10" d="M72.5,88.6c0.2,0,0.4,0,0.6,0c-0.1,1.7-0.2,3.3-0.2,5c-0.2,4.3,0.5,8.5,1.8,12.7c1,3,2.6,5.7,5.6,7.1
	c2.1,1,4.2,1.8,6.5,2.4c3.8,1,7.7,1,11.6,0.9c1.4-0.1,2.8-0.2,4.1-0.5c4.1-0.9,6.7-3.4,7.9-7.4c0.3-0.1,0.5-0.1,0.7-0.2
	c-0.3,0.7-0.6,1.4-0.9,2.1c-1.5,3.6-4.4,5.4-8,6.2c-3,0.7-6,0.5-9,0.4c-4-0.1-7.8-1-11.5-2.4c-3.9-1.6-6.4-4.3-7.6-8.3
	c-1.7-5.1-2.1-10.4-1.7-15.7C72.5,90,72.5,89.3,72.5,88.6z"/>
<path class="st10" d="M73.7,84.8c-0.2,0-0.4,0-0.5,0c0.7-3,1.8-5.7,4.1-7.8c1.4-1.2,3-1.8,4.7-2.2c4.1-0.9,8.2-1.6,12.4-1.3
	c3.7,0.3,7.5,0.7,11,2.4c4.2,2.1,7.1,5.5,8.5,10c-0.3-0.1-0.5-0.2-0.7-0.3c0-0.1,0-0.1,0-0.2c-1.6-4.1-4.2-7.3-8.3-9.1
	c-3.8-1.7-7.9-2.2-12-2.3c-3.6-0.2-7.1,0.5-10.6,1.3c-2.4,0.5-4.5,1.5-6,3.5C75,80.6,74.2,82.7,73.7,84.8z"/>
<path class="st9" d="M105.1,57.9c0.1,0,0.1,0,0.1,0S105.1,57.9,105.1,57.9z"/>
<path class="st1" d="M118.6,120.6c-0.1,0.1-0.1,0.1-0.2,0.1c-0.1-0.1-0.1-0.1-0.1-0.2C118.5,120.5,118.5,120.6,118.6,120.6z"/>
<path class="st12" d="M110.4,108.6c-1.2,4-3.8,6.6-7.9,7.4c-1.4,0.3-2.7,0.5-4.1,0.5c-3.9,0.1-7.8,0.2-11.6-0.9
	c-2.2-0.6-4.4-1.4-6.5-2.4c-3-1.4-4.6-4-5.6-7.1c-1.3-4.1-2-8.3-1.8-12.7c0.1-1.7,0.2-3.3,0.2-5c1.6,0,3.2,0,4.9,0
	c-0.1,0.6-0.2,1.1-0.4,1.6c-0.7,2-1.3,4.1-1,6.3c0.2,1,0.6,1.9,0.9,2.9c0.2,0.5,0.3,1,0.4,1.5c0.1,2.3,0,4.6,0,6.9
	c0,0.2,0,0.5,0,0.7c1.3,0,2.5,0,3.7,0c0-0.3,0-0.6,0-1c0.1,0,0.1-0.1,0.1-0.1c0.3,0.4,0.6,0.8,0.8,1.3c0.7,1.5,1.8,2.2,3.4,2
	c0.5-0.1,1-0.2,1.5-0.3c1.4-0.5,2.8-0.5,4.2-0.4c3.5,0.3,6.6-0.6,9-3.5C103.6,108.6,106.9,109.3,110.4,108.6z"/>
<path class="st6" d="M81.7,88.6c1,0.1,2,0.2,2.8,0.3c0,0.8,0,1.6,0,2.3c0.1,1,0.5,1.9,1.5,2.3c1.7,0.8,2.5,2.1,2.8,3.8
	c0.4,2.5,2.9,2.7,4.5,1.9c0.6-0.3,1.1-0.9,1.6-1.4c0.3-0.3,0.4-0.6,0.7-1c0.2,3.8,1.8,6.9,4.6,9.3c-1.5,2-3.6,3.1-6.1,3.3
	c-1.3,0.1-2.6,0-3.8,0c-1.1,0.1-2.1,0.1-3.2,0.3c-1.9,0.4-3.5-0.1-4.4-1.9c-0.2-0.3-0.5-0.5-0.7-0.8c-0.2-0.4-0.5-0.8-0.5-1.2
	c-0.1-5.7,0-11.3,0-17C81.7,88.8,81.7,88.7,81.7,88.6z"/>
<path class="st5" d="M73.7,84.8c0.6-2.2,1.3-4.2,2.7-6c1.5-2.1,3.6-3,6-3.5c3.5-0.8,7-1.4,10.6-1.3c4.1,0.2,8.2,0.6,12,2.3
	c4,1.8,6.7,5.1,8.3,9.1c0,0.1,0,0.1,0,0.2c-1.5-0.7-3.1-1.1-4.7-1.2c-0.2,0-0.5-0.2-0.6-0.4c-1.4-1.8-2.8-3.5-4.7-4.8
	c-2-1.3-4.2-1.9-6.5-2.1c-2-0.2-3.9,0.2-5.9,0.4c-1.3,0.2-2.5,0.2-3.8,0.1c-1.6-0.1-2.8,0.6-3.8,1.7c-0.4,0.4-0.7,0.8-1,1.3
	c-0.3,0.6-0.7,0.8-1.3,0.7c-1-0.1-1.9,0-2.9,0c0,1.2,0,2.4,0,3.5C76.5,84.8,75.1,84.8,73.7,84.8z"/>
<path class="st5" d="M107.5,84.4c-3.9,0.3-7,1.9-9.4,5.1c0-1,0.1-1.9,0-2.8c-0.2-1.8-1.2-3.2-2.8-4c-1.4-0.7-2.9-1.4-4.4-1.8
	c-2.3-0.6-4,0.5-4.9,2.6c-0.2,0.5-0.3,1.1-0.7,1.4c-0.4,0.3-1,0.1-1.5,0.1c-0.7,0-1.3,0-2,0c-0.8-3,1.4-5.6,3.4-6.5
	c0.6-0.3,1.3-0.3,1.9-0.2c2.2,0.2,4.4-0.3,6.6-0.5c4.8-0.4,9,0.9,12.2,4.7c0.5,0.6,1,1.3,1.6,1.9C107.4,84.3,107.5,84.3,107.5,84.4z
	"/>
<path class="st6" d="M85.9,84.8c0.3-0.7,0.4-1.2,0.7-1.7c0.9-1.7,2.5-2.4,4.2-1.8c1.5,0.5,2.9,1.1,4.3,1.8c1.9,1.1,2.6,2.9,2.5,4.9
	c-0.1,1.4-0.4,2.7-1,3.9c-0.4,0.9-0.7,1.9-0.8,2.8c-0.4,2.3-2.4,4.2-4.5,4.1c-1.1-0.1-1.7-0.6-1.9-1.7c-0.1-0.4-0.2-0.7-0.3-1.1
	c-0.4-1.4-1.2-2.5-2.5-3.1c-1.3-0.6-1.7-1.4-1.6-2.8c0.1-0.5,0.1-0.9,0.2-1.4c3.6,0.4,7.2,0.8,10.8,1.2c0-1.7,0-3.5,0-5.3
	C92.7,84.8,89.4,84.8,85.9,84.8z"/>
<path class="st12" d="M102.5,103.2c-1.7-1.5-2.8-3.2-3-5.4c-0.6-4.4,2.2-8.4,6.6-9.4c1-0.2,2-0.1,3-0.1c0.2,0,0.4,0.2,0.4,0.4
	c0.7,3.6,0,6.8-2.6,9.5c-0.4,0.4-0.8,0.7-1.2,0.9c-1.2,0.8-2.1,1.8-2.6,3.1C102.9,102.5,102.7,102.8,102.5,103.2z"/>
<path class="st6" d="M112.4,103.7c-0.8,0.7-1.8,1.1-2.9,1.3c-2.4,0.5-4.6-0.1-6.6-1.5c0.7-1.8,1.8-3.2,3.4-4.3
	c2.2-1.4,3.2-3.6,3.7-6.1c0.3-1.5,0.2-3-0.1-4.6c1.7,0.5,3,1.3,4.1,2.5c0.1,0.1,0.1,0.3,0.2,0.4c-0.1,1.7-0.1,3.3-0.2,5
	C113.8,98.9,113.1,101.3,112.4,103.7z"/>
<path class="st14" d="M114.8,91.8c1.2,1.4,1.6,3.1,1.6,4.9c-0.1,2.7-1.2,4.8-3.3,6.5c0.1-0.2,0.1-0.4,0.2-0.6
	C114.3,99.2,115,95.6,114.8,91.8z"/>
<path class="st11" d="M114.8,91.8c0.2,3.7-0.4,7.3-1.5,10.9c-0.1,0.2-0.1,0.4-0.2,0.6c-0.3,0.2-0.5,0.3-0.8,0.4
	c0.8-2.4,1.5-4.8,1.7-7.4c0.2-1.7,0.2-3.3,0.2-5C114.4,91.5,114.6,91.7,114.8,91.8z"/>
<path class="st15" d="M77.9,91c0,2.6,0,5.2,0,7.8C76.7,97.1,76.9,93.7,77.9,91z"/>
</svg>
