<?xml version="1.0" encoding="utf-8"?>
<!-- Generator: Adobe Illustrator 23.0.6, SVG Export Plug-In . SVG Version: 6.00 Build 0)  -->
<svg version="1.1" id="Layer_1" xmlns="http://www.w3.org/2000/svg" xmlns:xlink="http://www.w3.org/1999/xlink" x="0px" y="0px"
	 viewBox="0 0 200 200" style="enable-background:new 0 0 200 200;" xml:space="preserve">
<style type="text/css">
	.st0{fill:#286017;}
	.st1{fill:#231F20;}
</style>
<g>
	<path class="st0" d="M69.6,89.2c-1,0.5-1,0.5-0.1-0.2l16.8-12c0.9-0.7,2.5-0.7,3.4-0.2l5.1,3c1,0.6,2.6,0.6,3.5,0l8.9-5.1
		c1-0.6,2.6-0.6,3.6-0.1l2.7,1.3c1,0.5,2.7,0.6,3.8,0.2l1.7-0.6c1.1-0.4,2.7-0.2,3.6,0.5l9.6,6.4c0.9,0.6,2.5,0.7,3.5,0.3l2-0.9
		c1-0.5,2.7-0.4,3.7,0.1l16.3,8.6c1,0.5,0.9,0.6-0.1,0.3L141.3,85c-1.1-0.4-2.8-0.3-3.8,0.2l-1.9,0.8c-1,0.5-2.6,0.3-3.5-0.3
		l-9.7-6.6c-0.9-0.6-2.6-0.9-3.7-0.7l-10.1,2.4c-1.1,0.3-1.2,0-0.2-0.5l2.3-1.3c1-0.5,1-1.3,0.1-1.7s-2.5-0.3-3.5,0.2L82.5,90
		c-1,0.5-1.1,0.4-0.1-0.2l9.5-6.4c0.9-0.6,0.9-1.6-0.1-2.2L89.9,80c-1-0.6-2.6-0.6-3.5-0.1L69.6,89.2z"/>
</g>
<path class="st0" d="M100,137c-21.2,0-41.2-3.8-56.3-10.6C28.4,119.4,20,110,20,100c0-10,8.4-19.4,23.7-26.3
	C58.8,66.8,78.8,63,100,63c21.2,0,41.2,3.8,56.3,10.6C171.6,80.6,180,90,180,100c0,10-8.4,19.4-23.7,26.3
	C141.2,133.2,121.2,137,100,137z M100,64.9c-43.1,0-78.1,15.7-78.1,35.1c0,19.3,35,35.1,78.1,35.1c43.1,0,78.1-15.7,78.1-35.1
	C178.1,80.7,143.1,64.9,100,64.9z"/>
<path class="st0" d="M100,133.9c-42.5,0-77-15.2-77-33.9c0-18.7,34.6-33.9,77-33.9c42.5,0,77,15.2,77,33.9
	C177,118.7,142.5,133.9,100,133.9z M100,66.5c-42.2,0-76.6,15-76.6,33.5c0,18.5,34.3,33.5,76.6,33.5c42.2,0,76.6-15,76.6-33.5
	C176.6,81.5,142.2,66.5,100,66.5z"/>
<path class="st0" d="M69.8,105.9c-2.8,1.7-4.5-0.6-3-4.4c0.9,0.5,2.3,0.5,3.5,0.5c3.1-0.1,4.7-2.9,4.2-5c-0.5-2.1-2.7-3-5.8-2.7
	c-2.5,0.2-5.6,3-6.6,6.2c-0.9,3.2,1,7.1,5.2,7.1c3.6,0,4.8-2.5,5.7-3.8l-0.7-0.6C72.3,103.2,71.2,105,69.8,105.9z M68.2,96.5
	c0.6-1.4,1.9-1.6,2.4-1c0.5,0.6,0.5,2-0.8,4.2c-1,1.6-2.5,1.2-2.8,0.8L68.2,96.5z"/>
<path class="st0" d="M91,94.1c-1.8-0.2-3.5,0.9-4.4,1.4c-1-2.1-4.2-1.5-5.7-0.2l0.3-0.9h-5.7L75,95.7h1.7L73.2,107h4l3-9.8
	c0.5-1.5,2.8-2.3,2.1,0.3l-2.9,9.5h3.9l3.1-9.6c0.5-1.7,3.3-2.7,2.4,0.1c-1,3.2-1.9,5.9-2.1,6.9c-0.2,1,0.3,2.8,2.2,2.8
	c1.9,0,3.3-1.3,4.2-2.6l-0.6-0.4c-0.6,0.9-1.1,1.3-1.6,0.6c-0.5-0.6,0.2-1.8,0.5-2.7c0.3-0.9,1.8-5.6,1.8-5.6
	C93.5,95.6,92.7,94.2,91,94.1z"/>
<path class="st0" d="M99.5,104.4c-0.8,0.8-1.3,1.2-1.6,0.7c-0.3-0.8,0.1-1.9,0.4-2.8c0.3-0.9,2.5-7.9,2.5-7.9h-5.7l-0.3,1.1h1.6
	l-2.5,8.4c-0.6,2,0.2,3.5,2.1,3.5c1.9,0,3.7-2.1,4.1-2.5L99.5,104.4z"/>
<path class="st1" d="M103.5,95.4"/>
<path class="st0" d="M103.5,95.4l-3.4,11.6h4l3.2-10.2c0.5-1.4,2.7-1.3,2.2,0.4l-2.1,6.9c-0.4,1.6,0.5,3.2,2.1,3.2
	c1.6,0,3.5-1.7,3.5-1.7l-0.5-0.6c-0.6,0.5-1.7,0.9-0.9-1.6l2-6.5c0.4-1.5-0.9-2.7-2.3-2.8c-1.4-0.1-3.3,0.6-4.1,1.2l0.2-0.9h-5.3
	l-0.3,1H103.5z"/>
<path class="st0" d="M99.6,92.8c2.9,0,3.9-4.7,0.8-4.7C97.4,88.1,97.2,92.8,99.6,92.8z"/>
<path class="st0" d="M124.4,93.6c0.2-0.2,0.8-0.7,1-0.3c0.3,0.9,2.3,1.1,2.6-0.5c0.3-1.4-1.4-1.6-1.7-1.6c-0.8,0-1.9,0.8-2.3,1.4
	c-0.5,0.6-0.8,1.3-0.8,1.3c-0.3-0.1-0.8-0.2-1.5-0.2c-0.7,0-5,0.2-6.2,3.4c-1.2,3.2,1.1,4.8,1.1,4.8c-1.6,0.4-3.9,1.6-3,4.9
	c-2.8,0.6-3.4,5.7,4.8,5.7c8,0,7-5.7,6-6.7c-1.1-1.1-2.4-1.3-4.1-1.3c-1.7,0-3.2-0.3-3-1.3c0.2-0.9,1.4-0.6,2.9-0.5
	c1.5,0.1,5.1-0.4,6.1-3.6c0.9-2.9-1-4-1.6-4.4c-0.3-0.2-0.6-0.3-0.6-0.4C124.1,94,124.4,93.6,124.4,93.6z M117.5,108.1
	c2.2,0.2,1.9,0.3,2.9,0.3c1.5,0.1,2.6,1.3,1.4,2.2c-1.9,1.3-6.6,0.8-7.7-0.4c-1.4-1.5-0.4-2.5,1.2-2.3
	C116.9,108,117.5,108.1,117.5,108.1z M122.9,96.6l-1.2,3.8c-0.5,1.6-1.5,1.2-1.8,1.3c-0.2,0.1-1.8-0.1-1.4-1.6l1.3-4.1
	c0.4-1.2,1.4-1.2,2.1-1.1C122.7,94.9,123.2,95.9,122.9,96.6z"/>
<path class="st0" d="M131.6,104.7c-1.2,1.2-1.5,0-1-1.1l2.6-8.2h1.9l0.4-1.2h-1.9l0.8-3h-4l-1,3h-1.5l-0.5,1.2h1.5l-2.5,7.5
	c-0.8,2.4-0.2,4.4,1.7,4.3c1.9-0.1,3.3-1.3,4.2-2.6l-0.3-0.7L131.6,104.7z"/>
<path class="st0" d="M145.6,97.1c-0.6-2-2.8-3.3-4.8-3.2c-1.6,0.1-2.3,0.3-3.5,0.9c-1.2,0.6-2.8,1.6-3.8,5c-1,3.3,1.2,6.6,3.7,7
	c2.8,0.5,4-0.2,5.6-1.4C145.9,103.2,146.2,99.3,145.6,97.1z M142.3,96.9l-2.5,7.5c-0.4,0.8-0.5,1.4-1.8,1.4c-1.3,0-1.5-0.9-1.2-2.1
	c0,0,2.2-6.8,2.4-7.2c0.2-0.4,0.3-1.6,2-1.6C142,95,142.6,95.9,142.3,96.9z"/>
<path class="st0" d="M152.6,95.4l0.4-1.2h-5.3l-0.4,1.1h1.7l-3.7,11.7h4.1l2.9-9.5c0.3-1,0.9-1.8,1.8-1.7c0.6,0.1,1.4,0.3,0.5,2.4
	l-1.7,5.3c-0.7,1.7,0.6,3.9,2.7,3.8c2.1-0.2,4.2-1,5.1-3.7c0.7-2.3-1.9-2.2-2.5-0.8c-0.3,0.6-0.1,1.1,0.3,1.5
	c0.4,0.2,0.7,0.1,0.7,0.1c-0.1,0.6-0.6,0.9-0.9,1c-0.4,0.1-2.2,0.7-1.5-1.4l2.3-7.2c0.4-1.9-0.8-2.7-2.2-2.7
	C155.3,93.9,154.1,94.4,152.6,95.4"/>
<path class="st0" d="M50.1,97.9c0.8-0.1,2.4,1.1,3.2,3.3c2.4,6.2,2.3,11.3,5.7,14.4c2.2,2,7.6,3.9,13.2,1.7l-0.6-1.2
	c-0.9,0.5-2.6,0.4-3.1,0.4c-3.2-0.3-4.6-2.7-5.3-4.9c-0.7-2.2-3.2-12.2-8.7-13.6c7.1-1,9.3-1.7,11.1-5.8c1-2.2,1.4-6.4-0.6-8.7
	c-1.6-1.8-3.2-2-6.4-2c-1.5,0-13.8,0-13.8,0l-0.6,1.7h3.6l-8.2,26.4h-3.4l-0.6,1.8h14.7l0.5-1.6h-4.4L50.1,97.9z M57.2,83.2
	c1.3,0,3.7,0.5,1.4,7.6c-2.1,6.2-4.7,5.5-8,5.5l4.1-13.1H57.2z"/>
<path class="st1" d="M128.5,93.1"/>
<g>
	<path class="st0" d="M90.5,130.2l0-0.1c0.1,0,0.3,0,0.3,0c0.1-0.1,0.2-0.2,0.2-0.3l0.1-2.5c0-0.2,0-0.3-0.1-0.3
		c-0.1,0-0.2-0.1-0.3-0.1l0-0.1l3,0.2l-0.1,1.1l-0.1,0c-0.1-0.3-0.2-0.6-0.3-0.7c-0.2-0.1-0.4-0.2-0.9-0.2c-0.2,0-0.3,0-0.3,0
		c0,0-0.1,0.1-0.1,0.2l-0.1,1.2c0.3,0,0.5,0,0.6-0.1c0.1-0.1,0.2-0.3,0.3-0.6l0.1,0l-0.1,1.8l-0.1,0c0-0.3-0.1-0.5-0.2-0.6
		c-0.1-0.1-0.3-0.2-0.6-0.2l-0.1,1.3c0,0.1,0,0.2,0.1,0.2c0.1,0,0.2,0.1,0.3,0.1c0.3,0,0.6,0,0.8-0.2c0.2-0.1,0.4-0.4,0.6-0.7l0.1,0
		l-0.3,1.1L90.5,130.2z"/>
	<path class="st0" d="M94.2,129.6l0.1,0c0,0.3,0.1,0.4,0.3,0.5c0.1,0.1,0.3,0.2,0.4,0.2c0.1,0,0.2,0,0.3-0.1s0.1-0.1,0.1-0.2
		c0-0.1,0-0.2-0.1-0.2c0,0-0.1-0.1-0.2-0.1l-0.4-0.2c-0.2-0.1-0.3-0.2-0.4-0.3c-0.1-0.1-0.1-0.3-0.1-0.4c0-0.2,0.1-0.4,0.2-0.5
		c0.1-0.1,0.3-0.2,0.6-0.2c0.1,0,0.2,0,0.4,0.1c0.1,0,0.2,0.1,0.2,0.1c0,0,0.1,0,0.1,0c0,0,0,0,0-0.1l0.1,0l0,0.8l-0.1,0
		c0-0.2-0.1-0.3-0.2-0.4c-0.1-0.1-0.2-0.2-0.4-0.2c-0.1,0-0.2,0-0.3,0.1c-0.1,0.1-0.1,0.1-0.1,0.2c0,0.1,0,0.1,0.1,0.2
		c0,0.1,0.1,0.1,0.3,0.2l0.3,0.1c0.2,0.1,0.3,0.2,0.4,0.3c0.1,0.1,0.2,0.3,0.2,0.5c0,0.2-0.1,0.4-0.2,0.5c-0.1,0.2-0.4,0.2-0.6,0.2
		c-0.1,0-0.1,0-0.2,0c-0.1,0-0.2,0-0.3-0.1l-0.1,0c0,0-0.1,0-0.1,0c0,0,0,0,0,0c0,0-0.1,0-0.1,0c0,0,0,0.1-0.1,0.1l-0.1,0
		L94.2,129.6z"/>
	<path class="st0" d="M96.4,128.3l0-0.1c0,0,0.1-0.1,0.2-0.1c0.1-0.1,0.2-0.2,0.3-0.3c0.2-0.2,0.3-0.4,0.4-0.6l0.1,0l0,0.9l0.5,0
		l0,0.2l-0.5,0l0,1.6c0,0.1,0,0.1,0,0.2c0,0.1,0.1,0.1,0.2,0.1c0.1,0,0.1,0,0.2-0.1c0,0,0.1-0.1,0.1-0.2L98,130
		c-0.1,0.1-0.1,0.3-0.2,0.3c-0.2,0.2-0.3,0.2-0.6,0.2c-0.1,0-0.2,0-0.3-0.1c-0.2-0.1-0.3-0.3-0.3-0.5l0-1.7L96.4,128.3z"/>
	<path class="st0" d="M98.7,129.8c0.1-0.1,0.2-0.1,0.3-0.1c0.1,0,0.2,0,0.3,0.1c0.1,0.1,0.1,0.2,0.1,0.3c0,0.1,0,0.2-0.1,0.3
		c-0.1,0.1-0.2,0.1-0.3,0.1c-0.1,0-0.2,0-0.3-0.1c-0.1-0.1-0.1-0.2-0.1-0.3C98.5,130,98.6,129.9,98.7,129.8z"/>
	<path class="st0" d="M101.4,130.4c0.3,0,0.4,0,0.5-0.1c0.1-0.1,0.1-0.2,0.1-0.4l0-2c0-0.1,0-0.2,0-0.3c0-0.1-0.1-0.1-0.2-0.1
		c0,0-0.1,0-0.2,0c-0.1,0-0.1,0-0.2,0.1l0-0.1l1.3-0.6l0.1,0l0,3c0,0.2,0,0.3,0.1,0.4c0.1,0.1,0.2,0.1,0.5,0.1l0,0.1l-2,0V130.4z"/>
	<path class="st0" d="M104.2,129.1c0.1-0.1,0.3-0.2,0.4-0.2l0,0c0,0-0.1-0.1-0.2-0.2c-0.1-0.1-0.2-0.2-0.3-0.3
		c-0.1-0.1-0.1-0.2-0.1-0.3c0-0.1,0-0.2,0-0.3c0-0.3,0.1-0.5,0.3-0.7c0.2-0.2,0.5-0.3,0.9-0.3c0.3,0,0.6,0.1,0.8,0.2
		c0.2,0.1,0.3,0.3,0.3,0.5c0,0.2-0.1,0.4-0.3,0.5c-0.1,0.1-0.2,0.2-0.4,0.2l0,0c0.3,0.2,0.4,0.3,0.5,0.4c0.2,0.2,0.2,0.4,0.3,0.7
		c0,0.3-0.1,0.6-0.3,0.8c-0.2,0.2-0.5,0.3-0.9,0.3c-0.3,0-0.5-0.1-0.8-0.2c-0.2-0.1-0.4-0.4-0.4-0.7
		C103.9,129.4,104,129.2,104.2,129.1z M104.6,130.1c0.1,0.2,0.2,0.3,0.5,0.3c0.1,0,0.2-0.1,0.3-0.1c0.1-0.1,0.1-0.2,0.1-0.5
		c0-0.2-0.1-0.4-0.2-0.5c-0.1-0.1-0.3-0.2-0.5-0.4c-0.1,0.2-0.2,0.3-0.2,0.4c0,0.1-0.1,0.3-0.1,0.4
		C104.5,129.8,104.6,129.9,104.6,130.1z M105.4,128c0-0.1,0.1-0.2,0.1-0.3c0-0.2,0-0.3-0.1-0.5c-0.1-0.1-0.2-0.2-0.4-0.2
		c-0.1,0-0.2,0-0.3,0.1c-0.1,0.1-0.1,0.2-0.1,0.3c0,0.2,0.1,0.4,0.3,0.5c0.1,0.1,0.2,0.2,0.4,0.2C105.3,128.2,105.4,128.1,105.4,128
		z"/>
	<path class="st0" d="M106.9,130.3c0.3,0,0.4-0.1,0.5-0.1c0.1-0.1,0.1-0.2,0.1-0.4l-0.1-2c0-0.1,0-0.2-0.1-0.3
		c0-0.1-0.1-0.1-0.2-0.1c0,0-0.1,0-0.2,0.1c-0.1,0-0.1,0.1-0.2,0.1l0-0.1l1.3-0.6l0.1,0l0.1,3c0,0.2,0,0.3,0.1,0.4
		c0.1,0.1,0.2,0.1,0.5,0.1l0,0.1l-2,0.1L106.9,130.3z"/>
	<path class="st0" d="M111.5,126.7c-0.4,0.1-0.7,0.3-0.9,0.5c-0.2,0.2-0.4,0.5-0.4,0.9l0,0c0.1,0,0.1,0,0.2-0.1c0.1,0,0.2,0,0.3,0
		c0.3,0,0.5,0.1,0.7,0.2c0.2,0.2,0.3,0.4,0.3,0.8c0,0.4-0.1,0.7-0.3,0.9c-0.2,0.2-0.5,0.3-0.8,0.4c-0.3,0-0.6-0.1-0.9-0.3
		c-0.3-0.3-0.4-0.6-0.4-1.1c0-0.6,0.2-1.2,0.6-1.6c0.4-0.4,0.9-0.6,1.6-0.7L111.5,126.7z M110.2,128.3c0,0,0,0.1,0,0.2
		c0,0,0,0.1,0,0.2c0,0.1,0,0.2,0,0.3c0,0.2,0,0.3,0,0.5c0,0.1,0,0.2,0.1,0.3c0,0.1,0.1,0.2,0.1,0.3c0.1,0.1,0.1,0.1,0.2,0.1
		c0.1,0,0.2-0.1,0.3-0.2c0-0.1,0-0.3,0-0.6c0-0.4-0.1-0.7-0.2-0.9c-0.1-0.2-0.2-0.2-0.4-0.2C110.3,128.3,110.2,128.3,110.2,128.3z"
		/>
</g>
<g>
	<path class="st0" d="M79.3,109.7c0.6-0.5,1.4-0.6,1.7-0.6c1.6,0,1.8,1.2,1.6,2.2c-0.4,1.6-1.6,2.2-2.6,2.2c-1.1,0-2-0.6-1.7-2.1
		C78.4,111.1,78.6,110.2,79.3,109.7z M80.2,112.6c0.8,0,1.1-0.8,1.2-1.3c0.1-0.6,0-0.9,0-1c-0.1-0.2-0.4-0.3-0.6-0.3
		c-0.8,0-1.1,0.7-1.3,1.4C79.4,112,79.4,112.6,80.2,112.6z"/>
	<path class="st0" d="M85,109.3l-0.5,2.5c0,0.2-0.1,0.5,0,0.6c0.1,0.2,0.4,0.3,0.6,0.3c0.7,0,0.9-0.6,1-1l0.5-2.4h1.1l-0.5,2.4
		c-0.1,0.5-0.3,1-0.6,1.3c-0.5,0.5-1.3,0.6-1.8,0.6c-2,0-1.7-1.2-1.6-1.9l0.5-2.4H85z"/>
	<path class="st0" d="M89.5,110.1h-1.3l0.2-0.8h3.7l-0.2,0.8h-1.3l-0.7,3.3h-1.2L89.5,110.1z"/>
	<path class="st0" d="M92.7,109.3h1.7c0.5,0,1.1,0.1,1.5,0.3c0.5,0.4,0.5,1.1,0.4,1.7c-0.2,0.9-0.6,1.6-1.5,1.9
		c-0.5,0.2-1,0.2-1.2,0.2h-1.8L92.7,109.3z M93.2,112.6h0.5c0.8,0,1.3-0.3,1.5-1.3c0.3-1.3-0.7-1.3-1-1.3l-0.5,0L93.2,112.6z"/>
	<path class="st0" d="M97.9,109.7c0.6-0.5,1.4-0.6,1.7-0.6c1.6,0,1.8,1.2,1.6,2.2c-0.3,1.6-1.6,2.2-2.6,2.2c-1.1,0-2-0.6-1.7-2.1
		C97,111.1,97.2,110.2,97.9,109.7z M98.8,112.6c0.8,0,1.1-0.8,1.2-1.3c0.1-0.6,0-0.9,0-1c-0.1-0.2-0.4-0.3-0.6-0.3
		c-0.8,0-1.1,0.7-1.3,1.4C98,112,98,112.6,98.8,112.6z"/>
	<path class="st0" d="M102.7,109.7c0.6-0.5,1.4-0.6,1.7-0.6c1.6,0,1.8,1.2,1.6,2.2c-0.3,1.6-1.6,2.2-2.6,2.2c-1.1,0-2-0.6-1.7-2.1
		C101.9,111.1,102.1,110.2,102.7,109.7z M103.7,112.6c0.8,0,1.1-0.8,1.2-1.3c0.1-0.6,0-0.9,0-1c-0.1-0.2-0.4-0.3-0.6-0.3
		c-0.8,0-1.1,0.7-1.3,1.4C102.9,112,102.9,112.6,103.7,112.6z"/>
	<path class="st0" d="M107.3,109.3h1.9c0.7,0,1,0,1.2,0.3c0.1,0.1,0.2,0.4,0.1,0.8c-0.1,0.5-0.3,0.6-0.5,0.8
		c-0.3,0.2-0.6,0.2-0.7,0.2l0,0c0.8,0,0.8,0.4,0.7,1c0,0.3-0.1,0.7,0,1h-1.2c0-0.3,0-0.6,0.1-0.9c0.1-0.5,0.1-0.7-0.4-0.7h-0.5
		l-0.3,1.6h-1.1L107.3,109.3z M108.1,111h0.4c0.3,0,0.4,0,0.5,0c0.3-0.1,0.4-0.3,0.4-0.5c0.1-0.5-0.3-0.5-0.7-0.5h-0.4L108.1,111z"
		/>
</g>
<g>
	<path class="st0" d="M128.1,110.3c0-0.4-0.2-0.6-0.5-0.6c-0.7,0-1,0.6-1.2,1.4c-0.1,0.3-0.3,1.3,0.6,1.3c0.6,0,0.8-0.4,0.8-0.6h1.2
		c-0.3,1.3-1.6,1.4-2.2,1.4c-0.4,0-1.1-0.1-1.5-0.5c-0.3-0.5-0.3-1.1-0.2-1.6c0.1-0.6,0.4-1.1,0.9-1.6c0.5-0.5,1.1-0.6,1.7-0.6
		c0.7,0,1.1,0.2,1.4,0.5c0.3,0.4,0.2,0.7,0.2,0.9H128.1z"/>
	<path class="st0" d="M130.5,109.4c0.6-0.5,1.4-0.6,1.7-0.6c1.6,0,1.8,1.2,1.6,2.2c-0.4,1.6-1.6,2.2-2.6,2.2c-1.1,0-2-0.6-1.7-2.1
		C129.6,110.8,129.9,110,130.5,109.4z M131.4,112.4c0.8,0,1.1-0.8,1.2-1.3c0.1-0.6,0-0.9,0-1c-0.1-0.2-0.4-0.3-0.6-0.3
		c-0.8,0-1.1,0.7-1.3,1.4C130.6,111.7,130.7,112.4,131.4,112.4z"/>
	<path class="st0" d="M135,109h1.8l0.1,2.8l1.2-2.8l1.8,0l-0.9,4.1H138l0.8-3.5l-1.7,3.5h-1l-0.2-3.5l-0.7,3.5h-1L135,109z"/>
	<path class="st0" d="M140.9,109h1.9c0.3,0,0.7,0,1,0.2c0.3,0.2,0.5,0.6,0.3,1.1c-0.2,0.7-0.7,1-0.9,1.1c-0.4,0.2-0.9,0.2-1.1,0.2
		l-0.7,0l-0.3,1.5h-1.2L140.9,109z M141.7,110.8h0.5c0.3,0,0.7,0,0.8-0.6c0.1-0.5-0.3-0.5-0.6-0.5h-0.5L141.7,110.8z"/>
	<path class="st0" d="M146,109h1.4l0.8,4.1h-1.3l-0.1-0.8h-1.7l-0.5,0.8h-1.1L146,109z M146.7,111.5l-0.2-1.7h0l-0.9,1.7H146.7z"/>
	<path class="st0" d="M149.6,109h1.6l0.7,3.1l0.6-3.1h1l-0.9,4.1h-1.5l-0.7-3.2l-0.7,3.2h-1L149.6,109z"/>
	<path class="st0" d="M155.5,109l0.5,1.7l1.3-1.7h1.2l-2.2,2.7l-0.3,1.5h-1.2l0.3-1.5l-1-2.6H155.5z"/>
</g>
</svg>
