<?xml version="1.0" encoding="utf-8"?>
<!-- Generator: Adobe Illustrator 23.0.6, SVG Export Plug-In . SVG Version: 6.00 Build 0)  -->
<svg version="1.1" id="Layer_1" xmlns="http://www.w3.org/2000/svg" xmlns:xlink="http://www.w3.org/1999/xlink" x="0px" y="0px"
	 viewBox="0 0 200 200" style="enable-background:new 0 0 200 200;" xml:space="preserve">
<style type="text/css">
	.st0{fill-rule:evenodd;clip-rule:evenodd;}
	.st1{fill:url(#SVGID_1_);}
	.st2{fill-rule:evenodd;clip-rule:evenodd;fill:#FED008;}
	.st3{fill:#F3D433;}
</style>
<path class="st0" d="M111.3,82.4c0.5-1.5,1.1-3,2.1-4.3c2.2-3.1,5.2-4.6,9-4.6c3.8,0,6.9,1.4,9.1,4.5c2.4,3.4,3.1,7.8,3.1,11.9
	c0,3-0.3,6.2-1.3,9c-0.8,2.2-2.1,4.2-4,5.7c-1.9,1.5-4.2,2.1-6.6,2.1c-2.3,0-4.6-0.5-6.6-1.8c-2-1.4-3.3-3.4-4.2-5.6
	c-1.2-2.9-1.5-6.1-1.5-9.2c0-2.1,0.2-4.3,0.7-6.4h-6.3v22.6h-8.9V83.8h-6.4v14c0,0.3,0,0.6,0,0.8v7.7h-3.7c-0.2,0.2-0.4,0.4-0.6,0.6
	c-2.4,2.7-5.4,4.7-8.7,6.1c-0.9,2.1-2,4.2-3.3,6.1c-0.9,1.3-2,2.4-3.1,3.4c0.4,0.1,0.8,0.2,1.2,0.2c2.1,0,5.6-3.8,6.9-5.3
	c2.4-2.7,5-5.1,7.3-7.8l0.3-0.4l7-0.6l-5.7,10c2.2-2.8,4.1-5.9,6-8.9l0.3-0.5l7.5-0.6l-6.6,12.1c0.4-0.4,0.7-0.7,1-1.1
	c1-1,1.9-2,2.9-3c0.6-0.6,1.2-1.2,1.7-1.8c0.2-0.2,0.4-0.4,0.6-0.6c0.3-0.3,0.6-0.7,0.9-1l1.3-1.4c0.3-0.8,0.5-1.7,0.9-2.5
	c0.3-0.7,0.7-1.5,1.6-1.5c0.6,0,1.1,0.3,1.4,0.8l0,0l0,0c0.3,0.6,0.2,1,0.1,1.6c0.3,0.1,0.7,0.1,0.9,0.1c1.1,0.1,2.4,0.4,3.2,1.1
	c0.8,0.7,1.2,1.7,1.1,2.8c-0.1,1-1.1,2.7-2,4.1c0.2-0.2,0.4-0.4,0.6-0.6l0.5-0.6c1-1.1,2.1-2.3,3.2-3.4c0.5-0.5,1-1.1,1.6-1.5
	c0.2-0.1,0.3-0.3,0.5-0.4c0.1-0.1,0.1-0.1,0.2-0.2c0.9-0.7,1.9-1.4,2.9-1.9c1.1-0.5,2.3-0.9,3.5-0.9c1.1,0,2.1,0.4,2.7,1.3
	c0.7,0.9,0.8,2,0.7,3c-0.2,2.1-1.5,3.7-3.1,5c-1.7,1.4-3.8,2.2-5.9,2.7c-0.2,0.5-0.4,1.1-0.6,1.6c-0.1,0.2-0.1,0.3-0.2,0.5
	c0.9,0,1.8-0.4,2.6-0.9c0.7-0.4,1.4-1,2-1.5c1-0.9,2-1.8,2.9-2.7c1-1,2-1.9,2.9-2.9c0.4-0.4,0.9-0.9,1.3-1.3l1.3-1.3
	c0.2-0.2,0.4-0.4,0.6-0.7c0.4-0.4,0.8-0.9,1.2-1.3c0.2-0.2,0.4-0.4,0.5-0.6c0.1-0.2,0.3-0.5,0.4-0.7c0.4-0.7,1-1.6,1.9-1.6
	c0.5,0,0.9,0.2,1.2,0.6c0.3,0.3,0.4,0.8,0.4,1.2c0,0.6-0.5,1.1-0.9,1.5c-0.1,0.1-0.3,0.4-0.3,0.5c0.1,0.4,0.6,1.5,0.8,1.9
	c0.6,1.4,0.9,2.8,0.8,4.3c0.8-0.8,1.7-1.7,2.5-2.6c0.8-0.9,1.7-1.8,2.6-2.6c0.5-0.5,1.2-1.1,1.8-1.4c0.5-0.2,0.9-0.3,1.4-0.4
	l2.8-0.1l-1.9,2.1c0,0,0,0.1-0.1,0.1l-0.1,0.2l-0.2,0.1c-0.6,0.4-1.2,1-1.8,1.5c0,0,0,0,0,0H180v3.4h-37.9v-2.1
	c-0.5,0.5-0.9,1-1.3,1.5c-0.6,0.6-1.1,1.3-1.7,1.9c-1.1,1.2-2.3,2.4-3.5,3.6c-0.8,0.8-1.7,1.5-2.6,2.2c-1.3,0.9-2.9,1.5-4.5,1.5
	c-1.2,0-2.4-0.4-3.2-1.3c-0.8-0.8-1.2-1.8-1.2-2.8c-0.2,0.2-0.4,0.3-0.5,0.5c-0.9,0.8-1.8,1.5-2.7,2.1c-1.4,0.9-2.9,1.5-4.6,1.5
	c-1.6,0-3-0.5-4-1.8c-0.7-0.9-1-1.9-1.1-2.9c-1,1-2,2-3.1,2.9c-0.9,0.8-2.3,1.8-3.5,1.8c-1.1,0-2.1-0.5-2.8-1.4
	c-0.6-1-0.8-2.1-0.7-3.2c0.2-1.9,1.1-3.7,2.1-5.3c0.4-0.7,0.9-1.3,1.4-1.9l-1,1.1c-0.3,0.3-0.6,0.7-0.9,1c-0.4,0.4-0.8,0.9-1.3,1.2
	c-0.1,0.1-0.2,0.2-0.3,0.3c-0.8,0.9-1.6,1.8-2.4,2.6l-0.1,0.1l0,0c-1.6,1.8-5,5.4-7.6,5.4c-1.1,0-2.1-0.4-2.7-1.3
	c-0.4-0.6-0.7-1.3-0.7-2c-0.4,0.5-0.8,1-1.3,1.4c-1,1-2.3,1.9-3.8,1.9c-1.1,0-2-0.4-2.6-1.3c-0.6-0.9-0.8-2-0.7-3
	c0-0.4,0.1-0.8,0.2-1.2c-2.2,2.3-5.4,5.3-8.3,5.3c-0.8,0-1.7-0.2-2.4-0.5c-0.6-0.2-1.2-0.6-1.7-0.9c-0.9,0.5-1.9,0.9-2.9,1.2
	c-1.2,0.4-2.5,0.5-3.8,0.5c-1.4,0-2.8-0.3-3.9-1.1c-1.1-0.8-1.7-1.9-1.6-3.2c0,0,0-0.1,0-0.1H20.7v-3.4h36.1v0.4
	c1-0.6,2.2-0.9,3.3-0.9c0.9,0,1.8,0.2,2.7,0.5c0.9,0.3,1.8,0.8,2.7,1.3c0.6-0.7,1-1.5,1.5-2.3c0.6-1.1,1.2-2.3,1.7-3.5
	c-1.7-0.3-3.1-1-4.3-2.3c-1.4-1.6-1.9-3.5-1.9-5.6h-6.2l-1-4.9h-5.5l-1,4.9h-7.9c-0.1,0.4-0.3,0.9-0.4,1.3c-0.7,2-1.8,3.8-3.5,5.1
	c-1.7,1.3-3.7,1.8-5.8,1.8c-3.5,0-6.7-1.1-8.5-4.3c-1.7-3-2.3-6.5-2.5-9.9L20,99.3l8.5-0.9l0.1,1.2c0.1,1.2,0.3,2.6,0.7,3.7
	c0.3,0.8,0.9,1.6,1.8,1.6c0.5,0,0.9-0.2,1.2-0.6c0.4-0.6,0.6-1.3,0.6-2.1c0-0.7-0.2-1.4-0.5-2c-0.5-0.7-2-1.4-2.8-1.7
	c-2.6-1-5.1-2.6-6.7-5c-1.5-2.3-2-5.1-2-7.9c0-2,0.3-4,1-5.9c0.7-1.8,1.7-3.4,3.2-4.6c1.7-1.3,3.8-1.7,5.9-1.7
	c2.8,0,5.3,0.9,7.1,3.1c1.9,2.4,2.6,6.1,2.8,9.1l0.1,1.1l-7.1,0.7c1.4,0.7,2.7,1.4,3.8,2.4c1.4,1.3,2.4,2.8,3,4.6
	c0.5,1.4,0.8,2.9,0.9,4.4l6.6-25h8.9l7.1,26.8c0.1-0.2,0.2-0.3,0.3-0.5V74h8.7l7,13.1V74h31.2V82.4L111.3,82.4z M32.4,87l0-0.4
	c-0.1-0.9-0.3-2.3-0.8-3.1c-0.3-0.4-0.7-0.6-1.2-0.6c-0.3,0-0.6,0.1-0.7,0.3c-0.3,0.4-0.4,0.9-0.4,1.4c0,0.4,0.1,0.7,0.3,1l0,0
	c0.2,0.3,1.2,0.8,1.6,0.9C31.6,86.6,32,86.8,32.4,87L32.4,87z M140,118.7h40v3.4h-40V118.7L140,118.7z M20.7,114.6H63v3.4H20.7
	V114.6L20.7,114.6z M150,86.6V74h8.5v32.3h-8.1l-6-12.5v12.5h-8.5V74h8L150,86.6L150,86.6z M168.7,84.5v3.6h10.2v10h-10.2v5H180
	v10.8h-20.2V74.2h19.8v10.3H168.7L168.7,84.5z M130.7,115.7c-0.1,0.1-0.3,0.3-0.4,0.4c-0.8,1-1.8,1.9-2.7,2.8c0.6,0.1,1,0.4,1.4,0.9
	c0.2,0.3,0.3,0.6,0.4,0.9C130.1,119.1,130.5,117.4,130.7,115.7L130.7,115.7z M76.9,99.5l-1.2-2.3c-0.2,0-0.3,0.1-0.5,0.1
	c-0.5,0.1-1.1,0.3-1.6,0.6v6.2C74.6,102.5,75.7,100.9,76.9,99.5L76.9,99.5z M69.9,111.4c0.8-1.7,1.6-3.4,2.5-5.1h-5.5
	c-0.1,0.3-0.1,0.6-0.1,0.9c-0.1,1.1,0,2.3,0.7,3.1C68.1,111.1,69,111.3,69.9,111.4L69.9,111.4z M74,94.1l-0.4-0.7v0.8
	C73.8,94.1,73.9,94.1,74,94.1L74,94.1z M78,109c0.3-0.2,0.6-0.4,0.9-0.7c0.8-0.6,1.5-1.3,2.1-2h-0.4l-0.9-1.7
	C79.1,106,78.5,107.5,78,109L78,109z M63.1,122.3c-0.4-0.2-0.8-0.4-1.3-0.5c-0.6-0.2-1.2-0.4-1.9-0.4c-0.6,0-1.2,0.1-1.7,0.4
	c-0.2,0.1-0.4,0.3-0.4,0.6c0,0.2,0.2,0.4,0.4,0.5c0.5,0.4,1.2,0.5,1.8,0.5C61.1,123.3,62.2,122.9,63.1,122.3L63.1,122.3z M119,117
	c0.5-0.3,1-0.7,1.4-1.2c0.8-0.9,1.7-2,1.9-3.2c-0.5,0.5-1.2,1.3-1.5,1.6C120.2,115.1,119.6,116,119,117L119,117z M53.4,92.6
	l-0.9-4.1l-0.9,4.1H53.4L53.4,92.6z M119.2,90.2c0,1.7,0.1,4.4,1,5.9c0.5,0.9,1.2,1.4,2.2,1.4c1,0,1.7-0.5,2.3-1.4
	c0.9-1.5,1-4.6,1-6.4c0-1.7-0.1-4.1-1-5.6c-0.5-0.9-1.2-1.4-2.3-1.4c-1,0-1.7,0.6-2.2,1.4C119.3,85.8,119.2,88.5,119.2,90.2
	L119.2,90.2z"/>
<path class="st0" d="M55.3,121.6H21.1v-2.5h35.2v0.9c0.1-0.1,0.3-0.2,0.5-0.4c1-0.7,2.1-0.9,3.3-0.9c0.9,0,1.7,0.2,2.5,0.5
	c1,0.4,2,0.9,3,1.4c0.7-0.8,1.2-1.8,1.7-2.7c0.7-1.3,1.3-2.6,1.9-4c-1.8-0.2-3.3-0.9-4.6-2.3c-1.4-1.6-1.9-3.6-1.7-5.7h-6.3l-1-4.9
	h-6.3l-1,4.9h-7.9c-0.1,0.5-0.3,1-0.5,1.6c-0.7,1.9-1.8,3.7-3.4,4.9c-1.6,1.2-3.5,1.7-5.5,1.7c-3.3,0-6.4-1-8.1-4
	c-1.6-2.9-2.3-6.4-2.4-9.7l0-0.7l7.6-0.8l0.1,0.8c0.1,1.2,0.3,2.7,0.8,3.8c0.4,1,1.1,1.8,2.2,1.8c0.7,0,1.2-0.3,1.5-0.8
	c0.5-0.7,0.6-1.5,0.6-2.3c0-0.8-0.2-1.5-0.6-2.2c-0.5-0.8-2.1-1.5-3-1.9c-2.5-1-5-2.5-6.5-4.8c-1.5-2.3-2-5-2-7.6c0-2,0.3-3.9,1-5.7
	c0.6-1.7,1.6-3.2,3.1-4.4C26.9,74.3,29,74,31,74c2.7,0,5.1,0.8,6.8,2.9c1.9,2.4,2.5,6,2.7,8.9l0,0.7l-7.6,0.8l-0.1-0.7
	c-0.1-1-0.3-2.5-0.9-3.3c-0.4-0.6-0.9-0.8-1.6-0.8c-0.5,0-0.8,0.1-1.1,0.5c-0.3,0.5-0.5,1.1-0.5,1.7c0,0.4,0.1,0.8,0.4,1.2l0,0
	c0.3,0.5,1.3,0.9,1.8,1.1c2.1,0.8,4.7,1.9,6.4,3.5c1.4,1.2,2.3,2.7,2.9,4.5c0.6,1.9,0.9,3.8,0.9,5.8c0,0.7,0,1.3-0.1,2l7.4-28.1h8.2
	L64,102c0.3-0.5,0.5-1,0.9-1.5v-26h8l7.7,14.4V74.5h8.3v23.3c0,0.3,0,0.5,0,0.8v7.3h-3.5c-0.2,0.3-0.4,0.5-0.7,0.8
	c-2.4,2.7-5.4,4.7-8.7,6.1c-0.9,2.1-2,4.3-3.4,6.2c-1,1.4-2.2,2.7-3.6,3.8c0.2,0.1,0.4,0.2,0.6,0.3c0.5,0.2,0.9,0.3,1.4,0.3
	c2.3,0,5.9-3.9,7.2-5.4c2.4-2.7,5-5.1,7.3-7.8l0.2-0.2l6-0.5L86,119.6c-0.5,0.9-1,1.8-1.4,2.7c0,0,0,0.1-0.1,0.2
	c0.9-0.8,2.1-2.4,2.4-2.8c2.3-3,4.5-6.3,6.5-9.5l0.2-0.3l6.5-0.5l-6.2,11.4c-0.4,0.7-0.7,1.3-1,2c0.1-0.1,0.2-0.2,0.3-0.2
	c0.9-0.7,1.7-1.6,2.5-2.4c1-1,1.9-2,2.9-3c0.6-0.6,1.2-1.2,1.7-1.8c0.2-0.2,0.4-0.4,0.6-0.6c0.3-0.3,0.6-0.7,0.9-1l1.4-1.5l0,0
	c0.3-0.8,0.5-1.7,0.9-2.5c0.2-0.5,0.6-1.3,1.2-1.3c0.4,0,0.8,0.2,1,0.6l0,0l0,0c0.3,0.6,0.1,1,0,1.6c0,0,0,0.1,0,0.2
	c0.3,0.1,1.1,0.2,1.3,0.3c1,0.1,2.2,0.4,3,1c0.7,0.6,1,1.5,0.9,2.4c-0.1,1.3-2.1,4.2-2.9,5.2c-0.3,0.4-0.5,0.7-0.8,1.1
	c-0.1,0.2-0.3,0.4-0.4,0.5c-0.1,0.2-0.4,0.5-0.7,1c0.1-0.1,0.3-0.2,0.3-0.3c1.3-1.2,2.5-2.5,3.7-3.8l0.5-0.6c1-1.1,2.1-2.3,3.2-3.4
	c0.5-0.5,1-1,1.6-1.5c0.2-0.1,0.3-0.3,0.5-0.4c0.1-0.1,0.1-0.1,0.2-0.2c0.9-0.7,1.8-1.3,2.8-1.8c1-0.5,2.1-0.9,3.3-0.9
	c0.9,0,1.8,0.3,2.4,1.1c0.6,0.8,0.7,1.8,0.6,2.7c-0.2,2-1.4,3.5-2.9,4.7c-1.8,1.4-3.8,2.2-6,2.7c-0.2,0.6-0.5,1.2-0.7,1.9
	c-0.1,0.3-0.2,0.7-0.2,1c0,0,0,0.1,0,0.1c0.1,0,0.3,0,0.4,0c1,0,2.1-0.5,2.9-1c0.7-0.4,1.4-1,2.1-1.6c1-0.9,2-1.8,2.9-2.7
	c1-1,2-1.9,3-2.9c0.4-0.4,0.9-0.9,1.3-1.3l1.3-1.3c0.2-0.2,0.4-0.4,0.6-0.7c0.4-0.4,0.8-0.9,1.2-1.3c0.2-0.2,0.4-0.5,0.6-0.7
	c0.1-0.2,0.3-0.5,0.4-0.7c0.3-0.6,0.8-1.3,1.5-1.3c0.3,0,0.6,0.2,0.9,0.4c0.2,0.2,0.3,0.6,0.3,0.9c0,0.4-0.5,1-0.8,1.3
	c-0.1,0.2-0.4,0.5-0.4,0.8c0,0.4,0.6,1.7,0.8,2.1c0.7,1.5,0.9,3,0.8,4.6c0,0.2,0,0.4-0.1,0.7c1.1-1.1,2.3-2.3,3.4-3.4
	c0.8-0.9,1.7-1.8,2.6-2.6c0.5-0.4,1.1-1,1.7-1.3c0.4-0.2,0.7-0.3,1.2-0.3l1.8-0.1l-1.2,1.3c0,0-0.1,0.1-0.1,0.1l-0.1,0.1l-0.1,0.1
	c-0.7,0.4-1.3,1-1.9,1.5c-0.9,0.9-1.8,1.8-2.6,2.8c-0.6,0.6-1.1,1.3-1.7,1.9c-1.1,1.2-2.3,2.4-3.5,3.6c-0.8,0.7-1.6,1.5-2.5,2.1
	c-1.3,0.8-2.7,1.4-4.2,1.4c-1.1,0-2.1-0.4-2.9-1.2c-0.8-0.8-1.1-1.8-1-2.9c0-0.3,0.1-0.6,0.2-0.9c-0.5,0.5-1,0.9-1.5,1.3
	c-0.8,0.7-1.7,1.5-2.7,2.1c-1.3,0.8-2.8,1.4-4.3,1.4c-1.5,0-2.7-0.5-3.6-1.6c-0.8-1.1-1.1-2.4-1.1-3.7c-1.2,1.3-2.5,2.6-3.8,3.7
	c-0.8,0.7-2.1,1.7-3.2,1.7c-1,0-1.9-0.4-2.4-1.2c-0.6-0.9-0.7-1.9-0.6-3c0.2-1.8,1-3.6,2-5.1c0.7-1,1.4-2,2.3-2.9
	c-0.4,0-0.8,0-1.2,0l-1.5,1.6c-0.3,0.3-0.6,0.7-0.9,1c-0.3,0.4-0.8,0.9-1.2,1.2c-0.1,0.1-0.2,0.2-0.3,0.3c-0.8,0.9-1.6,1.8-2.4,2.6
	l-0.1,0.1l0,0c-1.5,1.6-4.9,5.3-7.2,5.3c-1,0-1.8-0.3-2.4-1.1c-0.6-0.8-0.7-1.8-0.7-2.7c0-0.1,0-0.2,0-0.3c-0.6,0.8-1.3,1.7-2.1,2.4
	c-0.9,0.9-2.1,1.7-3.5,1.7c-0.9,0-1.7-0.4-2.3-1.1c-0.6-0.8-0.7-1.8-0.6-2.7c0.1-1.1,0.6-2.3,1-3.3c0,0,0,0,0-0.1
	c-0.2,0.2-0.4,0.4-0.6,0.7c-1.9,2.2-5.8,6.3-8.9,6.3c-0.8,0-1.5-0.2-2.3-0.5c-0.7-0.3-1.3-0.6-1.8-1c-1,0.5-2,1-3,1.3
	c-1.2,0.3-2.4,0.5-3.7,0.5c-1.3,0-2.6-0.2-3.7-1c-1-0.7-1.5-1.6-1.4-2.8C55.2,122,55.3,121.8,55.3,121.6L55.3,121.6z M126.6,119.3
	c0.2,0,0.3-0.1,0.5-0.1c0.6,0,1.2,0.3,1.6,0.8c0.4,0.5,0.4,1.2,0.4,1.8c0,0.3-0.1,0.5-0.2,0.7c0.4-0.5,0.7-1.2,0.9-1.6
	c0.9-2,1.3-4.4,1.5-6.6c-0.5,0.5-0.9,0.9-1.3,1.4c-1,1.1-2.1,2.1-3.1,3.2C126.8,119.1,126.7,119.2,126.6,119.3L126.6,119.3z
	 M140.4,119.1h39.2v2.5h-39.2V119.1L140.4,119.1z M142.5,115.1h37v2.5h-37V115.1L142.5,115.1z M21.1,115.1h41.4v2.5H21.1V115.1
	L21.1,115.1z M104.2,83.3v22.6h-8V83.3h-6.7v-8.9h21.3v8.9H104.2L104.2,83.3z M110.7,90.2c0-4,0.6-8.5,3-11.8c2.1-3,5-4.4,8.6-4.4
	c3.6,0,6.6,1.4,8.7,4.3c2.4,3.3,3,7.7,3,11.7c0,2.9-0.3,6.1-1.3,8.9c-0.8,2.2-2,4.1-3.8,5.5c-1.8,1.5-4,2-6.3,2
	c-2.2,0-4.5-0.5-6.3-1.7c-1.9-1.3-3.2-3.3-4.1-5.4C111.1,96.4,110.7,93.2,110.7,90.2L110.7,90.2z M150.4,88.6V74.5h7.6v31.4h-7.3
	l-6.7-14v14h-7.6V74.5h7.3L150.4,88.6L150.4,88.6z M168.3,84v4.5h10.2v9.1h-10.2v5.9h11.3v9.9h-19.3V74.6h19V84H168.3L168.3,84z
	 M77.5,99.5L76,96.7c-0.3,0-0.6,0.1-0.8,0.2c-0.7,0.2-1.3,0.4-1.9,0.7v8.1C74.5,103.5,75.9,101.4,77.5,99.5L77.5,99.5z M73.1,105.9
	h-6.6c-0.1,0.4-0.2,0.9-0.2,1.3c-0.1,1.2,0,2.5,0.8,3.4c0.8,0.9,1.9,1.2,3,1.2C71.1,109.8,72,107.8,73.1,105.9L73.1,105.9z
	 M74.7,94.4l-1.5-2.8v3.1C73.7,94.6,74.2,94.5,74.7,94.4L74.7,94.4z M77.2,110c0.7-0.4,1.4-0.8,2-1.3c1-0.8,2-1.8,2.8-2.8h-1.1
	l-1.2-2.3C78.7,105.7,77.9,107.8,77.2,110L77.2,110z M63.9,122.2c-0.6-0.3-1.3-0.7-1.9-0.9c-0.6-0.2-1.3-0.4-2-0.4
	c-0.7,0-1.4,0.1-1.9,0.5c-0.3,0.2-0.6,0.5-0.6,0.9c0,0.4,0.3,0.7,0.6,0.9c0.6,0.4,1.3,0.5,2,0.5C61.5,123.8,62.8,123.2,63.9,122.2
	L63.9,122.2z M118,118.1c1-0.4,1.9-1.1,2.7-1.9c0.9-1,1.9-2.3,2.1-3.7c0-0.2,0-0.4-0.1-0.5l0,0c0,0,0,0,0,0c-0.6,0.1-1.9,1.7-2.2,2
	C119.5,115.2,118.7,116.6,118,118.1L118,118.1z M54,93l-1.4-6.6L51.1,93H54L54,93z M118.7,90.2c0,1.8,0.1,4.6,1.1,6.1
	c0.6,1,1.4,1.6,2.6,1.6c1.2,0,2-0.6,2.6-1.6c1-1.6,1.1-4.8,1.1-6.6c0-1.8-0.2-4.3-1.1-5.8c-0.6-1-1.4-1.6-2.6-1.6
	c-1.2,0-2,0.7-2.5,1.6C118.9,85.6,118.7,88.4,118.7,90.2L118.7,90.2z"/>
<linearGradient id="SVGID_1_" gradientUnits="userSpaceOnUse" x1="100.0257" y1="76.4895" x2="100.0257" y2="105.53">
	<stop  offset="0" style="stop-color:#FFF350"/>
	<stop  offset="0.1212" style="stop-color:#F2CC3D"/>
	<stop  offset="0.2146" style="stop-color:#EAB331"/>
	<stop  offset="0.2596" style="stop-color:#E7A630"/>
	<stop  offset="0.3436" style="stop-color:#DE832E"/>
	<stop  offset="0.4566" style="stop-color:#D14A2A"/>
	<stop  offset="0.4606" style="stop-color:#D0482A"/>
	<stop  offset="0.5228" style="stop-color:#CE442A"/>
	<stop  offset="0.5806" style="stop-color:#C73929"/>
	<stop  offset="0.6364" style="stop-color:#BB2627"/>
	<stop  offset="0.6491" style="stop-color:#B82127"/>
	<stop  offset="0.7253" style="stop-color:#A1181D"/>
	<stop  offset="0.8264" style="stop-color:#890F13"/>
	<stop  offset="0.9205" style="stop-color:#7B090D"/>
	<stop  offset="1" style="stop-color:#76070B"/>
</linearGradient>
<path class="st1" d="M21.2,100.4l6.2-0.7c0.1,1.8,0.4,3.1,0.8,4.1c0.7,1.5,1.6,2.3,2.9,2.3c0.9,0,1.6-0.4,2.2-1.2
	c0.5-0.8,0.8-1.7,0.8-2.7c0-1-0.2-1.8-0.7-2.6c-0.5-0.8-1.6-1.5-3.3-2.2c-2.9-1.1-4.9-2.6-6.1-4.5C22.6,91,22,88.6,22,85.6
	c0-1.9,0.3-3.7,0.9-5.5c0.6-1.7,1.6-3,2.8-4c1.3-1,3-1.5,5.2-1.5c2.7,0,4.8,0.9,6.2,2.7c1.4,1.8,2.3,4.6,2.5,8.5l-6.2,0.6
	c-0.2-1.7-0.5-2.9-1-3.7c-0.5-0.8-1.2-1.1-2.2-1.1c-0.8,0-1.3,0.3-1.7,0.9c-0.4,0.6-0.6,1.3-0.6,2.1c0,0.6,0.2,1.1,0.5,1.6
	c0.3,0.5,1,0.9,2.2,1.4c2.9,1.1,4.9,2.2,6.1,3.3c1.2,1.1,2.1,2.5,2.7,4.1c0.6,1.6,0.8,3.5,0.8,5.5c0,2.4-0.4,4.6-1.1,6.6
	c-0.7,2-1.8,3.6-3.1,4.6c-1.3,1-3,1.6-5.1,1.6c-3.6,0-6.1-1.2-7.5-3.7C22.2,107.3,21.4,104.1,21.2,100.4L21.2,100.4z M56.2,100.2
	L56.2,100.2l1,4.9h6.8l-7.9-30H49l-7.9,30h6.7l1-4.9H56.2L56.2,100.2z M54.9,93.7L54.9,93.7h-4.7L52.5,83L54.9,93.7L54.9,93.7z
	 M65.6,75.2L65.6,75.2v30h6.9V88.7l8.8,16.4h6.9v-30h-6.9v16.6l-8.9-16.6H65.6L65.6,75.2z M90.3,75.2L90.3,75.2v7.4H97v22.6h6.5
	V82.6h6.7v-7.4H90.3L90.3,75.2z M111.5,90.2L111.5,90.2c0,3.5,0.5,6.4,1.5,8.7c1,2.3,2.2,4,3.8,5.1c1.6,1.1,3.5,1.6,5.9,1.6
	c2.3,0,4.3-0.6,5.9-1.9c1.6-1.2,2.8-3,3.6-5.2c0.8-2.2,1.2-5.1,1.2-8.6c0-4.8-1-8.6-2.9-11.2c-1.9-2.7-4.6-4-8.1-4
	c-3.4,0-6.1,1.4-8,4.1C112.4,81.5,111.5,85.3,111.5,90.2L111.5,90.2z M118,90.2L118,90.2c0-3,0.4-5.2,1.2-6.6c0.8-1.3,1.9-2,3.2-2
	c1.4,0,2.5,0.6,3.3,1.9c0.8,1.3,1.2,3.4,1.2,6.2c0,3.3-0.4,5.7-1.2,7c-0.8,1.3-1.9,1.9-3.3,1.9c-1.4,0-2.4-0.7-3.2-2
	C118.4,95.4,118,93.3,118,90.2L118,90.2z M137.1,75.2L137.1,75.2v30h6.1V88.7l7.9,16.4h6.2v-30h-6.2v16.6l-8-16.6H137.1L137.1,75.2z
	 M161,75.3L161,75.3v37.4h17.8v-8.5h-11.3v-7.4h10.2v-7.6h-10.2v-5.9h11v-8H161L161,75.3z"/>
<polygon class="st2" points="21.9,115.8 61.8,115.8 61.8,116.8 21.9,116.8 21.9,115.8 "/>
<polygon class="st2" points="21.9,119.8 55.6,119.8 55.6,120.9 21.9,120.9 21.9,119.8 "/>
<polygon class="st2" points="143.3,115.8 178.8,115.8 178.8,116.8 143.3,116.8 143.3,115.8 "/>
<polygon class="st2" points="141.1,119.8 178.8,119.8 178.8,120.9 141.1,120.9 141.1,119.8 "/>
<path d="M128.5,125.5c-1,0-1.9-0.3-2.6-1c-0.7-0.7-1-1.5-0.9-2.4c0.1-0.6,0.3-1.2,0.7-1.6c0.4-0.4,0.9-0.7,1.4-0.7
	c0.5,0,0.9,0.2,1.1,0.6c0.2,0.4,0.3,0.8,0.3,1.4c0,0.4-0.2,0.9-0.5,1.2c-0.3,0.4-0.7,0.6-1,0.6c0,0,0,0,0,0c0.1,0,0.1,0.1,0.2,0.1
	c0.2,0.1,0.4,0.2,0.6,0.2c1,0,1.8-0.9,2.6-2.7c0.8-1.8,1.3-4.3,1.6-7.4l0.1-0.7c-0.7,0.6-1.5,1.4-2.3,2.4c-0.7,0.8-1.4,1.5-2.2,2.3
	c-0.3,0.3-0.6,0.6-0.9,0.9c-2.8,2.8-4.9,4.6-6.3,5.5c-1.4,0.9-2.8,1.3-4,1.3c-1.4,0-2.5-0.5-3.2-1.4c-0.8-1-1.1-2.2-0.9-3.7
	c0-0.4,0.1-0.9,0.2-1.3c0,0,0,0-0.1,0.1l-0.3,0.3c-3.7,4.1-6.1,6-7.4,6c-0.9,0-1.5-0.3-2-1c-0.4-0.6-0.6-1.5-0.5-2.6
	c0.1-1.5,0.8-3.1,1.9-4.9c1-1.5,2.1-2.8,3.4-3.8c-0.3,0-0.6,0.1-0.8,0.1c-0.2,0-0.5,0-0.7,0c-0.2,0-0.5,0-0.7,0c-0.2,0-0.4,0-0.6,0
	c-0.1,0-0.1,0.1-0.2,0.2l-1.5,1.6c-0.2,0.2-0.5,0.6-0.9,1l-0.1,0.1c-0.5,0.6-0.9,1-1.2,1.1l-0.4,0.4c-0.9,1-1.7,1.8-2.4,2.7
	l-0.1,0.1c-3.2,3.4-5.4,5.1-6.9,5.1c-0.8,0-1.5-0.3-2-0.9c-0.5-0.6-0.6-1.4-0.5-2.4c0.1-0.6,0.2-1.2,0.5-2c0.1-0.4,0.4-0.8,0.6-1.5
	c-1.8,2.6-3.2,4.4-4.1,5.2c-1.1,1.1-2.2,1.6-3.1,1.6c-0.8,0-1.4-0.3-1.8-0.9c-0.4-0.6-0.6-1.4-0.5-2.4c0.1-0.8,0.4-1.8,1-3.1
	c0.4-0.9,1.1-2.2,2.1-3.8c-1,1.1-2,2.2-3,3.3l-0.5,0.5c-3.6,4.1-6.4,6.1-8.5,6.1c-0.7,0-1.4-0.1-2.1-0.4c-0.6-0.3-1.3-0.7-2-1.2
	c-1,0.6-2.1,1.1-3.2,1.4c-1.2,0.3-2.4,0.5-3.5,0.5c-1.4,0-2.5-0.3-3.4-0.9c-0.9-0.6-1.2-1.4-1.2-2.4c0.1-0.9,0.5-1.6,1.3-2.2
	c0.8-0.6,1.8-0.8,3-0.8c0.7,0,1.5,0.2,2.4,0.5c0.8,0.3,1.9,0.8,3.2,1.6c0.6-0.7,1.3-1.7,2.1-3.1c0.8-1.4,1.5-2.9,2.2-4.7
	c-2.1-0.1-3.7-0.8-4.9-2.1c-1.2-1.4-1.8-3.2-1.6-5.4c0.3-3,1.7-5.6,4.3-7.8c2.6-2.2,5.7-3.3,9.3-3.3c0.8,0,1.3,0.1,1.6,0.2
	c0.3,0.1,0.5,0.4,0.5,0.7c0,0.2-0.1,0.5-0.7,0.5c-0.1,0-0.2,0-0.3,0c-0.1,0-0.1,0-0.2,0c-1.1,0-2.1,0.1-3,0.4
	c-0.9,0.2-1.9,0.6-2.7,1.1c-1.7,1-3.1,2.4-4.4,4.3c-1.2,1.9-1.9,3.7-2.1,5.3c-0.1,1.6,0.2,2.9,1,3.8c0.8,0.9,1.9,1.4,3.5,1.4h0.3
	c2.3-5.2,4.8-9.5,7.5-12.7c2.8-3.3,5.2-4.9,7.3-4.9c1,0,1.8,0.4,2.4,1.1c0.6,0.7,0.8,1.7,0.7,2.9c-0.2,2.4-1.5,4.9-4,7.6
	c-2.4,2.6-5.3,4.7-8.7,6.1c-1,2.5-2.1,4.6-3.4,6.2c-1.2,1.6-2.6,3-4.1,4.1c0.4,0.3,0.9,0.6,1.3,0.7c0.5,0.2,1,0.3,1.6,0.3
	c1.8,0,4.3-1.9,7.6-5.6c1.2-1.3,2.4-2.6,3.7-3.9c1.2-1.3,2.5-2.6,3.7-3.9l0.1-0.1l4.8-0.4l-5.3,9.4c-0.6,1.1-1.1,2-1.5,2.7
	c-0.5,0.9-0.5,1.1-0.5,1.2c0,0.1,0,0.1,0.1,0.2c0.1,0.1,0.1,0.1,0.1,0.1c0.3,0,1.1-0.5,3.5-3.5c1.9-2.4,4.1-5.6,6.5-9.6l0.1-0.1
	l5.2-0.4l-5.7,10.5c-0.5,0.9-0.8,1.6-1.1,2.1c-0.3,0.6-0.3,0.9-0.3,1c0,0,0,0.1,0,0.1c0,0,0,0,0.1,0c0.2,0,0.6-0.1,1.3-0.7
	c0.6-0.5,1.5-1.3,2.6-2.5c0.7-0.7,1.6-1.7,2.9-3c0.6-0.7,1.2-1.3,1.7-1.8c0.2-0.2,0.3-0.4,0.6-0.6c0.4-0.4,0.7-0.7,0.9-1l1.5-1.6
	l0-0.1c1-3.1,1.3-3.4,1.6-3.4c0.2,0,0.4,0.1,0.5,0.3c0.2,0.3,0.1,0.7,0,1c0,0.1,0,0.2,0,0.3c0,0.3,0,0.5,0.2,0.6
	c0.1,0.1,0.5,0.2,1.6,0.4c1.3,0.2,2.2,0.5,2.7,0.9c0.5,0.4,0.8,1.1,0.7,1.9c-0.1,0.8-1,2.4-2.8,5c-0.2,0.4-0.5,0.7-0.6,0.9l-0.1,0.2
	c-0.1,0.1-0.1,0.2-0.2,0.4l-0.1,0.2c-1.2,1.8-1.5,2.5-1.6,2.7c0,0,0,0,0,0.1c0,0,0,0,0.1,0c0.2,0,1.1-0.5,5.6-5.3l0.6-0.6
	c1.3-1.4,2.3-2.5,3.2-3.4c0.5-0.5,1-1,1.5-1.5c0.2-0.1,0.3-0.3,0.5-0.4c0.1-0.1,0.1-0.1,0.2-0.2c0.9-0.7,1.8-1.3,2.7-1.7
	c1.2-0.6,2.2-0.8,3-0.8c0.8,0,1.5,0.3,1.9,0.9c0.4,0.6,0.6,1.4,0.5,2.4c-0.1,1.6-1,3-2.7,4.3c-1.6,1.3-3.6,2.2-6.1,2.7
	c-0.3,0.9-0.6,1.6-0.8,2.2c-0.2,0.5-0.2,0.9-0.3,1.1c0,0.3,0,0.4,0.2,0.5c0.1,0.1,0.3,0.2,0.8,0.2c1,0,2.1-0.4,3.2-1.1
	c1.2-0.7,2.9-2.2,5.1-4.4c0.8-0.8,1.8-1.8,3-2.9c0.5-0.5,0.9-0.9,1.3-1.3l1.9-2c1-1.1,1.7-1.8,1.9-2.1c0.1-0.2,0.2-0.4,0.4-0.7
	c0.4-0.7,0.7-1.1,1.1-1.1c0.1,0,0.3,0,0.5,0.2c0.1,0.1,0.2,0.3,0.2,0.5c0,0.1-0.1,0.3-0.6,1c-0.3,0.4-0.5,0.8-0.6,1.1
	c0,0.1,0.1,0.6,0.9,2.3c0.6,1.4,0.9,2.8,0.7,4.4c-0.1,0.8-0.2,1.4-0.5,2.1c-0.1,0.2-0.2,0.3-0.3,0.5c1.5-1.4,3.1-3,4.9-4.9
	c2.1-2.2,3.4-3.4,4.2-3.8c0.4-0.2,0.6-0.2,1-0.3l0.5,0l-0.3,0.4c-0.1,0.1-0.1,0.1-0.1,0.2l0,0l0,0c-1.1,0.7-2.6,2.1-4.6,4.4
	c-0.7,0.8-1.3,1.5-1.7,1.9c-2.6,2.9-4.6,4.7-5.9,5.6C131.1,125.1,129.8,125.5,128.5,125.5z M59.9,120.4c-0.9,0-1.6,0.2-2.2,0.5
	c-0.6,0.3-0.8,0.8-0.9,1.3c0,0.5,0.2,1,0.8,1.4c0.6,0.4,1.4,0.6,2.3,0.6c1.7,0,3.4-0.7,4.9-2.2c-1-0.6-1.9-1-2.7-1.3
	C61.4,120.6,60.6,120.4,59.9,120.4z M122.8,111.4c-0.4,0-1.2,0.4-2.7,2.2c-1.1,1.5-2.2,3.2-3.1,5.3c1.5-0.3,2.8-1.2,4.1-2.4
	c1.3-1.4,2.1-2.7,2.2-4c0-0.3,0-0.6-0.2-0.8C123,111.4,122.8,111.4,122.8,111.4z M85.4,95.9c-2.6,0-5.9,5.5-9.1,15
	c1-0.4,2.1-1,3.2-1.9c1.2-1,2.4-2.2,3.6-3.7c1-1.3,1.9-2.7,2.6-4c0.7-1.3,1-2.4,1.1-3.3c0.1-0.7,0-1.3-0.3-1.6
	C86.2,96.1,85.9,95.9,85.4,95.9z"/>
<path class="st3" d="M143.8,112.1c-0.7,0.3-2.1,1.6-4.1,3.7c-2.4,2.5-4.5,4.6-6.3,6.1c0.6-0.7,1-1.3,1.2-1.9c0.3-0.6,0.4-1.3,0.5-2
	c0.1-1.5-0.1-2.9-0.7-4.3c-0.6-1.3-0.9-2.1-0.9-2.4c0-0.3,0.2-0.7,0.6-1.2c0.4-0.5,0.6-0.8,0.6-0.9c0-0.1,0-0.2-0.1-0.3
	c-0.1-0.1-0.2-0.2-0.3-0.2c-0.2,0-0.5,0.3-0.9,1c-0.2,0.3-0.3,0.6-0.4,0.7c-0.2,0.4-0.9,1.1-1.9,2.2c-0.3,0.3-0.5,0.5-0.6,0.7
	l-1.3,1.3c-0.4,0.4-0.8,0.8-1.3,1.3c-1.2,1.2-2.2,2.2-3,2.9c-2.3,2.2-4,3.7-5.2,4.4c-1.2,0.7-2.3,1.1-3.3,1.1
	c-0.4,0-0.7-0.1-0.9-0.2c-0.2-0.1-0.3-0.4-0.2-0.7c0-0.3,0.1-0.6,0.3-1.1c0.2-0.5,0.4-1.2,0.8-2.3c2.4-0.5,4.5-1.4,6.1-2.6
	c1.6-1.3,2.5-2.7,2.6-4.2c0.1-0.9-0.1-1.7-0.5-2.2c-0.4-0.5-1-0.8-1.8-0.8c-0.9,0-1.8,0.3-3,0.8c-0.9,0.4-1.8,1-2.7,1.7
	c-0.1,0.1-0.1,0.1-0.2,0.2c-0.2,0.1-0.3,0.3-0.5,0.4c-0.6,0.5-1.1,1-1.5,1.5c-0.9,0.9-1.9,2-3.2,3.4l-0.6,0.6
	c-3.3,3.6-5.3,5.4-5.7,5.4c-0.1,0-0.2,0-0.3-0.1c-0.1-0.1-0.1-0.1-0.1-0.2c0-0.4,0.6-1.4,1.6-2.8c0.2-0.2,0.3-0.4,0.4-0.5
	c0.2-0.2,0.4-0.6,0.8-1.1c1.8-2.5,2.7-4.2,2.7-4.9c0.1-0.8-0.1-1.3-0.6-1.7c-0.5-0.4-1.4-0.7-2.6-0.8c-0.9-0.1-1.5-0.3-1.7-0.4
	c-0.2-0.2-0.3-0.4-0.3-0.8c0-0.4,0.2-0.8,0-1.2c-0.1-0.1-0.2-0.2-0.4-0.2c-0.3,0-0.7,1.1-1.4,3.3l-0.1,0.2l-1.5,1.6
	c-0.2,0.2-0.5,0.6-0.9,1c-0.2,0.2-0.4,0.4-0.6,0.6c-0.5,0.6-1.1,1.2-1.7,1.8c-1.2,1.3-2.2,2.3-2.9,3c-1.1,1.2-2,2-2.6,2.5
	c-0.6,0.5-1.1,0.7-1.4,0.7c-0.1,0-0.2,0-0.3-0.1c-0.1-0.1-0.1-0.1-0.1-0.2c0-0.2,0.1-0.5,0.4-1c0.2-0.5,0.6-1.2,1.1-2.1l5.6-10.2
	l-4.8,0.4c-2.5,4-4.6,7.2-6.5,9.6c-1.9,2.4-3.1,3.6-3.7,3.6c-0.1,0-0.2-0.1-0.3-0.2c-0.1-0.1-0.1-0.2-0.1-0.4c0-0.1,0.2-0.6,0.5-1.2
	c0.4-0.7,0.8-1.6,1.5-2.7l5.2-9.1l-4.3,0.4c-2.3,2.7-5,5.1-7.3,7.8c-3.4,3.8-6,5.7-7.8,5.7c-0.6,0-1.1-0.1-1.7-0.3
	c-0.5-0.2-1.1-0.5-1.6-0.9c1.6-1.1,3-2.5,4.3-4.2c1.2-1.7,2.4-3.8,3.4-6.3c3.4-1.4,6.3-3.4,8.7-6c2.4-2.6,3.7-5.1,3.9-7.4
	c0.1-1.2-0.1-2.1-0.6-2.8c-0.5-0.7-1.3-1.1-2.2-1.1c-2,0-4.4,1.6-7.1,4.9c-2.7,3.2-5.3,7.5-7.5,12.8h-0.4c-1.6,0-2.8-0.5-3.6-1.5
	c-0.8-1-1.2-2.3-1-4c0.2-1.7,0.9-3.5,2.1-5.4c1.3-1.9,2.7-3.4,4.4-4.4c0.9-0.5,1.8-0.9,2.8-1.1c1-0.2,2-0.4,3.1-0.4
	c0.2,0,0.9,0.2,1-0.2c0-0.2-0.1-0.4-0.3-0.5c-0.2-0.1-0.8-0.1-1.5-0.1c-3.5,0-6.6,1.1-9.1,3.2c-2.6,2.2-4,4.7-4.3,7.7
	c-0.2,2.1,0.3,3.9,1.5,5.2c1.2,1.4,2.9,2.1,5.1,2.1c-0.8,1.9-1.5,3.6-2.3,5c-0.8,1.4-1.5,2.5-2.2,3.2c-1.4-0.8-2.5-1.3-3.4-1.6
	c-0.8-0.3-1.6-0.4-2.3-0.4c-1.2,0-2.1,0.3-2.9,0.8c-0.8,0.5-1.2,1.2-1.3,2c-0.1,0.9,0.3,1.6,1.1,2.2c0.8,0.6,1.9,0.9,3.2,0.9
	c1.1,0,2.3-0.2,3.5-0.5c1.2-0.3,2.2-0.8,3.3-1.5c0.7,0.5,1.4,1,2.1,1.2c0.7,0.3,1.3,0.4,2,0.4c2,0,4.8-2,8.4-6
	c1.5-1.7,3.1-3.5,4.7-5.1c-1.4,2.4-2.4,4.1-3,5.3c-0.6,1.2-0.9,2.2-1,3c-0.1,0.9,0.1,1.7,0.5,2.2c0.4,0.6,0.9,0.8,1.7,0.8
	c0.9,0,1.9-0.5,3-1.5c1.1-1,2.9-3.5,5.6-7.4c-0.9,1.8-1.6,3.2-1.8,3.9c-0.3,0.8-0.5,1.4-0.5,2c-0.1,0.9,0.1,1.7,0.5,2.2
	c0.4,0.6,1,0.8,1.8,0.8c1.4,0,3.6-1.7,6.7-5l0.1-0.1c0.6-0.6,1.4-1.5,2.4-2.6c0.1-0.1,0.3-0.3,0.4-0.4c0.2-0.1,0.6-0.5,1.1-1.1
	c0.4-0.4,0.7-0.8,1-1l1.5-1.6c0.1-0.1,0.2-0.1,0.2-0.2c0.7,0,1.5,0.1,2.2,0c0.3,0,0.9-0.1,1.6-0.2c-1.6,1-2.9,2.4-4,4.2
	c-1.1,1.8-1.8,3.3-1.9,4.8c-0.1,1,0.1,1.9,0.5,2.5c0.4,0.6,1,0.9,1.8,0.9c1.3,0,3.7-2,7.3-6l0.3-0.3c0.2-0.2,0.4-0.5,0.7-0.8
	c-0.3,0.7-0.5,1.4-0.5,2.2c-0.1,1.5,0.2,2.7,0.9,3.6c0.7,0.9,1.7,1.4,3.1,1.4c1.2,0,2.6-0.4,3.9-1.3c1.4-0.9,3.4-2.7,6.2-5.5
	c1-1,2.1-2.1,3.1-3.2c1-1.1,1.9-2,2.7-2.7l-0.1,1.2c-0.3,3.1-0.8,5.6-1.6,7.4c-0.8,1.9-1.7,2.8-2.8,2.8c-0.2,0-0.5-0.1-0.7-0.2
	c-0.2-0.1-0.4-0.3-0.6-0.6c0.1,0,0.2,0.1,0.2,0.1c0.1,0,0.2,0,0.3,0c0.3,0,0.6-0.2,0.9-0.5c0.3-0.3,0.4-0.7,0.5-1.1
	c0-0.6,0-1-0.3-1.3c-0.2-0.3-0.6-0.5-1-0.5c-0.5,0-0.9,0.2-1.3,0.6c-0.4,0.4-0.6,0.9-0.6,1.5c-0.1,0.9,0.2,1.6,0.8,2.3
	c0.6,0.6,1.4,0.9,2.4,0.9c1.3,0,2.5-0.4,3.8-1.3c1.3-0.8,3.3-2.7,5.9-5.6c0.4-0.4,1-1.1,1.7-1.9c2-2.3,3.6-3.8,4.6-4.5
	c0.1-0.1,0.1-0.2,0.2-0.2C144.3,111.9,144.1,112,143.8,112.1L143.8,112.1z M85.4,95.7c0.6,0,1,0.2,1.3,0.6c0.3,0.4,0.4,1,0.3,1.8
	c-0.1,0.8-0.5,2-1.1,3.3c-0.7,1.4-1.5,2.7-2.6,4.1c-1.2,1.5-2.4,2.7-3.6,3.7c-1.2,1-2.4,1.7-3.6,2.1C76.7,109,81,95.7,85.4,95.7
	L85.4,95.7z M60,124.5c-1,0-1.8-0.2-2.4-0.7c-0.6-0.5-0.9-1-0.9-1.6c0.1-0.6,0.4-1.1,1-1.4c0.6-0.4,1.4-0.6,2.3-0.6
	c0.7,0,1.5,0.1,2.3,0.4c0.8,0.3,1.8,0.8,2.9,1.4C63.8,123.5,62,124.5,60,124.5L60,124.5z M119.9,113.5L119.9,113.5
	c1.2-1.6,2.2-2.3,2.8-2.3c0.2,0,0.4,0.1,0.6,0.4c0.2,0.3,0.2,0.6,0.2,1c-0.1,1.3-0.9,2.7-2.3,4.1c-1.4,1.4-2.9,2.3-4.5,2.6
	C117.6,116.9,118.7,115,119.9,113.5L119.9,113.5z"/>
</svg>
