<?xml version="1.0" encoding="utf-8"?>
<!-- Generator: Adobe Illustrator 23.0.6, SVG Export Plug-In . SVG Version: 6.00 Build 0)  -->
<svg version="1.1" id="Layer_1" xmlns="http://www.w3.org/2000/svg" xmlns:xlink="http://www.w3.org/1999/xlink" x="0px" y="0px"
	 viewBox="0 0 200 200" style="enable-background:new 0 0 200 200;" xml:space="preserve">
<style type="text/css">
	.st0{fill:#231F20;}
	.st1{fill:#FF8300;}
</style>
<g>
	<g>
		<g>
			<g>
				<polygon class="st0" points="102,131 107.3,123.9 109.7,132 116.8,132 111.4,112.8 105.5,112.8 102,117 98.4,112.9 92.4,112.9 
					87.7,132 94.2,132 97.1,123.8 				"/>
				<path class="st0" d="M82.2,112.8h-7l-13.5,19.1h7.8l3.2-4.7h5.5l0.4,4.7h7.2L82.2,112.8z M75.8,121.7l2.6-4l0.4,4H75.8z"/>
				<path class="st0" d="M60.4,129.5c1.1-2.4,1.6-3.9,2.8-7c1.1-2.7-1.7-2.6-1.7-2.6l-7.2,0.1c0,0-1.2-0.7-0.8-1.7
					c0.4-1,1.2-1,1.2-1l10,0.1l1.8-4.5H51.2c0,0-1-0.2-1.6,0.6c-0.5,0.8-2.2,3.7-4.2,6.9c-2,3.2,1.5,4,1.5,4l6.4,0.1
					c0,0,0.9,0.8,0.6,1.5c-0.3,0.9-1.2,1.2-1.2,1.2l-10.2,0.1l-2.6,4.7h16.6C56.6,131.9,59.3,131.9,60.4,129.5z"/>
				<path class="st0" d="M135.7,123c-0.6-2.3-2.3-7.8-2.7-9c-0.4-1.2-2.2-1.2-2.2-1.2h-15l3.3,19l7-0.1l-1.1-6h8.1
					C133.1,125.8,136.4,125.4,135.7,123z M127.8,117.2l1.1,1.2l-0.7,1.8L125,120l-0.6-2.8H127.8z"/>
				<path class="st0" d="M159.6,128.2c-1.7-3.2-6.6-12.6-7.3-14.1c-0.7-1.5-2.2-1.2-2.2-1.2h-12.8c0,0-2.7,0.2-1.7,3.1
					c1,2.9,4.9,13.6,5.4,14.9c0.5,1.2,1.8,1,1.8,1h14.9C157.6,131.8,161.3,131.5,159.6,128.2z M148.9,125.4l-1-0.7l-2.3-4.9l0.5-1.1
					l2.3,0.2l2.3,5.2l-0.6,1.4H148.9z"/>
				<path class="st0" d="M86,155c2.4,0,4.8,0,7.2,0c0.3-6.5,0.6-12.9,0.8-19.4c-2.1,0-4.3,0-6.4,0C87.1,142.1,86.5,148.5,86,155z"/>
				<path class="st0" d="M131.7,152.6l-0.5-2.8h-7.9c-0.1-1-0.3-1.9-0.4-2.9h6.4l-0.8-4.5h-6.2c-0.1-0.8-0.2-1.6-0.3-2.4h7.4l-0.4-2
					c0,0,0,0,0,0c-0.1-0.8-0.3-1.6-0.4-2.4c-3.5,0-7.1,0-10.6,0c-0.9,0-1.6,0.3-2.1,0.8c-0.5,0.6-0.7,1.3-0.6,2.2
					c0.4,4.4,0.8,8.9,1.3,13.3c0.1,0.9,0.4,1.7,1.1,2.2c0.7,0.6,1.5,0.8,2.6,0.8c4,0,8,0,12,0C132,154.2,131.8,153.4,131.7,152.6
					C131.7,152.6,131.7,152.6,131.7,152.6z"/>
				<path class="st0" d="M149.1,152.6l-0.7-2.5h-7.9c-1.2-4.8-2.3-9.7-3.5-14.5c-2.1,0-4.3,0-6.4,0c1.3,6.5,2.5,12.9,3.8,19.4
					c5.1,0,10.3,0,15.4,0C149.5,154.2,149.3,153.4,149.1,152.6L149.1,152.6z"/>
				<path class="st0" d="M170.7,152.3c-1.1-2.4-2-3.9-3.6-7c-1.4-2.7-4.1-2.6-4.1-2.6l-7.3,0.1c0,0-1.9-0.7-2.4-1.7
					c-0.5-1,0.4-1,0.4-1l10.2,0.1l-2.2-4.5H146c0,0-1.3-0.2-1,0.6c0.2,0.8,1.2,3.7,2.1,6.9c0.9,3.2,5.2,4,5.2,4l6.5,0.1
					c0,0,1.6,0.8,2,1.5c0.5,0.9-0.1,1.2-0.1,1.2l-10.3,0.1l1.7,4.7H169C169,154.7,171.8,154.7,170.7,152.3z"/>
				<path class="st0" d="M44.1,139.8l10.1,0.1l1.9-4.5H40.5c0,0-1.1-0.2-1.6,0.6c-0.5,0.8-2.3,3.7-4.3,6.9c-2,3.2,1.6,4,1.6,4
					l6.5,0.1c0,0,0.9,0.8,0.6,1.5c-0.3,0.9-1.2,1.2-1.2,1.2l-10.3,0.1l-2.6,4.7h16.8c0,0,2.8,0,3.9-2.4c1.1-2.4,1.6-3.9,2.8-7
					c1.1-2.7-1.7-2.6-1.7-2.6l-7.3,0.1c0,0-1.2-0.7-0.8-1.7C43.3,139.8,44.1,139.8,44.1,139.8z"/>
				<polygon class="st0" points="80.5,135.5 74.9,146.2 71.9,137 64.2,145.4 64.1,135.6 57.7,135.6 57.5,154.6 64.5,154.5 
					68.6,149.1 72.1,154.5 77.7,154.5 86.1,135.5 				"/>
				<path class="st0" d="M112.2,135.6l-4.5,0l-1.7,11.5c-1.2-3.8-2.4-7.6-3.4-11.5c-2.1,0-4.3,0-6.4,0c1.5,6.5,3.3,12.9,5.3,19.4
					c2.4,0,4.8,0,7.2,0c1.7-6.5,3.1-12.9,4.3-19.4C112.7,135.6,112.4,135.6,112.2,135.6L112.2,135.6z"/>
			</g>
			<polygon class="st1" points="85.1,45 115.2,45 125.1,64 99,64 97.5,68.2 127.1,68.2 149,108.9 51.5,108.9 61.1,90.6 114.5,90.6 
				113.1,85.9 63.9,85.9 			"/>
		</g>
	</g>
	<g>
		<path d="M173.9,151.5c0.8,0,1.5,0.6,1.5,1.5c0,0.8-0.7,1.5-1.5,1.5s-1.5-0.7-1.5-1.5C172.4,152.2,173,151.5,173.9,151.5
			L173.9,151.5z M173.9,151.8c-0.6,0-1.1,0.5-1.1,1.2c0,0.7,0.5,1.2,1.2,1.2c0.6,0,1.1-0.5,1.1-1.2
			C175,152.3,174.5,151.8,173.9,151.8L173.9,151.8z M173.7,153.7h-0.3v-1.5c0.1,0,0.3,0,0.6,0c0.3,0,0.4,0,0.5,0.1
			c0.1,0.1,0.2,0.2,0.2,0.3c0,0.2-0.1,0.3-0.3,0.4v0c0.1,0,0.2,0.2,0.3,0.4c0,0.2,0.1,0.3,0.1,0.4h-0.4c0-0.1-0.1-0.2-0.1-0.4
			c0-0.2-0.1-0.2-0.3-0.2h-0.2V153.7z M173.7,152.9h0.2c0.2,0,0.3-0.1,0.3-0.2c0-0.1-0.1-0.2-0.3-0.2c-0.1,0-0.2,0-0.2,0V152.9z"/>
	</g>
</g>
</svg>
