<?xml version="1.0" encoding="utf-8"?>
<!-- Generator: Adobe Illustrator 23.0.6, SVG Export Plug-In . SVG Version: 6.00 Build 0)  -->
<svg version="1.1" id="Layer_1" xmlns="http://www.w3.org/2000/svg" xmlns:xlink="http://www.w3.org/1999/xlink" x="0px" y="0px"
	 viewBox="0 0 200 200" style="enable-background:new 0 0 200 200;" xml:space="preserve">
<style type="text/css">
	.st0{fill:#95C83E;}
</style>
<g>
	<polygon class="st0" points="21.7,89.5 21.7,95 27.5,95 27.5,110.6 33.7,110.6 33.7,95 39.5,95 39.5,89.5 	"/>
	<path class="st0" d="M59.2,110.6h-6.5l-1.5-4.3h-5.8l-1.5,4.3h-6.4l8-21.1h5.7L59.2,110.6z M47.2,101.2h2.2L48.3,98L47.2,101.2z"/>
	<polygon class="st0" points="178.3,110.6 172.4,110.6 172.4,101.7 169.3,110.6 164.6,110.6 161.5,101.8 161.5,110.6 155.5,110.6 
		155.5,89.5 163.2,89.5 167,100.6 170.6,89.5 178.3,89.5 	"/>
	<path class="st0" d="M155.2,110.6h-6.5l-1.5-4.3h-5.8l-1.5,4.3h-6.4l8-21.1h5.7L155.2,110.6z M143.2,101.2h2.2l-1.1-3.2
		L143.2,101.2z"/>
	<path class="st0" d="M125,111c-1.6,0-3.1-0.3-4.4-0.8c-1.3-0.6-2.4-1.4-3.3-2.3c-0.9-1-1.6-2.2-2.1-3.5c-0.5-1.3-0.7-2.7-0.7-4.2
		c0-1.5,0.2-3,0.7-4.3c0.5-1.3,1.2-2.5,2.1-3.5c0.9-1,2-1.8,3.3-2.4c1.3-0.6,2.8-0.9,4.4-0.9c1.2,0,2.3,0.2,3.3,0.5
		c1.1,0.3,2,0.8,2.8,1.5c0.8,0.7,1.6,1.5,2.1,2.5c0.6,1,0.9,2.1,1,3.3l0.1,1.1h-6.1l-0.1-0.8c-0.1-0.4-0.2-0.7-0.3-1
		c-0.2-0.3-0.4-0.6-0.7-0.8c-0.3-0.2-0.6-0.4-1-0.6c-0.4-0.1-0.8-0.2-1.2-0.2c-0.8,0-1.4,0.1-2,0.4c-0.5,0.3-1,0.7-1.3,1.2
		c-0.3,0.5-0.6,1.1-0.8,1.8c-0.2,0.7-0.3,1.5-0.3,2.2c0,0.7,0.1,1.4,0.3,2.1c0.2,0.6,0.4,1.2,0.8,1.7c0.3,0.5,0.7,0.9,1.3,1.2
		c0.5,0.3,1.2,0.4,2,0.4c1,0,1.8-0.3,2.3-0.9c0.6-0.6,0.9-1.5,1.1-2.6l0.1-0.9h6.1l-0.1,1.1c-0.1,1.3-0.4,2.5-0.9,3.6
		c-0.5,1.1-1.2,2-2,2.8c-0.8,0.8-1.8,1.4-2.9,1.8C127.5,110.8,126.3,111,125,111"/>
	<path class="st0" d="M107,89.5h-5.7l-8,21.1h6.4l1.5-4.3h5.8l1.5,4.3h6.5L107,89.5z M107.8,100.2c-0.1,1.8-1.6,3.3-3.4,3.4v-2.5
		h-0.6v2.5c-1.8-0.1-3.3-1.6-3.4-3.4h2.5v-0.6h-2.5c0.1-1.8,1.6-3.3,3.4-3.4v2.5h0.6v-2.5c1.8,0.1,3.3,1.6,3.4,3.4h-2.5v0.6H107.8z"
		/>
	<polygon class="st0" points="90.1,110.6 83.8,110.6 83.8,95 78.1,95 78.1,89.5 95.8,89.5 95.8,95 90.1,95 	"/>
	<path class="st0" d="M68.6,111c-1.6,0-3.1-0.3-4.4-0.8c-1.3-0.6-2.4-1.4-3.3-2.3c-0.9-1-1.6-2.2-2.1-3.5c-0.5-1.3-0.7-2.7-0.7-4.2
		c0-1.5,0.2-3,0.7-4.3c0.5-1.3,1.2-2.5,2.1-3.5c0.9-1,2-1.8,3.3-2.4c1.3-0.6,2.8-0.9,4.4-0.9c1.2,0,2.3,0.2,3.3,0.5
		c1.1,0.3,2,0.8,2.8,1.5c0.8,0.7,1.6,1.5,2.1,2.5c0.6,1,0.9,2.1,1,3.3l0.1,1.1H72L71.9,97c-0.1-0.4-0.2-0.7-0.3-1
		c-0.2-0.3-0.4-0.6-0.7-0.8c-0.3-0.2-0.6-0.4-1-0.6c-0.4-0.1-0.8-0.2-1.2-0.2c-0.8,0-1.4,0.1-2,0.4c-0.5,0.3-1,0.7-1.3,1.2
		c-0.3,0.5-0.6,1.1-0.8,1.8c-0.2,0.7-0.3,1.5-0.3,2.2c0,0.7,0.1,1.4,0.3,2.1c0.2,0.6,0.4,1.2,0.8,1.7c0.3,0.5,0.7,0.9,1.3,1.2
		c0.5,0.3,1.2,0.4,2,0.4c1,0,1.8-0.3,2.3-0.9c0.6-0.6,0.9-1.5,1.1-2.6l0.1-0.9h6.1l-0.1,1.1c-0.1,1.3-0.4,2.5-0.9,3.6
		c-0.5,1.1-1.2,2-2,2.8c-0.8,0.8-1.8,1.4-2.9,1.8C71.2,110.8,69.9,111,68.6,111"/>
	<polygon class="st0" points="182.5,92.4 181.8,92.4 181.8,90 180.9,90 180.9,89.5 183.5,89.5 183.5,90 182.5,90 	"/>
	<polygon class="st0" points="187,92.4 186.3,92.4 186.3,89.9 186.3,89.9 185.7,92.4 185.1,92.4 184.5,89.9 184.5,89.9 184.5,92.4 
		183.8,92.4 183.8,89.5 184.8,89.5 185.4,91.8 185.4,91.8 186,89.5 187,89.5 	"/>
</g>
</svg>
