<?xml version="1.0" encoding="utf-8"?>
<!-- Generator: Adobe Illustrator 27.8.1, SVG Export Plug-In . SVG Version: 6.00 Build 0)  -->
<svg version="1.1" id="Layer_1" xmlns="http://www.w3.org/2000/svg" xmlns:xlink="http://www.w3.org/1999/xlink" x="0px" y="0px"
	 viewBox="0 0 200 200" style="enable-background:new 0 0 200 200;" xml:space="preserve">
<style type="text/css">
	.st0{fill:#231F20;}
	.st1{fill:#7AC143;}
</style>
<g>
	<g>
		<path class="st0" d="M24.6,118H30l4,27.3l3.7-27.3H43L36.4,158h-4.9L24.6,118z"/>
		<path class="st0" d="M54,158h-5.1V118H54V158z"/>
		<path class="st0" d="M66.5,158h-5.1V118h13.3c2.5,0,3.5,1.5,3.5,3.4c0,5.6,0,9.2,0,14.7c0,2.3-1.6,3.4-3.5,3.4h-0.6l5,18.6h-5.8
			L68,136.7l0.9-1.6H73v-12.8h-6.5V158z"/>
		<path class="st0" d="M90.3,158h-5.1V118h5.1V158z"/>
		<path class="st0" d="M97.7,118h8.9c3.8,0,7.4,2.1,7.4,6.7c0,11,0,15.9,0,26.9c0,4.4-3.6,6.4-7.2,6.4h-9.1V118z M102.8,153.7h2.5
			c2.4,0,3.6-1.5,3.6-3.4c0-9.1,0-15.6,0-24.7c0-1.9-1.4-3.3-3.4-3.3h-2.7V153.7z"/>
		<path class="st0" d="M126.1,158H121V118h5.1V158z"/>
		<path class="st0" d="M147.2,158l-1.2-7.8h-7.2l-1.3,7.8h-5.1l7.4-40.1h5.3l7.3,40.1H147.2z M142.7,130.4h-0.4l-2.8,15.4h5.8
			L142.7,130.4z"/>
		<path class="st0" d="M163.5,136.8V158h-4.8V118h2.7l9.3,21.9V118h4.8V158h-2.8L163.5,136.8z"/>
	</g>
	<path class="st0" d="M181.7,118c1.7,0,2.9,1.2,2.9,2.9c0,1.7-1.1,2.9-2.9,2.9s-2.9-1.1-2.9-2.9C178.8,119.1,180,118,181.7,118z
		 M179.4,120.9c0,1.6,0.9,2.4,2.3,2.4c1.5,0,2.3-0.9,2.3-2.4c0-1.5-0.8-2.4-2.3-2.4C180.2,118.5,179.4,119.4,179.4,120.9z
		 M181.4,122.5h-0.8v-3.4h1.6c0.4,0,0.6,0.3,0.6,0.6c0,0.3,0,0.8,0,1c0,0.3-0.2,0.5-0.5,0.5h-0.1l0.7,1.3h-0.8l-0.6-1.2v-0.7h0.5
		v-0.8h-0.8V122.5z"/>
</g>
<g>
	<path class="st1" d="M32.4,173.1L32.4,173.1l1.4-9.4h1.8l-2.2,14.9h-1.7l-1.2-9h-0.1l-1.2,9h-1.7l-2.1-14.9h1.9l1,9.4h0.1l1.2-9.4
		h1.7L32.4,173.1z"/>
	<path class="st1" d="M42.3,178.5h-4.8v-14.9h4.8v1.6h-2.9v4.8h2.7v1.6h-2.7v5.2h2.9V178.5z"/>
	<path class="st1" d="M49.6,178.5l-0.4-2.9h-2.7l-0.5,2.9h-1.9l2.8-14.9h2l2.7,14.9H49.6z M47.9,168.2h-0.1l-1,5.7h2.1L47.9,168.2z"
		/>
	<path class="st1" d="M55.4,178.5h-1.9v-14.9h4.7c0.9,0,1.4,0.5,1.4,1.2c0,2.6,0,4,0,6.6c0,0.8-0.5,1.3-1.3,1.3h-2.9V178.5z
		 M55.4,171.2h2.3v-5.9h-2.3V171.2z"/>
	<path class="st1" d="M68.4,177.3c0,0.8-0.7,1.2-1.2,1.2c-1.6,0-2.6,0-4.2,0c-0.5,0-1.2-0.4-1.2-1.2c0-4.9,0-7.6,0-12.5
		c0-0.8,0.7-1.2,1.2-1.2c1.6,0,2.6,0,4.2,0c0.5,0,1.2,0.4,1.2,1.2C68.4,169.7,68.4,172.4,68.4,177.3z M66.5,165.2h-2.7v11.6h2.7
		V165.2z"/>
	<path class="st1" d="M72.5,170.6v7.9h-1.8v-14.9h1l3.4,8.1v-8.1H77v14.9h-1L72.5,170.6z"/>
	<path class="st1" d="M88.1,178.5h-1.9v-13.2h-2.1v-1.6h6v1.6h-2.1V178.5z"/>
	<path class="st1" d="M97,178.5h-4.8v-14.9h4.8v1.6H94v4.8h2.7v1.6H94v5.2H97V178.5z"/>
	<path class="st1" d="M103.3,173.3h1.9v3.9c0,0.7-0.5,1.2-1.2,1.2c-1.4,0-2.3,0-3.7,0c-0.7,0-1.2-0.5-1.2-1.2c0-4.9,0-7.5,0-12.4
		c0-0.7,0.5-1.2,1.2-1.2c1.4,0,2.4,0,3.8,0c0.7,0,1.2,0.5,1.2,1.2v3.1h-1.9v-2.7H101v11.6h2.3V173.3z"/>
	<path class="st1" d="M109.3,171.7v6.8h-1.9v-14.9h1.9v6.2h2.6v-6.2h1.9v14.9h-1.9v-6.8H109.3z"/>
	<path class="st1" d="M118,170.6v7.9h-1.8v-14.9h1l3.4,8.1v-8.1h1.8v14.9h-1L118,170.6z"/>
	<path class="st1" d="M131.3,177.3c0,0.8-0.7,1.2-1.2,1.2c-1.6,0-2.6,0-4.2,0c-0.5,0-1.2-0.4-1.2-1.2c0-4.9,0-7.6,0-12.5
		c0-0.8,0.7-1.2,1.2-1.2c1.6,0,2.6,0,4.2,0c0.5,0,1.2,0.4,1.2,1.2C131.3,169.7,131.3,172.4,131.3,177.3z M129.4,165.2h-2.7v11.6h2.7
		V165.2z"/>
	<path class="st1" d="M138.9,178.5h-5.2v-14.9h1.9v13.2h3.3V178.5z"/>
	<path class="st1" d="M147.4,177.3c0,0.8-0.7,1.2-1.2,1.2c-1.6,0-2.6,0-4.2,0c-0.5,0-1.2-0.4-1.2-1.2c0-4.9,0-7.6,0-12.5
		c0-0.8,0.7-1.2,1.2-1.2c1.6,0,2.6,0,4.2,0c0.5,0,1.2,0.4,1.2,1.2C147.4,169.7,147.4,172.4,147.4,177.3z M145.5,165.2h-2.7v11.6h2.7
		V165.2z"/>
	<path class="st1" d="M153.8,172.4h-1v-1.6h2.9v6.5c0,0.8-0.4,1.2-1.2,1.2c-1.3,0-2.3,0-3.6,0c-0.7,0-1.2-0.5-1.2-1.2
		c0-4.9,0-7.5,0-12.4c0-0.7,0.4-1.2,1.2-1.2c1.3,0,2.3,0,3.6,0c0.8,0,1.2,0.4,1.2,1.2v3.2h-1.9v-2.9h-2.2v11.6h2.2V172.4z"/>
	<path class="st1" d="M159.9,178.5H158v-14.9h1.9V178.5z"/>
	<path class="st1" d="M167.2,178.5h-4.8v-14.9h4.8v1.6h-2.9v4.8h2.7v1.6h-2.7v5.2h2.9V178.5z"/>
	<path class="st1" d="M171.1,173.4v3.5h1.6v-3.4l-3.2-4.5c-0.2-0.3-0.4-0.6-0.4-1c0-1.3,0-1.8,0-3.2c0-0.6,0.5-1.2,1.2-1.2
		c1.1,0,2,0,3.2,0c0.7,0,1.2,0.5,1.2,1.2v3h-1.9v-2.7h-1.6v2.6l3,4.3c0.3,0.4,0.5,0.8,0.5,1.2c0,1.7,0,2.2,0,3.9
		c0,0.7-0.4,1.2-1.2,1.2c-1.1,0-2,0-3.2,0c-0.6,0-1.2-0.4-1.2-1.2v-3.9H171.1z"/>
</g>
<polygon class="st1" points="122.7,21.5 121,21.5 112.8,35.7 121.3,50.5 110.6,68.9 89.4,68.9 78.7,50.5 87.2,35.7 79,21.5 
	77.3,21.5 54.6,60.8 66.8,81.9 83.2,81.9 93.7,100.1 106.3,100.1 116.8,81.9 133.2,81.9 145.4,60.8 "/>
</svg>
